<svg width="930" height="106" viewBox="0 0 930 106" fill="none" xmlns="http://www.w3.org/2000/svg">
<path d="M0 0H910C921.046 0 930 8.95431 930 20V86C930 97.0457 921.046 106 910 106H0V0Z" fill="#A33126"/>
<path d="M296.08 59.688H293.92V53.688H296.08V59.688ZM298.816 46.392V43.8H290.104V46.392H292.648C292.048 49.536 291.064 52.44 289.6 54.408C289.984 55.224 290.488 57.048 290.584 57.816C290.92 57.408 291.232 56.976 291.544 56.52V63.96H293.92V62.208H298.504V51.168H294.016C294.544 49.632 294.976 48 295.312 46.392H298.816ZM304.288 52.44V46.512H306.976V52.44H304.288ZM312.208 52.44H309.688V46.512H311.728V43.872H299.968V46.512H301.624V52.44H299.344V55.128H301.576C301.432 58.056 300.832 61.392 298.768 63.624C299.416 63.984 300.448 64.776 300.928 65.28C303.4 62.664 304.096 58.656 304.24 55.128H306.976V65.112H309.688V55.128H312.208V52.44ZM327.232 47.28V50.544C327.232 52.944 327.808 53.736 330.424 53.736H333.112C335.008 53.736 335.752 53.064 336.064 50.568C335.296 50.4 334.12 49.968 333.592 49.584C333.496 51 333.376 51.216 332.8 51.216H330.88C330.16 51.216 330.064 51.144 330.064 50.496V47.28H333.448V49.416H336.448V44.736H327.472V42.672H324.544V44.736H315.712V49.632H318.592V47.28H321.568C321.208 49.824 320.224 51.312 315.256 52.128C315.784 52.656 316.48 53.712 316.72 54.432C322.696 53.256 324.064 50.976 324.592 47.28H327.232ZM332.656 62.112C332.152 62.112 332.056 62.016 332.056 61.272V55.296H325.864V52.656H322.984V55.296H316.696V57.936H322.6C321.856 59.76 319.888 61.608 314.896 62.856C315.496 63.48 316.384 64.488 316.792 65.208C323.032 63.6 325.072 60.72 325.672 57.936H329.056V61.296C329.056 64.104 329.776 64.92 332.128 64.92H334.288C336.352 64.92 337.096 63.864 337.36 59.904C336.592 59.688 335.248 59.208 334.672 58.704C334.576 61.704 334.48 62.112 333.976 62.112H332.656ZM360.256 47.016L357.904 45.504C357.256 45.672 356.488 45.696 356.008 45.696H344.92C344.128 45.696 342.76 45.576 342.04 45.504V48.888C342.664 48.84 343.816 48.792 344.896 48.792H356.08C355.768 50.832 354.856 53.568 353.272 55.56C351.328 57.984 348.616 60.072 343.864 61.2L346.48 64.056C350.752 62.688 353.944 60.312 356.128 57.432C358.12 54.768 359.176 51.048 359.728 48.696C359.848 48.192 360.04 47.496 360.256 47.016ZM365.979 56.16L367.395 58.992C369.483 58.344 372.171 57.24 374.283 56.184V62.52C374.283 63.36 374.211 64.632 374.163 65.112H377.715C377.571 64.632 377.547 63.36 377.547 62.52V54.288C379.683 52.872 381.795 51.168 382.923 49.92L380.547 47.592C379.323 49.152 376.899 51.312 374.571 52.728C372.675 53.88 369.099 55.488 365.979 56.16ZM390.579 51.888V55.656C391.467 55.584 393.075 55.536 394.443 55.536H407.331C408.339 55.536 409.563 55.632 410.139 55.656V51.888C409.515 51.936 408.459 52.032 407.331 52.032H394.443C393.195 52.032 391.443 51.96 390.579 51.888ZM425.403 62.472L427.419 64.128C427.635 63.936 427.923 63.696 428.451 63.408C431.139 62.04 434.595 59.448 436.587 56.856L434.739 54.216C433.131 56.544 430.755 58.44 428.811 59.28V46.728C428.811 45.648 428.955 44.712 428.979 44.64H425.403C425.427 44.712 425.595 45.624 425.595 46.704V60.696C425.595 61.344 425.499 62.016 425.403 62.472ZM414.291 62.112L417.219 64.056C419.259 62.232 420.771 59.88 421.491 57.168C422.139 54.744 422.211 49.68 422.211 46.848C422.211 45.84 422.355 44.784 422.379 44.664H418.851C418.995 45.264 419.067 45.912 419.067 46.872C419.067 49.776 419.043 54.312 418.371 56.376C417.699 58.416 416.403 60.624 414.291 62.112ZM454.659 45.144L452.643 45.984C453.531 47.232 454.059 48.192 454.755 49.704L456.843 48.768C456.291 47.688 455.331 46.152 454.659 45.144ZM457.803 43.824L455.811 44.76C456.699 45.96 457.275 46.848 458.043 48.36L460.059 47.376C459.507 46.296 458.499 44.784 457.803 43.824ZM445.083 61.056C445.083 61.992 444.987 63.456 444.843 64.392H448.611C448.491 63.408 448.371 61.728 448.371 61.056V54.264C450.963 55.128 454.563 56.52 457.059 57.84L458.403 54.504C456.195 53.424 451.563 51.72 448.371 50.76V47.256C448.371 46.248 448.491 45.192 448.587 44.352H444.843C445.011 45.216 445.083 46.392 445.083 47.256V61.056ZM482.799 45.432L479.055 44.472C478.407 47.904 476.823 52.056 474.519 54.84C472.383 57.432 469.143 59.808 465.399 61.08L468.135 63.888C471.831 62.4 475.191 59.472 477.231 56.928C479.175 54.504 480.735 50.88 481.743 48.12C482.031 47.352 482.367 46.296 482.799 45.432ZM489.95 51.888V55.656C490.838 55.584 492.446 55.536 493.814 55.536H506.702C507.71 55.536 508.934 55.632 509.51 55.656V51.888C508.886 51.936 507.83 52.032 506.702 52.032H493.814C492.566 52.032 490.814 51.96 489.95 51.888ZM520.238 60.696C520.238 61.656 520.142 63.096 519.998 64.056H523.742C523.647 63.072 523.527 61.392 523.527 60.696V53.904C526.118 54.792 529.719 56.184 532.191 57.48L533.558 54.168C531.35 53.088 526.743 51.384 523.527 50.448V46.896C523.527 45.912 523.647 44.856 523.742 44.016H519.998C520.166 44.856 520.238 46.056 520.238 46.896V60.696ZM549.039 59.88C549.039 58.968 549.951 58.392 551.319 58.392C551.967 58.392 552.615 58.488 553.239 58.656C553.239 58.824 553.239 58.968 553.239 59.088C553.239 60.504 552.735 61.272 551.271 61.272C549.999 61.272 549.039 60.864 549.039 59.88ZM556.167 44.208H552.735C552.831 44.688 552.903 45.432 552.903 45.792C552.903 46.296 552.927 47.28 552.927 48.456C552.375 48.48 551.799 48.48 551.247 48.48C549.807 48.48 548.415 48.408 547.047 48.264V51.12C548.463 51.216 549.831 51.264 551.247 51.264C551.799 51.264 552.375 51.264 552.951 51.24C552.975 52.944 553.071 54.696 553.119 56.184C552.639 56.112 552.111 56.088 551.559 56.088C548.295 56.088 546.231 57.768 546.231 60.192C546.231 62.712 548.295 64.104 551.607 64.104C554.847 64.104 556.143 62.472 556.287 60.168C557.247 60.816 558.207 61.656 559.215 62.592L560.871 60.072C559.719 59.016 558.207 57.792 556.215 56.976C556.119 55.344 555.999 53.424 555.951 51.096C557.271 51 558.519 50.856 559.671 50.688V47.688C558.519 47.928 557.271 48.12 555.951 48.24C555.975 47.184 555.999 46.296 556.023 45.768C556.047 45.24 556.095 44.664 556.167 44.208ZM544.455 44.472L541.143 44.184C541.119 44.952 540.999 45.864 540.903 46.536C540.639 48.384 539.919 52.92 539.919 56.544C539.919 59.808 540.375 62.544 540.879 64.224L543.591 64.008C543.567 63.672 543.543 63.264 543.543 63.024C543.543 62.76 543.591 62.232 543.663 61.896C543.951 60.6 544.719 58.152 545.391 56.184L543.927 54.984C543.567 55.8 543.159 56.616 542.847 57.456C542.775 56.976 542.751 56.376 542.751 55.896C542.751 53.496 543.543 48.216 543.903 46.608C543.975 46.176 544.263 44.952 544.455 44.472ZM567.854 45.552V48.72C569.798 48.888 571.886 48.984 574.406 48.984C576.686 48.984 579.662 48.84 581.342 48.696V45.504C579.494 45.696 576.758 45.84 574.382 45.84C571.862 45.84 569.63 45.744 567.854 45.552ZM569.87 55.728L566.726 55.44C566.534 56.328 566.246 57.504 566.246 58.896C566.246 62.184 569.006 64.032 574.502 64.032C577.862 64.032 580.742 63.72 582.83 63.216L582.806 59.832C580.694 60.432 577.622 60.792 574.382 60.792C570.926 60.792 569.462 59.688 569.462 58.152C569.462 57.336 569.63 56.592 569.87 55.728ZM598.454 43.872L595.046 43.728C595.094 44.52 595.07 45.12 594.926 46.152C594.878 46.44 594.83 46.776 594.782 47.136C593.318 47.112 591.518 46.92 590.078 46.68V49.656C591.302 49.776 592.718 49.848 594.23 49.872C593.606 52.512 592.646 55.704 591.494 57.936L594.326 58.944C594.566 58.536 594.734 58.224 594.998 57.888C596.438 56.064 598.886 55.08 601.646 55.08C603.998 55.08 605.222 56.28 605.222 57.72C605.222 61.248 599.918 61.896 594.662 61.032L595.502 64.128C603.254 64.968 608.462 63.024 608.462 57.624C608.462 54.552 605.894 52.488 602.006 52.488C599.87 52.488 597.998 52.92 596.054 54C596.414 52.824 596.798 51.288 597.134 49.824C600.35 49.656 604.166 49.2 606.662 48.792L606.614 45.936C603.71 46.56 600.47 46.92 597.734 47.064C597.782 46.8 597.83 46.536 597.878 46.32C598.046 45.528 598.19 44.712 598.454 43.872ZM620.559 43.68L619.791 46.56C621.663 47.04 627.015 48.168 629.439 48.48L630.159 45.552C628.071 45.312 622.839 44.4 620.559 43.68ZM620.703 48.504L617.487 48.048C617.319 51.024 616.767 55.728 616.287 58.08L619.047 58.776C619.263 58.296 619.503 57.912 619.935 57.384C621.447 55.56 623.895 54.552 626.607 54.552C628.695 54.552 630.183 55.704 630.183 57.264C630.183 60.312 626.367 62.064 619.167 61.08L620.079 64.224C630.063 65.064 633.519 61.704 633.519 57.336C633.519 54.432 631.071 51.84 626.871 51.84C624.351 51.84 621.975 52.536 619.791 54.12C619.959 52.752 620.391 49.824 620.703 48.504ZM648.591 44.04L645.015 43.68C645.039 45.192 644.847 46.944 644.511 48.768C643.287 48.864 642.159 48.936 641.415 48.96C640.527 48.984 639.711 49.032 638.847 48.96L639.135 52.224C639.855 52.104 641.127 51.936 641.799 51.816C642.255 51.768 642.999 51.672 643.863 51.576C642.999 54.864 641.343 59.712 639.015 62.856L642.135 64.104C644.343 60.576 646.119 54.888 647.031 51.24C647.703 51.192 648.303 51.144 648.687 51.144C650.199 51.144 651.015 51.408 651.015 53.328C651.015 55.704 650.703 58.608 650.055 59.976C649.671 60.768 649.047 61.008 648.255 61.008C647.607 61.008 646.239 60.768 645.303 60.504L645.831 63.672C646.647 63.84 647.775 64.008 648.711 64.008C650.511 64.008 651.855 63.48 652.647 61.8C653.679 59.712 654.015 55.824 654.015 52.992C654.015 49.536 652.215 48.408 649.671 48.408C649.167 48.408 648.447 48.456 647.655 48.504C647.823 47.64 647.991 46.752 648.159 46.032C648.279 45.432 648.447 44.664 648.591 44.04ZM656.847 46.296L653.991 47.52C655.695 49.632 657.399 53.976 658.023 56.64L661.071 55.224C660.351 52.944 658.335 48.36 656.847 46.296ZM670.478 43.68L669.71 46.56C671.582 47.04 676.934 48.168 679.358 48.48L680.078 45.552C677.99 45.312 672.758 44.4 670.478 43.68ZM670.622 48.504L667.406 48.048C667.238 51.024 666.686 55.728 666.206 58.08L668.966 58.776C669.182 58.296 669.422 57.912 669.854 57.384C671.366 55.56 673.814 54.552 676.526 54.552C678.614 54.552 680.102 55.704 680.102 57.264C680.102 60.312 676.286 62.064 669.086 61.08L669.998 64.224C679.982 65.064 683.438 61.704 683.438 57.336C683.438 54.432 680.99 51.84 676.79 51.84C674.27 51.84 671.894 52.536 669.71 54.12C669.878 52.752 670.31 49.824 670.622 48.504Z" fill="white"/>
<path d="M289 66.6H686.462V67.8H289V66.6Z" fill="white"/>
<a href="https://unique-koala-543.notion.site/NE20-1052B_FIELD-NOTE-5ecb3a86e7474dc2b725827a2a4b8f6a">
<rect fill="black" fill-opacity="0" y="1.624" width="397.462" height="34.752"/>
</a>
<path d="M220 78C218.625 78 217.448 77.5108 216.47 76.5325C215.49 75.5525 215 74.375 215 73V33C215 31.625 215.49 30.4475 216.47 29.4675C217.448 28.4892 218.625 28 220 28H240L255 43V73C255 74.375 254.511 75.5525 253.533 76.5325C252.553 77.5108 251.375 78 250 78H220ZM237.5 45.5H250L237.5 33V45.5Z" fill="white"/>
</svg>
