<svg width="576" height="48" viewBox="0 0 576 48" fill="none" xmlns="http://www.w3.org/2000/svg">
<path d="M19.008 0.0479994H0.864V29.664H3.984V3.168H19.008V0.0479994ZM69.408 5.856H56.976V2.352H53.568V5.856H42.288V2.352H38.88V5.856H26.496V8.976H38.88V12.096H42.288V8.976H53.568V12.096H56.976V8.976H69.408V5.856ZM67.152 13.392H28.512V45.6H31.824V44.208H63.792V45.6H67.152V13.392ZM31.824 41.136V16.512H63.792V41.136H31.824ZM51.024 29.232L49.488 31.776V28.464H61.344V25.536H49.488V22.128C52.992 21.84 55.872 21.504 58.224 21.168L57.744 18.24C51.168 19.248 44.208 19.728 36.816 19.728V22.656C39.648 22.656 42.816 22.56 46.224 22.32V25.536H33.84V28.464H43.968C40.656 31.584 37.344 34.272 33.936 36.528L35.712 39.264C39.312 36.912 42.816 34.128 46.224 30.816V39.792H49.488V32.112L59.808 38.544L61.536 35.76L51.024 29.232ZM109.104 20.304C105.792 21.6 102.912 22.896 100.464 24.144C98.976 21.552 96.72 20.256 93.792 20.256C92.976 20.256 92.16 20.352 91.344 20.544C92.256 19.104 93.072 17.616 93.792 16.128C97.776 16.08 101.184 15.36 104.016 14.064L102.576 11.04C100.512 12.048 98.064 12.624 95.232 12.768C95.952 10.8 96.528 8.88 96.912 7.008L93.648 6.336C93.216 8.448 92.544 10.608 91.632 12.816C89.808 12.768 87.456 12.576 84.528 12.336L84.24 15.648C86.592 15.888 88.56 16.032 90.048 16.08C87.6 20.64 84.576 24.576 80.88 27.84L83.088 30.336C84.768 28.848 86.304 27.216 87.792 25.44C90.192 24.192 92.16 23.568 93.648 23.568C95.376 23.568 96.672 24.288 97.536 25.776C92.112 28.944 89.232 32.064 88.992 35.184C88.848 37.104 89.424 38.688 90.768 39.984C92.592 41.76 95.904 42.624 100.704 42.624C103.104 42.624 105.84 42.384 108.96 41.952L108.48 38.688C105.504 39.12 102.912 39.312 100.656 39.312C98.016 39.312 95.904 39.024 94.416 38.4C93.744 38.112 93.264 37.824 93.024 37.536C92.496 37.008 92.256 36.336 92.304 35.52C92.352 33.648 94.512 31.44 98.736 28.896C99.12 30.528 99.36 32.448 99.408 34.608L102.72 34.56C102.672 31.728 102.336 29.28 101.76 27.264C104.208 25.968 107.04 24.672 110.304 23.376L109.104 20.304ZM158.736 31.248C158.736 29.712 158.496 28.176 157.968 26.592L154.752 27.6C155.136 28.848 155.328 30.048 155.328 31.248C155.328 33.12 154.848 34.704 153.936 36.048C152.928 37.488 151.584 38.4 149.856 38.736C149.088 38.88 148.224 38.976 147.264 38.976C141.936 38.976 139.92 36.48 139.92 31.056C139.92 30.384 139.968 29.664 140.016 28.896C143.04 28.848 146.304 28.608 149.76 28.176L149.328 24.864C146.208 25.248 143.232 25.488 140.4 25.536C140.64 23.664 141.072 21.312 141.6 18.432C143.568 18.72 145.392 18.864 147.024 18.864C147.936 18.864 148.8 18.816 149.616 18.72L149.28 15.408C148.56 15.456 147.792 15.504 147.024 15.504C145.632 15.504 144 15.408 142.224 15.168L143.808 7.104L140.448 6.528L138.912 14.544C136.752 14.016 135.072 13.296 133.776 12.384L131.808 15.072C133.488 16.272 135.6 17.184 138.24 17.808C137.616 20.928 137.184 23.52 136.944 25.488C136.224 25.44 135.456 25.296 134.544 25.056C133.248 24.72 132.624 24.384 132.624 24C132.624 23.568 132.864 23.136 133.296 22.704L130.848 20.448C129.792 21.6 129.264 22.752 129.264 23.904C129.264 25.488 130.128 26.736 131.856 27.648C133.152 28.272 134.736 28.656 136.608 28.8C136.56 29.616 136.512 30.336 136.512 31.056C136.512 38.592 140.112 42.384 147.312 42.384C148.416 42.384 149.424 42.288 150.432 42.096C152.976 41.616 154.992 40.32 156.528 38.256C158.016 36.288 158.736 33.936 158.736 31.248ZM205.776 28.656C205.776 25.248 204.576 22.656 202.176 20.976C200.496 19.728 198 19.104 194.688 19.104C192.096 19.104 187.488 19.824 180.864 21.216L178.032 21.792L178.656 24.96L181.536 24.336C188.016 22.992 192.432 22.32 194.88 22.32C197.424 22.32 199.248 22.752 200.4 23.568C201.84 24.672 202.56 26.304 202.56 28.56C202.56 31.392 201.072 33.792 198.048 35.76C195.6 37.392 192.768 38.4 189.6 38.832L190.032 42C194.016 41.472 197.52 40.08 200.496 37.92C204 35.376 205.776 32.256 205.776 28.656ZM252.672 37.008C249.744 37.584 246.768 37.872 243.744 37.872C241.344 37.872 239.28 37.68 237.552 37.248C234.72 36.528 233.28 35.088 233.28 32.928C233.28 31.056 234.384 29.04 236.64 26.784C238.608 24.768 241.152 22.704 244.176 20.592C245.328 19.776 248.064 17.952 252.336 15.216L250.464 12.192C244.944 15.792 240.912 18.576 238.416 20.64C235.536 16.176 233.136 12.48 231.264 9.456L228.288 11.328L235.728 22.896C235.104 23.472 234.576 23.952 234.24 24.336C231.312 27.264 229.872 30.144 229.872 32.976C229.872 33.648 229.968 34.32 230.112 34.944C230.928 37.776 233.088 39.648 236.688 40.56C238.752 41.088 241.152 41.328 243.984 41.328C247.2 41.328 250.32 41.04 253.344 40.416L252.672 37.008ZM309.312 8.064H290.88V2.064H287.232V8.064H269.904V22.56C269.904 29.52 268.896 37.776 265.824 43.824L268.992 45.408C271.248 40.848 272.688 35.328 273.216 28.8C273.408 26.544 273.504 20.784 273.504 11.568H309.312V8.064ZM298.368 24.816L295.392 26.64L301.152 35.712L282.48 39.792C286.464 30.432 289.536 22.272 291.792 15.408L288.24 14.352C285.36 23.28 281.856 32.112 278.16 40.752L273.552 41.76L274.272 45.024L303.072 38.688L306.768 44.4L309.696 42.576L298.368 24.816ZM346.56 41.28C343.2 36.768 338.88 32.112 333.6 27.312C331.632 25.536 330.672 24.24 330.672 23.424C330.672 22.608 331.536 21.408 333.216 19.92C339.168 14.592 343.152 10.8 345.12 8.544L342.384 6.096C339.984 8.832 336.144 12.528 330.816 17.232C328.32 19.44 327.072 21.504 327.072 23.424C327.072 25.344 328.464 27.552 331.2 30C336.144 34.464 340.32 38.928 343.68 43.392L346.56 41.28ZM369.264 32.064L366.672 34.464L376.032 43.776L378.576 41.376L369.264 32.064ZM413.664 2.304L410.832 4.368L418.464 14.496L421.296 12.384L413.664 2.304ZM453.504 17.232H429.792V8.16C436.752 8.064 443.472 7.488 450.048 6.48L449.52 3.12C442.512 4.224 434.784 4.752 426.384 4.752V19.68C426.384 24.768 425.184 31.584 422.352 35.856L425.184 37.776C428.304 33.216 429.696 25.968 429.792 20.496H441.072V39.264H444.48V20.496H453.504V17.232ZM453.696 40.896H430.176C426.816 40.896 421.68 40.08 419.904 36.816V20.88H409.728V24.288H416.496V36.48L409.632 42.576L411.888 45.12L417.888 39.792C420.48 42.816 424.56 44.304 430.176 44.304H453.696V40.896ZM490.56 41.28C487.2 36.768 482.88 32.112 477.6 27.312C475.632 25.536 474.672 24.24 474.672 23.424C474.672 22.608 475.536 21.408 477.216 19.92C483.168 14.592 487.152 10.8 489.12 8.544L486.384 6.096C483.984 8.832 480.144 12.528 474.816 17.232C472.32 19.44 471.072 21.504 471.072 23.424C471.072 25.344 472.464 27.552 475.2 30C480.144 34.464 484.32 38.928 487.68 43.392L490.56 41.28ZM523.488 37.344C523.488 33.936 520.608 31.056 517.2 31.056C513.744 31.056 510.912 33.888 510.912 37.344C510.912 40.896 513.648 43.632 517.2 43.632C520.656 43.632 523.488 40.8 523.488 37.344ZM521.088 37.344C521.088 39.456 519.312 41.232 517.2 41.232C515.088 41.232 513.312 39.456 513.312 37.344C513.312 35.232 515.088 33.456 517.2 33.456C519.312 33.456 521.088 35.232 521.088 37.344ZM575.088 18.096H571.968V44.592H556.944V47.712H575.088V18.096Z" fill="#A33226"/>
<path d="M19.008 0.0479994H19.508V-0.452001H19.008V0.0479994ZM0.864 0.0479994V-0.452001H0.364V0.0479994H0.864ZM0.864 29.664H0.364V30.164H0.864V29.664ZM3.984 29.664V30.164H4.484V29.664H3.984ZM3.984 3.168V2.668H3.484V3.168H3.984ZM19.008 3.168V3.668H19.508V3.168H19.008ZM19.008 -0.452001H0.864V0.547999H19.008V-0.452001ZM0.364 0.0479994V29.664H1.364V0.0479994H0.364ZM0.864 30.164H3.984V29.164H0.864V30.164ZM4.484 29.664V3.168H3.484V29.664H4.484ZM3.984 3.668H19.008V2.668H3.984V3.668ZM19.508 3.168V0.0479994H18.508V3.168H19.508ZM69.408 5.856H69.908V5.356H69.408V5.856ZM56.976 5.856H56.476V6.356H56.976V5.856ZM56.976 2.352H57.476V1.852H56.976V2.352ZM53.568 2.352V1.852H53.068V2.352H53.568ZM53.568 5.856V6.356H54.068V5.856H53.568ZM42.288 5.856H41.788V6.356H42.288V5.856ZM42.288 2.352H42.788V1.852H42.288V2.352ZM38.88 2.352V1.852H38.38V2.352H38.88ZM38.88 5.856V6.356H39.38V5.856H38.88ZM26.496 5.856V5.356H25.996V5.856H26.496ZM26.496 8.976H25.996V9.476H26.496V8.976ZM38.88 8.976H39.38V8.476H38.88V8.976ZM38.88 12.096H38.38V12.596H38.88V12.096ZM42.288 12.096V12.596H42.788V12.096H42.288ZM42.288 8.976V8.476H41.788V8.976H42.288ZM53.568 8.976H54.068V8.476H53.568V8.976ZM53.568 12.096H53.068V12.596H53.568V12.096ZM56.976 12.096V12.596H57.476V12.096H56.976ZM56.976 8.976V8.476H56.476V8.976H56.976ZM69.408 8.976V9.476H69.908V8.976H69.408ZM67.152 13.392H67.652V12.892H67.152V13.392ZM28.512 13.392V12.892H28.012V13.392H28.512ZM28.512 45.6H28.012V46.1H28.512V45.6ZM31.824 45.6V46.1H32.324V45.6H31.824ZM31.824 44.208V43.708H31.324V44.208H31.824ZM63.792 44.208H64.292V43.708H63.792V44.208ZM63.792 45.6H63.292V46.1H63.792V45.6ZM67.152 45.6V46.1H67.652V45.6H67.152ZM31.824 41.136H31.324V41.636H31.824V41.136ZM31.824 16.512V16.012H31.324V16.512H31.824ZM63.792 16.512H64.292V16.012H63.792V16.512ZM63.792 41.136V41.636H64.292V41.136H63.792ZM51.024 29.232L51.2878 28.8072L50.8577 28.5401L50.596 28.9736L51.024 29.232ZM49.488 31.776H48.988V33.5715L49.916 32.0344L49.488 31.776ZM49.488 28.464V27.964H48.988V28.464H49.488ZM61.344 28.464V28.964H61.844V28.464H61.344ZM61.344 25.536H61.844V25.036H61.344V25.536ZM49.488 25.536H48.988V26.036H49.488V25.536ZM49.488 22.128L49.447 21.6297L48.988 21.6674V22.128H49.488ZM58.224 21.168L58.2947 21.663L58.8 21.5908L58.7174 21.0871L58.224 21.168ZM57.744 18.24L58.2374 18.1591L58.1574 17.6708L57.6682 17.7458L57.744 18.24ZM36.816 19.728V19.228H36.316V19.728H36.816ZM36.816 22.656H36.316V23.156H36.816V22.656ZM46.224 22.32H46.724V21.7835L46.1889 21.8212L46.224 22.32ZM46.224 25.536V26.036H46.724V25.536H46.224ZM33.84 25.536V25.036H33.34V25.536H33.84ZM33.84 28.464H33.34V28.964H33.84V28.464ZM43.968 28.464L44.3108 28.8279L45.228 27.964H43.968V28.464ZM33.936 36.528L33.66 36.1111L33.2468 36.3846L33.5166 36.8002L33.936 36.528ZM35.712 39.264L35.2926 39.5362L35.5657 39.9569L35.9855 39.6826L35.712 39.264ZM46.224 30.816H46.724V29.6329L45.8755 30.4574L46.224 30.816ZM46.224 39.792H45.724V40.292H46.224V39.792ZM49.488 39.792V40.292H49.988V39.792H49.488ZM49.488 32.112L49.7525 31.6877L48.988 31.2112V32.112H49.488ZM59.808 38.544L59.5435 38.9683L59.9687 39.2333L60.2328 38.8077L59.808 38.544ZM61.536 35.76L61.9608 36.0237L62.2244 35.599L61.7998 35.3352L61.536 35.76ZM69.408 5.356H56.976V6.356H69.408V5.356ZM57.476 5.856V2.352H56.476V5.856H57.476ZM56.976 1.852H53.568V2.852H56.976V1.852ZM53.068 2.352V5.856H54.068V2.352H53.068ZM53.568 5.356H42.288V6.356H53.568V5.356ZM42.788 5.856V2.352H41.788V5.856H42.788ZM42.288 1.852H38.88V2.852H42.288V1.852ZM38.38 2.352V5.856H39.38V2.352H38.38ZM38.88 5.356H26.496V6.356H38.88V5.356ZM25.996 5.856V8.976H26.996V5.856H25.996ZM26.496 9.476H38.88V8.476H26.496V9.476ZM38.38 8.976V12.096H39.38V8.976H38.38ZM38.88 12.596H42.288V11.596H38.88V12.596ZM42.788 12.096V8.976H41.788V12.096H42.788ZM42.288 9.476H53.568V8.476H42.288V9.476ZM53.068 8.976V12.096H54.068V8.976H53.068ZM53.568 12.596H56.976V11.596H53.568V12.596ZM57.476 12.096V8.976H56.476V12.096H57.476ZM56.976 9.476H69.408V8.476H56.976V9.476ZM69.908 8.976V5.856H68.908V8.976H69.908ZM67.152 12.892H28.512V13.892H67.152V12.892ZM28.012 13.392V45.6H29.012V13.392H28.012ZM28.512 46.1H31.824V45.1H28.512V46.1ZM32.324 45.6V44.208H31.324V45.6H32.324ZM31.824 44.708H63.792V43.708H31.824V44.708ZM63.292 44.208V45.6H64.292V44.208H63.292ZM63.792 46.1H67.152V45.1H63.792V46.1ZM67.652 45.6V13.392H66.652V45.6H67.652ZM32.324 41.136V16.512H31.324V41.136H32.324ZM31.824 17.012H63.792V16.012H31.824V17.012ZM63.292 16.512V41.136H64.292V16.512H63.292ZM63.792 40.636H31.824V41.636H63.792V40.636ZM50.596 28.9736L49.06 31.5176L49.916 32.0344L51.452 29.4904L50.596 28.9736ZM49.988 31.776V28.464H48.988V31.776H49.988ZM49.488 28.964H61.344V27.964H49.488V28.964ZM61.844 28.464V25.536H60.844V28.464H61.844ZM61.344 25.036H49.488V26.036H61.344V25.036ZM49.988 25.536V22.128H48.988V25.536H49.988ZM49.529 22.6263C53.0423 22.3375 55.9323 22.0005 58.2947 21.663L58.1533 20.673C55.8117 21.0075 52.9417 21.3425 49.447 21.6297L49.529 22.6263ZM58.7174 21.0871L58.2374 18.1591L57.2506 18.3209L57.7306 21.2489L58.7174 21.0871ZM57.6682 17.7458C51.1209 18.7494 44.1865 19.228 36.816 19.228V20.228C44.2295 20.228 51.2151 19.7466 57.8198 18.7342L57.6682 17.7458ZM36.316 19.728V22.656H37.316V19.728H36.316ZM36.816 23.156C39.6592 23.156 42.8389 23.0596 46.2591 22.8188L46.1889 21.8212C42.7931 22.0604 39.6368 22.156 36.816 22.156V23.156ZM45.724 22.32V25.536H46.724V22.32H45.724ZM46.224 25.036H33.84V26.036H46.224V25.036ZM33.34 25.536V28.464H34.34V25.536H33.34ZM33.84 28.964H43.968V27.964H33.84V28.964ZM43.6252 28.1001C40.3298 31.2044 37.04 33.8736 33.66 36.1111L34.212 36.9449C37.648 34.6704 40.9822 31.9636 44.3108 28.8279L43.6252 28.1001ZM33.5166 36.8002L35.2926 39.5362L36.1314 38.9918L34.3554 36.2558L33.5166 36.8002ZM35.9855 39.6826C39.6127 37.3128 43.1418 34.5086 46.5725 31.1746L45.8755 30.4574C42.4902 33.7474 39.0113 36.5112 35.4385 38.8454L35.9855 39.6826ZM45.724 30.816V39.792H46.724V30.816H45.724ZM46.224 40.292H49.488V39.292H46.224V40.292ZM49.988 39.792V32.112H48.988V39.792H49.988ZM49.2235 32.5363L59.5435 38.9683L60.0725 38.1197L49.7525 31.6877L49.2235 32.5363ZM60.2328 38.8077L61.9608 36.0237L61.1112 35.4963L59.3832 38.2803L60.2328 38.8077ZM61.7998 35.3352L51.2878 28.8072L50.7602 29.6568L61.2722 36.1848L61.7998 35.3352ZM109.104 20.304L109.57 20.1221L109.388 19.6561L108.922 19.8384L109.104 20.304ZM100.464 24.144L100.03 24.3929L100.267 24.8055L100.691 24.5895L100.464 24.144ZM91.344 20.544L90.9216 20.2765L90.2662 21.3112L91.4585 21.0307L91.344 20.544ZM93.792 16.128L93.786 15.628L93.4767 15.6318L93.3419 15.9102L93.792 16.128ZM104.016 14.064L104.224 14.5187L104.686 14.3074L104.467 13.849L104.016 14.064ZM102.576 11.04L103.027 10.825L102.81 10.3691L102.357 10.5907L102.576 11.04ZM95.232 12.768L94.7624 12.5962L94.5029 13.3057L95.2574 13.2674L95.232 12.768ZM96.912 7.008L97.4018 7.10847L97.5022 6.61902L97.0128 6.51827L96.912 7.008ZM93.648 6.336L93.7488 5.84627L93.2585 5.74531L93.1581 6.2358L93.648 6.336ZM91.632 12.816L91.6188 13.3158L91.9628 13.3249L92.0941 13.0069L91.632 12.816ZM84.528 12.336L84.5688 11.8377L84.073 11.797L84.0299 12.2927L84.528 12.336ZM84.24 15.648L83.7419 15.6047L83.6992 16.0954L84.1892 16.1454L84.24 15.648ZM90.048 16.08L90.4885 16.3165L90.8698 15.6062L90.0641 15.5803L90.048 16.08ZM80.88 27.84L80.549 27.4652L80.1739 27.7965L80.5055 28.1713L80.88 27.84ZM83.088 30.336L82.7135 30.6673L83.045 31.042L83.4195 30.7103L83.088 30.336ZM87.792 25.44L87.5613 24.9964L87.4728 25.0424L87.4087 25.1189L87.792 25.44ZM97.536 25.776L97.7882 26.2077L98.2188 25.9562L97.9684 25.5249L97.536 25.776ZM88.992 35.184L88.4935 35.1457L88.4934 35.1466L88.992 35.184ZM90.768 39.984L91.1168 39.6258L91.1151 39.6241L90.768 39.984ZM108.96 41.952L109.029 42.4473L109.528 42.3781L109.455 41.8793L108.96 41.952ZM108.48 38.688L108.975 38.6153L108.902 38.1215L108.408 38.1932L108.48 38.688ZM94.416 38.4L94.219 38.8596L94.2226 38.8611L94.416 38.4ZM93.024 37.536L93.4081 37.2159L93.3936 37.1985L93.3776 37.1824L93.024 37.536ZM92.304 35.52L92.8031 35.5494L92.8036 35.5411L92.8038 35.5328L92.304 35.52ZM98.736 28.896L99.2227 28.7815L99.0656 28.1138L98.478 28.4677L98.736 28.896ZM99.408 34.608L98.9081 34.6191L98.9191 35.1151L99.4152 35.1079L99.408 34.608ZM102.72 34.56L102.727 35.0599L103.228 35.0527L103.22 34.5515L102.72 34.56ZM101.76 27.264L101.526 26.8221L101.168 27.0117L101.279 27.4014L101.76 27.264ZM110.304 23.376L110.489 23.8407L110.951 23.6572L110.77 23.1941L110.304 23.376ZM108.922 19.8384C105.596 21.1396 102.701 22.4423 100.237 23.6985L100.691 24.5895C103.123 23.3497 105.988 22.0603 109.286 20.7696L108.922 19.8384ZM100.898 23.8951C99.3209 21.1486 96.9 19.756 93.792 19.756V20.756C96.54 20.756 98.6311 21.9554 100.03 24.3929L100.898 23.8951ZM93.792 19.756C92.9364 19.756 92.082 19.8567 91.2295 20.0573L91.4585 21.0307C92.238 20.8473 93.0156 20.756 93.792 20.756V19.756ZM91.7664 20.8115C92.6895 19.3541 93.5146 17.8493 94.2421 16.3458L93.3419 15.9102C92.6294 17.3827 91.8225 18.8539 90.9216 20.2765L91.7664 20.8115ZM93.798 16.628C97.8381 16.5793 101.317 15.8489 104.224 14.5187L103.808 13.6093C101.051 14.8711 97.7139 15.5807 93.786 15.628L93.798 16.628ZM104.467 13.849L103.027 10.825L102.125 11.255L103.565 14.279L104.467 13.849ZM102.357 10.5907C100.366 11.563 97.9866 12.1273 95.2066 12.2686L95.2574 13.2674C98.1414 13.1207 100.658 12.533 102.795 11.4893L102.357 10.5907ZM95.7016 12.9398C96.4278 10.9547 97.0117 9.01036 97.4018 7.10847L96.4222 6.90753C96.0443 8.74964 95.4762 10.6453 94.7624 12.5962L95.7016 12.9398ZM97.0128 6.51827L93.7488 5.84627L93.5472 6.82573L96.8112 7.49773L97.0128 6.51827ZM93.1581 6.2358C92.7331 8.31364 92.0711 10.4433 91.1699 12.6251L92.0941 13.0069C93.0169 10.7727 93.6989 8.58236 94.1379 6.4362L93.1581 6.2358ZM91.6452 12.3162C89.8382 12.2686 87.5023 12.0781 84.5688 11.8377L84.4872 12.8343C87.4097 13.0739 89.7778 13.2674 91.6188 13.3158L91.6452 12.3162ZM84.0299 12.2927L83.7419 15.6047L84.7381 15.6913L85.0261 12.3793L84.0299 12.2927ZM84.1892 16.1454C86.5477 16.3861 88.5281 16.5312 90.0319 16.5797L90.0641 15.5803C88.5919 15.5328 86.6363 15.3899 84.2908 15.1506L84.1892 16.1454ZM89.6075 15.8435C87.1843 20.3572 84.1958 24.2447 80.549 27.4652L81.211 28.2148C84.9562 24.9073 88.0157 20.9228 90.4885 16.3165L89.6075 15.8435ZM80.5055 28.1713L82.7135 30.6673L83.4625 30.0047L81.2545 27.5087L80.5055 28.1713ZM83.4195 30.7103C85.1222 29.2022 86.6754 27.5513 88.1753 25.7611L87.4087 25.1189C85.9326 26.8807 84.4138 28.4938 82.7565 29.9617L83.4195 30.7103ZM88.0227 25.8836C90.3994 24.6477 92.281 24.068 93.648 24.068V23.068C92.039 23.068 89.9846 23.7363 87.5613 24.9964L88.0227 25.8836ZM93.648 24.068C95.2042 24.068 96.3322 24.6986 97.1036 26.0271L97.9684 25.5249C97.0118 23.8774 95.5478 23.068 93.648 23.068V24.068ZM97.2838 25.3442C94.5479 26.9422 92.4252 28.5439 90.9505 30.1611C89.4749 31.7793 88.6247 33.4398 88.4935 35.1457L89.4905 35.2223C89.5993 33.8082 90.3091 32.3487 91.6895 30.8349C93.0708 29.3201 95.1001 27.7778 97.7882 26.2077L97.2838 25.3442ZM88.4934 35.1466C88.3389 37.2065 88.9639 38.9389 90.4209 40.3439L91.1151 39.6241C89.8841 38.4371 89.3571 37.0015 89.4906 35.2214L88.4934 35.1466ZM90.4192 40.3422C92.3918 42.2629 95.8795 43.124 100.704 43.124V42.124C95.9285 42.124 92.7922 41.2571 91.1168 39.6258L90.4192 40.3422ZM100.704 43.124C103.135 43.124 105.896 42.881 109.029 42.4473L108.891 41.4567C105.784 41.887 103.073 42.124 100.704 42.124V43.124ZM109.455 41.8793L108.975 38.6153L107.985 38.7607L108.465 42.0247L109.455 41.8793ZM108.408 38.1932C105.452 38.6223 102.884 38.812 100.656 38.812V39.812C102.94 39.812 105.556 39.6177 108.552 39.1828L108.408 38.1932ZM100.656 38.812C98.0392 38.812 96.006 38.5246 94.6094 37.9389L94.2226 38.8611C95.802 39.5234 97.9928 39.812 100.656 39.812V38.812ZM94.613 37.9404C93.9472 37.6551 93.5659 37.4052 93.4081 37.2159L92.6399 37.8561C92.9621 38.2428 93.5408 38.5689 94.219 38.8596L94.613 37.9404ZM93.3776 37.1824C92.9608 36.7657 92.7626 36.2379 92.8031 35.5494L91.8049 35.4906C91.7494 36.4341 92.0312 37.2503 92.6704 37.8896L93.3776 37.1824ZM92.8038 35.5328C92.8231 34.7829 93.2722 33.8779 94.3124 32.8086C95.3439 31.7483 96.8992 30.5859 98.994 29.3243L98.478 28.4677C96.3488 29.7501 94.7121 30.9637 93.5956 32.1113C92.4878 33.2501 91.8329 34.3851 91.8042 35.5072L92.8038 35.5328ZM98.2493 29.0105C98.6242 30.6037 98.8608 32.4886 98.9081 34.6191L99.9079 34.5969C99.8592 32.4074 99.6158 30.4522 99.2227 28.7815L98.2493 29.0105ZM99.4152 35.1079L102.727 35.0599L102.713 34.0601L99.4008 34.1081L99.4152 35.1079ZM103.22 34.5515C103.171 31.6869 102.831 29.194 102.241 27.1266L101.279 27.4014C101.841 29.366 102.173 31.7691 102.22 34.5685L103.22 34.5515ZM101.994 27.7059C104.423 26.4198 107.238 25.1313 110.489 23.8407L110.119 22.9113C106.842 24.2127 103.993 25.5162 101.526 26.8221L101.994 27.7059ZM110.77 23.1941L109.57 20.1221L108.638 20.4859L109.838 23.5579L110.77 23.1941ZM157.968 26.592L158.442 26.4339L158.287 25.968L157.818 26.1149L157.968 26.592ZM154.752 27.6L154.602 27.1229L154.128 27.2716L154.274 27.747L154.752 27.6ZM153.936 36.048L154.346 36.3348L154.35 36.3288L153.936 36.048ZM149.856 38.736L149.948 39.2274L149.951 39.2268L149.856 38.736ZM140.016 28.896L140.008 28.3961L139.546 28.4034L139.517 28.8648L140.016 28.896ZM149.76 28.176L149.822 28.6721L150.321 28.6098L150.256 28.1113L149.76 28.176ZM149.328 24.864L149.824 24.7993L149.76 24.3071L149.267 24.3677L149.328 24.864ZM140.4 25.536L139.904 25.4724L139.831 26.0457L140.408 26.0359L140.4 25.536ZM141.6 18.432L141.672 17.9373L141.195 17.8674L141.108 18.3418L141.6 18.432ZM149.616 18.72L149.674 19.2166L150.163 19.1591L150.113 18.6695L149.616 18.72ZM149.28 15.408L149.777 15.3575L149.729 14.877L149.247 14.9091L149.28 15.408ZM142.224 15.168L141.733 15.0716L141.631 15.5924L142.157 15.6635L142.224 15.168ZM143.808 7.104L144.299 7.20037L144.397 6.69774L143.892 6.61119L143.808 7.104ZM140.448 6.528L140.532 6.03519L140.049 5.95234L139.957 6.4339L140.448 6.528ZM138.912 14.544L138.793 15.0297L139.304 15.1546L139.403 14.6381L138.912 14.544ZM133.776 12.384L134.064 11.9751L133.662 11.6927L133.373 12.0886L133.776 12.384ZM131.808 15.072L131.405 14.7766L131.106 15.1848L131.517 15.4789L131.808 15.072ZM138.24 17.808L138.73 17.9061L138.825 17.4325L138.355 17.3214L138.24 17.808ZM136.944 25.488L136.911 25.9869L137.383 26.0184L137.44 25.5485L136.944 25.488ZM134.544 25.056L134.671 24.5725L134.669 24.572L134.544 25.056ZM133.296 22.704L133.65 23.0576L134.018 22.6893L133.635 22.3363L133.296 22.704ZM130.848 20.448L131.187 20.0803L130.818 19.7406L130.479 20.1101L130.848 20.448ZM131.856 27.648L131.623 28.0902L131.631 28.0945L131.639 28.0985L131.856 27.648ZM136.608 28.8L137.107 28.8294L137.136 28.3391L136.646 28.3015L136.608 28.8ZM150.432 42.096L150.339 41.6047L150.338 41.6048L150.432 42.096ZM156.528 38.256L156.129 37.9544L156.127 37.9575L156.528 38.256ZM159.236 31.248C159.236 29.6579 158.987 28.0685 158.442 26.4339L157.494 26.7501C158.005 28.2835 158.236 29.7661 158.236 31.248H159.236ZM157.818 26.1149L154.602 27.1229L154.902 28.0771L158.118 27.0691L157.818 26.1149ZM154.274 27.747C154.645 28.9526 154.828 30.103 154.828 31.248H155.828C155.828 29.993 155.627 28.7434 155.23 27.453L154.274 27.747ZM154.828 31.248C154.828 33.029 154.373 34.5134 153.522 35.7672L154.35 36.3288C155.323 34.8946 155.828 33.211 155.828 31.248H154.828ZM153.526 35.7613C152.589 37.101 151.354 37.9353 149.761 38.2452L149.951 39.2268C151.814 38.8647 153.267 37.875 154.346 36.3347L153.526 35.7613ZM149.764 38.2446C149.023 38.3834 148.19 38.476 147.264 38.476V39.476C148.258 39.476 149.153 39.3766 149.948 39.2274L149.764 38.2446ZM147.264 38.476C144.668 38.476 143.001 37.8676 141.966 36.7158C140.92 35.5514 140.42 33.7246 140.42 31.056H139.42C139.42 33.8114 139.928 35.9446 141.222 37.3842C142.527 38.8364 144.532 39.476 147.264 39.476V38.476ZM140.42 31.056C140.42 30.4032 140.467 29.701 140.515 28.9272L139.517 28.8648C139.469 29.627 139.42 30.3648 139.42 31.056H140.42ZM140.024 29.3959C143.068 29.3476 146.351 29.1061 149.822 28.6721L149.698 27.6799C146.257 28.1099 143.012 28.3484 140.008 28.3961L140.024 29.3959ZM150.256 28.1113L149.824 24.7993L148.832 24.9287L149.264 28.2407L150.256 28.1113ZM149.267 24.3677C146.16 24.7502 143.202 24.9884 140.392 25.0361L140.408 26.0359C143.262 25.9876 146.256 25.7458 149.389 25.3603L149.267 24.3677ZM140.896 25.5996C141.134 23.744 141.563 21.4075 142.092 18.5222L141.108 18.3418C140.581 21.2165 140.146 23.584 139.904 25.4724L140.896 25.5996ZM141.528 18.9267C143.515 19.2176 145.364 19.364 147.024 19.364V18.364C145.42 18.364 143.621 18.2224 141.672 17.9373L141.528 18.9267ZM147.024 19.364C147.953 19.364 148.837 19.3151 149.674 19.2166L149.558 18.2234C148.763 18.3169 147.919 18.364 147.024 18.364V19.364ZM150.113 18.6695L149.777 15.3575L148.783 15.4585L149.119 18.7705L150.113 18.6695ZM149.247 14.9091C148.526 14.9571 147.773 15.004 147.024 15.004V16.004C147.811 16.004 148.594 15.9549 149.313 15.9069L149.247 14.9091ZM147.024 15.004C145.654 15.004 144.045 14.9095 142.291 14.6725L142.157 15.6635C143.955 15.9065 145.61 16.004 147.024 16.004V15.004ZM142.715 15.2644L144.299 7.20037L143.317 7.00762L141.733 15.0716L142.715 15.2644ZM143.892 6.61119L140.532 6.03519L140.364 7.02081L143.724 7.59681L143.892 6.61119ZM139.957 6.4339L138.421 14.4499L139.403 14.6381L140.939 6.6221L139.957 6.4339ZM139.031 14.0583C136.913 13.5405 135.295 12.8415 134.064 11.9751L133.488 12.7929C134.849 13.7505 136.591 14.4915 138.793 15.0297L139.031 14.0583ZM133.373 12.0886L131.405 14.7766L132.211 15.3674L134.179 12.6794L133.373 12.0886ZM131.517 15.4789C133.262 16.725 135.438 17.6594 138.125 18.2946L138.355 17.3214C135.762 16.7086 133.714 15.819 132.099 14.6651L131.517 15.4789ZM137.75 17.7099C137.124 20.8371 136.69 23.4425 136.448 25.4275L137.44 25.5485C137.678 23.5975 138.108 21.0189 138.73 17.9061L137.75 17.7099ZM136.977 24.9891C136.3 24.9439 135.565 24.8077 134.671 24.5725L134.417 25.5395C135.347 25.7843 136.148 25.9361 136.911 25.9869L136.977 24.9891ZM134.669 24.572C134.032 24.4068 133.601 24.2511 133.338 24.1074C133.04 23.9445 133.124 23.8918 133.124 24H132.124C132.124 24.4922 132.52 24.7995 132.858 24.9846C133.231 25.1889 133.76 25.3692 134.419 25.54L134.669 24.572ZM133.124 24C133.124 23.76 133.259 23.4484 133.65 23.0576L132.942 22.3504C132.469 22.8236 132.124 23.376 132.124 24H133.124ZM133.635 22.3363L131.187 20.0803L130.509 20.8157L132.957 23.0717L133.635 22.3363ZM130.479 20.1101C129.369 21.321 128.764 22.5881 128.764 23.904H129.764C129.764 22.9159 130.215 21.879 131.217 20.7859L130.479 20.1101ZM128.764 23.904C128.764 25.7199 129.776 27.1157 131.623 28.0902L132.089 27.2058C130.48 26.3563 129.764 25.2561 129.764 23.904H128.764ZM131.639 28.0985C133.005 28.7563 134.654 29.1511 136.57 29.2985L136.646 28.3015C134.818 28.1609 133.299 27.7877 132.073 27.1975L131.639 28.0985ZM136.109 28.7706C136.061 29.5797 136.012 30.3176 136.012 31.056H137.012C137.012 30.3544 137.059 29.6523 137.107 28.8294L136.109 28.7706ZM136.012 31.056C136.012 34.8955 136.929 37.8735 138.85 39.8908C140.775 41.9127 143.628 42.884 147.312 42.884V41.884C143.796 41.884 141.249 40.9593 139.574 39.2012C137.895 37.4385 137.012 34.7525 137.012 31.056H136.012ZM147.312 42.884C148.446 42.884 149.486 42.7852 150.526 42.5872L150.338 41.6048C149.362 41.7908 148.386 41.884 147.312 41.884V42.884ZM150.525 42.5873C153.196 42.0833 155.321 40.7159 156.929 38.5545L156.127 37.9575C154.663 39.9241 152.756 41.1487 150.339 41.6047L150.525 42.5873ZM156.927 38.5576C158.489 36.4916 159.236 34.03 159.236 31.248H158.236C158.236 33.842 157.543 36.0844 156.129 37.9544L156.927 38.5576ZM202.176 20.976L201.878 21.3775L201.889 21.3856L202.176 20.976ZM180.864 21.216L180.964 21.706L180.967 21.7053L180.864 21.216ZM178.032 21.792L177.932 21.302L177.445 21.4011L177.541 21.8886L178.032 21.792ZM178.656 24.96L178.165 25.0566L178.264 25.5566L178.762 25.4487L178.656 24.96ZM181.536 24.336L181.434 23.8464L181.43 23.8473L181.536 24.336ZM200.4 23.568L200.704 23.1712L200.697 23.1654L200.689 23.16L200.4 23.568ZM198.048 35.76L197.775 35.3409L197.771 35.344L198.048 35.76ZM189.6 38.832L189.532 38.3366L189.037 38.4041L189.105 38.8996L189.6 38.832ZM190.032 42L189.537 42.0676L189.604 42.5611L190.098 42.4957L190.032 42ZM200.496 37.92L200.79 38.3247L200.79 38.3246L200.496 37.92ZM206.276 28.656C206.276 25.1184 205.022 22.3577 202.463 20.5664L201.889 21.3856C204.13 22.9543 205.276 25.3776 205.276 28.656H206.276ZM202.474 20.5746C200.671 19.2349 198.049 18.604 194.688 18.604V19.604C197.951 19.604 200.321 20.2211 201.878 21.3774L202.474 20.5746ZM194.688 18.604C192.036 18.604 187.379 19.3359 180.761 20.7267L180.967 21.7053C187.597 20.3121 192.156 19.604 194.688 19.604V18.604ZM180.764 20.726L177.932 21.302L178.132 22.282L180.964 21.706L180.764 20.726ZM177.541 21.8886L178.165 25.0566L179.147 24.8634L178.523 21.6954L177.541 21.8886ZM178.762 25.4487L181.642 24.8247L181.43 23.8473L178.55 24.4713L178.762 25.4487ZM181.638 24.8256C188.123 23.4805 192.491 22.82 194.88 22.82V21.82C192.373 21.82 187.909 22.5035 181.434 23.8464L181.638 24.8256ZM194.88 22.82C197.386 22.82 199.085 23.2491 200.111 23.976L200.689 23.16C199.411 22.2549 197.462 21.82 194.88 21.82V22.82ZM200.096 23.9648C201.385 24.9534 202.06 26.4219 202.06 28.56H203.06C203.06 26.1861 202.295 24.3906 200.704 23.1712L200.096 23.9648ZM202.06 28.56C202.06 31.1788 200.699 33.4382 197.775 35.3409L198.321 36.1791C201.445 34.1458 203.06 31.6052 203.06 28.56H202.06ZM197.771 35.344C195.394 36.9286 192.636 37.9134 189.532 38.3366L189.668 39.3274C192.9 38.8866 195.806 37.8554 198.325 36.176L197.771 35.344ZM189.105 38.8996L189.537 42.0676L190.527 41.9324L190.095 38.7644L189.105 38.8996ZM190.098 42.4957C194.16 41.9573 197.743 40.536 200.79 38.3247L200.202 37.5153C197.297 39.624 193.872 40.9867 189.966 41.5043L190.098 42.4957ZM200.79 38.3246C204.394 35.7079 206.276 32.4493 206.276 28.656H205.276C205.276 32.0627 203.606 35.0441 200.202 37.5154L200.79 38.3246ZM252.672 37.008L253.163 36.9113L253.066 36.4209L252.575 36.5174L252.672 37.008ZM237.552 37.248L237.429 37.7326L237.431 37.7331L237.552 37.248ZM236.64 26.784L236.994 27.1376L236.998 27.1333L236.64 26.784ZM244.176 20.592L244.462 21.0019L244.465 21L244.176 20.592ZM252.336 15.216L252.606 15.637L253.02 15.3715L252.761 14.9528L252.336 15.216ZM250.464 12.192L250.889 11.9288L250.62 11.4935L250.191 11.7732L250.464 12.192ZM238.416 20.64L237.996 20.9111L238.301 21.384L238.735 21.0253L238.416 20.64ZM231.264 9.456L231.689 9.19282L231.424 8.76462L230.998 9.03277L231.264 9.456ZM228.288 11.328L228.022 10.9048L227.594 11.1737L227.867 11.5985L228.288 11.328ZM235.728 22.896L236.067 23.2634L236.376 22.9786L236.149 22.6255L235.728 22.896ZM234.24 24.336L234.594 24.6896L234.605 24.6778L234.616 24.6653L234.24 24.336ZM230.112 34.944L229.625 35.0564L229.628 35.0695L229.632 35.0824L230.112 34.944ZM236.688 40.56L236.812 40.0756L236.811 40.0753L236.688 40.56ZM253.344 40.416L253.445 40.9057L253.93 40.8055L253.835 40.3193L253.344 40.416ZM252.575 36.5174C249.68 37.0871 246.736 37.372 243.744 37.372V38.372C246.8 38.372 249.808 38.0809 252.769 37.4986L252.575 36.5174ZM243.744 37.372C241.367 37.372 239.348 37.1815 237.673 36.7629L237.431 37.7331C239.212 38.1785 241.321 38.372 243.744 38.372V37.372ZM237.675 36.7634C236.31 36.4163 235.337 35.909 234.709 35.2759C234.094 34.6554 233.78 33.8846 233.78 32.928H232.78C232.78 34.1314 233.186 35.1606 233.999 35.9801C234.799 36.787 235.962 37.3596 237.429 37.7326L237.675 36.7634ZM233.78 32.928C233.78 31.2562 234.769 29.3619 236.994 27.1376L236.286 26.4304C233.999 28.7181 232.78 30.8558 232.78 32.928H233.78ZM236.998 27.1333C238.937 25.1472 241.454 23.1032 244.462 21.0019L243.89 20.1821C240.85 22.3048 238.279 24.3888 236.282 26.4347L236.998 27.1333ZM244.465 21C245.607 20.1913 248.334 18.3727 252.606 15.637L252.066 14.7949C247.794 17.5313 245.049 19.3607 243.887 20.184L244.465 21ZM252.761 14.9528L250.889 11.9288L250.039 12.4552L251.911 15.4792L252.761 14.9528ZM250.191 11.7732C244.672 15.3725 240.618 18.1705 238.097 20.2547L238.735 21.0253C241.206 18.9815 245.216 16.2115 250.737 12.6108L250.191 11.7732ZM238.836 20.3689C235.954 15.9021 233.558 12.2117 231.689 9.19282L230.839 9.71918C232.714 12.7483 235.118 16.4499 237.996 20.9111L238.836 20.3689ZM230.998 9.03277L228.022 10.9048L228.554 11.7512L231.53 9.87923L230.998 9.03277ZM227.867 11.5985L235.307 23.1665L236.149 22.6255L228.709 11.0575L227.867 11.5985ZM235.389 22.5286C234.777 23.0936 234.222 23.5971 233.864 24.0067L234.616 24.6653C234.93 24.3069 235.431 23.8504 236.067 23.2634L235.389 22.5286ZM233.886 23.9824C230.906 26.963 229.372 29.9626 229.372 32.976H230.372C230.372 30.3254 231.718 27.565 234.594 24.6896L233.886 23.9824ZM229.372 32.976C229.372 33.6942 229.474 34.4047 229.625 35.0564L230.599 34.8316C230.462 34.2353 230.372 33.6018 230.372 32.976H229.372ZM229.632 35.0824C230.509 38.1276 232.84 40.1011 236.565 41.0447L236.811 40.0753C233.336 39.1949 231.347 37.4244 230.592 34.8056L229.632 35.0824ZM236.564 41.0444C238.681 41.5861 241.126 41.828 243.984 41.828V40.828C241.178 40.828 238.823 40.5899 236.812 40.0756L236.564 41.0444ZM243.984 41.828C247.23 41.828 250.384 41.5373 253.445 40.9057L253.243 39.9263C250.256 40.5427 247.17 40.828 243.984 40.828V41.828ZM253.835 40.3193L253.163 36.9113L252.181 37.1047L252.853 40.5127L253.835 40.3193ZM309.312 8.064H309.812V7.564H309.312V8.064ZM290.88 8.064H290.38V8.564H290.88V8.064ZM290.88 2.064H291.38V1.564H290.88V2.064ZM287.232 2.064V1.564H286.732V2.064H287.232ZM287.232 8.064V8.564H287.732V8.064H287.232ZM269.904 8.064V7.564H269.404V8.064H269.904ZM265.824 43.824L265.378 43.5976L265.15 44.0462L265.6 44.2712L265.824 43.824ZM268.992 45.408L268.768 45.8552L269.217 46.0798L269.44 45.6297L268.992 45.408ZM273.216 28.8L272.718 28.7576L272.718 28.7597L273.216 28.8ZM273.504 11.568V11.068H273.004V11.568H273.504ZM309.312 11.568V12.068H309.812V11.568H309.312ZM298.368 24.816L298.79 24.5471L298.525 24.1331L298.107 24.3897L298.368 24.816ZM295.392 26.64L295.131 26.2137L294.698 26.4792L294.97 26.908L295.392 26.64ZM301.152 35.712L301.259 36.2005L301.957 36.0478L301.574 35.444L301.152 35.712ZM282.48 39.792L282.02 39.5962L281.641 40.4872L282.587 40.2805L282.48 39.792ZM291.792 15.408L292.267 15.5641L292.428 15.0753L291.934 14.9287L291.792 15.408ZM288.24 14.352L288.382 13.8727L287.914 13.7335L287.764 14.1985L288.24 14.352ZM278.16 40.752L278.267 41.2404L278.518 41.1854L278.62 40.9487L278.16 40.752ZM273.552 41.76L273.445 41.2715L272.956 41.3786L273.064 41.8677L273.552 41.76ZM274.272 45.024L273.784 45.1317L273.891 45.6197L274.379 45.5123L274.272 45.024ZM303.072 38.688L303.492 38.4164L303.303 38.1251L302.965 38.1997L303.072 38.688ZM306.768 44.4L306.348 44.6716L306.615 45.0843L307.032 44.8244L306.768 44.4ZM309.696 42.576L309.96 43.0004L310.389 42.7332L310.118 42.3071L309.696 42.576ZM309.312 7.564H290.88V8.564H309.312V7.564ZM291.38 8.064V2.064H290.38V8.064H291.38ZM290.88 1.564H287.232V2.564H290.88V1.564ZM286.732 2.064V8.064H287.732V2.064H286.732ZM287.232 7.564H269.904V8.564H287.232V7.564ZM269.404 8.064V22.56H270.404V8.064H269.404ZM269.404 22.56C269.404 29.4913 268.397 37.6537 265.378 43.5976L266.27 44.0504C269.395 37.8983 270.404 29.5487 270.404 22.56H269.404ZM265.6 44.2712L268.768 45.8552L269.216 44.9608L266.048 43.3768L265.6 44.2712ZM269.44 45.6297C271.73 41.0017 273.182 35.4176 273.714 28.8403L272.718 28.7597C272.194 35.2384 270.766 40.6943 268.544 45.1863L269.44 45.6297ZM273.714 28.8424C273.908 26.5604 274.004 20.7758 274.004 11.568H273.004C273.004 20.7922 272.908 26.5276 272.718 28.7576L273.714 28.8424ZM273.504 12.068H309.312V11.068H273.504V12.068ZM309.812 11.568V8.064H308.812V11.568H309.812ZM298.107 24.3897L295.131 26.2137L295.653 27.0663L298.629 25.2423L298.107 24.3897ZM294.97 26.908L300.73 35.98L301.574 35.444L295.814 26.372L294.97 26.908ZM301.045 35.2235L282.373 39.3035L282.587 40.2805L301.259 36.2005L301.045 35.2235ZM282.94 39.9878C286.929 30.6171 290.006 22.4438 292.267 15.5641L291.317 15.2519C289.066 22.1002 285.999 30.2469 282.02 39.5962L282.94 39.9878ZM291.934 14.9287L288.382 13.8727L288.098 14.8313L291.65 15.8873L291.934 14.9287ZM287.764 14.1985C284.891 23.1063 281.393 31.9228 277.7 40.5553L278.62 40.9487C282.319 32.3012 285.829 23.4537 288.716 14.5055L287.764 14.1985ZM278.053 40.2635L273.445 41.2715L273.659 42.2484L278.267 41.2404L278.053 40.2635ZM273.064 41.8677L273.784 45.1317L274.76 44.9163L274.04 41.6523L273.064 41.8677ZM274.379 45.5123L303.179 39.1763L302.965 38.1997L274.165 44.5357L274.379 45.5123ZM302.652 38.9596L306.348 44.6716L307.188 44.1284L303.492 38.4164L302.652 38.9596ZM307.032 44.8244L309.96 43.0004L309.432 42.1516L306.504 43.9756L307.032 44.8244ZM310.118 42.3071L298.79 24.5471L297.946 25.0849L309.274 42.8449L310.118 42.3071ZM346.56 41.28L346.856 41.6832L347.262 41.3853L346.961 40.9814L346.56 41.28ZM333.6 27.312L333.936 26.942L333.935 26.9408L333.6 27.312ZM333.216 19.92L333.548 20.2943L333.549 20.2925L333.216 19.92ZM345.12 8.544L345.497 8.87268L345.821 8.50061L345.453 8.17138L345.12 8.544ZM342.384 6.096L342.717 5.72338L342.341 5.38669L342.008 5.76628L342.384 6.096ZM330.816 17.232L330.485 16.8572L330.485 16.8575L330.816 17.232ZM331.2 30L331.535 29.6289L331.533 29.6274L331.2 30ZM343.68 43.392L343.281 43.6927L343.577 44.0872L343.976 43.7952L343.68 43.392ZM346.961 40.9814C343.577 36.4378 339.234 31.7582 333.936 26.942L333.264 27.682C338.526 32.4658 342.823 37.0982 346.159 41.5786L346.961 40.9814ZM333.935 26.9408C332.962 26.0632 332.257 25.3196 331.798 24.708C331.325 24.0767 331.172 23.6607 331.172 23.424H330.172C330.172 24.0033 330.499 24.6433 330.998 25.308C331.511 25.9924 332.27 26.7848 333.265 27.6832L333.935 26.9408ZM331.172 23.424C331.172 23.1761 331.312 22.7789 331.719 22.2173C332.116 21.6699 332.722 21.0251 333.548 20.2943L332.884 19.5457C332.03 20.3029 331.364 21.0021 330.909 21.6307C330.464 22.2451 330.172 22.8559 330.172 23.424H331.172ZM333.549 20.2925C339.499 14.9672 343.505 11.1555 345.497 8.87268L344.743 8.21531C342.799 10.4445 338.837 14.2168 332.883 19.5475L333.549 20.2925ZM345.453 8.17138L342.717 5.72338L342.051 6.46862L344.787 8.91662L345.453 8.17138ZM342.008 5.76628C339.63 8.47761 335.809 12.1566 330.485 16.8572L331.147 17.6068C336.479 12.8994 340.338 9.18638 342.76 6.42572L342.008 5.76628ZM330.485 16.8575C327.956 19.0943 326.572 21.2846 326.572 23.424H327.572C327.572 21.7234 328.684 19.7857 331.147 17.6065L330.485 16.8575ZM326.572 23.424C326.572 25.5725 328.113 27.9088 330.867 30.3726L331.533 29.6274C328.815 27.1952 327.572 25.1155 327.572 23.424H326.572ZM330.865 30.3711C335.79 34.8184 339.943 39.2592 343.281 43.6927L344.079 43.0913C340.697 38.5968 336.498 34.1096 331.535 29.6289L330.865 30.3711ZM343.976 43.7952L346.856 41.6832L346.264 40.8768L343.384 42.9888L343.976 43.7952ZM369.264 32.064L369.618 31.7104L369.277 31.3702L368.924 31.6971L369.264 32.064ZM366.672 34.464L366.332 34.0971L365.95 34.451L366.319 34.8185L366.672 34.464ZM376.032 43.776L375.679 44.1305L376.023 44.4721L376.375 44.1397L376.032 43.776ZM378.576 41.376L378.919 41.7397L379.294 41.3864L378.93 41.0224L378.576 41.376ZM368.924 31.6971L366.332 34.0971L367.012 34.8309L369.604 32.4309L368.924 31.6971ZM366.319 34.8185L375.679 44.1305L376.385 43.4215L367.025 34.1095L366.319 34.8185ZM376.375 44.1397L378.919 41.7397L378.233 41.0123L375.689 43.4123L376.375 44.1397ZM378.93 41.0224L369.618 31.7104L368.91 32.4176L378.222 41.7296L378.93 41.0224ZM413.664 2.304L414.063 2.00218L413.766 1.61076L413.37 1.89993L413.664 2.304ZM410.832 4.368L410.538 3.96393L410.127 4.26316L410.433 4.66891L410.832 4.368ZM418.464 14.496L418.065 14.7969L418.364 15.1942L418.763 14.8968L418.464 14.496ZM421.296 12.384L421.595 12.7848L421.999 12.4837L421.695 12.0822L421.296 12.384ZM453.504 17.232H454.004V16.732H453.504V17.232ZM429.792 17.232H429.292V17.732H429.792V17.232ZM429.792 8.16L429.785 7.66005L429.292 7.66685V8.16H429.792ZM450.048 6.48L450.124 6.97423L450.62 6.89818L450.542 6.40238L450.048 6.48ZM449.52 3.12L450.014 3.04238L449.936 2.54825L449.442 2.62609L449.52 3.12ZM426.384 4.752V4.252H425.884V4.752H426.384ZM422.352 35.856L421.935 35.5797L421.662 35.9922L422.071 36.2699L422.352 35.856ZM425.184 37.776L424.903 38.1899L425.316 38.4692L425.597 38.0583L425.184 37.776ZM429.792 20.496V19.996H429.301L429.292 20.4872L429.792 20.496ZM441.072 20.496H441.572V19.996H441.072V20.496ZM441.072 39.264H440.572V39.764H441.072V39.264ZM444.48 39.264V39.764H444.98V39.264H444.48ZM444.48 20.496V19.996H443.98V20.496H444.48ZM453.504 20.496V20.996H454.004V20.496H453.504ZM453.696 40.896H454.196V40.396H453.696V40.896ZM419.904 36.816H419.404V36.9432L419.465 37.055L419.904 36.816ZM419.904 20.88H420.404V20.38H419.904V20.88ZM409.728 20.88V20.38H409.228V20.88H409.728ZM409.728 24.288H409.228V24.788H409.728V24.288ZM416.496 24.288H416.996V23.788H416.496V24.288ZM416.496 36.48L416.828 36.8538L416.996 36.7047V36.48H416.496ZM409.632 42.576L409.3 42.2022L408.926 42.5339L409.258 42.9077L409.632 42.576ZM411.888 45.12L411.514 45.4517L411.846 45.8261L412.22 45.4939L411.888 45.12ZM417.888 39.792L418.268 39.4666L417.936 39.0803L417.556 39.4181L417.888 39.792ZM453.696 44.304V44.804H454.196V44.304H453.696ZM413.37 1.89993L410.538 3.96393L411.126 4.77207L413.958 2.70807L413.37 1.89993ZM410.433 4.66891L418.065 14.7969L418.863 14.1951L411.231 4.06709L410.433 4.66891ZM418.763 14.8968L421.595 12.7848L420.997 11.9832L418.165 14.0952L418.763 14.8968ZM421.695 12.0822L414.063 2.00218L413.265 2.60582L420.897 12.6858L421.695 12.0822ZM453.504 16.732H429.792V17.732H453.504V16.732ZM430.292 17.232V8.16H429.292V17.232H430.292ZM429.799 8.65995C436.782 8.56363 443.525 7.98567 450.124 6.97423L449.972 5.98577C443.419 6.99033 436.722 7.56437 429.785 7.66005L429.799 8.65995ZM450.542 6.40238L450.014 3.04238L449.026 3.19762L449.554 6.55762L450.542 6.40238ZM449.442 2.62609C442.465 3.72522 434.764 4.252 426.384 4.252V5.252C434.804 5.252 442.559 4.72277 449.598 3.61391L449.442 2.62609ZM425.884 4.752V19.68H426.884V4.752H425.884ZM425.884 19.68C425.884 24.7232 424.689 31.425 421.935 35.5797L422.769 36.1323C425.679 31.743 426.884 24.8128 426.884 19.68H425.884ZM422.071 36.2699L424.903 38.1899L425.465 37.3621L422.633 35.4421L422.071 36.2699ZM425.597 38.0583C428.796 33.3827 430.195 26.0211 430.292 20.5048L429.292 20.4872C429.197 25.9149 427.812 33.0493 424.771 37.4937L425.597 38.0583ZM429.792 20.996H441.072V19.996H429.792V20.996ZM440.572 20.496V39.264H441.572V20.496H440.572ZM441.072 39.764H444.48V38.764H441.072V39.764ZM444.98 39.264V20.496H443.98V39.264H444.98ZM444.48 20.996H453.504V19.996H444.48V20.996ZM454.004 20.496V17.232H453.004V20.496H454.004ZM453.696 40.396H430.176V41.396H453.696V40.396ZM430.176 40.396C428.529 40.396 426.46 40.1953 424.597 39.6035C422.725 39.0086 421.142 38.045 420.343 36.577L419.465 37.055C420.442 38.851 422.315 39.9274 424.295 40.5565C426.284 41.1887 428.463 41.396 430.176 41.396V40.396ZM420.404 36.816V20.88H419.404V36.816H420.404ZM419.904 20.38H409.728V21.38H419.904V20.38ZM409.228 20.88V24.288H410.228V20.88H409.228ZM409.728 24.788H416.496V23.788H409.728V24.788ZM415.996 24.288V36.48H416.996V24.288H415.996ZM416.164 36.1062L409.3 42.2022L409.964 42.9498L416.828 36.8538L416.164 36.1062ZM409.258 42.9077L411.514 45.4517L412.262 44.7883L410.006 42.2443L409.258 42.9077ZM412.22 45.4939L418.22 40.1659L417.556 39.4181L411.556 44.7461L412.22 45.4939ZM417.508 40.1174C420.23 43.2927 424.478 44.804 430.176 44.804V43.804C424.642 43.804 420.73 42.3393 418.268 39.4666L417.508 40.1174ZM430.176 44.804H453.696V43.804H430.176V44.804ZM454.196 44.304V40.896H453.196V44.304H454.196ZM490.56 41.28L490.856 41.6832L491.262 41.3853L490.961 40.9814L490.56 41.28ZM477.6 27.312L477.936 26.942L477.935 26.9408L477.6 27.312ZM477.216 19.92L477.548 20.2943L477.549 20.2925L477.216 19.92ZM489.12 8.544L489.497 8.87268L489.821 8.50061L489.453 8.17138L489.12 8.544ZM486.384 6.096L486.717 5.72338L486.341 5.38669L486.008 5.76628L486.384 6.096ZM474.816 17.232L474.485 16.8572L474.485 16.8575L474.816 17.232ZM475.2 30L475.535 29.6289L475.533 29.6274L475.2 30ZM487.68 43.392L487.281 43.6927L487.577 44.0872L487.976 43.7952L487.68 43.392ZM490.961 40.9814C487.577 36.4378 483.234 31.7582 477.936 26.942L477.264 27.682C482.526 32.4658 486.823 37.0982 490.159 41.5786L490.961 40.9814ZM477.935 26.9408C476.962 26.0632 476.257 25.3196 475.798 24.708C475.325 24.0767 475.172 23.6607 475.172 23.424H474.172C474.172 24.0033 474.499 24.6433 474.998 25.308C475.511 25.9924 476.27 26.7848 477.265 27.6832L477.935 26.9408ZM475.172 23.424C475.172 23.1761 475.312 22.7789 475.719 22.2173C476.116 21.6699 476.722 21.0251 477.548 20.2943L476.884 19.5457C476.03 20.3029 475.364 21.0021 474.909 21.6307C474.464 22.2451 474.172 22.8559 474.172 23.424H475.172ZM477.549 20.2925C483.499 14.9672 487.505 11.1555 489.497 8.87268L488.743 8.21531C486.799 10.4445 482.837 14.2168 476.883 19.5475L477.549 20.2925ZM489.453 8.17138L486.717 5.72338L486.051 6.46862L488.787 8.91662L489.453 8.17138ZM486.008 5.76628C483.63 8.47761 479.809 12.1566 474.485 16.8572L475.147 17.6068C480.479 12.8994 484.338 9.18638 486.76 6.42572L486.008 5.76628ZM474.485 16.8575C471.956 19.0943 470.572 21.2846 470.572 23.424H471.572C471.572 21.7234 472.684 19.7857 475.147 17.6065L474.485 16.8575ZM470.572 23.424C470.572 25.5725 472.113 27.9088 474.867 30.3726L475.533 29.6274C472.815 27.1952 471.572 25.1155 471.572 23.424H470.572ZM474.865 30.3711C479.79 34.8184 483.943 39.2592 487.281 43.6927L488.079 43.0913C484.697 38.5968 480.498 34.1096 475.535 29.6289L474.865 30.3711ZM487.976 43.7952L490.856 41.6832L490.264 40.8768L487.384 42.9888L487.976 43.7952ZM523.988 37.344C523.988 33.6599 520.884 30.556 517.2 30.556V31.556C520.332 31.556 522.988 34.2121 522.988 37.344H523.988ZM517.2 30.556C513.468 30.556 510.412 33.6119 510.412 37.344H511.412C511.412 34.1641 514.02 31.556 517.2 31.556V30.556ZM510.412 37.344C510.412 41.1721 513.372 44.132 517.2 44.132V43.132C513.924 43.132 511.412 40.6199 511.412 37.344H510.412ZM517.2 44.132C520.932 44.132 523.988 41.0761 523.988 37.344H522.988C522.988 40.5239 520.38 43.132 517.2 43.132V44.132ZM520.588 37.344C520.588 39.1799 519.036 40.732 517.2 40.732V41.732C519.588 41.732 521.588 39.7321 521.588 37.344H520.588ZM517.2 40.732C515.364 40.732 513.812 39.1799 513.812 37.344H512.812C512.812 39.7321 514.812 41.732 517.2 41.732V40.732ZM513.812 37.344C513.812 35.5081 515.364 33.956 517.2 33.956V32.956C514.812 32.956 512.812 34.9559 512.812 37.344H513.812ZM517.2 33.956C519.036 33.956 520.588 35.5081 520.588 37.344H521.588C521.588 34.9559 519.588 32.956 517.2 32.956V33.956ZM575.088 18.096H575.588V17.596H575.088V18.096ZM571.968 18.096V17.596H571.468V18.096H571.968ZM571.968 44.592V45.092H572.468V44.592H571.968ZM556.944 44.592V44.092H556.444V44.592H556.944ZM556.944 47.712H556.444V48.212H556.944V47.712ZM575.088 47.712V48.212H575.588V47.712H575.088ZM575.088 17.596H571.968V18.596H575.088V17.596ZM571.468 18.096V44.592H572.468V18.096H571.468ZM571.968 44.092H556.944V45.092H571.968V44.092ZM556.444 44.592V47.712H557.444V44.592H556.444ZM556.944 48.212H575.088V47.212H556.944V48.212ZM575.588 47.712V18.096H574.588V47.712H575.588Z" fill="#A33226"/>
</svg>
