<svg width="1163" height="295" viewBox="0 0 1163 295" fill="none" xmlns="http://www.w3.org/2000/svg">
<path d="M17.6427 128.326L45.3089 188.649L75.145 118.67L105.198 188.649L132.539 128.326H159.88L104.547 241.92L75.145 173.894L45.4174 241.92L-9.80656 128.326H17.6427ZM200.695 180.404C200.695 165.142 206.156 152.159 217.078 141.454C228 130.749 241.309 125.397 257.004 125.397C272.772 125.397 286.153 130.785 297.147 141.562C307.997 152.339 313.422 165.576 313.422 181.271C313.422 197.112 307.961 210.384 297.039 221.089C286.045 231.722 272.555 237.038 256.57 237.038C240.73 237.038 227.457 231.613 216.753 220.764C206.048 210.059 200.695 196.605 200.695 180.404ZM225.649 180.837C225.649 191.398 228.47 199.752 234.112 205.9C239.898 212.12 247.529 215.23 257.004 215.23C266.552 215.23 274.183 212.156 279.897 206.008C285.611 199.86 288.468 191.651 288.468 181.38C288.468 171.109 285.611 162.9 279.897 156.752C274.11 150.531 266.479 147.421 257.004 147.421C247.674 147.421 240.115 150.531 234.329 156.752C228.542 162.972 225.649 171.001 225.649 180.837ZM372.681 128.326H397.093V137.765C401.577 133.064 405.555 129.845 409.027 128.109C412.571 126.301 416.767 125.397 421.613 125.397C428.05 125.397 434.777 127.494 441.793 131.689L430.618 154.039C425.989 150.712 421.468 149.048 417.056 149.048C403.747 149.048 397.093 159.102 397.093 179.21V234H372.681V128.326ZM517.001 50.7521V162.502L551.394 128.326H584.16L538.266 172.7L587.523 234H555.843L520.907 189.409L517.001 193.314V234H492.59V50.7521H517.001ZM697.993 146.336L677.813 157.077C674.63 150.567 670.688 147.313 665.987 147.313C663.744 147.313 661.828 148.072 660.236 149.591C658.645 151.038 657.85 152.918 657.85 155.233C657.85 159.283 662.551 163.297 671.954 167.276C684.901 172.845 693.617 177.98 698.101 182.682C702.586 187.383 704.828 193.712 704.828 201.669C704.828 211.867 701.067 220.402 693.544 227.273C686.239 233.783 677.415 237.038 667.072 237.038C649.351 237.038 636.802 228.394 629.424 211.108L650.255 201.452C653.148 206.515 655.354 209.733 656.873 211.108C659.839 213.856 663.383 215.23 667.506 215.23C675.751 215.23 679.874 211.469 679.874 203.947C679.874 199.607 676.692 195.557 670.326 191.795C667.867 190.566 665.408 189.372 662.949 188.215C660.49 187.058 657.994 185.864 655.463 184.635C648.374 181.163 643.384 177.691 640.49 174.219C636.802 169.807 634.957 164.129 634.957 157.186C634.957 148 638.103 140.405 644.396 134.402C650.834 128.398 658.645 125.397 667.831 125.397C681.357 125.397 691.411 132.376 697.993 146.336Z" fill="#D94D6D"/>
<path d="M826.632 164.08L825.048 164.848L827.064 169.216L820.608 170.584L825.288 152.92L823.488 152.44L818.616 170.992L816.36 171.472L816.696 173.104L827.784 170.776L829.08 173.536L830.664 172.768L826.632 164.08ZM819.12 158.776H814.752V154.84L818.424 154.528L818.256 152.896C815.352 153.208 812.304 153.424 809.064 153.568L809.136 155.2C810.288 155.152 811.536 155.08 813 154.96V158.776H808.08V160.408H812.28C810.864 163.456 809.352 166.072 807.72 168.28L809.112 169.288C810.384 167.632 811.704 165.424 813.048 162.688V173.776H814.752V162.952L817.32 166.528L818.64 165.52L815.76 161.536L814.752 162.256V160.408H819.12V158.776ZM855.528 168.52C854.352 167.44 853.152 166.576 851.952 165.904C852 164.536 851.952 162.688 851.832 160.336L854.808 160.096L854.664 158.44C853.848 158.512 852.864 158.608 851.736 158.68L851.544 155.44L849.888 155.536L850.08 158.8C848.16 158.92 846.48 159.016 845.016 159.04L845.064 160.696C846.528 160.672 848.232 160.576 850.176 160.456C850.272 162.256 850.32 163.576 850.32 164.416L850.296 165.208C849.72 165.064 849.144 164.992 848.544 164.992C847.464 164.992 846.552 165.256 845.76 165.76C844.872 166.36 844.416 167.176 844.416 168.208C844.416 169.096 844.848 169.792 845.712 170.344C846.456 170.8 847.296 171.04 848.232 171.04C849.864 171.04 850.944 170.416 851.448 169.168C851.592 168.808 851.712 168.352 851.808 167.752C852.72 168.352 853.584 169 854.424 169.744L855.528 168.52ZM841.296 170.128C840.792 168.664 840.552 166.744 840.552 164.392C840.552 161.968 840.768 159.28 841.176 156.304L839.472 156.064C839.016 159.136 838.8 161.92 838.8 164.392C838.8 166.912 839.088 169.024 839.664 170.704L841.296 170.128ZM850.224 166.912C850.152 167.8 850.032 168.376 849.816 168.688C849.528 169.144 849 169.384 848.208 169.384C847.752 169.384 847.296 169.288 846.888 169.12C846.36 168.88 846.096 168.544 846.096 168.136C846.096 167.632 846.384 167.224 846.984 166.96C847.44 166.744 847.968 166.648 848.544 166.648C849.144 166.648 849.696 166.744 850.224 166.912ZM824.664 205.6C823.296 204.904 819.96 204.232 814.68 203.608L814.464 205.432C819.528 206.032 822.624 206.632 823.8 207.232L824.664 205.6ZM825.312 216.88C823.584 217.48 821.616 217.792 819.408 217.792C818.352 217.792 817.344 217.696 816.36 217.504C814.92 217.24 814.2 216.808 814.2 216.232C814.2 215.728 814.68 214.864 815.64 213.664L814.224 212.56C813 214.096 812.4 215.32 812.4 216.232C812.4 217.528 813.312 218.464 815.112 219.016C816.288 219.376 817.728 219.544 819.432 219.544C821.832 219.544 823.992 219.208 825.888 218.536L825.312 216.88ZM854.136 216.112C852.816 217.528 851.688 218.224 850.776 218.224C849.984 218.224 849.576 217.552 849.576 216.184C849.576 215.872 849.648 215.032 849.648 214.72C849.648 213.544 849.408 212.608 848.952 211.864C848.4 211 847.56 210.568 846.48 210.568C845.424 210.568 844.296 211 843.096 211.888C844.08 209.464 845.424 206.8 847.152 203.848L845.544 202.96C844.056 205.48 842.712 208.168 841.512 211.024C840.216 214.12 839.28 216.952 838.68 219.568L840.432 219.952C841.008 217.48 841.584 215.8 842.184 214.936C842.64 214.264 843.288 213.664 844.08 213.136C844.968 212.56 845.76 212.272 846.504 212.272C847.44 212.272 847.92 213.088 847.92 214.696V215.368C847.896 215.656 847.896 215.872 847.896 216.04C847.896 218.632 848.856 219.928 850.776 219.928C852.192 219.928 853.728 219.04 855.384 217.288L854.136 216.112ZM874.968 205.288L871.8 205.576C872.16 204.616 872.472 203.752 872.784 203.008L871.176 202.384L869.928 205.72C868.344 205.816 867.312 205.84 866.808 205.816L866.664 207.52C867.144 207.544 868.008 207.544 869.28 207.472C868.272 210.184 867.36 212.704 866.568 214.984L868.176 215.536C869.088 212.92 870.072 210.184 871.128 207.328C872.496 207.232 873.84 207.112 875.136 206.992L874.968 205.288ZM882.768 207.904C881.976 206.968 880.704 205.816 879 204.496L877.944 205.864C879.528 207.088 880.704 208.12 881.472 209.008L882.768 207.904ZM882.672 217.576C881.472 216.52 880.128 215.656 878.64 214.984C878.664 214.192 878.616 213.112 878.496 211.768C878.352 210.208 878.28 209.152 878.28 208.576L876.6 208.624C876.744 211.168 876.864 213.088 876.984 214.36C876.168 214.12 875.4 214 874.704 214C873.552 214 872.616 214.336 871.896 214.984C871.176 215.632 870.816 216.352 870.816 217.168C870.816 217.6 870.912 218.032 871.128 218.44C871.752 219.616 872.88 220.216 874.512 220.216C874.968 220.216 875.424 220.144 875.88 220.024C877.272 219.664 878.136 218.56 878.472 216.76C879.648 217.336 880.68 218.032 881.568 218.824L882.672 217.576ZM876.888 216.112C876.72 217.432 876.24 218.2 875.448 218.416C875.16 218.488 874.848 218.536 874.512 218.536C873.528 218.536 872.904 218.248 872.616 217.648C872.544 217.48 872.496 217.336 872.496 217.168C872.496 216.52 873.216 215.68 874.656 215.68C875.328 215.68 876.072 215.824 876.888 216.112ZM907.464 205.6C906.096 204.904 902.76 204.232 897.48 203.608L897.264 205.432C902.328 206.032 905.424 206.632 906.6 207.232L907.464 205.6ZM908.112 216.88C906.384 217.48 904.416 217.792 902.208 217.792C901.152 217.792 900.144 217.696 899.16 217.504C897.72 217.24 897 216.808 897 216.232C897 215.728 897.48 214.864 898.44 213.664L897.024 212.56C895.8 214.096 895.2 215.32 895.2 216.232C895.2 217.528 896.112 218.464 897.912 219.016C899.088 219.376 900.528 219.544 902.232 219.544C904.632 219.544 906.792 219.208 908.688 218.536L908.112 216.88ZM935.736 217.504C934.272 217.792 932.784 217.936 931.272 217.936C930.072 217.936 929.04 217.84 928.176 217.624C926.76 217.264 926.04 216.544 926.04 215.464C926.04 214.528 926.592 213.52 927.72 212.392C928.704 211.384 929.976 210.352 931.488 209.296C932.064 208.888 933.432 207.976 935.568 206.608L934.632 205.096C931.872 206.896 929.856 208.288 928.608 209.32C927.168 207.088 925.968 205.24 925.032 203.728L923.544 204.664L927.264 210.448C926.952 210.736 926.688 210.976 926.52 211.168C925.056 212.632 924.336 214.072 924.336 215.488C924.336 215.824 924.384 216.16 924.456 216.472C924.864 217.888 925.944 218.824 927.744 219.28C928.776 219.544 929.976 219.664 931.392 219.664C933 219.664 934.56 219.52 936.072 219.208L935.736 217.504ZM963.552 209.152C961.896 209.8 960.456 210.448 959.232 211.072C958.488 209.776 957.36 209.128 955.896 209.128C955.488 209.128 955.08 209.176 954.672 209.272C955.128 208.552 955.536 207.808 955.896 207.064C957.888 207.04 959.592 206.68 961.008 206.032L960.288 204.52C959.256 205.024 958.032 205.312 956.616 205.384C956.976 204.4 957.264 203.44 957.456 202.504L955.824 202.168C955.608 203.224 955.272 204.304 954.816 205.408C953.904 205.384 952.728 205.288 951.264 205.168L951.12 206.824C952.296 206.944 953.28 207.016 954.024 207.04C952.8 209.32 951.288 211.288 949.44 212.92L950.544 214.168C951.384 213.424 952.152 212.608 952.896 211.72C954.096 211.096 955.08 210.784 955.824 210.784C956.688 210.784 957.336 211.144 957.768 211.888C955.056 213.472 953.616 215.032 953.496 216.592C953.424 217.552 953.712 218.344 954.384 218.992C955.296 219.88 956.952 220.312 959.352 220.312C960.552 220.312 961.92 220.192 963.48 219.976L963.24 218.344C961.752 218.56 960.456 218.656 959.328 218.656C958.008 218.656 956.952 218.512 956.208 218.2C955.872 218.056 955.632 217.912 955.512 217.768C955.248 217.504 955.128 217.168 955.152 216.76C955.176 215.824 956.256 214.72 958.368 213.448C958.56 214.264 958.68 215.224 958.704 216.304L960.36 216.28C960.336 214.864 960.168 213.64 959.88 212.632C961.104 211.984 962.52 211.336 964.152 210.688L963.552 209.152ZM985.152 202.576L983.712 203.248L985.224 206.656L986.664 206.008L985.152 202.576ZM993.096 210.736C993.096 209.728 992.736 208.816 992.016 208.024C991.224 207.16 990.048 206.728 988.488 206.728C986.976 206.728 984.72 207.232 981.696 208.264C981.264 206.8 980.88 205.504 980.52 204.376L978.864 204.88C979.224 206.032 979.632 207.328 980.064 208.792C978.168 209.44 976.92 209.872 976.272 210.064L976.776 211.696L980.544 210.448C981.504 213.784 982.392 217.072 983.232 220.312L984.888 219.88C984.048 216.592 983.136 213.28 982.176 209.896C985.08 208.912 987.192 208.432 988.512 208.432C990.6 208.432 991.392 209.584 991.392 210.76C991.392 211.552 991.056 212.2 990.408 212.68C989.808 213.088 989.088 213.304 988.248 213.304C987.888 213.304 987.528 213.256 987.168 213.184L986.808 214.864C987.288 214.96 987.768 215.008 988.272 215.008C990.312 215.008 991.728 214.264 992.568 212.752C992.928 212.104 993.096 211.432 993.096 210.736ZM1019.09 213.328C1019.09 211.624 1018.49 210.328 1017.29 209.488C1016.45 208.864 1015.2 208.552 1013.54 208.552C1012.25 208.552 1009.94 208.912 1006.63 209.608L1005.22 209.896L1005.53 211.48L1006.97 211.168C1010.21 210.496 1012.42 210.16 1013.64 210.16C1014.91 210.16 1015.82 210.376 1016.4 210.784C1017.12 211.336 1017.48 212.152 1017.48 213.28C1017.48 214.696 1016.74 215.896 1015.22 216.88C1014 217.696 1012.58 218.2 1011 218.416L1011.22 220C1013.21 219.736 1014.96 219.04 1016.45 217.96C1018.2 216.688 1019.09 215.128 1019.09 213.328ZM1047.24 204.256C1042.42 204.496 1037.4 204.904 1032.19 205.504L1032.41 207.256C1035.74 206.872 1038.86 206.56 1041.77 206.344C1039.34 208.48 1038.05 210.736 1037.93 213.088C1037.81 215.224 1038.38 216.928 1039.7 218.176C1040.88 219.304 1042.58 220.024 1044.79 220.312L1045.01 218.584C1041.29 218.128 1039.49 216.328 1039.66 213.184C1039.78 210.712 1041.53 208.36 1044.91 206.128L1047.34 205.984L1047.24 204.256ZM1066.61 214.36C1065.58 216.232 1064.59 217.168 1063.61 217.168C1061.98 217.168 1061.16 214.48 1061.16 209.08C1061.16 207.424 1061.23 205.984 1061.38 204.712L1059.6 204.52C1059.43 205.936 1059.36 207.4 1059.36 208.96C1059.36 215.608 1060.78 218.92 1063.63 218.92C1065.29 218.92 1066.78 217.696 1068.14 215.224L1066.61 214.36ZM1076.64 215.296C1076.28 213.616 1075.7 211.96 1074.96 210.304C1074.14 208.456 1073.23 206.968 1072.25 205.816L1070.9 206.968C1072.68 209.056 1074 211.984 1074.86 215.704L1076.64 215.296ZM1101.84 217.888C1100.11 216.712 1098.41 215.752 1096.75 215.056C1096.78 214.096 1096.78 212.896 1096.73 211.432L1101.67 210.832L1101.48 209.2L1096.68 209.776L1096.54 206.32C1098.05 206.248 1099.37 206.176 1100.54 206.152L1100.52 204.52C1099.39 204.544 1098.05 204.592 1096.46 204.664C1096.44 203.632 1096.39 202.744 1096.37 202.024L1094.66 202.072C1094.69 202.792 1094.74 203.68 1094.76 204.76C1092.74 204.88 1090.97 205 1089.41 205.144L1089.55 206.776C1091.06 206.632 1092.84 206.512 1094.83 206.392L1094.98 209.944C1094.18 210.016 1093.51 210.04 1092.91 210.04C1091.64 210.04 1090.92 209.896 1090.75 209.632C1090.7 209.56 1090.7 209.416 1090.75 209.248L1089.19 208.768C1089.12 209.032 1089.07 209.272 1089.07 209.488C1089.07 209.944 1089.22 210.352 1089.48 210.688C1090.03 211.36 1091.23 211.696 1093.03 211.696C1093.54 211.696 1094.18 211.672 1095.02 211.6C1095.05 212.776 1095.07 213.76 1095.07 214.552C1094.38 214.408 1093.68 214.336 1093.03 214.336C1091.86 214.336 1090.9 214.576 1090.18 215.056C1089.36 215.608 1088.95 216.376 1088.93 217.384C1088.93 218.248 1089.31 218.944 1090.1 219.496C1090.85 220 1091.71 220.24 1092.72 220.24C1093.68 220.24 1094.5 220 1095.19 219.544C1095.98 219.04 1096.44 218.32 1096.61 217.384C1096.63 217.168 1096.66 217 1096.66 216.88C1098.07 217.528 1099.46 218.344 1100.88 219.304L1101.84 217.888ZM1094.93 217.12C1094.76 218.056 1094.04 218.536 1092.77 218.536C1091.64 218.536 1090.63 218.056 1090.63 217.408C1090.63 217 1090.8 216.688 1091.11 216.472C1091.52 216.184 1092.17 216.04 1093.01 216.04C1093.68 216.04 1094.35 216.112 1095 216.28L1094.93 217.12ZM1130.93 205.264L1124.93 205.36L1124.88 202.096L1123.18 202.144L1123.25 205.408C1119.94 205.504 1116.98 205.624 1114.42 205.768L1114.54 207.448C1117.08 207.28 1119.98 207.16 1123.27 207.088L1123.3 209.248C1122.89 209.128 1122.5 209.056 1122.12 209.056C1121.04 209.056 1120.13 209.512 1119.38 210.4C1118.66 211.24 1118.3 212.2 1118.3 213.304C1118.3 215.248 1119.77 216.688 1121.71 216.688C1122.12 216.688 1122.53 216.616 1122.91 216.472C1122.43 217.912 1121.81 219.112 1121.04 220.048L1122.36 221.104C1123.25 220.048 1123.94 218.728 1124.5 217.12C1125.05 215.512 1125.31 214.024 1125.31 212.608C1125.31 212.272 1125.29 211.96 1125.24 211.696C1125.24 211.576 1125.19 211.36 1125.1 211C1125.02 210.712 1125 210.472 1125 210.304C1125 209.272 1125 208.192 1124.98 207.04L1130.95 206.944L1130.93 205.264ZM1123.34 213.304C1123.34 214.336 1122.67 215.008 1121.69 215.008C1120.73 215.008 1120.03 214.288 1120.03 213.328C1120.03 211.96 1120.85 210.784 1122.19 210.784C1122.7 210.784 1123.06 210.928 1123.32 211.192C1123.34 212.032 1123.34 212.728 1123.34 213.304ZM1147.94 217.672C1147.94 215.968 1146.5 214.528 1144.8 214.528C1143.07 214.528 1141.66 215.944 1141.66 217.672C1141.66 219.448 1143.02 220.816 1144.8 220.816C1146.53 220.816 1147.94 219.4 1147.94 217.672ZM1146.74 217.672C1146.74 218.728 1145.86 219.616 1144.8 219.616C1143.74 219.616 1142.86 218.728 1142.86 217.672C1142.86 216.616 1143.74 215.728 1144.8 215.728C1145.86 215.728 1146.74 216.616 1146.74 217.672Z" fill="#D94D6D"/>
</svg>
