<svg width="1107" height="295" viewBox="0 0 1107 295" fill="none" xmlns="http://www.w3.org/2000/svg">
<path d="M72.3056 128.326H96.8255V234H72.3056V222.934C62.2518 232.336 51.4384 237.038 39.8657 237.038C25.255 237.038 13.1759 231.758 3.62835 221.198C-5.84687 210.42 -10.5845 196.967 -10.5845 180.837C-10.5845 164.997 -5.84687 151.797 3.62835 141.237C13.1036 130.677 24.9657 125.397 39.2147 125.397C51.5108 125.397 62.5411 130.46 72.3056 140.586V128.326ZM14.3693 180.837C14.3693 190.964 17.0817 199.209 22.5065 205.574C28.0759 212.012 35.0919 215.23 43.5545 215.23C52.5957 215.23 59.9011 212.12 65.4705 205.9C71.0399 199.462 73.8246 191.289 73.8246 181.38C73.8246 171.471 71.0399 163.297 65.4705 156.86C59.9011 150.567 52.6681 147.421 43.7715 147.421C35.3812 147.421 28.3652 150.604 22.7235 156.969C17.1541 163.406 14.3693 171.362 14.3693 180.837ZM185.379 50.7521V140.586C195.144 130.46 206.21 125.397 218.579 125.397C232.828 125.397 244.69 130.713 254.165 141.345C263.64 151.906 268.378 165.07 268.378 180.837C268.378 197.112 263.604 210.565 254.056 221.198C244.581 231.758 232.611 237.038 218.145 237.038C205.921 237.038 194.999 232.336 185.379 222.934V234H160.968V50.7521H185.379ZM243.424 181.922C243.424 171.796 240.675 163.551 235.178 157.186C229.609 150.676 222.629 147.421 214.239 147.421C205.27 147.421 197.964 150.567 192.323 156.86C186.753 163.08 183.969 171.181 183.969 181.163C183.969 191.434 186.717 199.643 192.214 205.791C197.711 212.084 204.944 215.23 213.913 215.23C222.376 215.23 229.392 212.084 234.961 205.791C240.603 199.426 243.424 191.47 243.424 181.922ZM322.538 180.404C322.538 165.142 327.999 152.159 338.921 141.454C349.843 130.749 363.152 125.397 378.847 125.397C394.615 125.397 407.996 130.785 418.99 141.562C429.84 152.339 435.265 165.576 435.265 181.271C435.265 197.112 429.804 210.384 418.882 221.089C407.888 231.722 394.398 237.038 378.413 237.038C362.573 237.038 349.3 231.613 338.596 220.764C327.891 210.059 322.538 196.605 322.538 180.404ZM347.492 180.837C347.492 191.398 350.313 199.752 355.955 205.9C361.741 212.12 369.372 215.23 378.847 215.23C388.395 215.23 396.026 212.156 401.74 206.008C407.454 199.86 410.311 191.651 410.311 181.38C410.311 171.109 407.454 162.9 401.74 156.752C395.953 150.531 388.322 147.421 378.847 147.421C369.517 147.421 361.958 150.531 356.172 156.752C350.385 162.972 347.492 171.001 347.492 180.837ZM518.936 128.326V188.975C518.936 206.478 525.843 215.23 539.658 215.23C553.473 215.23 560.381 206.478 560.381 188.975V128.326H584.792V189.517C584.792 197.98 583.744 205.285 581.646 211.433C579.621 216.93 576.113 221.885 571.122 226.297C562.876 233.458 552.388 237.038 539.658 237.038C527.001 237.038 516.549 233.458 508.303 226.297C503.24 221.885 499.66 216.93 497.562 211.433C495.537 206.515 494.525 199.209 494.525 189.517V128.326H518.936ZM674.105 151.11V234H649.694V151.11H639.278V128.326H649.694V89.5932H674.105V128.326H693.092V151.11H674.105Z" fill="#1E5B9D"/>
<path d="M816.632 164.08L815.048 164.848L817.064 169.216L810.608 170.584L815.288 152.92L813.488 152.44L808.616 170.992L806.36 171.472L806.696 173.104L817.784 170.776L819.08 173.536L820.664 172.768L816.632 164.08ZM809.12 158.776H804.752V154.84L808.424 154.528L808.256 152.896C805.352 153.208 802.304 153.424 799.064 153.568L799.136 155.2C800.288 155.152 801.536 155.08 803 154.96V158.776H798.08V160.408H802.28C800.864 163.456 799.352 166.072 797.72 168.28L799.112 169.288C800.384 167.632 801.704 165.424 803.048 162.688V173.776H804.752V162.952L807.32 166.528L808.64 165.52L805.76 161.536L804.752 162.256V160.408H809.12V158.776ZM845.384 164.392C845.456 164.008 845.48 163.624 845.48 163.264C845.48 160.384 843.608 158.104 840.704 157.072C839.696 156.712 838.64 156.544 837.512 156.544C836.432 156.544 835.376 156.712 834.368 157.048C831.968 157.816 830.168 159.28 828.968 161.416C828.176 162.832 827.792 164.152 827.792 165.376C827.792 166.12 827.936 166.792 828.248 167.416C828.512 167.968 828.872 168.4 829.328 168.712C829.928 169.144 830.552 169.36 831.2 169.36C832.184 169.36 833.096 168.928 833.96 168.04C834.296 167.704 834.68 167.2 835.136 166.528C836.696 164.152 837.824 161.416 838.52 158.32C839.984 158.488 841.208 158.992 842.168 159.808C843.224 160.72 843.752 161.896 843.752 163.312C843.752 164.2 843.56 165.064 843.152 165.904C842.696 166.816 842 167.608 841.04 168.28C840.104 168.928 839.096 169.36 838.064 169.552L838.376 171.232C839.072 171.088 839.864 170.824 840.704 170.416C843.368 169.144 844.928 167.128 845.384 164.392ZM836.768 158.296C836.12 161.128 835.064 163.6 833.624 165.712C832.76 167.008 831.944 167.656 831.2 167.656C830.888 167.656 830.6 167.56 830.336 167.344C829.784 166.936 829.496 166.288 829.496 165.352C829.496 164.416 829.808 163.384 830.456 162.28C831.824 159.88 833.912 158.56 836.768 158.296ZM873.44 164.416L862.112 164.44C866.888 161.776 870.536 158.824 872.864 155.656L872.024 154.264H862.616C863.264 153.616 863.84 153.04 864.224 152.584L862.76 151.48C860.504 154.048 857.936 156.4 854.504 158.608L855.488 160.072C857.312 158.896 859.184 157.576 860.912 156.04H870.032C868.472 157.72 866.768 159.232 864.536 160.792L860.6 157.72L859.472 159.112L862.952 161.824C860.072 163.648 856.976 165.112 853.664 166.24L854.24 167.944C855.944 167.368 857.648 166.672 859.328 165.88V173.872H861.2V172.888H871.568V173.848H873.44V164.416ZM861.2 171.184V166.168H871.568V171.184H861.2ZM902.552 155.728H896.192L898.208 153.016L896.72 152.008L894.008 155.728H888.104L889.352 154.768L887.264 151.984L885.896 153.016L887.936 155.728H881.072V157.336H902.552V155.728ZM901.16 159.112H899.456V171.88H897.296V173.584H900.296L901.16 172.72V159.112ZM891.44 159.208H882.464V173.752H884.216V168.784H889.712V171.856H888.008V173.512H890.504L891.44 172.576V159.208ZM896.312 160H894.608V170.176H896.312V160ZM884.216 163.288V160.888H889.712V163.288H884.216ZM884.216 167.224V164.848H889.712V167.224H884.216ZM928.328 168.52C927.152 167.44 925.952 166.576 924.752 165.904C924.8 164.536 924.752 162.688 924.632 160.336L927.608 160.096L927.464 158.44C926.648 158.512 925.664 158.608 924.536 158.68L924.344 155.44L922.688 155.536L922.88 158.8C920.96 158.92 919.28 159.016 917.816 159.04L917.864 160.696C919.328 160.672 921.032 160.576 922.976 160.456C923.072 162.256 923.12 163.576 923.12 164.416L923.096 165.208C922.52 165.064 921.944 164.992 921.344 164.992C920.264 164.992 919.352 165.256 918.56 165.76C917.672 166.36 917.216 167.176 917.216 168.208C917.216 169.096 917.648 169.792 918.512 170.344C919.256 170.8 920.096 171.04 921.032 171.04C922.664 171.04 923.744 170.416 924.248 169.168C924.392 168.808 924.512 168.352 924.608 167.752C925.52 168.352 926.384 169 927.224 169.744L928.328 168.52ZM914.096 170.128C913.592 168.664 913.352 166.744 913.352 164.392C913.352 161.968 913.568 159.28 913.976 156.304L912.272 156.064C911.816 159.136 911.6 161.92 911.6 164.392C911.6 166.912 911.888 169.024 912.464 170.704L914.096 170.128ZM923.024 166.912C922.952 167.8 922.832 168.376 922.616 168.688C922.328 169.144 921.8 169.384 921.008 169.384C920.552 169.384 920.096 169.288 919.688 169.12C919.16 168.88 918.896 168.544 918.896 168.136C918.896 167.632 919.184 167.224 919.784 166.96C920.24 166.744 920.768 166.648 921.344 166.648C921.944 166.648 922.496 166.744 923.024 166.912ZM818.504 199.024H809.432V213.832H810.992V200.584H818.504V199.024ZM844.928 205.264L838.928 205.36L838.88 202.096L837.176 202.144L837.248 205.408C833.936 205.504 830.984 205.624 828.416 205.768L828.536 207.448C831.08 207.28 833.984 207.16 837.272 207.088L837.296 209.248C836.888 209.128 836.504 209.056 836.12 209.056C835.04 209.056 834.128 209.512 833.384 210.4C832.664 211.24 832.304 212.2 832.304 213.304C832.304 215.248 833.768 216.688 835.712 216.688C836.12 216.688 836.528 216.616 836.912 216.472C836.432 217.912 835.808 219.112 835.04 220.048L836.36 221.104C837.248 220.048 837.944 218.728 838.496 217.12C839.048 215.512 839.312 214.024 839.312 212.608C839.312 212.272 839.288 211.96 839.24 211.696C839.24 211.576 839.192 211.36 839.096 211C839.024 210.712 839 210.472 839 210.304C839 209.272 839 208.192 838.976 207.04L844.952 206.944L844.928 205.264ZM837.344 213.304C837.344 214.336 836.672 215.008 835.688 215.008C834.728 215.008 834.032 214.288 834.032 213.328C834.032 211.96 834.848 210.784 836.192 210.784C836.696 210.784 837.056 210.928 837.32 211.192C837.344 212.032 837.344 212.728 837.344 213.304ZM874.784 204.52C874.28 203.632 873.704 202.696 873.056 201.76L872.024 202.456C872.672 203.392 873.224 204.28 873.704 205.12L874.784 204.52ZM866.48 212.032L866.6 209.968C866.6 207.568 865.808 206.68 863.12 206.68C862.904 206.68 862.16 206.728 860.888 206.8L862.16 202.696L860.528 202.192L859.064 206.944C857.912 207.016 856.808 207.112 855.728 207.208L855.872 208.912L858.536 208.696C857.336 212.56 856.28 215.872 855.368 218.68L856.976 219.208C857.96 216.232 859.088 212.68 860.36 208.552C861.728 208.456 862.664 208.408 863.144 208.408C864.008 208.408 864.512 208.48 864.656 208.648C864.872 208.864 864.92 209.584 864.848 210.808L864.776 211.936C864.68 213.448 864.608 214.408 864.536 214.84C864.32 216.184 863.984 217.024 863.504 217.384C863.192 217.624 862.736 217.744 862.184 217.744C861.824 217.744 861.416 217.696 860.912 217.576L860.576 219.256C861.176 219.376 861.728 219.448 862.232 219.448C863.936 219.448 865.112 218.656 865.712 217.096C866.072 216.208 866.312 214.504 866.48 212.032ZM872.456 205.6C872.096 204.952 871.52 204.04 870.776 202.864L869.744 203.536C870.488 204.712 871.04 205.6 871.4 206.224L872.456 205.6ZM872.768 211.768C872.456 210.808 872 209.8 871.4 208.72C870.752 207.592 870.128 206.68 869.48 205.984L868.232 207.16C869.504 208.504 870.488 210.208 871.16 212.296L872.768 211.768ZM900.896 212.2C900.896 210.784 900.392 209.632 899.36 208.696C898.352 207.76 897.128 207.304 895.712 207.304C894.272 207.304 892.448 207.976 890.24 209.32C890.432 208.936 890.528 208.576 890.528 208.216C890.528 207.256 889.976 206.776 888.872 206.8C888.896 205.216 888.92 203.656 888.992 202.12L887.264 202.048C887.192 203.68 887.144 205.336 887.12 207.04C885.656 207.328 884.456 207.52 883.52 207.592L883.664 209.248C884.816 209.128 885.968 208.96 887.12 208.744V211.048C886.52 211.72 885.776 212.488 884.84 213.352L882.464 215.584L883.616 216.784C885.08 215.368 886.28 214.312 887.168 213.616C887.216 216.232 887.312 218.368 887.432 219.976L889.16 219.832C889.016 217.84 888.92 215.344 888.872 212.296C891.872 210.136 894.152 209.056 895.688 209.056C896.648 209.056 897.464 209.344 898.136 209.92C898.808 210.496 899.144 211.264 899.144 212.2C899.144 213.4 898.568 214.552 897.44 215.632C896.576 216.472 895.472 217.216 894.128 217.864L894.872 219.424C896.528 218.632 897.896 217.696 898.928 216.616C900.248 215.248 900.896 213.76 900.896 212.2ZM922.928 205.216C921.536 204.04 919.88 202.888 917.96 201.76L917.096 203.248C918.896 204.304 920.456 205.408 921.824 206.536L922.928 205.216ZM925.832 214.84C925.904 213.976 925.688 213.184 925.232 212.464C924.776 211.792 924.152 211.264 923.336 210.88C922.64 210.568 921.848 210.4 921.008 210.4C919.16 210.4 917.336 211.072 915.584 212.392L916.16 206.2L914.456 206.032L913.64 214.96L915.344 215.128L915.368 214.888C917.312 212.896 919.304 211.984 921.344 212.128C921.848 212.176 922.28 212.272 922.64 212.44C923.72 212.944 924.2 213.712 924.128 214.72C924.056 215.8 923.336 216.736 921.992 217.528C920.936 218.128 919.76 218.536 918.44 218.752L918.704 220.432C920.456 220.168 921.968 219.592 923.264 218.728C924.848 217.696 925.712 216.4 925.832 214.84ZM963.44 217.888C961.712 216.712 960.008 215.752 958.352 215.056C958.376 214.096 958.376 212.896 958.328 211.432L963.272 210.832L963.08 209.2L958.28 209.776L958.136 206.32C959.648 206.248 960.968 206.176 962.144 206.152L962.12 204.52C960.992 204.544 959.648 204.592 958.064 204.664C958.04 203.632 957.992 202.744 957.968 202.024L956.264 202.072C956.288 202.792 956.336 203.68 956.36 204.76C954.344 204.88 952.568 205 951.008 205.144L951.152 206.776C952.664 206.632 954.44 206.512 956.432 206.392L956.576 209.944C955.784 210.016 955.112 210.04 954.512 210.04C953.24 210.04 952.52 209.896 952.352 209.632C952.304 209.56 952.304 209.416 952.352 209.248L950.792 208.768C950.72 209.032 950.672 209.272 950.672 209.488C950.672 209.944 950.816 210.352 951.08 210.688C951.632 211.36 952.832 211.696 954.632 211.696C955.136 211.696 955.784 211.672 956.624 211.6C956.648 212.776 956.672 213.76 956.672 214.552C955.976 214.408 955.28 214.336 954.632 214.336C953.456 214.336 952.496 214.576 951.776 215.056C950.96 215.608 950.552 216.376 950.528 217.384C950.528 218.248 950.912 218.944 951.704 219.496C952.448 220 953.312 220.24 954.32 220.24C955.28 220.24 956.096 220 956.792 219.544C957.584 219.04 958.04 218.32 958.208 217.384C958.232 217.168 958.256 217 958.256 216.88C959.672 217.528 961.064 218.344 962.48 219.304L963.44 217.888ZM956.528 217.12C956.36 218.056 955.64 218.536 954.368 218.536C953.24 218.536 952.232 218.056 952.232 217.408C952.232 217 952.4 216.688 952.712 216.472C953.12 216.184 953.768 216.04 954.608 216.04C955.28 216.04 955.952 216.112 956.6 216.28L956.528 217.12ZM983.408 214.36C982.376 216.232 981.392 217.168 980.408 217.168C978.776 217.168 977.96 214.48 977.96 209.08C977.96 207.424 978.032 205.984 978.176 204.712L976.4 204.52C976.232 205.936 976.16 207.4 976.16 208.96C976.16 215.608 977.576 218.92 980.432 218.92C982.088 218.92 983.576 217.696 984.944 215.224L983.408 214.36ZM993.44 215.296C993.08 213.616 992.504 211.96 991.76 210.304C990.944 208.456 990.032 206.968 989.048 205.816L987.704 206.968C989.48 209.056 990.8 211.984 991.664 215.704L993.44 215.296ZM1011.34 208.048H1009.78V221.296H1002.27V222.856H1011.34V208.048ZM1046.38 203.992C1041.56 204.232 1036.57 204.64 1031.36 205.24L1031.55 206.944C1034.46 206.632 1037.58 206.344 1040.91 206.08C1038.49 208.216 1037.19 210.472 1037.07 212.824C1036.95 214.96 1037.55 216.664 1038.85 217.912C1040.02 219.04 1041.73 219.76 1043.94 220.048L1044.15 218.32C1040.43 217.864 1038.63 216.064 1038.8 212.92C1038.92 210.448 1040.67 208.096 1044.06 205.864L1046.48 205.72L1046.38 203.992ZM1048.09 210.928C1047.58 210.04 1047.01 209.128 1046.36 208.168L1045.33 208.888C1045.98 209.824 1046.53 210.688 1047.01 211.528L1048.09 210.928ZM1045.57 211.864C1045.21 211.216 1044.63 210.304 1043.86 209.128L1042.83 209.8C1043.58 210.976 1044.13 211.864 1044.49 212.488L1045.57 211.864ZM1075.33 205.264L1069.33 205.36L1069.28 202.096L1067.58 202.144L1067.65 205.408C1064.34 205.504 1061.38 205.624 1058.82 205.768L1058.94 207.448C1061.48 207.28 1064.38 207.16 1067.67 207.088L1067.7 209.248C1067.29 209.128 1066.9 209.056 1066.52 209.056C1065.44 209.056 1064.53 209.512 1063.78 210.4C1063.06 211.24 1062.7 212.2 1062.7 213.304C1062.7 215.248 1064.17 216.688 1066.11 216.688C1066.52 216.688 1066.93 216.616 1067.31 216.472C1066.83 217.912 1066.21 219.112 1065.44 220.048L1066.76 221.104C1067.65 220.048 1068.34 218.728 1068.9 217.12C1069.45 215.512 1069.71 214.024 1069.71 212.608C1069.71 212.272 1069.69 211.96 1069.64 211.696C1069.64 211.576 1069.59 211.36 1069.5 211C1069.42 210.712 1069.4 210.472 1069.4 210.304C1069.4 209.272 1069.4 208.192 1069.38 207.04L1075.35 206.944L1075.33 205.264ZM1067.74 213.304C1067.74 214.336 1067.07 215.008 1066.09 215.008C1065.13 215.008 1064.43 214.288 1064.43 213.328C1064.43 211.96 1065.25 210.784 1066.59 210.784C1067.1 210.784 1067.46 210.928 1067.72 211.192C1067.74 212.032 1067.74 212.728 1067.74 213.304ZM1092.34 217.672C1092.34 215.968 1090.9 214.528 1089.2 214.528C1087.47 214.528 1086.06 215.944 1086.06 217.672C1086.06 219.448 1087.42 220.816 1089.2 220.816C1090.93 220.816 1092.34 219.4 1092.34 217.672ZM1091.14 217.672C1091.14 218.728 1090.26 219.616 1089.2 219.616C1088.14 219.616 1087.26 218.728 1087.26 217.672C1087.26 216.616 1088.14 215.728 1089.2 215.728C1090.26 215.728 1091.14 216.616 1091.14 217.672Z" fill="#1E5B9D"/>
</svg>
