<svg width="1103" height="151" viewBox="0 0 1103 151" fill="none" xmlns="http://www.w3.org/2000/svg">
<path d="M779.08 52.512V59.712H795.064L795.088 52.512H779.08ZM793.312 55.464H780.832V54.072H793.336L793.312 55.464ZM780.832 58.2V56.904H793.312V58.2H780.832ZM797.896 60.792H776.128V62.4H778.264V71.136L776.128 71.448L776.392 73.032L784.888 71.736V73.992H786.52V62.4H797.896V60.792ZM779.896 64.104V62.4H784.888V64.104H779.896ZM797.896 72.36C796.288 71.808 794.872 71.064 793.648 70.128C795.256 68.496 796.312 66.72 796.864 64.824L796.072 63.816H787.408V65.448H788.296C788.776 67.2 789.712 68.76 791.104 70.152C789.928 71.112 788.632 71.928 787.168 72.6L787.864 74.088C789.568 73.32 791.08 72.384 792.4 71.28C793.816 72.36 795.472 73.248 797.368 73.896L797.896 72.36ZM794.896 65.376C794.296 66.648 793.456 67.92 792.352 69.024C791.272 67.944 790.504 66.672 790.024 65.376H794.896ZM779.896 67.248V65.568H784.888V67.248H779.896ZM779.896 70.872V68.688H784.888V70.128L779.896 70.872ZM815.008 54.528H810.424V52.08H808.672V54.528H804.064V56.136H815.008V54.528ZM825.784 59.88H818.2V55.416C820.504 55.248 822.856 54.936 825.256 54.48L824.944 52.8C822.136 53.328 819.328 53.664 816.472 53.808V63.384C816.472 66.72 815.824 70.224 813.52 72.744L814.792 74.016C817.288 71.424 818.2 67.128 818.2 63.384V61.56H821.344V73.944H823.12V61.56H825.784V59.88ZM815.176 60.312H812.128L813.88 57.288L812.368 56.496L810.184 60.312H803.752V61.92H815.176V60.312ZM806.848 56.64L805.408 57.432L806.896 60.12L808.312 59.328L806.848 56.64ZM815.056 64.56H810.496V62.4H808.792V64.56H803.872V66.144H807.976C806.608 68.208 805.12 70.008 803.512 71.568L804.64 72.744C806.104 71.376 807.496 69.768 808.792 67.872V73.944H810.496V68.088L813.016 70.536L814.144 69.36L811.216 66.528L810.496 67.248V66.144H815.056V64.56ZM850.984 64.392C851.056 64.008 851.08 63.624 851.08 63.264C851.08 60.384 849.208 58.104 846.304 57.072C845.296 56.712 844.24 56.544 843.112 56.544C842.032 56.544 840.976 56.712 839.968 57.048C837.568 57.816 835.768 59.28 834.568 61.416C833.776 62.832 833.392 64.152 833.392 65.376C833.392 66.12 833.536 66.792 833.848 67.416C834.112 67.968 834.472 68.4 834.928 68.712C835.528 69.144 836.152 69.36 836.8 69.36C837.784 69.36 838.696 68.928 839.56 68.04C839.896 67.704 840.28 67.2 840.736 66.528C842.296 64.152 843.424 61.416 844.12 58.32C845.584 58.488 846.808 58.992 847.768 59.808C848.824 60.72 849.352 61.896 849.352 63.312C849.352 64.2 849.16 65.064 848.752 65.904C848.296 66.816 847.6 67.608 846.64 68.28C845.704 68.928 844.696 69.36 843.664 69.552L843.976 71.232C844.672 71.088 845.464 70.824 846.304 70.416C848.968 69.144 850.528 67.128 850.984 64.392ZM842.368 58.296C841.72 61.128 840.664 63.6 839.224 65.712C838.36 67.008 837.544 67.656 836.8 67.656C836.488 67.656 836.2 67.56 835.936 67.344C835.384 66.936 835.096 66.288 835.096 65.352C835.096 64.416 835.408 63.384 836.056 62.28C837.424 59.88 839.512 58.56 842.368 58.296ZM878.44 55.968C878.44 54.72 877.432 53.712 876.208 53.712C874.96 53.712 873.952 54.72 873.952 55.968C873.952 57.192 874.96 58.2 876.208 58.2C877.432 58.2 878.44 57.192 878.44 55.968ZM877.48 55.968C877.48 56.712 876.952 57.264 876.208 57.264C875.44 57.264 874.912 56.712 874.912 55.968C874.912 55.2 875.44 54.648 876.208 54.648C876.952 54.648 877.48 55.2 877.48 55.968ZM876.832 59.352L870.592 59.52L870.568 55.272H868.888V59.568L862.792 59.736L862.816 61.392L868.912 61.224L868.936 71.424H870.616L870.592 61.176L876.88 60.984L876.832 59.352ZM878.632 67.872C877.672 66.912 876.256 65.568 874.384 63.816L873.232 65.04C875.056 66.744 876.472 68.088 877.456 69.072L878.632 67.872ZM865.096 64.464C863.656 66.312 862.432 67.704 861.448 68.64L862.576 69.888C863.656 68.88 864.952 67.416 866.44 65.496L865.096 64.464ZM905.632 62.496L889.264 62.832L889.312 64.68L905.656 64.32L905.632 62.496ZM932.104 64.2C929.824 62.736 926.752 61.608 922.912 60.84V54.864L921.04 54.888C921.064 57.936 921.088 60.024 921.088 61.104L921.04 72.168L922.888 72.192C922.912 70.032 922.936 66.864 922.936 62.664C926.416 63.408 929.152 64.416 931.144 65.688L932.104 64.2ZM959.368 57.624C959.368 56.976 959.08 56.64 958.48 56.64C958.336 56.64 956.92 56.712 954.256 56.88C950.536 57.096 947.704 57.24 945.712 57.336L945.808 59.112L957.4 58.488C956.8 60.96 955.696 63.24 954.088 65.304C952.48 67.368 950.56 69.024 948.304 70.296L949.168 71.856C953.896 69.192 957.112 65.304 958.768 60.192C959.176 58.992 959.368 58.128 959.368 57.624ZM987.28 60.816L982.792 60.912V57.6H981.232V60.96L974.08 61.128L974.104 62.664L979.912 62.52C979.144 63.816 978.16 65.088 976.96 66.36C975.784 67.608 974.56 68.64 973.312 69.48L974.152 70.776C977.056 68.88 979.408 66.408 981.232 63.36V71.88H982.792V62.472L987.328 62.352L987.28 60.816ZM1013.46 59.688C1013.46 58.896 1013.44 57.552 1013.39 55.656L1011.62 55.704C1011.66 57.72 1011.69 59.112 1011.69 59.904C1011.69 62.856 1011.26 65.04 1010.37 66.456C1009.41 68.016 1007.58 69.24 1004.9 70.176L1005.5 71.856C1008.59 70.776 1010.73 69.288 1011.9 67.392C1012.94 65.688 1013.46 63.12 1013.46 59.688ZM1004.18 58.704C1004.18 57.792 1004.15 57 1004.1 56.304L1002.33 56.448C1002.38 57.12 1002.4 57.816 1002.4 58.56V60.648C1002.4 61.752 1002.38 63.216 1002.33 65.016L1004.1 65.064C1004.15 63.24 1004.18 61.656 1004.18 60.336V58.704ZM1043.73 58.752L1038.38 58.896V54.936H1036.65V58.92L1028.15 59.136L1028.18 60.864L1035.14 60.696C1034.22 62.208 1033.05 63.744 1031.61 65.256C1030.19 66.768 1028.75 67.992 1027.29 68.976L1028.22 70.416C1029.81 69.384 1031.37 68.064 1032.88 66.456C1034.42 64.848 1035.66 63.216 1036.65 61.56V71.76H1038.38V60.624L1043.78 60.504L1043.73 58.752ZM1071.93 68.52C1070.75 67.44 1069.55 66.576 1068.35 65.904C1068.4 64.536 1068.35 62.688 1068.23 60.336L1071.21 60.096L1071.06 58.44C1070.25 58.512 1069.26 58.608 1068.14 58.68L1067.94 55.44L1066.29 55.536L1066.48 58.8C1064.56 58.92 1062.88 59.016 1061.42 59.04L1061.46 60.696C1062.93 60.672 1064.63 60.576 1066.58 60.456C1066.67 62.256 1066.72 63.576 1066.72 64.416L1066.7 65.208C1066.12 65.064 1065.54 64.992 1064.94 64.992C1063.86 64.992 1062.95 65.256 1062.16 65.76C1061.27 66.36 1060.82 67.176 1060.82 68.208C1060.82 69.096 1061.25 69.792 1062.11 70.344C1062.86 70.8 1063.7 71.04 1064.63 71.04C1066.26 71.04 1067.34 70.416 1067.85 69.168C1067.99 68.808 1068.11 68.352 1068.21 67.752C1069.12 68.352 1069.98 69 1070.82 69.744L1071.93 68.52ZM1057.7 70.128C1057.19 68.664 1056.95 66.744 1056.95 64.392C1056.95 61.968 1057.17 59.28 1057.58 56.304L1055.87 56.064C1055.42 59.136 1055.2 61.92 1055.2 64.392C1055.2 66.912 1055.49 69.024 1056.06 70.704L1057.7 70.128ZM1066.62 66.912C1066.55 67.8 1066.43 68.376 1066.22 68.688C1065.93 69.144 1065.4 69.384 1064.61 69.384C1064.15 69.384 1063.7 69.288 1063.29 69.12C1062.76 68.88 1062.5 68.544 1062.5 68.136C1062.5 67.632 1062.78 67.224 1063.38 66.96C1063.84 66.744 1064.37 66.648 1064.94 66.648C1065.54 66.648 1066.1 66.744 1066.62 66.912ZM1083.23 67.032L1081.94 68.232L1086.62 72.888L1087.89 71.688L1083.23 67.032ZM792.664 105.6C791.296 104.904 787.96 104.232 782.68 103.608L782.464 105.432C787.528 106.032 790.624 106.632 791.8 107.232L792.664 105.6ZM793.312 116.88C791.584 117.48 789.616 117.792 787.408 117.792C786.352 117.792 785.344 117.696 784.36 117.504C782.92 117.24 782.2 116.808 782.2 116.232C782.2 115.728 782.68 114.864 783.64 113.664L782.224 112.56C781 114.096 780.4 115.32 780.4 116.232C780.4 117.528 781.312 118.464 783.112 119.016C784.288 119.376 785.728 119.544 787.432 119.544C789.832 119.544 791.992 119.208 793.888 118.536L793.312 116.88ZM822.4 115.272C822.4 113.64 821.608 112.464 820 111.744C819.256 111.384 818.416 111.216 817.456 111.216C815.416 111.216 813.4 111.864 811.408 113.136C811.672 111.384 811.96 109.632 812.248 107.928C814.408 107.808 816.544 107.64 818.632 107.4L818.44 105.72C816.544 105.936 814.576 106.08 812.536 106.2C812.776 104.88 813.016 103.656 813.256 102.528L811.6 102.168C811.336 103.44 811.072 104.808 810.808 106.296C809.44 106.344 808.336 106.344 807.472 106.272L807.352 107.976C808.192 108.024 809.248 108.024 810.496 108C810.088 110.4 809.752 112.608 809.464 114.624L809.392 114.72L810.544 115.968C811.552 115.032 812.656 114.312 813.856 113.76C815.176 113.16 816.472 112.872 817.72 112.944C818.368 112.968 818.92 113.088 819.328 113.304C820.24 113.736 820.696 114.384 820.696 115.272C820.696 116.592 819.832 117.552 818.08 118.176C817.096 118.512 815.68 118.752 813.808 118.92L813.952 120.624C816.328 120.408 818.152 120.024 819.424 119.448C821.416 118.56 822.4 117.168 822.4 115.272ZM845.728 105.216C844.336 104.04 842.68 102.888 840.76 101.76L839.896 103.248C841.696 104.304 843.256 105.408 844.624 106.536L845.728 105.216ZM848.632 114.84C848.704 113.976 848.488 113.184 848.032 112.464C847.576 111.792 846.952 111.264 846.136 110.88C845.44 110.568 844.648 110.4 843.808 110.4C841.96 110.4 840.136 111.072 838.384 112.392L838.96 106.2L837.256 106.032L836.44 114.96L838.144 115.128L838.168 114.888C840.112 112.896 842.104 111.984 844.144 112.128C844.648 112.176 845.08 112.272 845.44 112.44C846.52 112.944 847 113.712 846.928 114.72C846.856 115.8 846.136 116.736 844.792 117.528C843.736 118.128 842.56 118.536 841.24 118.752L841.504 120.432C843.256 120.168 844.768 119.592 846.064 118.728C847.648 117.696 848.512 116.4 848.632 114.84ZM872.992 111.816L873.112 109.752C873.112 107.352 872.32 106.464 869.632 106.464C869.416 106.464 868.672 106.512 867.4 106.608L868.648 102.48L867.016 102L865.576 106.728C864.448 106.8 863.32 106.896 862.24 106.992L862.384 108.696L865.048 108.48C863.848 112.344 862.792 115.656 861.88 118.464L863.488 118.992C864.472 116.016 865.6 112.464 866.872 108.336C868.24 108.24 869.176 108.192 869.656 108.192C870.52 108.192 871.024 108.264 871.168 108.432C871.384 108.648 871.432 109.368 871.36 110.592L871.288 111.72C871.192 113.232 871.12 114.192 871.048 114.624C870.832 115.968 870.496 116.808 870.016 117.168C869.704 117.408 869.248 117.528 868.696 117.528C868.336 117.528 867.928 117.48 867.424 117.384L867.088 119.04C867.688 119.16 868.24 119.232 868.744 119.232C870.448 119.232 871.624 118.44 872.224 116.88C872.584 115.992 872.824 114.312 872.992 111.816ZM879.28 111.552C878.968 110.592 878.512 109.584 877.912 108.504C877.264 107.376 876.64 106.464 875.992 105.768L874.744 106.944C876.016 108.288 877 109.992 877.648 112.08L879.28 111.552ZM900.928 105.216C899.536 104.04 897.88 102.888 895.96 101.76L895.096 103.248C896.896 104.304 898.456 105.408 899.824 106.536L900.928 105.216ZM903.832 114.84C903.904 113.976 903.688 113.184 903.232 112.464C902.776 111.792 902.152 111.264 901.336 110.88C900.64 110.568 899.848 110.4 899.008 110.4C897.16 110.4 895.336 111.072 893.584 112.392L894.16 106.2L892.456 106.032L891.64 114.96L893.344 115.128L893.368 114.888C895.312 112.896 897.304 111.984 899.344 112.128C899.848 112.176 900.28 112.272 900.64 112.44C901.72 112.944 902.2 113.712 902.128 114.72C902.056 115.8 901.336 116.736 899.992 117.528C898.936 118.128 897.76 118.536 896.44 118.752L896.704 120.432C898.456 120.168 899.968 119.592 901.264 118.728C902.848 117.696 903.712 116.4 903.832 114.84ZM922.744 117.672C922.744 115.968 921.304 114.528 919.6 114.528C917.872 114.528 916.456 115.944 916.456 117.672C916.456 119.448 917.824 120.816 919.6 120.816C921.328 120.816 922.744 119.4 922.744 117.672ZM921.544 117.672C921.544 118.728 920.656 119.616 919.6 119.616C918.544 119.616 917.656 118.728 917.656 117.672C917.656 116.616 918.544 115.728 919.6 115.728C920.656 115.728 921.544 116.616 921.544 117.672Z" fill="#F7E7DE"/>
<path d="M20.3077 149.327H7.85749V66.1042H20.3077V71.9697C25.2141 67.0634 30.7844 64.6102 37.0188 64.6102C44.4336 64.6102 50.5388 67.34 55.3345 72.7997C60.2039 78.2225 62.6386 85.0655 62.6386 93.3288C62.6386 101.408 60.2223 108.14 55.3898 113.526C50.5941 118.875 44.5442 121.549 37.2401 121.549C30.932 121.549 25.2878 119.022 20.3077 113.969V149.327ZM49.9117 93.3841C49.9117 88.2196 48.5099 84.0142 45.7063 80.7679C42.8658 77.4847 39.2875 75.8431 34.9714 75.8431C30.3971 75.8431 26.6897 77.4294 23.8492 80.6019C21.0086 83.7744 19.5884 87.9429 19.5884 93.1075C19.5884 98.1613 21.0086 102.33 23.8492 105.613C26.6528 108.822 30.3417 110.427 34.916 110.427C39.2321 110.427 42.792 108.804 45.5956 105.558C48.473 102.311 49.9117 98.2536 49.9117 93.3841ZM90.2616 92.6648C90.2616 84.8811 93.0467 78.2594 98.6171 72.7997C104.187 67.34 110.975 64.6102 118.98 64.6102C127.022 64.6102 133.847 67.3585 139.454 72.855C144.987 78.3516 147.754 85.1024 147.754 93.1075C147.754 101.186 144.969 107.956 139.399 113.415C133.791 118.838 126.911 121.549 118.759 121.549C110.68 121.549 103.911 118.783 98.4511 113.249C92.9914 107.79 90.2616 100.928 90.2616 92.6648ZM102.988 92.8861C102.988 98.272 104.427 102.533 107.305 105.668C110.256 108.841 114.148 110.427 118.98 110.427C123.85 110.427 127.741 108.859 130.656 105.724C133.57 102.588 135.027 98.4011 135.027 93.1628C135.027 87.9245 133.57 83.7375 130.656 80.6019C127.705 77.4294 123.813 75.8431 118.98 75.8431C114.221 75.8431 110.366 77.4294 107.415 80.6019C104.464 83.7744 102.988 87.8691 102.988 92.8861ZM177.978 66.1042H190.428V70.9183C192.715 68.5205 194.744 66.8789 196.515 65.9936C198.322 65.0713 200.462 64.6102 202.934 64.6102C206.217 64.6102 209.648 65.68 213.226 67.8196L207.526 79.2185C205.165 77.5216 202.86 76.6731 200.61 76.6731C193.822 76.6731 190.428 81.8008 190.428 92.0561V120H177.978V66.1042ZM254.295 77.7245V120H241.845V77.7245H236.533V66.1042H241.845V46.3498H254.295V66.1042H263.979V77.7245H254.295ZM302.336 77.7245V120H289.831V77.7245H285.404V66.1042H289.831V45.2985C289.831 38.5108 291.011 33.7151 293.372 30.9115C296.619 27.0012 301.34 25.0461 307.538 25.0461C309.751 25.0461 312.536 25.6916 315.893 26.9828V39.7097L314.621 39.0457C311.928 37.6808 309.714 36.9983 307.981 36.9983C305.767 36.9983 304.273 37.7914 303.498 39.3777C302.724 40.9271 302.336 43.9151 302.336 48.3419V66.1042H315.893V77.7245H302.336ZM338.979 92.6648C338.979 84.8811 341.764 78.2594 347.334 72.7997C352.905 67.34 359.692 64.6102 367.697 64.6102C375.739 64.6102 382.564 67.3585 388.171 72.855C393.705 78.3516 396.471 85.1024 396.471 93.1075C396.471 101.186 393.686 107.956 388.116 113.415C382.509 118.838 375.629 121.549 367.476 121.549C359.397 121.549 352.628 118.783 347.168 113.249C341.709 107.79 338.979 100.928 338.979 92.6648ZM351.706 92.8861C351.706 98.272 353.145 102.533 356.022 105.668C358.973 108.841 362.865 110.427 367.697 110.427C372.567 110.427 376.459 108.859 379.373 105.724C382.287 102.588 383.744 98.4011 383.744 93.1628C383.744 87.9245 382.287 83.7375 379.373 80.6019C376.422 77.4294 372.53 75.8431 367.697 75.8431C362.939 75.8431 359.084 77.4294 356.133 80.6019C353.181 83.7744 351.706 87.8691 351.706 92.8861ZM439.145 26.5401V120H426.695V26.5401H439.145ZM484.365 66.1042V120H471.914V66.1042H484.365ZM470.033 43.6938C470.033 41.5173 470.826 39.6359 472.412 38.0497C473.999 36.4634 475.898 35.6703 478.112 35.6703C480.362 35.6703 482.28 36.4634 483.867 38.0497C485.453 39.599 486.246 41.4989 486.246 43.7491C486.246 45.9994 485.453 47.9176 483.867 49.5039C482.317 51.0902 480.417 51.8833 478.167 51.8833C475.917 51.8833 473.999 51.0902 472.412 49.5039C470.826 47.9176 470.033 45.9809 470.033 43.6938ZM514.588 92.6648C514.588 84.8811 517.373 78.2594 522.944 72.7997C528.514 67.34 535.302 64.6102 543.307 64.6102C551.349 64.6102 558.173 67.3585 563.781 72.855C569.314 78.3516 572.081 85.1024 572.081 93.1075C572.081 101.186 569.296 107.956 563.725 113.415C558.118 118.838 551.238 121.549 543.086 121.549C535.007 121.549 528.237 118.783 522.778 113.249C517.318 107.79 514.588 100.928 514.588 92.6648ZM527.315 92.8861C527.315 98.272 528.754 102.533 531.631 105.668C534.583 108.841 538.474 110.427 543.307 110.427C548.176 110.427 552.068 108.859 554.982 105.724C557.897 102.588 559.354 98.4011 559.354 93.1628C559.354 87.9245 557.897 83.7375 554.982 80.6019C552.031 77.4294 548.139 75.8431 543.307 75.8431C538.548 75.8431 534.693 77.4294 531.742 80.6019C528.791 83.7744 527.315 87.8691 527.315 92.8861Z" fill="#F7E7DE"/>
</svg>
