<svg width="164" height="163" viewBox="0 0 164 163" fill="none" xmlns="http://www.w3.org/2000/svg">
<rect y="69.041" width="29.5205" height="29.5205" rx="12.0492" fill="#330000"/>
<path d="M11.4961 84.9791V88.668H10.1253V79.584H11.6785C12.4394 79.584 13.014 79.637 13.4023 79.7429C13.7946 79.8488 14.1397 80.0488 14.4378 80.343C14.9595 80.8529 15.2203 81.4961 15.2203 82.2727C15.2203 83.1042 14.9418 83.7632 14.3849 84.2495C13.8279 84.7359 13.0768 84.9791 12.1315 84.9791H11.4961ZM11.4961 83.7083H12.008C13.267 83.7083 13.8965 83.2239 13.8965 82.2551C13.8965 81.3177 13.2474 80.8489 11.9491 80.8489H11.4961V83.7083ZM19.7093 83.9142L18.615 84.4966C18.4424 84.1436 18.2287 83.9671 17.9737 83.9671C17.8521 83.9671 17.7482 84.0083 17.6619 84.0907C17.5756 84.1691 17.5325 84.2711 17.5325 84.3966C17.5325 84.6163 17.7874 84.834 18.2973 85.0497C18.9994 85.3517 19.472 85.6302 19.7152 85.8851C19.9584 86.1401 20.08 86.4833 20.08 86.9147C20.08 87.4678 19.876 87.9306 19.4681 88.3032C19.072 88.6562 18.5934 88.8327 18.0326 88.8327C17.0716 88.8327 16.3911 88.364 15.991 87.4266L17.1206 86.903C17.2775 87.1775 17.3972 87.3521 17.4795 87.4266C17.6403 87.5756 17.8325 87.6501 18.0561 87.6501C18.5032 87.6501 18.7268 87.4462 18.7268 87.0383C18.7268 86.8029 18.5542 86.5833 18.2091 86.3793C18.0757 86.3127 17.9424 86.2479 17.809 86.1852C17.6756 86.1224 17.5403 86.0577 17.403 85.991C17.0187 85.8028 16.748 85.6145 16.5911 85.4262C16.3911 85.187 16.2911 84.8791 16.2911 84.5025C16.2911 84.0044 16.4617 83.5926 16.8029 83.267C17.152 82.9415 17.5756 82.7787 18.0738 82.7787C18.8072 82.7787 19.3524 83.1572 19.7093 83.9142Z" fill="#19ACFC"/>
<path d="M40.048 82.784V83.144H38.544V82.784H40.048ZM38.544 83.952V83.576H40.048V83.952H38.544ZM40.728 84.4V82.328H37.864V87.624H38.544V84.4H40.728ZM41.832 85.2V85.632H40.192V85.2H41.832ZM40.192 86.512V86.072H41.832V86.512H40.192ZM42.488 86.96V84.768H39.52V87.24H40.192V86.96H42.488ZM41.976 83.952V83.576H43.544V83.952H41.976ZM43.544 82.784V83.144H41.976V82.784H43.544ZM44.248 82.328H41.304V84.4H43.544V86.824C43.544 86.936 43.512 86.976 43.384 86.976C43.264 86.984 42.848 86.984 42.44 86.968C42.536 87.144 42.632 87.44 42.664 87.624C43.248 87.624 43.656 87.616 43.912 87.512C44.16 87.4 44.248 87.2 44.248 86.832V82.328ZM42.128 80.872C42.208 80.72 42.288 80.568 42.352 80.416L41.64 80.24C41.48 80.664 41.208 81.072 40.888 81.408V80.872H38.944C39.024 80.728 39.096 80.576 39.16 80.424L38.464 80.24C38.216 80.848 37.784 81.456 37.304 81.856C37.48 81.952 37.768 82.144 37.912 82.264C38.136 82.048 38.368 81.768 38.584 81.456H38.808C38.96 81.72 39.112 82.032 39.176 82.232L39.824 82.04C39.76 81.88 39.656 81.664 39.536 81.456H40.84C40.704 81.592 40.56 81.72 40.408 81.824C40.592 81.904 40.904 82.08 41.064 82.192C41.296 81.992 41.528 81.744 41.744 81.456H42.28C42.488 81.72 42.696 82.04 42.784 82.248L43.448 82.048C43.368 81.88 43.224 81.656 43.064 81.456H44.576V80.872H42.128ZM46.904 84.312V83.6H48.6V84.312H46.904ZM48.6 83.008H46.904V82.304H48.6V83.008ZM51.144 83.008H49.36V82.304H51.144V83.008ZM51.144 84.312H49.36V83.6H51.144V84.312ZM52.568 85.568H49.36V84.936H51.904V81.68H51.152C51.408 81.344 51.688 80.936 51.936 80.544L51.12 80.288C50.936 80.72 50.6 81.296 50.312 81.68H48.984L49.496 81.472C49.376 81.144 49.088 80.64 48.816 80.264L48.152 80.52C48.392 80.872 48.648 81.344 48.768 81.68H47.168L47.616 81.464C47.456 81.152 47.112 80.68 46.816 80.352L46.168 80.64C46.432 80.952 46.728 81.368 46.88 81.68H46.176V84.936H48.6V85.568H45.448V86.264H48.6V87.632H49.36V86.264H52.568V85.568ZM56.68 80.608L55.8 80.52C55.784 80.944 55.688 81.44 55.568 81.888C55.288 81.912 55.008 81.92 54.744 81.92C54.424 81.92 54.04 81.904 53.728 81.872L53.784 82.616C54.104 82.632 54.44 82.64 54.744 82.64C54.936 82.64 55.128 82.632 55.328 82.624C54.968 83.528 54.304 84.76 53.648 85.544L54.416 85.936C55.064 85.056 55.76 83.664 56.152 82.536C56.688 82.464 57.184 82.36 57.584 82.248L57.56 81.512C57.192 81.632 56.792 81.72 56.384 81.784C56.504 81.336 56.616 80.888 56.68 80.608ZM56.248 86.152C56.248 85.824 56.608 85.584 57.136 85.584C57.4 85.584 57.648 85.624 57.88 85.688C57.888 85.792 57.888 85.888 57.888 85.96C57.888 86.392 57.688 86.728 57.08 86.728C56.536 86.728 56.248 86.496 56.248 86.152ZM58.56 83.088H57.776C57.792 83.616 57.832 84.368 57.856 85C57.64 84.968 57.416 84.944 57.176 84.944C56.184 84.944 55.504 85.472 55.504 86.224C55.504 87.056 56.256 87.456 57.184 87.456C58.24 87.456 58.648 86.904 58.648 86.224C58.648 86.16 58.648 86.08 58.648 86C59.128 86.264 59.536 86.608 59.848 86.896L60.272 86.216C59.864 85.856 59.304 85.456 58.616 85.208C58.592 84.752 58.568 84.288 58.56 84.024C58.552 83.704 58.544 83.424 58.56 83.088ZM60.064 83.392L60.52 82.728C60.12 82.44 59.176 81.912 58.6 81.656L58.192 82.272C58.736 82.52 59.624 83.024 60.064 83.392ZM67.568 86.44H62.448V82.16H61.72V87.624H62.448V87.144H67.568V87.608H68.296V82.16H67.568V86.44ZM66.24 83.752H65.296V82.88H66.24V83.752ZM66.24 85.224H65.296V84.344H66.24V85.224ZM63.712 84.344H64.648V85.224H63.712V84.344ZM63.712 82.88H64.648V83.752H63.712V82.88ZM61.472 80.792V81.48H64.6V82.264H63.088V85.84H66.888V82.264H65.344V81.48H68.528V80.792H61.472ZM70.816 80.32C70.448 81.52 69.832 82.704 69.168 83.48C69.28 83.664 69.472 84.08 69.536 84.264C69.76 84.008 69.968 83.712 70.176 83.384V87.624H70.88V82.088C71.12 81.576 71.328 81.04 71.504 80.512L70.816 80.32ZM72.376 82.384H73.64V83.16H72.376V82.384ZM74.248 81.336C74.136 81.528 74 81.712 73.864 81.864H72.424C72.576 81.688 72.72 81.512 72.856 81.336H74.248ZM75.664 83.16H74.32V82.384H75.664V83.16ZM76.12 83.888C75.88 84.136 75.504 84.448 75.176 84.696C75.04 84.376 74.928 84.032 74.84 83.672H76.376V81.864H74.672C74.872 81.608 75.064 81.328 75.216 81.064L74.768 80.744L74.64 80.784H73.232C73.312 80.664 73.384 80.544 73.448 80.424L72.736 80.296C72.424 80.896 71.856 81.648 71.064 82.2C71.232 82.288 71.48 82.472 71.608 82.624L71.696 82.552V83.672H73.096C72.544 84 71.864 84.272 71.232 84.448C71.36 84.576 71.568 84.824 71.656 84.952C72.104 84.792 72.592 84.576 73.048 84.32C73.144 84.408 73.24 84.504 73.328 84.6C72.792 84.992 71.952 85.384 71.296 85.576C71.424 85.704 71.576 85.92 71.648 86.064C72.272 85.824 73.056 85.408 73.616 85C73.696 85.128 73.76 85.264 73.816 85.392C73.176 85.976 72.056 86.576 71.16 86.856C71.304 87 71.464 87.224 71.56 87.4C72.344 87.096 73.28 86.56 73.96 86.016C74 86.416 73.904 86.736 73.728 86.872C73.6 87 73.472 87.016 73.288 87.016C73.136 87.016 72.904 87.008 72.664 86.984C72.776 87.168 72.824 87.44 72.832 87.616C73.048 87.632 73.264 87.632 73.432 87.632C73.76 87.624 73.976 87.568 74.224 87.36C74.856 86.848 74.856 85.112 73.552 84.016C73.72 83.904 73.88 83.792 74.032 83.672H74.208C74.568 85.264 75.2 86.608 76.264 87.304C76.368 87.112 76.592 86.848 76.744 86.72C76.192 86.4 75.76 85.88 75.424 85.232C75.8 85 76.272 84.648 76.64 84.328L76.12 83.888ZM77.664 84.864C77.592 85.544 77.448 86.256 77.216 86.736C77.352 86.784 77.632 86.912 77.744 86.992C77.984 86.488 78.16 85.72 78.256 84.968L77.664 84.864ZM79.608 84.272C79.664 84.448 79.704 84.616 79.728 84.752L80.28 84.52C80.192 84.064 79.912 83.36 79.616 82.824L79.112 83.024C79.208 83.216 79.312 83.44 79.392 83.656L78.512 83.704C79.008 83.048 79.552 82.192 79.984 81.48L79.384 81.208C79.192 81.616 78.92 82.112 78.632 82.584C78.536 82.448 78.416 82.304 78.288 82.16C78.56 81.72 78.896 81.072 79.176 80.52L78.536 80.288C78.392 80.72 78.144 81.304 77.896 81.752C77.816 81.672 77.744 81.6 77.664 81.528L77.296 82.008C77.64 82.352 78.032 82.8 78.264 83.16C78.128 83.376 77.984 83.568 77.856 83.744L77.256 83.776L77.328 84.424C77.664 84.408 78.056 84.376 78.464 84.352V87.624H79.104V84.304L79.608 84.272ZM83.384 85.584V84.784H83.896V85.584H83.384ZM82.408 85.584V84.784H82.896V85.584H82.408ZM81.456 85.584V84.784H81.936V85.584H81.456ZM83.624 82.44V83.16H81.088V82.44H83.624ZM84.512 84.208H81.072C81.08 84.048 81.088 83.896 81.088 83.752H84.336V81.84H80.424V83.544C80.424 84.28 80.392 85.208 80.128 86.056C80.056 85.68 79.92 85.208 79.76 84.832L79.248 84.992C79.432 85.448 79.584 86.04 79.624 86.44L80.04 86.312C79.928 86.608 79.792 86.888 79.608 87.144C79.76 87.216 80.032 87.424 80.152 87.544C80.552 86.976 80.784 86.272 80.92 85.56V87.632H81.456V86.136H81.936V87.56H82.408V86.136H82.896V87.56H83.384V86.136H83.896V86.952C83.896 87.016 83.88 87.032 83.824 87.04C83.768 87.04 83.624 87.04 83.456 87.032C83.544 87.192 83.624 87.456 83.648 87.624C83.936 87.624 84.152 87.608 84.312 87.512C84.472 87.408 84.512 87.224 84.512 86.968V84.208ZM80.12 80.752V81.392H84.536V80.752H80.12ZM87.088 83.68H88.8V84.144H87.088V83.68ZM88.8 82.224H87.088V81.784H88.8V82.224ZM88.8 83.184H87.088V82.728H88.8V83.184ZM92.552 85.744V85.144H89.352V84.72H92.336V84.144H89.512V83.68H91.728V83.184H89.512V82.728H91.712V82.224H89.512V81.784H92.064V81.192H89.552C89.704 80.952 89.856 80.672 90 80.392L89.176 80.288C89.088 80.552 88.936 80.896 88.784 81.192H87.424C87.6 80.936 87.752 80.672 87.896 80.424L87.12 80.272C86.768 80.984 86.12 81.872 85.24 82.536C85.4 82.648 85.648 82.872 85.768 83.04C85.992 82.856 86.2 82.664 86.392 82.464V84.72H88.616V85.144H85.448V85.744H88.04C87.28 86.264 86.192 86.72 85.232 86.944C85.384 87.096 85.6 87.376 85.712 87.552C86.688 87.264 87.808 86.712 88.616 86.064V87.624H89.352V86.048C90.152 86.68 91.272 87.216 92.264 87.512C92.36 87.328 92.568 87.056 92.72 86.904C91.776 86.68 90.704 86.248 89.96 85.744H92.552ZM96.776 80.632L95.944 80.568C95.928 80.856 95.864 81.192 95.76 81.52C95.6 81.528 95.44 81.528 95.288 81.528C94.904 81.528 94.336 81.504 93.912 81.44V82.192C94.36 82.224 94.912 82.24 95.248 82.24C95.32 82.24 95.4 82.24 95.48 82.24C95.152 82.92 94.608 83.696 93.672 84.576L94.36 85.088C94.624 84.752 94.856 84.456 95.088 84.232C95.424 83.912 95.928 83.656 96.416 83.656C96.712 83.656 96.968 83.776 97.072 84.056C96.144 84.528 95.184 85.152 95.184 86.136C95.184 87.128 96.112 87.408 97.304 87.408C98.024 87.408 98.952 87.336 99.528 87.264L99.552 86.456C98.848 86.584 97.976 86.664 97.328 86.664C96.52 86.664 96 86.552 96 86.008C96 85.536 96.432 85.168 97.12 84.792C97.112 85.184 97.104 85.64 97.088 85.92H97.848C97.84 85.536 97.832 84.896 97.824 84.44C98.384 84.184 98.904 83.976 99.312 83.816C99.552 83.72 99.896 83.592 100.128 83.52L99.8 82.784C99.544 82.912 99.312 83.016 99.04 83.136C98.664 83.312 98.256 83.48 97.76 83.712C97.608 83.264 97.192 83.032 96.688 83.032C96.376 83.032 95.928 83.12 95.664 83.272C95.888 82.968 96.104 82.592 96.28 82.216C97.144 82.192 98.128 82.12 98.912 82.008V81.264C98.184 81.392 97.344 81.464 96.56 81.496C96.664 81.152 96.728 80.856 96.776 80.632ZM103.832 80.72L102.808 80.712C102.864 80.976 102.896 81.304 102.896 81.64C102.896 82.408 102.816 84.472 102.816 85.608C102.816 86.936 103.632 87.456 104.848 87.456C106.64 87.456 107.72 86.424 108.248 85.664L107.68 84.968C107.104 85.824 106.264 86.616 104.864 86.616C104.168 86.616 103.648 86.328 103.648 85.48C103.648 84.376 103.704 82.528 103.744 81.64C103.752 81.352 103.784 81.016 103.832 80.72ZM111.144 86.128C111.144 85.808 111.512 85.544 112.192 85.544C112.44 85.544 112.688 85.568 112.92 85.616C112.928 85.792 112.928 85.952 112.928 86.064C112.928 86.576 112.584 86.712 112.136 86.712C111.448 86.712 111.144 86.472 111.144 86.128ZM113.664 80.6H112.808C112.84 80.728 112.848 80.968 112.848 81.104C112.848 81.24 112.848 81.408 112.848 81.592C112.736 81.592 112.616 81.592 112.504 81.592C111.992 81.592 111.032 81.512 110.496 81.416L110.504 82.144C111.024 82.208 111.984 82.288 112.512 82.288C112.624 82.288 112.736 82.288 112.84 82.288C112.84 82.608 112.84 82.944 112.84 83.272C112.704 83.272 112.568 83.272 112.432 83.272C111.944 83.272 111 83.216 110.456 83.128L110.464 83.88C111.016 83.944 111.904 83.984 112.416 83.984C112.568 83.984 112.712 83.984 112.856 83.984C112.864 84.28 112.88 84.608 112.888 84.92C112.696 84.904 112.504 84.888 112.296 84.888C111.104 84.888 110.392 85.408 110.392 86.176C110.392 86.976 111.04 87.424 112.24 87.424C113.288 87.424 113.728 86.872 113.728 86.264C113.728 86.152 113.72 86.016 113.712 85.848C114.44 86.144 115.048 86.6 115.504 87.016L115.968 86.304C115.504 85.928 114.712 85.368 113.672 85.08C113.656 84.72 113.632 84.336 113.616 83.968C114.384 83.936 115.048 83.88 115.784 83.792L115.792 83.048C115.096 83.144 114.392 83.216 113.6 83.248C113.6 82.992 113.6 82.616 113.6 82.256C114.376 82.224 115.12 82.152 115.712 82.08V81.344C115 81.464 114.296 81.536 113.608 81.568C113.616 81.392 113.616 81.24 113.624 81.144C113.632 80.92 113.648 80.744 113.664 80.6ZM122.112 80.616H121.192C121.208 80.696 121.232 80.944 121.256 81.2C121.264 81.296 121.264 81.432 121.272 81.608C120.128 81.624 118.64 81.664 117.736 81.68L117.76 82.448C118.752 82.384 120.064 82.336 121.28 82.32C121.28 82.552 121.288 82.792 121.288 83C121.152 82.96 121 82.944 120.84 82.944C120.032 82.944 119.352 83.544 119.352 84.384C119.352 85.296 120.048 85.776 120.696 85.776C120.904 85.776 121.096 85.736 121.256 85.656C120.872 86.272 120.136 86.624 119.192 86.832L119.872 87.504C121.768 86.952 122.336 85.696 122.336 84.632C122.336 84.224 122.24 83.856 122.056 83.568C122.056 83.208 122.056 82.744 122.048 82.312C123.208 82.312 123.968 82.328 124.44 82.352L124.456 81.6H122.056C122.056 81.44 122.056 81.296 122.064 81.2C122.064 81.088 122.088 80.72 122.112 80.616ZM120.104 84.368C120.104 83.888 120.464 83.616 120.832 83.616C121.096 83.616 121.328 83.736 121.456 84C121.56 84.752 121.248 85.08 120.832 85.08C120.448 85.08 120.104 84.808 120.104 84.368ZM125.755 85.032C125.067 85.032 124.499 85.6 124.499 86.288C124.499 86.976 125.067 87.536 125.755 87.536C126.451 87.536 127.003 86.976 127.003 86.288C127.003 85.6 126.451 85.032 125.755 85.032ZM125.755 87.056C125.331 87.056 124.987 86.712 124.987 86.288C124.987 85.864 125.331 85.52 125.755 85.52C126.179 85.52 126.523 85.864 126.523 86.288C126.523 86.712 126.179 87.056 125.755 87.056Z" fill="#1E5B9D"/>
<rect x="1" y="103.562" width="29.5205" height="29.5205" rx="12.0492" fill="#333333"/>
<path d="M14.0776 122.664L19.6763 117.065L17.017 114.406L11.4184 120.004C11.3413 120.082 11.2866 120.178 11.2599 120.284L10.6394 123.443L13.7975 122.822C13.9035 122.796 14.0005 122.741 14.0776 122.664ZM21.4837 115.258C21.7096 115.032 21.8365 114.725 21.8365 114.406C21.8365 114.086 21.7096 113.78 21.4837 113.554L20.5282 112.598C20.3022 112.373 19.9958 112.246 19.6763 112.246C19.3568 112.246 19.0504 112.373 18.8244 112.598L17.8689 113.554L20.5282 116.213L21.4837 115.258Z" fill="white"/>
<path d="M37.608 117.016L38 117.808C39.056 117.488 40.112 117.024 40.952 116.568V119.352C40.952 119.68 40.928 120.12 40.904 120.296H41.896C41.856 120.12 41.84 119.68 41.84 119.352V116.032C42.632 115.512 43.384 114.896 43.992 114.28L43.32 113.64C42.776 114.288 41.928 115.032 41.096 115.544C40.208 116.096 39.008 116.64 37.608 117.016ZM46.824 113.968V114.792C47.048 114.776 47.336 114.768 47.592 114.768H50.696C50.968 114.768 51.288 114.776 51.488 114.792V113.968C51.288 113.992 50.96 114.008 50.704 114.008H47.592C47.328 114.008 47.032 113.992 46.824 113.968ZM52.12 116.168L51.552 115.816C51.448 115.856 51.256 115.888 51.04 115.888H46.944C46.712 115.888 46.408 115.864 46.096 115.832V116.664C46.4 116.64 46.752 116.632 46.944 116.632H51.016C50.872 117.16 50.584 117.76 50.128 118.232C49.472 118.912 48.496 119.432 47.328 119.672L47.952 120.392C48.976 120.104 49.992 119.6 50.816 118.688C51.408 118.032 51.768 117.224 51.992 116.448C52.008 116.376 52.072 116.256 52.12 116.168ZM59.3638 114.616L58.8438 114.232C58.7078 114.28 58.4438 114.312 58.1478 114.312H55.1798C54.9318 114.312 54.4678 114.28 54.3078 114.256V115.16C54.4358 115.152 54.8678 115.112 55.1798 115.112H58.1158C57.9238 115.736 57.3878 116.616 56.8438 117.224C56.0518 118.112 54.8518 119.072 53.5558 119.568L54.2038 120.248C55.3478 119.712 56.4278 118.856 57.2838 117.944C58.0758 118.68 58.8758 119.56 59.4038 120.28L60.1078 119.656C59.6118 119.048 58.6438 118.016 57.8198 117.312C58.3798 116.592 58.8518 115.688 59.1318 115.032C59.1878 114.896 59.3078 114.696 59.3638 114.616ZM63.4598 119.264C63.4598 119.576 63.4358 120.008 63.3958 120.288H64.3798C64.3398 120 64.3158 119.512 64.3158 119.264V116.792C65.1958 117.08 66.4998 117.584 67.3398 118.04L67.6998 117.168C66.8998 116.776 65.3798 116.208 64.3158 115.888V114.64C64.3158 114.36 64.3478 114.008 64.3718 113.744H63.3878C63.4358 114.016 63.4598 114.384 63.4598 114.64V119.264ZM72.6198 113.632L71.7878 113.568C71.7718 113.856 71.7078 114.192 71.6038 114.52C71.4438 114.528 71.2838 114.528 71.1318 114.528C70.7478 114.528 70.1798 114.504 69.7558 114.44V115.192C70.2038 115.224 70.7558 115.24 71.0918 115.24C71.1638 115.24 71.2438 115.24 71.3238 115.24C70.9958 115.92 70.4518 116.696 69.5158 117.576L70.2038 118.088C70.4678 117.752 70.6998 117.456 70.9318 117.232C71.2678 116.912 71.7718 116.656 72.2598 116.656C72.5558 116.656 72.8118 116.776 72.9158 117.056C71.9878 117.528 71.0278 118.152 71.0278 119.136C71.0278 120.128 71.9558 120.408 73.1478 120.408C73.8678 120.408 74.7958 120.336 75.3718 120.264L75.3958 119.456C74.6918 119.584 73.8198 119.664 73.1718 119.664C72.3638 119.664 71.8438 119.552 71.8438 119.008C71.8438 118.536 72.2758 118.168 72.9638 117.792C72.9557 118.184 72.9478 118.64 72.9318 118.92H73.6918C73.6838 118.536 73.6758 117.896 73.6678 117.44C74.2278 117.184 74.7478 116.976 75.1558 116.816C75.3958 116.72 75.7398 116.592 75.9718 116.52L75.6438 115.784C75.3878 115.912 75.1558 116.016 74.8838 116.136C74.5078 116.312 74.0998 116.48 73.6038 116.712C73.4518 116.264 73.0358 116.032 72.5318 116.032C72.2198 116.032 71.7718 116.12 71.5078 116.272C71.7318 115.968 71.9478 115.592 72.1238 115.216C72.9878 115.192 73.9718 115.12 74.7558 115.008V114.264C74.0278 114.392 73.1878 114.464 72.4038 114.496C72.5078 114.152 72.5718 113.856 72.6198 113.632ZM79.5318 116.728L78.7878 116.944V115.536H79.5798V114.848H78.7878V113.304H78.0998V114.848H77.2038V115.536H78.0998V117.144C77.7238 117.248 77.3717 117.344 77.0918 117.416L77.2598 118.136L78.0998 117.88V119.736C78.0998 119.848 78.0678 119.88 77.9638 119.88C77.8758 119.88 77.5798 119.88 77.2598 119.872C77.3558 120.064 77.4438 120.384 77.4598 120.56C77.9638 120.56 78.2838 120.536 78.4998 120.416C78.7158 120.304 78.7878 120.104 78.7878 119.736V117.672L79.6358 117.4L79.5318 116.728ZM81.7478 116.992V117.952H80.7158V116.992H81.7478ZM83.4678 117.952H82.4118V116.992H83.4678V117.952ZM82.4118 119.56V118.584H83.4678V119.56H82.4118ZM80.7158 118.584H81.7478V119.56H80.7158V118.584ZM80.0358 120.608H80.7158V120.216H83.4678V120.568H84.1718V116.344H80.0358V120.608ZM83.4518 114.384V113.296H82.7238V114.384H81.4598V113.296H80.7478V114.384H79.7238V115.056H80.7478V116.032H81.4598V115.056H82.7238V116.032H83.4518V115.056H84.4358V114.384H83.4518ZM90.5798 114.16L89.8358 113.496C89.7318 113.664 89.4998 113.904 89.3158 114.096C88.7718 114.632 87.6118 115.56 86.9958 116.072C86.2358 116.704 86.1558 117.088 86.9318 117.736C87.6758 118.36 88.8678 119.384 89.4038 119.928C89.6118 120.136 89.8198 120.36 90.0118 120.576L90.7398 119.912C89.9078 119.08 88.4518 117.92 87.7718 117.36C87.2998 116.952 87.2998 116.848 87.7558 116.456C88.3238 115.976 89.4278 115.104 89.9638 114.656C90.1238 114.528 90.3798 114.312 90.5798 114.16ZM94.6598 114.296V115.128C95.2998 115.176 95.9958 115.216 96.8118 115.216C97.5558 115.216 98.4838 115.16 99.0358 115.12V114.288C98.4438 114.344 97.5798 114.4 96.8038 114.4C95.9878 114.4 95.2438 114.368 94.6598 114.296ZM95.1398 117.592L94.3158 117.52C94.2438 117.832 94.1558 118.216 94.1558 118.648C94.1558 119.696 95.0838 120.264 96.8038 120.264C97.9318 120.264 98.9238 120.152 99.5478 119.984L99.5398 119.104C98.8918 119.304 97.8678 119.424 96.7718 119.424C95.5478 119.424 94.9878 119.024 94.9878 118.456C94.9878 118.176 95.0438 117.896 95.1398 117.592ZM103.38 113.712L102.588 114.04C102.964 114.896 103.364 115.8 103.732 116.472C102.916 117.048 102.372 117.704 102.372 118.552C102.372 119.832 103.508 120.272 105.052 120.272C106.068 120.272 106.964 120.192 107.596 120.08L107.604 119.168C106.948 119.336 105.876 119.456 105.02 119.456C103.828 119.456 103.228 119.088 103.228 118.464C103.228 117.88 103.676 117.376 104.38 116.912C105.14 116.416 106.204 115.92 106.732 115.648C106.988 115.52 107.212 115.4 107.42 115.272L106.98 114.544C106.796 114.696 106.604 114.816 106.34 114.968C105.924 115.2 105.132 115.592 104.428 116.016C104.092 115.392 103.7 114.576 103.38 113.712ZM112.348 113.768L111.412 113.672C111.412 114.192 111.34 114.8 111.22 115.392C110.772 115.432 110.34 115.464 110.084 115.472C109.812 115.48 109.572 115.488 109.308 115.472L109.388 116.336C109.604 116.296 109.98 116.248 110.18 116.224C110.364 116.2 110.692 116.16 111.052 116.12C110.772 117.208 110.196 118.936 109.396 120.016L110.22 120.344C111.012 119.064 111.58 117.216 111.876 116.04C112.172 116.008 112.436 115.992 112.604 115.992C113.108 115.992 113.42 116.112 113.42 116.8C113.42 117.632 113.308 118.648 113.068 119.152C112.916 119.456 112.692 119.528 112.412 119.528C112.188 119.528 111.756 119.464 111.428 119.368L111.564 120.2C111.828 120.264 112.204 120.32 112.516 120.32C113.068 120.32 113.484 120.168 113.748 119.616C114.084 118.944 114.204 117.656 114.204 116.712C114.204 115.592 113.612 115.28 112.844 115.28C112.66 115.28 112.364 115.296 112.036 115.328C112.108 114.952 112.18 114.568 112.228 114.32C112.268 114.144 112.308 113.936 112.348 113.768ZM115.996 113.16L115.476 113.376C115.708 113.68 115.964 114.136 116.14 114.48L116.66 114.248C116.508 113.96 116.204 113.456 115.996 113.16ZM115.084 113.496L114.564 113.712C114.756 113.976 114.98 114.376 115.132 114.688C115.124 114.672 115.108 114.656 115.1 114.64L114.356 114.968C114.916 115.64 115.524 117.04 115.748 117.896L116.54 117.52C116.308 116.832 115.708 115.536 115.22 114.816L115.732 114.6C115.572 114.288 115.284 113.784 115.084 113.496ZM119.492 115.584C119.396 116.528 119.212 117.336 118.94 118.008C118.684 117.824 118.412 117.656 118.156 117.496C118.3 116.904 118.46 116.248 118.604 115.584H119.492ZM119.804 114.88L119.668 114.896H118.748C118.86 114.368 118.972 113.848 119.06 113.368L118.348 113.288C118.268 113.784 118.164 114.336 118.052 114.896H117.212V115.584H117.908C117.7 116.552 117.484 117.488 117.292 118.16L117.9 118.488L117.98 118.184C118.204 118.328 118.42 118.488 118.636 118.648C118.276 119.288 117.82 119.76 117.26 120.056C117.42 120.192 117.612 120.464 117.716 120.648C118.324 120.28 118.82 119.784 119.204 119.112C119.524 119.384 119.788 119.656 119.972 119.888L120.42 119.296C120.212 119.04 119.9 118.744 119.532 118.456C119.916 117.552 120.148 116.408 120.244 114.96L119.804 114.88ZM124.54 116.456H122.7V115.864C123.284 115.368 123.924 114.64 124.364 114.008L123.868 113.648L123.724 113.688H120.444V114.376H123.188C122.916 114.752 122.556 115.16 122.228 115.456H121.956V116.456H120.172V117.16H121.956V119.744C121.956 119.856 121.916 119.896 121.788 119.896C121.652 119.904 121.22 119.904 120.756 119.888C120.868 120.096 120.996 120.416 121.028 120.616C121.644 120.624 122.06 120.6 122.34 120.488C122.612 120.36 122.7 120.152 122.7 119.744V117.16H124.54V116.456ZM128.78 114.44C128.788 114.464 128.796 114.488 128.804 114.512C128.052 114.552 127.18 114.512 126.228 114.408L126.276 115.136C127.276 115.232 128.236 115.24 129.004 115.2C129.06 115.368 129.116 115.552 129.188 115.76C129.228 115.872 129.276 115.992 129.324 116.112C128.42 116.184 127.276 116.184 126.076 116.064L126.116 116.808C127.34 116.888 128.644 116.888 129.62 116.808C129.772 117.144 129.956 117.488 130.164 117.816C129.916 117.792 129.436 117.744 129.052 117.704L128.988 118.312C129.548 118.368 130.348 118.456 130.796 118.56L131.196 117.968C131.068 117.848 130.964 117.736 130.868 117.592C130.692 117.328 130.524 117.032 130.372 116.72C130.9 116.648 131.372 116.552 131.756 116.456L131.628 115.704C131.244 115.824 130.716 115.96 130.06 116.04C130.004 115.888 129.948 115.744 129.9 115.608C129.844 115.464 129.796 115.304 129.74 115.136C130.284 115.064 130.828 114.952 131.276 114.824L131.172 114.096C130.66 114.264 130.116 114.384 129.556 114.456C129.484 114.152 129.42 113.848 129.388 113.552L128.532 113.648C128.628 113.912 128.708 114.184 128.78 114.44ZM127.404 117.84L126.62 117.688C126.436 118.048 126.276 118.408 126.284 118.888C126.3 119.968 127.228 120.44 128.812 120.44C129.484 120.44 130.156 120.384 130.716 120.296L130.756 119.488C130.18 119.608 129.556 119.664 128.804 119.664C127.636 119.664 127.06 119.368 127.06 118.736C127.06 118.392 127.212 118.112 127.404 117.84ZM133.444 114.64L133.524 115.512C134.42 115.32 136.284 115.128 137.092 115.048C136.444 115.472 135.732 116.44 135.732 117.648C135.732 119.408 137.372 120.248 138.94 120.328L139.228 119.472C137.908 119.416 136.548 118.928 136.548 117.472C136.548 116.528 137.252 115.384 138.316 115.064C138.732 114.96 139.428 114.952 139.876 114.952V114.144C139.324 114.16 138.524 114.208 137.668 114.28C136.196 114.408 134.772 114.544 134.188 114.6C134.028 114.616 133.748 114.632 133.444 114.64ZM138.724 115.84L138.244 116.048C138.484 116.392 138.692 116.76 138.884 117.168L139.38 116.944C139.212 116.608 138.916 116.12 138.724 115.84ZM139.612 115.496L139.132 115.712C139.388 116.056 139.596 116.408 139.804 116.816L140.292 116.584C140.116 116.248 139.804 115.768 139.612 115.496ZM145.956 113.616H145.036C145.052 113.696 145.076 113.944 145.1 114.2C145.108 114.296 145.108 114.432 145.116 114.608C143.972 114.624 142.484 114.664 141.58 114.68L141.604 115.448C142.596 115.384 143.908 115.336 145.124 115.32C145.124 115.552 145.132 115.792 145.132 116C144.996 115.96 144.844 115.944 144.684 115.944C143.876 115.944 143.196 116.544 143.196 117.384C143.196 118.296 143.892 118.776 144.54 118.776C144.748 118.776 144.94 118.736 145.1 118.656C144.716 119.272 143.98 119.624 143.036 119.832L143.716 120.504C145.612 119.952 146.18 118.696 146.18 117.632C146.18 117.224 146.084 116.856 145.9 116.568C145.9 116.208 145.9 115.744 145.892 115.312C147.052 115.312 147.812 115.328 148.284 115.352L148.3 114.6H145.9C145.9 114.44 145.9 114.296 145.908 114.2C145.908 114.088 145.932 113.72 145.956 113.616ZM143.948 117.368C143.948 116.888 144.308 116.616 144.676 116.616C144.94 116.616 145.172 116.736 145.3 117C145.404 117.752 145.092 118.08 144.676 118.08C144.292 118.08 143.948 117.808 143.948 117.368ZM149.599 118.032C148.911 118.032 148.343 118.6 148.343 119.288C148.343 119.976 148.911 120.536 149.599 120.536C150.295 120.536 150.847 119.976 150.847 119.288C150.847 118.6 150.295 118.032 149.599 118.032ZM149.599 120.056C149.175 120.056 148.831 119.712 148.831 119.288C148.831 118.864 149.175 118.52 149.599 118.52C150.023 118.52 150.367 118.864 150.367 119.288C150.367 119.712 150.023 120.056 149.599 120.056Z" fill="#1E5B9D"/>
<path d="M17.7089 160.145L16.541 147.04H29.3788L28.2093 160.142L22.9521 161.6L17.7089 160.145Z" fill="#1572B6"/>
<path d="M22.96 160.486L27.2084 159.308L28.2078 148.112H22.96V160.486Z" fill="#33A9DC"/>
<path d="M22.96 152.859H25.0868L25.2334 151.214H22.96V149.606H22.9657H26.99L26.9515 150.037L26.5568 154.467H22.96V152.859Z" fill="white"/>
<path d="M22.9697 157.033L22.9624 157.035L21.1725 156.552L21.0581 155.27H20.1882H19.4446L19.6697 157.794L22.9619 158.708L22.9697 158.706V157.033Z" fill="#EBEBEB"/>
<path d="M24.95 154.398L24.7566 156.551L22.9641 157.034V158.707L26.2588 157.794L26.2833 157.522L26.5625 154.398H24.95Z" fill="white"/>
<path d="M22.9656 149.606V150.605V151.209V151.214H19.0884H19.0832L19.051 150.852L18.9777 150.037L18.9392 149.606H22.9656Z" fill="#EBEBEB"/>
<path d="M22.9598 152.859V153.858V154.463V154.467H21.1975H21.1923L21.1601 154.105L21.0873 153.29L21.0488 152.859H22.9598Z" fill="#EBEBEB"/>
<path d="M3.06907 160.145L1.90063 147.04H14.7394L13.5694 160.142L8.31223 161.6L3.06907 160.145Z" fill="#E44F26"/>
<path d="M8.32007 160.486L12.5685 159.308L13.5679 148.112H8.32007V160.486Z" fill="#F1662A"/>
<path d="M8.32004 152.972H6.19324L6.0466 151.326H8.32004V149.719H8.31432H4.29004L4.32852 150.15L4.7232 154.579H8.32004V152.972Z" fill="#EBEBEB"/>
<path d="M8.32 157.146L8.31272 157.148L6.52288 156.665L6.40848 155.383H5.53852H4.79492L5.02008 157.906L8.31272 158.82L8.32 158.818V157.146Z" fill="#EBEBEB"/>
<path d="M8.31421 152.972V154.579H10.2933L10.1072 156.664L8.31421 157.147V158.82L11.6094 157.906L11.6334 157.635L12.0109 153.403L12.0504 152.972H11.6172H8.31421Z" fill="white"/>
<path d="M8.31421 149.719V150.717V151.322V151.326H12.1913H12.1965L12.2288 150.965L12.3021 150.15L12.3406 149.719H8.31421Z" fill="white"/>
<path d="M38.408 156H39.472L40.008 153.832C40.12 153.416 40.2 153.008 40.288 152.552H40.328C40.424 153.008 40.504 153.408 40.608 153.824L41.168 156H42.272L43.408 151.6H42.544L41.976 153.976C41.88 154.408 41.808 154.808 41.72 155.232H41.688C41.584 154.808 41.496 154.408 41.392 153.976L40.76 151.6H39.912L39.288 153.976C39.184 154.4 39.096 154.808 39 155.232H38.968C38.888 154.808 38.816 154.408 38.728 153.976L38.144 151.6H37.216L38.408 156ZM46.1061 156.104C46.6821 156.104 47.1861 155.912 47.5941 155.64L47.2741 155.056C46.9541 155.264 46.6181 155.384 46.2261 155.384C45.4661 155.384 44.9381 154.88 44.8661 154.04H47.7221C47.7461 153.928 47.7701 153.752 47.7701 153.568C47.7701 152.328 47.1381 151.488 45.9701 151.488C44.9461 151.488 43.9621 152.376 43.9621 153.8C43.9621 155.256 44.9141 156.104 46.1061 156.104ZM44.8581 153.4C44.9461 152.632 45.4341 152.208 45.9861 152.208C46.6261 152.208 46.9701 152.648 46.9701 153.4H44.8581ZM50.8456 156.104C51.8376 156.104 52.7416 155.24 52.7416 153.728C52.7416 152.376 52.1096 151.488 50.9976 151.488C50.5336 151.488 50.0616 151.736 49.6856 152.064L49.7176 151.312V149.624H48.7976V156H49.5176L49.6056 155.544H49.6296C50.0056 155.896 50.4456 156.104 50.8456 156.104ZM50.6696 155.344C50.3976 155.344 50.0536 155.24 49.7176 154.944V152.792C50.0776 152.432 50.4136 152.256 50.7576 152.256C51.4936 152.256 51.7896 152.824 51.7896 153.744C51.7896 154.776 51.3096 155.344 50.6696 155.344ZM54.4528 150.432V151.32C54.6608 151.304 55.0688 151.288 55.3808 151.288H59.1168V154.856H55.2848C54.9408 154.856 54.5888 154.832 54.3568 154.816V155.72C54.5888 155.704 54.9888 155.688 55.3168 155.688H59.1088C59.1088 155.856 59.1008 156.008 59.1008 156.12H60.0128C59.9968 155.944 59.9808 155.552 59.9808 155.272V151.136C59.9808 150.928 59.9888 150.64 59.9968 150.464C59.8528 150.472 59.5728 150.48 59.3568 150.48H55.3808C55.1168 150.48 54.7328 150.456 54.4528 150.432ZM61.9088 152.432V153.424C62.1808 153.4 62.6608 153.384 63.1008 153.384H67.4528C67.8048 153.384 68.1728 153.416 68.3488 153.424V152.432C68.1488 152.448 67.8368 152.48 67.4528 152.48H63.1008C62.6688 152.48 62.1728 152.448 61.9088 152.432ZM70.7088 150.072V150.896C70.9248 150.88 71.2208 150.864 71.4928 150.864H74.1888C74.4448 150.864 74.7328 150.88 74.9888 150.896V150.072C74.7408 150.104 74.4368 150.12 74.1888 150.12H71.4848C71.2208 150.12 70.9488 150.104 70.7088 150.072ZM69.7648 152.096V152.928C69.9888 152.912 70.2528 152.904 70.4928 152.904H72.8048C72.7728 153.624 72.6688 154.256 72.3248 154.792C72.0128 155.28 71.4368 155.744 70.8448 155.984L71.5808 156.528C72.2768 156.168 72.8848 155.576 73.1728 155.032C73.4768 154.456 73.6368 153.752 73.6688 152.904H75.7328C75.9408 152.904 76.2128 152.912 76.4048 152.92V152.096C76.1968 152.128 75.9008 152.136 75.7328 152.136H70.4928C70.2448 152.136 69.9888 152.12 69.7648 152.096ZM75.4288 149.464L74.9168 149.68C75.1328 149.984 75.3888 150.464 75.5488 150.784L76.0768 150.56C75.9168 150.248 75.6288 149.752 75.4288 149.464ZM76.3328 149.12L75.8208 149.336C76.0448 149.64 76.3088 150.096 76.4768 150.44L76.9968 150.208C76.8528 149.92 76.5488 149.424 76.3328 149.12ZM77.4903 153.84L77.8743 154.592C78.6743 154.336 79.5943 153.944 80.2823 153.584V155.888C80.2823 156.144 80.2663 156.52 80.2503 156.656H81.1783C81.1463 156.52 81.1383 156.144 81.1383 155.888V153.08C81.8503 152.608 82.5383 152.032 82.9383 151.608L82.3143 151C81.8983 151.512 81.1303 152.192 80.3703 152.664C79.7223 153.056 78.5383 153.6 77.4903 153.84ZM86.4343 150.04L85.8503 150.664C86.4423 151.064 87.4343 151.936 87.8503 152.36L88.4823 151.712C88.0343 151.248 86.9943 150.416 86.4343 150.04ZM85.6103 155.392L86.1463 156.216C87.3863 155.992 88.4023 155.52 89.2103 155.024C90.4583 154.256 91.4423 153.168 92.0183 152.128L91.5303 151.256C91.0423 152.28 90.0423 153.48 88.7543 154.272C87.9863 154.744 86.9463 155.192 85.6103 155.392ZM98.7383 149.536L98.2263 149.752C98.4423 150.056 98.6983 150.536 98.8583 150.856L99.3863 150.632C99.2263 150.32 98.9383 149.824 98.7383 149.536ZM99.6423 149.192L99.1303 149.408C99.3543 149.712 99.6183 150.168 99.7863 150.512L100.306 150.28C100.162 149.992 99.8583 149.488 99.6423 149.192ZM96.7063 149.968L95.7783 149.664C95.7143 149.896 95.5783 150.216 95.4823 150.384C95.1063 151.088 94.3623 152.192 92.9703 153.032L93.6743 153.552C94.5063 152.992 95.1943 152.288 95.6983 151.6H98.2023C98.0583 152.272 97.5783 153.28 96.9863 153.96C96.2743 154.784 95.3223 155.496 93.7783 155.952L94.5223 156.624C96.0183 156.048 96.9863 155.312 97.7223 154.408C98.4423 153.528 98.9143 152.456 99.1303 151.688C99.1863 151.528 99.2743 151.328 99.3543 151.2L98.6983 150.8C98.5463 150.848 98.3223 150.88 98.0983 150.88H96.1703C96.2183 150.808 96.2503 150.744 96.2903 150.672C96.3783 150.512 96.5463 150.208 96.7063 149.968ZM104.346 149.632L103.514 149.568C103.498 149.856 103.434 150.192 103.33 150.52C103.17 150.528 103.01 150.528 102.858 150.528C102.474 150.528 101.906 150.504 101.482 150.44V151.192C101.93 151.224 102.482 151.24 102.818 151.24C102.89 151.24 102.97 151.24 103.05 151.24C102.722 151.92 102.178 152.696 101.242 153.576L101.93 154.088C102.194 153.752 102.426 153.456 102.658 153.232C102.994 152.912 103.498 152.656 103.986 152.656C104.282 152.656 104.538 152.776 104.642 153.056C103.714 153.528 102.754 154.152 102.754 155.136C102.754 156.128 103.682 156.408 104.874 156.408C105.594 156.408 106.522 156.336 107.098 156.264L107.122 155.456C106.418 155.584 105.546 155.664 104.898 155.664C104.09 155.664 103.57 155.552 103.57 155.008C103.57 154.536 104.002 154.168 104.69 153.792C104.682 154.184 104.674 154.64 104.658 154.92H105.418C105.41 154.536 105.402 153.896 105.394 153.44C105.954 153.184 106.474 152.976 106.882 152.816C107.122 152.72 107.466 152.592 107.698 152.52L107.37 151.784C107.114 151.912 106.882 152.016 106.61 152.136C106.234 152.312 105.826 152.48 105.33 152.712C105.178 152.264 104.762 152.032 104.258 152.032C103.946 152.032 103.498 152.12 103.234 152.272C103.458 151.968 103.674 151.592 103.85 151.216C104.714 151.192 105.698 151.12 106.482 151.008V150.264C105.754 150.392 104.914 150.464 104.13 150.496C104.234 150.152 104.298 149.856 104.346 149.632ZM109.994 151.824H110.778V153.04H109.994V151.824ZM111.378 150.44C111.258 150.704 111.106 150.984 110.946 151.216H109.874C110.082 150.968 110.258 150.704 110.418 150.44H111.378ZM112.202 153.04H111.402V151.824H112.202V153.04ZM112.77 155.88C112.09 155.88 111.978 155.824 111.978 155.52V153.656H112.89V151.584H113.73C113.642 153.112 113.354 154.232 112.41 154.952C112.57 155.048 112.794 155.304 112.89 155.464C113.978 154.64 114.314 153.328 114.426 151.584H115.354C115.282 153.568 115.21 154.304 115.074 154.488C115.01 154.568 114.938 154.592 114.826 154.592C114.714 154.592 114.45 154.584 114.162 154.568C114.274 154.752 114.338 155.048 114.354 155.264C114.682 155.28 114.994 155.272 115.178 155.248C115.402 155.208 115.538 155.144 115.69 154.952C115.906 154.656 115.986 153.744 116.058 151.192C116.066 151.104 116.066 150.88 116.066 150.88H114.458C114.474 150.408 114.474 149.904 114.482 149.376H113.778C113.778 149.912 113.77 150.408 113.762 150.88H112.858V151.216H111.666C111.89 150.864 112.106 150.456 112.25 150.104L111.81 149.84L111.706 149.864H110.73C110.81 149.704 110.882 149.544 110.946 149.384L110.274 149.272C110.018 149.944 109.538 150.768 108.81 151.384C108.954 151.464 109.186 151.672 109.29 151.824L109.33 151.784V153.656H110.138C110.042 154.656 109.802 155.584 108.81 156.104C108.962 156.224 109.17 156.504 109.258 156.672C110.37 156.016 110.674 154.896 110.786 153.656H111.29V155.536C111.29 156.312 111.586 156.512 112.762 156.512H115.026C115.93 156.512 116.162 156.272 116.274 155.32C116.082 155.28 115.786 155.176 115.626 155.072C115.578 155.76 115.498 155.88 114.986 155.88H112.77ZM117.714 153.008C117.738 152.72 117.77 152.408 117.794 152.112H119.354V149.704H117.066V150.368H118.65V151.44H117.194C117.146 152.232 117.042 153.28 116.938 153.928L117.594 154.032L117.642 153.664H118.65C118.578 155.104 118.49 155.68 118.354 155.824C118.282 155.904 118.202 155.92 118.066 155.92C117.922 155.92 117.57 155.92 117.194 155.88C117.314 156.088 117.402 156.392 117.418 156.608C117.802 156.632 118.178 156.624 118.394 156.6C118.634 156.576 118.786 156.52 118.938 156.328C119.17 156.064 119.258 155.288 119.346 153.32C119.354 153.224 119.362 153.008 119.362 153.008H117.714ZM120.466 153.808V152.856H121.466V153.808H120.466ZM123.186 152.856V153.808H122.178V152.856H123.186ZM124.37 156.392C124.186 155.872 123.698 155.128 123.234 154.576L122.634 154.848C122.794 155.048 122.954 155.272 123.098 155.496L122.178 155.568V154.432H123.898V152.232H122.178V151.44L123.37 151.36C123.482 151.528 123.57 151.696 123.634 151.832L124.298 151.512C124.074 151.04 123.538 150.36 123.058 149.864L122.442 150.152C122.61 150.328 122.778 150.536 122.938 150.744C122.282 150.784 121.634 150.816 121.042 150.848C121.306 150.424 121.594 149.928 121.842 149.464L121.05 149.264C120.866 149.76 120.546 150.4 120.25 150.88L119.57 150.912L119.666 151.616L121.466 151.496V152.232H119.786V154.432H121.466V155.616C120.706 155.672 120.01 155.712 119.466 155.744L119.554 156.472C120.594 156.384 122.066 156.272 123.482 156.144C123.586 156.344 123.666 156.528 123.722 156.688L124.37 156.392ZM128.938 153.352V151.416H131.018V153.352H128.938ZM126.09 153.352V151.416H128.162V153.352H126.09ZM128.938 150.688V149.296H128.162V150.688H125.346V154.552H126.09V154.08H128.162V156.624H128.938V154.08H131.018V154.512H131.794V150.688H128.938ZM133.17 150.64L133.25 151.512C134.146 151.32 136.01 151.128 136.818 151.048C136.17 151.472 135.458 152.44 135.458 153.648C135.458 155.408 137.098 156.248 138.666 156.328L138.954 155.472C137.634 155.416 136.274 154.928 136.274 153.472C136.274 152.528 136.978 151.384 138.042 151.064C138.458 150.96 139.154 150.952 139.602 150.952V150.144C139.05 150.16 138.25 150.208 137.394 150.28C135.922 150.408 134.498 150.544 133.914 150.6C133.754 150.616 133.474 150.632 133.17 150.64ZM138.45 151.84L137.97 152.048C138.21 152.392 138.418 152.76 138.61 153.168L139.106 152.944C138.938 152.608 138.642 152.12 138.45 151.84ZM139.338 151.496L138.858 151.712C139.114 152.056 139.322 152.408 139.53 152.816L140.018 152.584C139.842 152.248 139.53 151.768 139.338 151.496ZM145.682 149.616H144.762C144.778 149.696 144.802 149.944 144.826 150.2C144.834 150.296 144.834 150.432 144.842 150.608C143.698 150.624 142.21 150.664 141.306 150.68L141.33 151.448C142.322 151.384 143.634 151.336 144.85 151.32C144.85 151.552 144.858 151.792 144.858 152C144.722 151.96 144.57 151.944 144.41 151.944C143.602 151.944 142.922 152.544 142.922 153.384C142.922 154.296 143.618 154.776 144.266 154.776C144.474 154.776 144.666 154.736 144.826 154.656C144.442 155.272 143.706 155.624 142.762 155.832L143.442 156.504C145.338 155.952 145.906 154.696 145.906 153.632C145.906 153.224 145.81 152.856 145.626 152.568C145.626 152.208 145.626 151.744 145.618 151.312C146.778 151.312 147.538 151.328 148.01 151.352L148.026 150.6H145.626C145.626 150.44 145.626 150.296 145.634 150.2C145.634 150.088 145.658 149.72 145.682 149.616ZM143.674 153.368C143.674 152.888 144.034 152.616 144.402 152.616C144.666 152.616 144.898 152.736 145.026 153C145.13 153.752 144.818 154.08 144.402 154.08C144.018 154.08 143.674 153.808 143.674 153.368ZM149.325 154.032C148.637 154.032 148.069 154.6 148.069 155.288C148.069 155.976 148.637 156.536 149.325 156.536C150.021 156.536 150.573 155.976 150.573 155.288C150.573 154.6 150.021 154.032 149.325 154.032ZM149.325 156.056C148.901 156.056 148.557 155.712 148.557 155.288C148.557 154.864 148.901 154.52 149.325 154.52C149.749 154.52 150.093 154.864 150.093 155.288C150.093 155.712 149.749 156.056 149.325 156.056Z" fill="#1E5B9D"/>
<rect y="34.5205" width="29.5205" height="29.5205" rx="12.0492" fill="#330000"/>
<path d="M14.859 51.9412H10.9701L9.95812 54.1475H8.48139L12.9763 44.4928L17.3124 54.1475H15.8121L14.859 51.9412ZM14.3001 50.6527L12.9528 47.5639L11.5408 50.6527H14.3001ZM19.5245 48.417V54.1475H18.2008V48.417H19.5245ZM18.0007 46.0343C18.0007 45.8029 18.085 45.6028 18.2537 45.4342C18.4224 45.2655 18.6244 45.1812 18.8597 45.1812C19.0989 45.1812 19.3029 45.2655 19.4716 45.4342C19.6402 45.5989 19.7245 45.8009 19.7245 46.0402C19.7245 46.2794 19.6402 46.4834 19.4716 46.652C19.3068 46.8207 19.1048 46.905 18.8656 46.905C18.6263 46.905 18.4224 46.8207 18.2537 46.652C18.085 46.4834 18.0007 46.2774 18.0007 46.0343Z" fill="#FF981E"/>
<rect width="29.5205" height="29.5205" rx="12.0492" fill="#333333"/>
<g clip-path="url(#clip0_319_548)">
<path d="M12.0512 22.8933C12.7702 22.8933 13.4597 22.6077 13.9682 22.0993C14.4766 21.5908 14.7622 20.9013 14.7622 20.1823V17.4712H12.0512C11.3321 17.4712 10.6426 17.7568 10.1341 18.2652C9.62572 18.7737 9.34009 19.4632 9.34009 20.1823C9.34009 20.9013 9.62572 21.5908 10.1341 22.0993C10.6426 22.6077 11.3321 22.8933 12.0512 22.8933Z" fill="#0ACF83"/>
<path d="M9.34009 14.7601C9.34009 14.0411 9.62572 13.3515 10.1341 12.8431C10.6426 12.3347 11.3321 12.0491 12.0512 12.0491H14.7622V17.4712H12.0512C11.3321 17.4712 10.6426 17.1856 10.1341 16.6772C9.62572 16.1687 9.34009 15.4792 9.34009 14.7601Z" fill="#A259FF"/>
<path d="M9.34009 9.33802C9.34009 8.61937 9.62543 7.93012 10.1334 7.42175C10.6414 6.91339 11.3304 6.62751 12.049 6.62695H14.7601V12.0491H12.0512C11.3321 12.0491 10.6426 11.7635 10.1341 11.255C9.62572 10.7466 9.34009 10.057 9.34009 9.33802Z" fill="#F24E1E"/>
<path d="M14.7622 6.62695H17.4733C18.1923 6.62695 18.8819 6.91258 19.3903 7.42101C19.8987 7.92943 20.1843 8.619 20.1843 9.33802C20.1843 10.057 19.8987 10.7466 19.3903 11.255C18.8819 11.7635 18.1923 12.0491 17.4733 12.0491H14.7622V6.62695Z" fill="#FF7262"/>
<path d="M20.1843 14.7601C20.1843 15.4792 19.8987 16.1687 19.3903 16.6772C18.8819 17.1856 18.1923 17.4712 17.4733 17.4712C16.7543 17.4712 16.0647 17.1856 15.5563 16.6772C15.0478 16.1687 14.7622 15.4792 14.7622 14.7601C14.7622 14.0411 15.0478 13.3515 15.5563 12.8431C16.0647 12.3347 16.7543 12.0491 17.4733 12.0491C18.1923 12.0491 18.8819 12.3347 19.3903 12.8431C19.8987 13.3515 20.1843 14.0411 20.1843 14.7601Z" fill="#1ABCFE"/>
</g>
<path d="M38.408 18H39.472L40.008 15.832C40.12 15.416 40.2 15.008 40.288 14.552H40.328C40.424 15.008 40.504 15.408 40.608 15.824L41.168 18H42.272L43.408 13.6H42.544L41.976 15.976C41.88 16.408 41.808 16.808 41.72 17.232H41.688C41.584 16.808 41.496 16.408 41.392 15.976L40.76 13.6H39.912L39.288 15.976C39.184 16.4 39.096 16.808 39 17.232H38.968C38.888 16.808 38.816 16.408 38.728 15.976L38.144 13.6H37.216L38.408 18ZM46.1061 18.104C46.6821 18.104 47.1861 17.912 47.5941 17.64L47.2741 17.056C46.9541 17.264 46.6181 17.384 46.2261 17.384C45.4661 17.384 44.9381 16.88 44.8661 16.04H47.7221C47.7461 15.928 47.7701 15.752 47.7701 15.568C47.7701 14.328 47.1381 13.488 45.9701 13.488C44.9461 13.488 43.9621 14.376 43.9621 15.8C43.9621 17.256 44.9141 18.104 46.1061 18.104ZM44.8581 15.4C44.9461 14.632 45.4341 14.208 45.9861 14.208C46.6261 14.208 46.9701 14.648 46.9701 15.4H44.8581ZM50.8456 18.104C51.8376 18.104 52.7416 17.24 52.7416 15.728C52.7416 14.376 52.1096 13.488 50.9976 13.488C50.5336 13.488 50.0616 13.736 49.6856 14.064L49.7176 13.312V11.624H48.7976V18H49.5176L49.6056 17.544H49.6296C50.0056 17.896 50.4456 18.104 50.8456 18.104ZM50.6696 17.344C50.3976 17.344 50.0536 17.24 49.7176 16.944V14.792C50.0776 14.432 50.4136 14.256 50.7576 14.256C51.4936 14.256 51.7896 14.824 51.7896 15.744C51.7896 16.776 51.3096 17.344 50.6696 17.344ZM53.2288 19.44H53.8688L56.0928 11.608H55.4528L53.2288 19.44ZM56.946 18H57.866V14.88C58.226 14.48 58.554 14.28 58.85 14.28C59.354 14.28 59.586 14.584 59.586 15.344V18H60.506V14.88C60.874 14.48 61.194 14.28 61.498 14.28C61.994 14.28 62.234 14.584 62.234 15.344V18H63.154V15.232C63.154 14.112 62.722 13.488 61.802 13.488C61.25 13.488 60.802 13.832 60.37 14.296C60.178 13.792 59.81 13.488 59.154 13.488C58.61 13.488 58.17 13.816 57.794 14.216H57.77L57.698 13.6H56.946V18ZM66.2451 18.104C67.3331 18.104 68.3171 17.264 68.3171 15.8C68.3171 14.336 67.3331 13.488 66.2451 13.488C65.1571 13.488 64.1731 14.336 64.1731 15.8C64.1731 17.264 65.1571 18.104 66.2451 18.104ZM66.2451 17.352C65.5571 17.352 65.1251 16.736 65.1251 15.8C65.1251 14.872 65.5571 14.248 66.2451 14.248C66.9411 14.248 67.3731 14.872 67.3731 15.8C67.3731 16.736 66.9411 17.352 66.2451 17.352ZM71.4471 18.104C72.4391 18.104 73.3431 17.24 73.3431 15.728C73.3431 14.376 72.7111 13.488 71.5991 13.488C71.1351 13.488 70.6631 13.736 70.2871 14.064L70.3191 13.312V11.624H69.3991V18H70.1191L70.2071 17.544H70.2311C70.6071 17.896 71.0471 18.104 71.4471 18.104ZM71.2711 17.344C70.9991 17.344 70.6551 17.24 70.3191 16.944V14.792C70.6791 14.432 71.0151 14.256 71.3591 14.256C72.0951 14.256 72.3911 14.824 72.3911 15.744C72.3911 16.776 71.9111 17.344 71.2711 17.344ZM74.4304 18H75.3504V13.6H74.4304V18ZM74.8864 12.776C75.2224 12.776 75.4624 12.56 75.4624 12.224C75.4624 11.896 75.2224 11.68 74.8864 11.68C74.5504 11.68 74.3184 11.896 74.3184 12.224C74.3184 12.56 74.5504 12.776 74.8864 12.776ZM77.6393 18.104C77.8713 18.104 78.0233 18.072 78.1353 18.032L78.0153 17.336C77.9353 17.352 77.9033 17.352 77.8633 17.352C77.7513 17.352 77.6473 17.264 77.6473 17.016V11.624H76.7273V16.968C76.7273 17.68 76.9753 18.104 77.6393 18.104ZM80.9421 18.104C81.5181 18.104 82.0221 17.912 82.4301 17.64L82.1101 17.056C81.7901 17.264 81.4541 17.384 81.0621 17.384C80.3021 17.384 79.7741 16.88 79.7021 16.04H82.5581C82.5821 15.928 82.6061 15.752 82.6061 15.568C82.6061 14.328 81.9741 13.488 80.8061 13.488C79.7821 13.488 78.7981 14.376 78.7981 15.8C78.7981 17.256 79.7501 18.104 80.9421 18.104ZM79.6941 15.4C79.7821 14.632 80.2701 14.208 80.8221 14.208C81.4621 14.208 81.8061 14.648 81.8061 15.4H79.6941ZM89.3775 12.2C89.3775 11.928 89.6015 11.696 89.8735 11.696C90.1455 11.696 90.3775 11.928 90.3775 12.2C90.3775 12.472 90.1455 12.696 89.8735 12.696C89.6015 12.696 89.3775 12.472 89.3775 12.2ZM88.9535 12.2C88.9535 12.272 88.9615 12.344 88.9775 12.416C88.8495 12.432 88.7295 12.432 88.6335 12.432H84.7535C84.4895 12.432 84.1135 12.4 83.8895 12.376V13.272C84.0975 13.256 84.4175 13.24 84.7535 13.24H88.6895C88.5775 13.968 88.2335 14.992 87.6895 15.696C87.0255 16.528 86.1215 17.216 84.5615 17.6L85.2495 18.352C86.6975 17.896 87.6975 17.128 88.4255 16.184C89.0735 15.328 89.4415 14.064 89.6255 13.248C89.6335 13.2 89.6495 13.144 89.6575 13.096C89.7295 13.112 89.8015 13.12 89.8735 13.12C90.3855 13.12 90.8015 12.712 90.8015 12.2C90.8015 11.696 90.3855 11.28 89.8735 11.28C89.3615 11.28 88.9535 11.696 88.9535 12.2ZM92.0335 12.432C92.0495 12.64 92.0495 12.92 92.0495 13.128V17.056C92.0495 17.376 92.0335 18.016 92.0255 18.088H92.8975C92.8895 18.048 92.8895 17.856 92.8895 17.64H97.0335C97.0255 17.864 97.0255 18.048 97.0175 18.088H97.8895C97.8895 18.024 97.8735 17.336 97.8735 17.056V13.128C97.8735 12.904 97.8735 12.656 97.8895 12.44C97.6255 12.448 97.3375 12.448 97.1535 12.448H92.8095C92.6095 12.448 92.3535 12.448 92.0335 12.432ZM92.8815 13.248H97.0335V16.84H92.8815V13.248ZM101.554 17.264C101.554 17.576 101.53 18.008 101.49 18.288H102.474C102.434 18 102.41 17.512 102.41 17.264V14.792C103.29 15.08 104.594 15.584 105.434 16.04L105.794 15.168C104.994 14.776 103.474 14.208 102.41 13.888V12.64C102.41 12.36 102.442 12.008 102.466 11.744H101.482C101.53 12.016 101.554 12.384 101.554 12.64V17.264ZM110.714 11.632L109.882 11.568C109.866 11.856 109.802 12.192 109.698 12.52C109.538 12.528 109.378 12.528 109.226 12.528C108.842 12.528 108.274 12.504 107.85 12.44V13.192C108.298 13.224 108.85 13.24 109.186 13.24C109.258 13.24 109.338 13.24 109.418 13.24C109.09 13.92 108.546 14.696 107.61 15.576L108.298 16.088C108.562 15.752 108.794 15.456 109.026 15.232C109.362 14.912 109.866 14.656 110.354 14.656C110.65 14.656 110.906 14.776 111.01 15.056C110.082 15.528 109.122 16.152 109.122 17.136C109.122 18.128 110.05 18.408 111.242 18.408C111.962 18.408 112.89 18.336 113.466 18.264L113.49 17.456C112.786 17.584 111.914 17.664 111.266 17.664C110.458 17.664 109.938 17.552 109.938 17.008C109.938 16.536 110.37 16.168 111.058 15.792C111.049 16.184 111.042 16.64 111.026 16.92H111.786C111.778 16.536 111.77 15.896 111.762 15.44C112.322 15.184 112.842 14.976 113.25 14.816C113.49 14.72 113.834 14.592 114.066 14.52L113.738 13.784C113.482 13.912 113.25 14.016 112.978 14.136C112.602 14.312 112.194 14.48 111.698 14.712C111.546 14.264 111.13 14.032 110.626 14.032C110.314 14.032 109.866 14.12 109.602 14.272C109.826 13.968 110.042 13.592 110.218 13.216C111.082 13.192 112.066 13.12 112.85 13.008V12.264C112.122 12.392 111.282 12.464 110.498 12.496C110.602 12.152 110.666 11.856 110.714 11.632ZM117.13 11.32C116.698 12.488 115.986 13.656 115.226 14.408C115.354 14.576 115.57 14.992 115.642 15.176C115.866 14.944 116.09 14.68 116.298 14.392V18.616H117.049V13.216C117.354 12.68 117.626 12.104 117.842 11.544L117.13 11.32ZM122.626 13.312V12.6H119.41C119.562 12.264 119.698 11.912 119.826 11.568L119.114 11.376C118.73 12.528 118.09 13.68 117.386 14.416C117.554 14.528 117.842 14.792 117.962 14.92C118.346 14.496 118.714 13.936 119.049 13.312H119.498V18.624H120.258V16.768H122.546V16.072H120.258V15.008H122.434V14.328H120.258V13.312H122.626ZM125.722 11.64L124.85 11.6C124.842 11.824 124.826 12.088 124.786 12.36C124.682 13.088 124.554 14.184 124.554 14.936C124.554 15.464 124.602 15.928 124.642 16.232L125.426 16.176C125.37 15.792 125.37 15.52 125.394 15.256C125.466 14.2 126.354 12.76 127.33 12.76C128.09 12.76 128.514 13.576 128.514 14.824C128.514 16.808 127.202 17.456 125.45 17.728L125.93 18.456C127.97 18.08 129.362 17.056 129.362 14.824C129.362 13.104 128.554 12.032 127.466 12.032C126.498 12.032 125.73 12.888 125.378 13.616C125.426 13.112 125.586 12.144 125.722 11.64ZM133.082 17.128C133.082 16.808 133.45 16.544 134.13 16.544C134.378 16.544 134.626 16.568 134.858 16.616C134.866 16.792 134.866 16.952 134.866 17.064C134.866 17.576 134.522 17.712 134.074 17.712C133.386 17.712 133.082 17.472 133.082 17.128ZM135.602 11.6H134.746C134.778 11.728 134.786 11.968 134.786 12.104C134.786 12.24 134.786 12.408 134.786 12.592C134.674 12.592 134.554 12.592 134.442 12.592C133.93 12.592 132.97 12.512 132.434 12.416L132.442 13.144C132.962 13.208 133.922 13.288 134.45 13.288C134.562 13.288 134.674 13.288 134.778 13.288C134.778 13.608 134.778 13.944 134.778 14.272C134.642 14.272 134.506 14.272 134.37 14.272C133.882 14.272 132.938 14.216 132.394 14.128L132.402 14.88C132.954 14.944 133.842 14.984 134.354 14.984C134.506 14.984 134.65 14.984 134.794 14.984C134.802 15.28 134.818 15.608 134.826 15.92C134.634 15.904 134.442 15.888 134.234 15.888C133.042 15.888 132.33 16.408 132.33 17.176C132.33 17.976 132.978 18.424 134.178 18.424C135.226 18.424 135.666 17.872 135.666 17.264C135.666 17.152 135.658 17.016 135.65 16.848C136.378 17.144 136.986 17.6 137.442 18.016L137.906 17.304C137.442 16.928 136.65 16.368 135.61 16.08C135.594 15.72 135.57 15.336 135.554 14.968C136.322 14.936 136.986 14.88 137.722 14.792L137.73 14.048C137.034 14.144 136.33 14.216 135.538 14.248C135.538 13.992 135.538 13.616 135.538 13.256C136.314 13.224 137.058 13.152 137.65 13.08V12.344C136.938 12.464 136.234 12.536 135.546 12.568C135.554 12.392 135.554 12.24 135.562 12.144C135.57 11.92 135.586 11.744 135.602 11.6ZM144.05 11.616H143.13C143.146 11.696 143.17 11.944 143.194 12.2C143.202 12.296 143.202 12.432 143.21 12.608C142.066 12.624 140.578 12.664 139.674 12.68L139.698 13.448C140.69 13.384 142.002 13.336 143.218 13.32C143.218 13.552 143.226 13.792 143.226 14C143.09 13.96 142.938 13.944 142.778 13.944C141.97 13.944 141.289 14.544 141.289 15.384C141.289 16.296 141.986 16.776 142.634 16.776C142.842 16.776 143.034 16.736 143.194 16.656C142.81 17.272 142.074 17.624 141.13 17.832L141.81 18.504C143.706 17.952 144.274 16.696 144.274 15.632C144.274 15.224 144.178 14.856 143.994 14.568C143.994 14.208 143.994 13.744 143.986 13.312C145.146 13.312 145.906 13.328 146.378 13.352L146.394 12.6H143.994C143.994 12.44 143.994 12.296 144.002 12.2C144.002 12.088 144.026 11.72 144.05 11.616ZM142.042 15.368C142.042 14.888 142.402 14.616 142.77 14.616C143.034 14.616 143.266 14.736 143.394 15C143.498 15.752 143.186 16.08 142.77 16.08C142.386 16.08 142.042 15.808 142.042 15.368ZM147.693 16.032C147.005 16.032 146.437 16.6 146.437 17.288C146.437 17.976 147.005 18.536 147.693 18.536C148.389 18.536 148.941 17.976 148.941 17.288C148.941 16.6 148.389 16.032 147.693 16.032ZM147.693 18.056C147.269 18.056 146.925 17.712 146.925 17.288C146.925 16.864 147.269 16.52 147.693 16.52C148.117 16.52 148.461 16.864 148.461 17.288C148.461 17.712 148.117 18.056 147.693 18.056Z" fill="#1E5B9D"/>
<path d="M43.168 47.536L42.656 47.752C42.872 48.056 43.128 48.536 43.288 48.856L43.816 48.632C43.656 48.32 43.368 47.824 43.168 47.536ZM44.072 47.192L43.56 47.408C43.784 47.712 44.048 48.168 44.216 48.512L44.736 48.28C44.592 47.992 44.288 47.488 44.072 47.192ZM41.136 47.968L40.208 47.664C40.144 47.896 40.008 48.216 39.912 48.384C39.536 49.088 38.792 50.192 37.4 51.032L38.104 51.552C38.936 50.992 39.624 50.288 40.128 49.6H42.632C42.488 50.272 42.008 51.28 41.416 51.96C40.704 52.784 39.752 53.496 38.208 53.952L38.952 54.624C40.448 54.048 41.416 53.312 42.152 52.408C42.872 51.528 43.344 50.456 43.56 49.688C43.616 49.528 43.704 49.328 43.784 49.2L43.128 48.8C42.976 48.848 42.752 48.88 42.528 48.88H40.6C40.648 48.808 40.68 48.744 40.72 48.672C40.808 48.512 40.976 48.208 41.136 47.968ZM46.824 47.968V48.792C47.048 48.776 47.336 48.768 47.592 48.768H50.696C50.968 48.768 51.288 48.776 51.488 48.792V47.968C51.288 47.992 50.96 48.008 50.704 48.008H47.592C47.328 48.008 47.032 47.992 46.824 47.968ZM52.12 50.168L51.552 49.816C51.448 49.856 51.256 49.888 51.04 49.888H46.944C46.712 49.888 46.408 49.864 46.096 49.832V50.664C46.4 50.64 46.752 50.632 46.944 50.632H51.016C50.872 51.16 50.584 51.76 50.128 52.232C49.472 52.912 48.496 53.432 47.328 53.672L47.952 54.392C48.976 54.104 49.992 53.6 50.816 52.688C51.408 52.032 51.768 51.224 51.992 50.448C52.008 50.376 52.072 50.256 52.12 50.168ZM59.984 48.68L59.368 48.28C59.192 48.328 58.992 48.336 58.856 48.336H54.976C54.712 48.336 54.336 48.304 54.112 48.272V49.168C54.312 49.152 54.632 49.136 54.976 49.136H58.904C58.8 49.872 58.456 50.896 57.904 51.592C57.248 52.432 56.344 53.112 54.776 53.496L55.464 54.248C56.92 53.792 57.92 53.032 58.648 52.08C59.296 51.232 59.664 49.96 59.84 49.144C59.88 48.984 59.92 48.808 59.984 48.68ZM61.7638 51.84L62.1478 52.592C62.9478 52.336 63.8678 51.944 64.5558 51.584V53.888C64.5558 54.144 64.5398 54.52 64.5238 54.656H65.4518C65.4198 54.52 65.4118 54.144 65.4118 53.888V51.08C66.1238 50.608 66.8118 50.032 67.2118 49.608L66.5878 49C66.1718 49.512 65.4038 50.192 64.6438 50.664C63.9958 51.056 62.8118 51.6 61.7638 51.84ZM72.7878 49.328L72.0358 49.576C72.2198 49.96 72.5798 50.96 72.6758 51.336L73.4278 51.064C73.3238 50.712 72.9318 49.664 72.7878 49.328ZM75.7078 49.84L74.8278 49.56C74.7158 50.568 74.3158 51.608 73.7638 52.296C73.0998 53.12 72.0438 53.728 71.1398 53.984L71.8038 54.664C72.7078 54.32 73.6998 53.672 74.4358 52.728C74.9958 52.016 75.3398 51.168 75.5558 50.312C75.5878 50.184 75.6358 50.04 75.7078 49.84ZM70.9238 49.744L70.1718 50.016C70.3478 50.328 70.7638 51.416 70.8997 51.84L71.6598 51.56C71.5078 51.12 71.1078 50.112 70.9238 49.744ZM81.2678 47.776L80.3398 47.472C80.2758 47.704 80.1398 48.032 80.0438 48.192C79.6678 48.896 78.9238 50.008 77.5318 50.84L78.2358 51.368C79.0758 50.808 79.7558 50.096 80.2678 49.408H82.7638C82.6198 50.08 82.1398 51.088 81.5477 51.768C80.8358 52.6 79.8838 53.304 78.3398 53.768L79.0838 54.432C80.5798 53.856 81.5477 53.128 82.2838 52.216C83.0038 51.336 83.4758 50.264 83.6918 49.496C83.7478 49.336 83.8358 49.136 83.9158 49.008L83.2598 48.608C83.1078 48.664 82.8838 48.688 82.6598 48.688H80.7398C80.7798 48.624 80.8198 48.552 80.8518 48.488C80.9398 48.328 81.1078 48.016 81.2678 47.776ZM88.6875 50.032C88.1755 50.032 87.7595 50.448 87.7595 50.96C87.7595 51.472 88.1755 51.888 88.6875 51.888C89.1995 51.888 89.6155 51.472 89.6155 50.96C89.6155 50.448 89.1995 50.032 88.6875 50.032ZM93.7835 48.432C93.7995 48.64 93.7995 48.92 93.7995 49.128V53.056C93.7995 53.376 93.7835 54.016 93.7755 54.088H94.6475C94.6395 54.048 94.6395 53.856 94.6395 53.64H98.7835C98.7755 53.864 98.7755 54.048 98.7675 54.088H99.6395C99.6395 54.024 99.6235 53.336 99.6235 53.056V49.128C99.6235 48.904 99.6235 48.656 99.6395 48.44C99.3755 48.448 99.0875 48.448 98.9035 48.448H94.5595C94.3595 48.448 94.1035 48.448 93.7835 48.432ZM94.6315 49.248H98.7835V52.84H94.6315V49.248ZM106.608 47.36L106.072 47.584C106.28 47.872 106.544 48.336 106.704 48.664L107.248 48.432C107.088 48.136 106.8 47.64 106.608 47.36ZM107.648 47.12L107.112 47.344C107.328 47.624 107.584 48.088 107.76 48.416L108.296 48.184C108.136 47.88 107.848 47.4 107.648 47.12ZM101.84 48.68V49.56C102.048 49.552 102.456 49.536 102.768 49.536H106.504V53.104H102.672C102.328 53.104 101.976 53.08 101.743 53.064V53.968C101.976 53.952 102.376 53.928 102.696 53.928H106.496C106.496 54.104 106.488 54.256 106.488 54.36H107.4C107.384 54.192 107.36 53.8 107.36 53.52V49.376C107.36 49.168 107.376 48.888 107.384 48.712C107.232 48.72 106.96 48.728 106.744 48.728H102.768C102.496 48.728 102.12 48.704 101.84 48.68ZM112.464 47.632L111.632 47.568C111.616 47.856 111.552 48.192 111.448 48.52C111.288 48.528 111.128 48.528 110.976 48.528C110.592 48.528 110.024 48.504 109.6 48.44V49.192C110.048 49.224 110.6 49.24 110.936 49.24C111.008 49.24 111.088 49.24 111.168 49.24C110.84 49.92 110.296 50.696 109.36 51.576L110.048 52.088C110.312 51.752 110.544 51.456 110.776 51.232C111.112 50.912 111.616 50.656 112.104 50.656C112.4 50.656 112.656 50.776 112.76 51.056C111.832 51.528 110.872 52.152 110.872 53.136C110.872 54.128 111.8 54.408 112.992 54.408C113.712 54.408 114.64 54.336 115.216 54.264L115.24 53.456C114.536 53.584 113.664 53.664 113.016 53.664C112.208 53.664 111.688 53.552 111.688 53.008C111.688 52.536 112.12 52.168 112.808 51.792C112.799 52.184 112.792 52.64 112.776 52.92H113.536C113.528 52.536 113.52 51.896 113.512 51.44C114.072 51.184 114.592 50.976 115 50.816C115.24 50.72 115.584 50.592 115.816 50.52L115.488 49.784C115.232 49.912 115 50.016 114.728 50.136C114.352 50.312 113.944 50.48 113.448 50.712C113.296 50.264 112.88 50.032 112.376 50.032C112.064 50.032 111.616 50.12 111.352 50.272C111.576 49.968 111.792 49.592 111.968 49.216C112.832 49.192 113.816 49.12 114.6 49.008V48.264C113.872 48.392 113.032 48.464 112.248 48.496C112.352 48.152 112.416 47.856 112.464 47.632ZM117.656 49.8C117.784 49.6 117.904 49.344 118.008 49.072H118.944V49.8H117.656ZM119.648 49.072H121.176V48.4H119.648V47.336H118.944V48.4H118.248C118.32 48.144 118.392 47.872 118.456 47.608L117.76 47.464C117.608 48.224 117.344 49.016 116.992 49.544C117.168 49.608 117.464 49.712 117.616 49.8H117.064V50.48H118.944V51.192H117.408V53.992H118.072V51.856H118.944V54.632H119.648V51.856H120.576V53.28C120.576 53.36 120.552 53.384 120.472 53.384C120.392 53.392 120.152 53.392 119.864 53.384C119.96 53.56 120.048 53.832 120.064 54.016C120.48 54.024 120.784 54.016 120.992 53.904C121.2 53.792 121.248 53.6 121.248 53.296V51.192H119.648V50.48H121.488V49.8H119.648V49.072ZM122.664 47.992H121.976V52.416H122.664V47.992ZM123.384 47.4V53.688C123.384 53.816 123.344 53.856 123.216 53.856C123.08 53.864 122.648 53.864 122.2 53.848C122.304 54.064 122.408 54.408 122.44 54.608C123.04 54.608 123.488 54.592 123.744 54.464C124.008 54.336 124.104 54.128 124.104 53.68V47.4H123.384ZM126.88 47.32C126.448 48.488 125.736 49.656 124.976 50.408C125.104 50.576 125.32 50.992 125.392 51.176C125.616 50.944 125.84 50.68 126.048 50.392V54.616H126.799V49.216C127.104 48.68 127.376 48.104 127.592 47.544L126.88 47.32ZM132.376 49.312V48.6H129.16C129.312 48.264 129.448 47.912 129.576 47.568L128.864 47.376C128.48 48.528 127.84 49.68 127.136 50.416C127.304 50.528 127.592 50.792 127.712 50.92C128.096 50.496 128.464 49.936 128.799 49.312H129.248V54.624H130.008V52.768H132.296V52.072H130.008V51.008H132.184V50.328H130.008V49.312H132.376ZM135.52 47.72L134.496 47.712C134.552 47.976 134.584 48.304 134.584 48.64C134.584 49.408 134.504 51.472 134.504 52.608C134.504 53.936 135.32 54.456 136.536 54.456C138.328 54.456 139.408 53.424 139.936 52.664L139.368 51.968C138.792 52.824 137.952 53.616 136.552 53.616C135.856 53.616 135.336 53.328 135.336 52.48C135.336 51.376 135.392 49.528 135.432 48.64C135.44 48.352 135.472 48.016 135.52 47.72ZM142.832 53.128C142.832 52.808 143.2 52.544 143.88 52.544C144.128 52.544 144.376 52.568 144.608 52.616C144.616 52.792 144.616 52.952 144.616 53.064C144.616 53.576 144.272 53.712 143.824 53.712C143.136 53.712 142.832 53.472 142.832 53.128ZM145.352 47.6H144.496C144.528 47.728 144.536 47.968 144.536 48.104C144.536 48.24 144.536 48.408 144.536 48.592C144.424 48.592 144.304 48.592 144.192 48.592C143.68 48.592 142.72 48.512 142.184 48.416L142.192 49.144C142.712 49.208 143.672 49.288 144.2 49.288C144.312 49.288 144.424 49.288 144.528 49.288C144.528 49.608 144.528 49.944 144.528 50.272C144.392 50.272 144.256 50.272 144.12 50.272C143.632 50.272 142.688 50.216 142.144 50.128L142.152 50.88C142.704 50.944 143.592 50.984 144.104 50.984C144.256 50.984 144.4 50.984 144.544 50.984C144.552 51.28 144.568 51.608 144.576 51.92C144.384 51.904 144.192 51.888 143.984 51.888C142.792 51.888 142.08 52.408 142.08 53.176C142.08 53.976 142.728 54.424 143.928 54.424C144.976 54.424 145.416 53.872 145.416 53.264C145.416 53.152 145.408 53.016 145.4 52.848C146.128 53.144 146.736 53.6 147.192 54.016L147.656 53.304C147.192 52.928 146.4 52.368 145.36 52.08C145.344 51.72 145.32 51.336 145.304 50.968C146.072 50.936 146.736 50.88 147.472 50.792L147.48 50.048C146.784 50.144 146.08 50.216 145.288 50.248C145.288 49.992 145.288 49.616 145.288 49.256C146.064 49.224 146.808 49.152 147.4 49.08V48.344C146.688 48.464 145.984 48.536 145.296 48.568C145.304 48.392 145.304 48.24 145.312 48.144C145.32 47.92 145.336 47.744 145.352 47.6ZM153.8 47.616H152.88C152.896 47.696 152.92 47.944 152.944 48.2C152.952 48.296 152.952 48.432 152.96 48.608C151.816 48.624 150.328 48.664 149.424 48.68L149.448 49.448C150.44 49.384 151.752 49.336 152.968 49.32C152.968 49.552 152.976 49.792 152.976 50C152.84 49.96 152.688 49.944 152.528 49.944C151.72 49.944 151.039 50.544 151.039 51.384C151.039 52.296 151.736 52.776 152.384 52.776C152.592 52.776 152.784 52.736 152.944 52.656C152.56 53.272 151.824 53.624 150.88 53.832L151.56 54.504C153.456 53.952 154.024 52.696 154.024 51.632C154.024 51.224 153.928 50.856 153.744 50.568C153.744 50.208 153.744 49.744 153.736 49.312C154.896 49.312 155.656 49.328 156.128 49.352L156.144 48.6H153.744C153.744 48.44 153.744 48.296 153.752 48.2C153.752 48.088 153.776 47.72 153.8 47.616ZM151.792 51.368C151.792 50.888 152.152 50.616 152.52 50.616C152.784 50.616 153.016 50.736 153.144 51C153.248 51.752 152.936 52.08 152.52 52.08C152.136 52.08 151.792 51.808 151.792 51.368ZM157.443 52.032C156.755 52.032 156.187 52.6 156.187 53.288C156.187 53.976 156.755 54.536 157.443 54.536C158.139 54.536 158.691 53.976 158.691 53.288C158.691 52.6 158.139 52.032 157.443 52.032ZM157.443 54.056C157.019 54.056 156.675 53.712 156.675 53.288C156.675 52.864 157.019 52.52 157.443 52.52C157.867 52.52 158.211 52.864 158.211 53.288C158.211 53.712 157.867 54.056 157.443 54.056Z" fill="#1E5B9D"/>
<defs>
<clipPath id="clip0_319_548">
<rect width="16.2664" height="16.2664" fill="white" transform="translate(6.62695 6.62695)"/>
</clipPath>
</defs>
</svg>
