<svg width="1280" height="865" viewBox="0 0 1280 865" fill="none" xmlns="http://www.w3.org/2000/svg">
<mask id="mask0_313_543" style="mask-type:alpha" maskUnits="userSpaceOnUse" x="0" y="0" width="1280" height="865">
<rect width="1280" height="865" fill="#D9D9D9"/>
</mask>
<g mask="url(#mask0_313_543)">
<line x1="384.491" y1="597.013" x2="890.257" y2="597.013" stroke="#1E5B9D" stroke-width="7.9738" stroke-linecap="round"/>
<line x1="3.9869" y1="-3.9869" x2="549.623" y2="-3.9869" transform="matrix(-1 0 0 1 913.609 697.825)" stroke="#D94D6D" stroke-width="7.9738" stroke-linecap="round"/>
<path d="M1376 486.58C1376 648.631 1232.73 780 1056 780C879.269 780 736 648.631 736 486.58C736 324.529 840.421 410.909 1056 193.16C1376 -225.864 1376 324.529 1376 486.58Z" fill="#1E5B9D"/>
<path d="M-110 492.124C-110 651.113 33.2689 780 210 780C386.731 780 530 651.113 530 492.124C530 333.134 425.579 417.882 210 204.247C-110 -206.86 -110 333.134 -110 492.124Z" fill="#D94D6D"/>
<line x1="384.739" y1="611.905" x2="890.259" y2="627.69" stroke="#1E5B9D" stroke-width="7.9738" stroke-linecap="round"/>
<line x1="471.987" y1="792.013" x2="808.013" y2="792.013" stroke="#F7E7DE" stroke-width="7.9738" stroke-linecap="round"/>
<line x1="472.193" y1="802.202" x2="808.056" y2="812.69" stroke="#F7E7DE" stroke-width="7.9738" stroke-linecap="round"/>
<line x1="3.9869" y1="-3.9869" x2="549.385" y2="-3.9869" transform="matrix(-0.999513 0.0312106 0.0312106 0.999513 913.475 713.729)" stroke="#D94D6D" stroke-width="7.9738" stroke-linecap="round"/>
<g clip-path="url(#clip0_313_543)">
<path d="M654.81 509.306C723.511 509.306 779.204 453.904 779.204 385.562C779.204 317.221 723.511 261.819 654.81 261.819C586.109 261.819 530.416 317.221 530.416 385.562C530.416 453.904 586.109 509.306 654.81 509.306Z" fill="white"/>
<path d="M684.425 488.021C636.822 488.021 569.557 505.975 535.286 438.184C517.481 403.093 516.385 360.523 534.951 325.855C568.431 263.272 638.131 276.534 678.763 274.112H680.103C695.717 273.385 700.312 251.101 686.19 243.562C663.452 231.227 637.639 225.627 611.803 227.424C540.612 232.147 482.692 293.217 477.457 369.182C471.156 459.56 537.964 534.951 621.299 534.951C648.692 534.951 666.619 536.041 688.442 521.871C699.521 514.665 701.652 487.355 688.686 487.93C687.286 487.991 685.886 488.021 684.425 488.021Z" fill="white"/>
<path d="M710.813 478.575C665.402 478.575 601.242 494.561 568.462 434.279C551.448 403.063 550.413 365.216 568.127 334.364C600.116 278.744 666.528 290.522 705.304 288.342H706.552C709.794 288.29 712.923 287.152 715.436 285.114C717.948 283.075 719.697 280.254 720.4 277.106C721.104 273.957 720.72 270.665 719.312 267.76C717.904 264.855 715.554 262.506 712.639 261.093C691.252 250.354 667.418 245.356 643.493 246.593C619.569 247.83 596.383 255.259 576.231 268.145C556.078 281.032 539.657 298.928 528.591 320.065C517.525 341.202 512.199 364.847 513.138 388.66C514.077 412.473 521.25 435.63 533.947 455.839C546.644 476.048 564.424 492.61 585.53 503.886C606.636 515.161 630.335 520.76 654.283 520.128C678.232 519.497 701.599 512.656 722.075 500.284C732.636 493.865 727.31 477.848 714.952 478.333C713.532 478.494 712.152 478.575 710.813 478.575Z" fill="white"/>
<path d="M646.454 339.608L617.894 368.018C609.835 376.035 609.835 389.032 617.894 397.049L646.454 425.459C654.512 433.476 667.578 433.476 675.637 425.459L704.197 397.049C712.255 389.032 712.255 376.035 704.197 368.018L675.637 339.608C667.578 331.591 654.512 331.591 646.454 339.608Z" fill="white"/>
<path d="M702.047 394.858C702.504 400.096 701.317 406.969 695.96 407.968C693.15 408.162 690.363 407.345 688.108 405.667L683.512 403.002C687.589 397.467 690.092 390.94 690.756 384.109C691.202 379.696 690.445 375.244 688.565 371.222C686.686 367.2 683.752 363.755 680.072 361.25C674.737 358.294 668.612 357.056 662.541 357.707C657.831 357.987 653.186 358.945 648.753 360.553C650.79 357.527 653.059 354.663 655.541 351.985C659.291 347.43 664.412 344.193 670.15 342.75C671.503 342.568 672.875 342.568 674.229 342.75C681.564 343.659 686.738 350.229 690.299 356.648C696.866 368.423 700.869 381.442 702.047 394.858V394.858Z" fill="white"/>
<path d="M680.164 361.25C683.843 363.755 686.777 367.2 688.657 371.222C690.536 375.245 691.293 379.696 690.847 384.11C690.183 390.94 687.681 397.467 683.603 403.003L673.955 397.432L671.915 396.22C661.871 390.437 651.584 384.412 644.522 375.329C643.738 374.36 643.006 373.349 642.331 372.301C644.157 368.229 646.347 364.327 648.875 360.645C653.308 359.036 657.952 358.078 662.663 357.798C668.715 357.126 674.827 358.332 680.164 361.25V361.25Z" fill="white"/>
<path d="M673.954 397.431L683.603 402.972C682.45 404.638 681.2 406.235 679.859 407.756C673.617 414.936 665.88 420.681 657.184 424.59C654.573 425.945 651.667 426.642 648.723 426.619C646.546 426.348 644.47 425.545 642.68 424.282C640.89 423.02 639.443 421.336 638.466 419.382C636.519 415.484 635.479 411.2 635.422 406.847C635.422 406.03 635.422 405.243 635.422 404.425C636.415 404.804 637.431 405.118 638.466 405.364C648.205 407.453 658.31 404.425 667.837 401.458L672.554 398.733L673.802 397.492L673.954 397.431Z" fill="white"/>
<path d="M671.915 396.25L673.955 397.461L672.707 398.703L667.989 401.428C658.462 404.455 648.358 407.483 638.618 405.333C637.584 405.088 636.567 404.774 635.574 404.395C635.466 393.281 637.792 382.278 642.392 372.149C643.067 373.197 643.799 374.208 644.583 375.177C651.584 384.442 661.871 390.467 671.915 396.25Z" fill="white"/>
<path d="M670.211 342.508V342.75C664.473 344.193 659.351 347.43 655.601 351.985C653.12 354.663 650.851 357.527 648.814 360.553C645.416 361.736 642.152 363.268 639.074 365.125C638.093 361.849 637.795 358.409 638.198 355.014C638.601 351.62 639.697 348.343 641.418 345.384C646.105 337.028 656.636 330.246 664.397 335.908C666.256 336.846 667.824 338.269 668.932 340.025L670.211 342.508Z" fill="white"/>
<path d="M639.105 365.125C642.183 363.268 645.447 361.736 648.844 360.553C646.316 364.236 644.126 368.137 642.301 372.21C640.938 369.993 639.864 367.612 639.105 365.125V365.125Z" fill="white"/>
<path d="M639.105 365.125C639.816 367.604 640.839 369.985 642.148 372.21C637.548 382.338 635.222 393.342 635.331 404.455C626.869 401.428 619.93 393.01 621.817 384.381C622.815 380.709 624.743 377.352 627.417 374.632C630.819 370.906 634.758 367.702 639.105 365.125V365.125Z" fill="white"/>
<path d="M673.62 397.219C669.602 401.246 663.484 402.548 658.158 403.85C649.027 406.091 638.953 406.878 630.765 401.61C622.578 396.341 619.412 386.32 625.469 377.812C630.806 370.716 638.011 365.225 646.288 361.946C654.625 358.298 663.877 357.243 672.828 358.919C677.16 359.93 681.093 362.195 684.132 365.429C687.171 368.662 689.179 372.718 689.903 377.085C693.403 395.251 678.063 412.207 663.484 420.836C660.029 423.101 656.24 424.817 652.253 425.922C649.575 426.439 646.8 426.063 644.357 424.854C641.914 423.644 639.94 421.668 638.74 419.231C634.296 411.359 635.422 399.793 636.883 391.194C639.561 375.359 647.536 358.404 660.289 348.109C663.796 344.96 668.318 343.156 673.041 343.023C675.36 343.241 677.608 343.928 679.65 345.042C681.691 346.156 683.482 347.674 684.912 349.502C690.667 356.741 694.891 365.062 697.33 373.966C699.826 381.778 702.443 391.164 701.469 399.399C700.891 404.123 698.425 408.906 692.612 407.332C687.981 405.519 683.594 403.139 679.555 400.247C663.911 391.164 639.805 380.294 638.466 359.554C638.156 354.506 639.4 349.484 642.032 345.157C644.664 340.83 648.558 337.403 653.197 335.332C660.319 332.638 666.619 336.604 669.724 342.872C669.967 343.356 670.728 342.871 670.485 342.417C669.444 339.895 667.704 337.719 665.468 336.143C663.231 334.567 660.591 333.656 657.854 333.516C649.758 333.516 642.879 340.722 639.805 347.595C630.674 367.971 650.062 383.928 665.676 393.283C670.728 396.311 675.872 399.339 680.894 402.185C684.82 404.456 689.447 408.24 694.134 408.604C701.682 409.088 702.747 399.793 702.26 394.282C701.277 383.482 698.457 372.927 693.921 363.067C690.39 355.316 685.368 345.324 676.389 342.811C667.411 340.298 659.041 347.231 653.501 353.65C647.038 361.17 642.088 369.856 638.922 379.235C635.565 388.957 634.27 399.266 635.118 409.512C635.848 417.112 639.622 426.467 648.54 427.103C653.136 427.466 657.671 424.923 661.689 422.834C666.264 420.315 670.525 417.266 674.381 413.751C682.227 407.196 687.841 398.386 690.451 388.53C691.448 384.412 691.466 380.12 690.505 375.995C689.543 371.869 687.628 368.023 684.912 364.762C678.398 357.405 668.019 356.315 658.767 357.556C649.222 358.919 640.228 362.833 632.744 368.88C626.139 374.269 618.865 382.323 621.695 391.497C623.11 395.297 625.526 398.649 628.691 401.201C631.856 403.752 635.653 405.41 639.683 406C644.916 406.739 650.242 406.503 655.388 405.303C660.026 404.551 664.548 403.207 668.841 401.307C670.765 400.411 672.532 399.215 674.076 397.764C674.472 397.371 673.833 396.735 673.437 397.159L673.62 397.219Z" fill="white"/>
<path d="M732.362 286.495C802.092 327.006 807.479 429.252 741.676 476.182C741.103 476.64 740.37 476.852 739.639 476.773C738.909 476.694 738.24 476.328 737.78 475.758C737.32 475.188 737.106 474.46 737.186 473.733C737.266 473.006 737.633 472.341 738.206 471.883C751.19 460.137 761.487 445.754 768.399 429.707C789.704 381.081 772.569 321.949 729.318 291.066C728.786 290.635 728.433 290.021 728.33 289.345C728.227 288.669 728.38 287.979 728.759 287.409C729.139 286.84 729.717 286.43 730.383 286.261C731.049 286.092 731.754 286.175 732.362 286.495V286.495Z" fill="white"/>
</g>
<g clip-path="url(#clip1_313_543)">
<path d="M651.224 466.078C698.069 466.078 736.045 428.102 736.045 381.257C736.045 334.411 698.069 296.436 651.224 296.436C604.378 296.436 566.403 334.411 566.403 381.257C566.403 428.102 604.378 466.078 651.224 466.078Z" fill="white"/>
<path d="M671.417 451.488C638.958 451.488 593.092 463.795 569.724 417.327C557.583 393.273 556.835 364.093 569.495 340.33C592.325 297.432 639.851 306.522 667.557 304.862H668.47C679.117 304.364 682.251 289.089 672.621 283.921C657.117 275.467 639.516 271.628 621.899 272.859C573.356 276.097 533.861 317.957 530.291 370.029C525.995 431.979 571.55 483.656 628.374 483.656C647.052 483.656 659.276 484.403 674.157 474.69C681.711 469.751 683.164 451.031 674.323 451.425C673.368 451.467 672.414 451.488 671.417 451.488Z" fill="#1E5B9D"/>
<path d="M689.411 445.012C658.446 445.012 614.697 455.97 592.345 414.649C580.744 393.252 580.038 367.31 592.117 346.162C613.929 308.037 659.214 316.11 685.654 314.616H686.505C688.716 314.58 690.85 313.8 692.563 312.403C694.276 311.006 695.469 309.072 695.948 306.914C696.428 304.756 696.166 302.499 695.206 300.508C694.246 298.516 692.643 296.906 690.656 295.938C676.073 288.577 659.821 285.151 643.507 285.999C627.194 286.847 611.384 291.939 597.643 300.772C583.901 309.605 572.704 321.872 565.159 336.361C557.613 350.849 553.981 367.056 554.621 383.379C555.262 399.702 560.153 415.575 568.811 429.428C577.468 443.28 589.592 454.633 603.984 462.362C618.375 470.091 634.535 473.929 650.865 473.495C667.194 473.062 683.128 468.374 697.09 459.893C704.291 455.493 700.659 444.514 692.233 444.846C691.265 444.957 690.324 445.012 689.411 445.012Z" fill="#F7E7DE"/>
<path d="M645.526 349.757L626.052 369.231C620.557 374.726 620.557 383.635 626.052 389.13L645.526 408.604C651.021 414.099 659.93 414.099 665.425 408.604L684.899 389.13C690.394 383.635 690.394 374.726 684.899 369.231L665.425 349.757C659.93 344.262 651.021 344.262 645.526 349.757Z" fill="#D94D6D"/>
<path d="M683.434 387.628C683.745 391.218 682.936 395.929 679.283 396.614C677.367 396.747 675.466 396.188 673.928 395.037L670.795 393.211C673.575 389.416 675.281 384.942 675.734 380.26C676.038 377.235 675.522 374.184 674.241 371.427C672.959 368.67 670.958 366.308 668.449 364.591C664.812 362.565 660.635 361.716 656.495 362.163C653.283 362.354 650.117 363.011 647.094 364.114C648.483 362.039 650.03 360.076 651.722 358.24C654.279 355.118 657.771 352.899 661.684 351.91C662.606 351.786 663.542 351.786 664.465 351.91C669.466 352.533 672.995 357.037 675.423 361.436C679.901 369.508 682.63 378.432 683.434 387.628V387.628Z" fill="white"/>
<path d="M668.512 364.591C671.021 366.309 673.021 368.67 674.303 371.427C675.585 374.184 676.101 377.235 675.796 380.261C675.344 384.943 673.637 389.417 670.857 393.211L664.278 389.392L662.888 388.562C656.039 384.598 649.024 380.468 644.209 374.242C643.674 373.578 643.175 372.885 642.715 372.167C643.96 369.375 645.453 366.701 647.177 364.176C650.2 363.074 653.367 362.417 656.578 362.226C660.705 361.765 664.873 362.591 668.512 364.591V364.591Z" fill="#F7E7DE"/>
<path d="M664.278 389.392L670.857 393.19C670.071 394.332 669.218 395.427 668.304 396.469C664.048 401.391 658.772 405.329 652.843 408.009C651.062 408.937 649.081 409.415 647.073 409.399C645.589 409.213 644.173 408.663 642.953 407.798C641.733 406.932 640.745 405.778 640.079 404.439C638.752 401.767 638.043 398.83 638.004 395.847C638.004 395.286 638.004 394.747 638.004 394.186C638.681 394.446 639.374 394.661 640.079 394.83C646.72 396.262 653.611 394.186 660.106 392.153L663.323 390.285L664.174 389.434L664.278 389.392Z" fill="#1E5B9D"/>
<path d="M662.888 388.583L664.278 389.413L663.427 390.264L660.21 392.131C653.714 394.207 646.824 396.282 640.183 394.809C639.478 394.64 638.784 394.425 638.107 394.165C638.033 386.548 639.62 379.005 642.756 372.062C643.217 372.781 643.715 373.474 644.251 374.138C649.024 380.489 656.039 384.619 662.888 388.583Z" fill="white"/>
<path d="M661.725 351.745V351.911C657.813 352.9 654.321 355.119 651.764 358.241C650.072 360.076 648.524 362.04 647.135 364.114C644.819 364.925 642.593 365.975 640.494 367.248C639.825 365.003 639.622 362.644 639.897 360.317C640.171 357.991 640.919 355.744 642.092 353.717C645.288 347.988 652.469 343.34 657.761 347.221C659.029 347.864 660.098 348.839 660.854 350.043L661.725 351.745Z" fill="#1E5B9D"/>
<path d="M640.515 367.248C642.614 365.975 644.839 364.925 647.156 364.114C645.432 366.639 643.939 369.313 642.694 372.104C641.765 370.584 641.033 368.953 640.515 367.248V367.248Z" fill="#1E5B9D"/>
<path d="M640.515 367.248C641 368.947 641.697 370.579 642.59 372.104C639.454 379.047 637.867 386.589 637.941 394.207C632.172 392.131 627.44 386.362 628.727 380.447C629.408 377.93 630.722 375.629 632.545 373.764C634.865 371.21 637.551 369.014 640.515 367.248V367.248Z" fill="#F7E7DE"/>
<path d="M664.05 389.247C661.31 392.007 657.139 392.9 653.507 393.792C647.281 395.328 640.411 395.867 634.828 392.256C629.246 388.645 627.087 381.775 631.217 375.944C634.856 371.08 639.769 367.316 645.413 365.069C651.098 362.568 657.406 361.844 663.51 362.993C666.464 363.687 669.146 365.239 671.218 367.456C673.29 369.672 674.659 372.452 675.153 375.446C677.54 387.898 667.08 399.52 657.139 405.435C654.783 406.988 652.199 408.164 649.481 408.921C647.654 409.275 645.762 409.018 644.096 408.189C642.431 407.36 641.085 406.006 640.266 404.335C637.236 398.939 638.004 391.011 639 385.117C640.826 374.263 646.264 362.64 654.96 355.584C657.351 353.425 660.434 352.189 663.655 352.097C665.236 352.247 666.77 352.718 668.161 353.482C669.553 354.245 670.774 355.286 671.749 356.539C675.674 361.5 678.554 367.204 680.217 373.308C681.919 378.662 683.704 385.096 683.039 390.741C682.645 393.979 680.964 397.258 677 396.179C673.842 394.936 670.851 393.305 668.097 391.322C657.429 385.096 640.992 377.645 640.079 363.429C639.868 359.969 640.716 356.526 642.511 353.56C644.305 350.594 646.961 348.245 650.124 346.826C654.98 344.979 659.276 347.698 661.393 351.994C661.559 352.326 662.078 351.994 661.912 351.682C661.202 349.954 660.016 348.462 658.491 347.382C656.966 346.301 655.166 345.677 653.299 345.581C647.779 345.581 643.088 350.52 640.992 355.231C634.766 369.199 647.986 380.136 658.633 386.549C662.078 388.624 665.586 390.7 669.01 392.65C671.687 394.207 674.842 396.801 678.038 397.05C683.185 397.382 683.911 391.011 683.579 387.234C682.909 379.831 680.986 372.596 677.893 365.837C675.485 360.524 672.061 353.675 665.938 351.952C659.816 350.23 654.109 354.982 650.331 359.382C645.924 364.537 642.549 370.49 640.39 376.919C638.101 383.584 637.218 390.65 637.796 397.673C638.294 402.882 640.868 409.295 646.949 409.731C650.082 409.98 653.175 408.237 655.914 406.805C659.034 405.078 661.939 402.988 664.569 400.578C669.919 396.086 673.747 390.046 675.527 383.29C676.206 380.468 676.219 377.526 675.563 374.698C674.908 371.87 673.602 369.234 671.749 366.999C667.308 361.956 660.231 361.208 653.922 362.059C647.414 362.994 641.281 365.676 636.177 369.821C631.674 373.515 626.714 379.036 628.644 385.324C629.608 387.929 631.256 390.227 633.414 391.976C635.572 393.725 638.161 394.861 640.909 395.265C644.478 395.772 648.109 395.61 651.618 394.788C654.781 394.272 657.864 393.351 660.791 392.049C662.103 391.435 663.308 390.615 664.361 389.62C664.631 389.351 664.195 388.915 663.925 389.205L664.05 389.247Z" fill="white"/>
<path d="M704.105 313.35C751.652 341.119 755.325 411.205 710.455 443.373C710.064 443.687 709.565 443.832 709.067 443.778C708.569 443.723 708.112 443.473 707.799 443.082C707.485 442.692 707.339 442.192 707.394 441.694C707.448 441.196 707.698 440.74 708.089 440.426C716.943 432.375 723.964 422.516 728.677 411.516C743.205 378.185 731.52 337.653 702.029 316.484C701.666 316.188 701.426 315.768 701.355 315.304C701.285 314.841 701.389 314.368 701.648 313.977C701.906 313.587 702.301 313.306 702.755 313.19C703.209 313.074 703.69 313.131 704.105 313.35V313.35Z" fill="#D94D6D"/>
</g>
<path d="M-256.882 466.204L-265.582 470.835C-266.954 468.028 -268.654 466.625 -270.681 466.625C-271.648 466.625 -272.474 466.952 -273.16 467.607C-273.846 468.231 -274.189 469.042 -274.189 470.04C-274.189 471.786 -272.162 473.517 -268.108 475.232C-262.526 477.633 -258.768 479.847 -256.835 481.874C-254.901 483.901 -253.935 486.63 -253.935 490.06C-253.935 494.457 -255.556 498.137 -258.8 501.1C-261.949 503.906 -265.754 505.31 -270.213 505.31C-277.853 505.31 -283.264 501.583 -286.445 494.13L-277.464 489.967C-276.216 492.15 -275.265 493.537 -274.61 494.13C-273.332 495.315 -271.804 495.908 -270.026 495.908C-266.471 495.908 -264.693 494.286 -264.693 491.043C-264.693 489.172 -266.066 487.425 -268.81 485.804C-269.87 485.273 -270.93 484.759 -271.991 484.26C-273.051 483.761 -274.127 483.246 -275.218 482.716C-278.274 481.219 -280.426 479.723 -281.674 478.226C-283.264 476.323 -284.059 473.875 -284.059 470.882C-284.059 466.921 -282.703 463.647 -279.99 461.058C-277.214 458.47 -273.846 457.176 -269.886 457.176C-264.054 457.176 -259.719 460.185 -256.882 466.204ZM-224.334 458.439V484.587C-224.334 492.134 -221.356 495.908 -215.399 495.908C-209.443 495.908 -206.465 492.134 -206.465 484.587V458.439H-195.94V484.821C-195.94 488.47 -196.392 491.62 -197.297 494.27C-198.17 496.64 -199.682 498.777 -201.834 500.679C-205.389 503.766 -209.911 505.31 -215.399 505.31C-220.857 505.31 -225.363 503.766 -228.918 500.679C-231.101 498.777 -232.645 496.64 -233.549 494.27C-234.422 492.15 -234.859 489 -234.859 484.821V458.439H-224.334ZM-129.011 502.924C-129.011 505.076 -129.089 506.963 -129.245 508.584C-129.37 510.237 -129.557 511.687 -129.806 512.934C-130.555 516.365 -132.02 519.312 -134.203 521.775C-138.32 526.515 -143.98 528.886 -151.184 528.886C-157.265 528.886 -162.27 527.248 -166.199 523.974C-170.253 520.606 -172.592 515.944 -173.216 509.988H-162.644C-162.239 512.233 -161.568 513.964 -160.633 515.18C-158.45 518.018 -155.269 519.437 -151.09 519.437C-143.387 519.437 -139.536 514.712 -139.536 505.263V498.901C-143.715 503.174 -148.533 505.31 -153.99 505.31C-160.196 505.31 -165.279 503.064 -169.24 498.574C-173.231 494.021 -175.227 488.33 -175.227 481.5C-175.227 474.858 -173.372 469.213 -169.661 464.567C-165.669 459.639 -160.399 457.176 -153.85 457.176C-148.112 457.176 -143.341 459.312 -139.536 463.584V458.439H-129.011L-129.011 502.924ZM-139.115 481.313C-139.115 476.885 -140.3 473.345 -142.67 470.695C-145.071 467.981 -148.143 466.625 -151.885 466.625C-155.877 466.625 -159.027 468.106 -161.334 471.069C-163.424 473.719 -164.468 477.15 -164.468 481.36C-164.468 485.507 -163.424 488.907 -161.334 491.557C-159.058 494.457 -155.908 495.908 -151.885 495.908C-147.862 495.908 -144.681 494.442 -142.343 491.51C-140.191 488.86 -139.115 485.461 -139.115 481.313ZM-72.5602 458.439H-61.9885L-61.9885 504L-72.5602 504V499.229C-76.8949 503.283 -81.557 505.31 -86.5466 505.31C-92.846 505.31 -98.0538 503.033 -102.17 498.48C-106.255 493.834 -108.298 488.033 -108.298 481.079C-108.298 474.25 -106.255 468.558 -102.17 464.005C-98.085 459.452 -92.9707 457.176 -86.8273 457.176C-81.5259 457.176 -76.7702 459.359 -72.5602 463.725V458.439ZM-97.5393 481.079C-97.5393 485.445 -96.3699 489 -94.031 491.744C-91.6298 494.52 -88.6048 495.908 -84.9562 495.908C-81.0581 495.908 -77.9084 494.567 -75.5072 491.885C-73.1059 489.109 -71.9053 485.585 -71.9053 481.313C-71.9053 477.041 -73.1059 473.517 -75.5072 470.741C-77.9084 468.028 -81.0269 466.672 -84.8626 466.672C-88.4801 466.672 -91.505 468.044 -93.9374 470.788C-96.3387 473.564 -97.5393 476.994 -97.5393 481.079ZM-32.5749 458.439L-20.6467 484.447L-7.78292 454.276L5.1744 484.447L16.9623 458.439H28.7502L4.89374 507.415L-7.78292 478.085L-20.5999 507.415L-44.4096 458.439H-32.5749ZM77.4828 458.439H88.0545V504H77.4828V499.229C73.1481 503.283 68.486 505.31 63.4964 505.31C57.197 505.31 51.9892 503.033 47.8728 498.48C43.7875 493.834 41.7449 488.033 41.7449 481.079C41.7449 474.25 43.7875 468.558 47.8728 464.005C51.958 459.452 57.0723 457.176 63.2157 457.176C68.5172 457.176 73.2729 459.359 77.4828 463.725V458.439ZM52.5037 481.079C52.5037 485.445 53.6732 489 56.012 491.744C58.4133 494.52 61.4382 495.908 65.0868 495.908C68.9849 495.908 72.1346 494.567 74.5358 491.885C76.9371 489.109 78.1377 485.585 78.1377 481.313C78.1377 477.041 76.9371 473.517 74.5358 470.741C72.1346 468.028 69.0161 466.672 65.1804 466.672C61.5629 466.672 58.538 468.044 56.1056 470.788C53.7043 473.564 52.5037 476.994 52.5037 481.079ZM110.919 458.439H121.444V462.508C123.378 460.481 125.093 459.094 126.59 458.345C128.118 457.566 129.926 457.176 132.016 457.176C134.791 457.176 137.692 458.08 140.716 459.889L135.898 469.525C133.903 468.091 131.953 467.373 130.051 467.373C124.313 467.373 121.444 471.708 121.444 480.377V504H110.919V458.439ZM189.262 458.439H199.834V504L189.262 504V499.229C184.927 503.283 180.265 505.31 175.276 505.31C168.976 505.31 163.768 503.033 159.652 498.48C155.567 493.834 153.524 488.033 153.524 481.079C153.524 474.25 155.567 468.558 159.652 464.005C163.737 459.452 168.851 457.176 174.995 457.176C180.296 457.176 185.052 459.359 189.262 463.725V458.439ZM164.283 481.079C164.283 485.445 165.452 489 167.791 491.744C170.192 494.52 173.217 495.908 176.866 495.908C180.764 495.908 183.914 494.567 186.315 491.885C188.716 489.109 189.917 485.585 189.917 481.313C189.917 477.041 188.716 473.517 186.315 470.741C183.914 468.028 180.795 466.672 176.96 466.672C173.342 466.672 170.317 468.044 167.885 470.788C165.483 473.564 164.283 476.994 164.283 481.079ZM261.842 458.439H272.367V462.649C274.394 460.528 276.124 459.094 277.559 458.345C279.087 457.566 281.005 457.176 283.312 457.176C288.458 457.176 292.528 459.421 295.521 463.912C298.827 459.421 303.302 457.176 308.946 457.176C319.206 457.176 324.336 463.397 324.336 475.84V504H313.765V478.693C313.765 474.328 313.234 471.24 312.174 469.432C311.083 467.592 309.289 466.672 306.795 466.672C303.894 466.672 301.774 467.763 300.433 469.946C299.123 472.129 298.468 475.637 298.468 480.471V504H287.897V478.834C287.897 470.726 285.558 466.672 280.88 466.672C277.917 466.672 275.75 467.779 274.378 469.993C273.037 472.207 272.367 475.7 272.367 480.471V504H261.842V458.439ZM380.787 458.439H391.359V504H380.787V499.229C376.452 503.283 371.79 505.31 366.801 505.31C360.501 505.31 355.293 503.033 351.177 498.48C347.092 493.834 345.049 488.033 345.049 481.079C345.049 474.25 347.092 468.558 351.177 464.005C355.262 459.452 360.377 457.176 366.52 457.176C371.821 457.176 376.577 459.359 380.787 463.725V458.439ZM355.808 481.079C355.808 485.445 356.977 489 359.316 491.744C361.718 494.52 364.742 495.908 368.391 495.908C372.289 495.908 375.439 494.567 377.84 491.885C380.241 489.109 381.442 485.585 381.442 481.313C381.442 477.041 380.241 473.517 377.84 470.741C375.439 468.028 372.32 466.672 368.485 466.672C364.867 466.672 361.842 468.044 359.41 470.788C357.009 473.564 355.808 476.994 355.808 481.079ZM424.748 458.439V504H414.224V458.439H424.748ZM412.633 439.494C412.633 437.654 413.304 436.064 414.645 434.723C415.986 433.382 417.592 432.711 419.463 432.711C421.365 432.711 422.987 433.382 424.327 434.723C425.668 436.033 426.339 437.639 426.339 439.541C426.339 441.443 425.668 443.065 424.327 444.406C423.018 445.747 421.412 446.417 419.509 446.417C417.607 446.417 415.986 445.747 414.645 444.406C413.304 443.065 412.633 441.428 412.633 439.494Z" fill="#F7E7DE"/>
<path d="M869.167 524.792H858.642V454.439H869.167V459.397C873.315 455.25 878.024 453.176 883.294 453.176C889.562 453.176 894.723 455.484 898.777 460.099C902.894 464.683 904.952 470.468 904.952 477.453C904.952 484.283 902.909 489.974 898.824 494.527C894.77 499.049 889.656 501.31 883.481 501.31C878.148 501.31 873.377 499.174 869.167 494.901V524.792ZM894.193 477.5C894.193 473.134 893.008 469.579 890.638 466.835C888.237 464.06 885.212 462.672 881.563 462.672C877.696 462.672 874.562 464.013 872.161 466.695C869.76 469.377 868.559 472.9 868.559 477.266C868.559 481.539 869.76 485.062 872.161 487.838C874.531 490.551 877.649 491.908 881.516 491.908C885.165 491.908 888.174 490.535 890.544 487.791C892.977 485.047 894.193 481.617 894.193 477.5ZM923.513 476.892C923.513 470.312 925.867 464.714 930.576 460.099C935.285 455.484 941.023 453.176 947.79 453.176C954.589 453.176 960.358 455.499 965.098 460.146C969.776 464.792 972.114 470.499 972.114 477.266C972.114 484.096 969.76 489.818 965.051 494.434C960.311 499.018 954.495 501.31 947.603 501.31C940.774 501.31 935.051 498.971 930.436 494.293C925.821 489.678 923.513 483.877 923.513 476.892ZM934.272 477.079C934.272 481.632 935.488 485.234 937.92 487.885C940.415 490.567 943.705 491.908 947.79 491.908C951.907 491.908 955.197 490.582 957.66 487.931C960.124 485.281 961.356 481.741 961.356 477.313C961.356 472.885 960.124 469.345 957.66 466.695C955.165 464.013 951.875 462.672 947.79 462.672C943.767 462.672 940.509 464.013 938.014 466.695C935.519 469.377 934.272 472.838 934.272 477.079ZM992.874 454.439H1003.4V458.509C1005.33 456.482 1007.05 455.094 1008.54 454.345C1010.07 453.566 1011.88 453.176 1013.97 453.176C1016.75 453.176 1019.65 454.08 1022.67 455.889L1017.85 465.525C1015.86 464.091 1013.91 463.373 1012.01 463.373C1006.27 463.373 1003.4 467.708 1003.4 476.378V500H992.874V454.439ZM1052.6 464.262V500H1042.07V464.262H1037.58V454.439H1042.07V437.74L1052.6 437.74V454.439H1060.79V464.262H1052.6ZM1088.42 464.262V500H1077.85V464.262H1074.11V454.439H1077.85V436.851C1077.85 431.113 1078.85 427.059 1080.84 424.689C1083.59 421.383 1087.58 419.73 1092.82 419.73C1094.69 419.73 1097.04 420.276 1099.88 421.368V432.126L1098.81 431.565C1096.53 430.411 1094.66 429.834 1093.19 429.834C1091.32 429.834 1090.06 430.505 1089.4 431.846C1088.75 433.155 1088.42 435.681 1088.42 439.424V454.439H1099.88V464.262H1088.42ZM1114.61 476.892C1114.61 470.312 1116.96 464.714 1121.67 460.099C1126.38 455.484 1132.12 453.176 1138.88 453.176C1145.68 453.176 1151.45 455.499 1156.19 460.146C1160.87 464.792 1163.21 470.499 1163.21 477.266C1163.21 484.096 1160.85 489.818 1156.15 494.434C1151.41 499.018 1145.59 501.31 1138.7 501.31C1131.87 501.31 1126.15 498.971 1121.53 494.293C1116.91 489.678 1114.61 483.877 1114.61 476.892ZM1125.37 477.079C1125.37 481.632 1126.58 485.234 1129.01 487.885C1131.51 490.567 1134.8 491.908 1138.88 491.908C1143 491.908 1146.29 490.582 1148.75 487.931C1151.22 485.281 1152.45 481.741 1152.45 477.313C1152.45 472.885 1151.22 469.345 1148.75 466.695C1146.26 464.013 1142.97 462.672 1138.88 462.672C1134.86 462.672 1131.6 464.013 1129.11 466.695C1126.61 469.377 1125.37 472.838 1125.37 477.079ZM1194.49 420.993V500H1183.97V420.993H1194.49ZM1227.93 454.439V500H1217.4V454.439H1227.93ZM1215.81 435.494C1215.81 433.654 1216.48 432.064 1217.83 430.723C1219.17 429.382 1220.77 428.712 1222.64 428.712C1224.55 428.712 1226.17 429.382 1227.51 430.723C1228.85 432.033 1229.52 433.639 1229.52 435.541C1229.52 437.443 1228.85 439.065 1227.51 440.406C1226.2 441.747 1224.59 442.417 1222.69 442.417C1220.79 442.417 1219.17 441.747 1217.83 440.406C1216.48 439.065 1215.81 437.428 1215.81 435.494ZM1248.69 476.892C1248.69 470.312 1251.04 464.714 1255.75 460.099C1260.46 455.484 1266.2 453.176 1272.97 453.176C1279.76 453.176 1285.53 455.499 1290.27 460.146C1294.95 464.792 1297.29 470.499 1297.29 477.266C1297.29 484.096 1294.94 489.818 1290.23 494.434C1285.49 499.018 1279.67 501.31 1272.78 501.31C1265.95 501.31 1260.23 498.971 1255.61 494.293C1251 489.678 1248.69 483.877 1248.69 476.892ZM1259.45 477.079C1259.45 481.632 1260.66 485.234 1263.1 487.885C1265.59 490.567 1268.88 491.908 1272.97 491.908C1277.08 491.908 1280.37 490.582 1282.84 487.931C1285.3 485.281 1286.53 481.741 1286.53 477.313C1286.53 472.885 1285.3 469.345 1282.84 466.695C1280.34 464.013 1277.05 462.672 1272.97 462.672C1268.94 462.672 1265.68 464.013 1263.19 466.695C1260.7 469.377 1259.45 472.838 1259.45 477.079Z" fill="#F7E7DE"/>
</g>
<defs>
<clipPath id="clip0_313_543">
<rect width="311" height="307.951" fill="white" transform="translate(477 227)"/>
</clipPath>
<clipPath id="clip1_313_543">
<rect width="212.063" height="211.087" fill="white" transform="translate(529.98 272.569)"/>
</clipPath>
</defs>
</svg>
