<svg width="224" height="231" viewBox="0 0 224 231" fill="none" xmlns="http://www.w3.org/2000/svg">
<path d="M35.8451 191.879C35.9693 191.217 36.0107 190.554 36.0107 189.933C36.0107 184.966 32.7821 181.034 27.7737 179.254C26.0353 178.634 24.2141 178.344 22.2687 178.344C20.406 178.344 18.5848 178.634 16.8464 179.213C12.7072 180.538 9.60284 183.062 7.53327 186.746C6.16734 189.188 5.50508 191.465 5.50508 193.576C5.50508 194.859 5.75343 196.018 6.29152 197.094C6.74683 198.046 7.3677 198.791 8.15414 199.329C9.18893 200.074 10.2651 200.447 11.3827 200.447C13.0797 200.447 14.6526 199.702 16.1427 198.17C16.7222 197.591 17.3845 196.722 18.1709 195.563C20.8614 191.465 22.8068 186.746 24.0071 181.407C26.532 181.697 28.643 182.566 30.2986 183.973C32.1199 185.546 33.0305 187.574 33.0305 190.016C33.0305 191.548 32.6993 193.038 31.9957 194.487C31.2092 196.059 30.0089 197.425 28.3532 198.584C26.739 199.702 25.0005 200.447 23.2207 200.778L23.7588 203.675C24.9591 203.427 26.325 202.972 27.7737 202.268C32.3682 200.074 35.0587 196.598 35.8451 191.879ZM20.9855 181.365C19.868 186.25 18.0467 190.513 15.5632 194.155C14.0731 196.391 12.6658 197.508 11.3827 197.508C10.8446 197.508 10.3479 197.343 9.89259 196.97C8.94058 196.266 8.44388 195.149 8.44388 193.535C8.44388 191.92 8.98197 190.14 10.0995 188.236C12.4589 184.097 16.0599 181.821 20.9855 181.365ZM75.7466 187.16C75.7466 182.773 75.0429 178.882 73.5942 175.529L70.6554 176.73C71.9386 179.793 72.6008 183.311 72.6008 187.243C72.6008 193.99 69.9518 199.412 64.6536 203.593L66.6404 206.035C72.4766 201.358 75.7466 194.652 75.7466 187.16ZM62.5841 192.044C62.3771 192.086 62.1287 192.086 61.9218 192.086C60.2247 192.086 59.3969 190.472 59.3969 187.202C59.3969 184.056 59.935 180.662 61.0112 177.019L58.1552 176.15C56.9548 180.082 56.3753 183.642 56.3753 186.912C56.3753 192.376 58.1965 195.107 61.8804 195.107C62.2529 195.107 62.6668 195.066 63.0394 195.025L62.5841 192.044ZM123.554 201.358C120.574 199.329 117.635 197.674 114.779 196.473C114.82 194.818 114.82 192.748 114.737 190.223L123.264 189.188L122.933 186.374L114.655 187.367L114.406 181.407C117.014 181.283 119.291 181.158 121.319 181.117L121.277 178.302C119.332 178.344 117.014 178.427 114.282 178.551C114.241 176.771 114.158 175.239 114.117 173.998L111.178 174.08C111.219 175.322 111.302 176.854 111.343 178.716C107.866 178.923 104.803 179.13 102.113 179.379L102.361 182.193C104.969 181.945 108.032 181.738 111.468 181.531L111.716 187.657C110.35 187.781 109.191 187.822 108.156 187.822C105.962 187.822 104.721 187.574 104.431 187.119C104.348 186.995 104.348 186.746 104.431 186.457L101.74 185.629C101.616 186.084 101.534 186.498 101.534 186.87C101.534 187.657 101.782 188.361 102.237 188.94C103.189 190.099 105.259 190.679 108.363 190.679C109.232 190.679 110.35 190.637 111.799 190.513C111.84 192.541 111.881 194.238 111.881 195.604C110.681 195.356 109.481 195.232 108.363 195.232C106.335 195.232 104.679 195.646 103.438 196.473C102.03 197.425 101.327 198.75 101.285 200.488C101.285 201.978 101.947 203.179 103.313 204.131C104.596 205 106.087 205.414 107.825 205.414C109.481 205.414 110.888 205 112.088 204.214C113.454 203.344 114.241 202.103 114.53 200.488C114.572 200.116 114.613 199.826 114.613 199.619C117.055 200.737 119.456 202.144 121.898 203.8L123.554 201.358ZM111.633 200.033C111.343 201.647 110.102 202.475 107.908 202.475C105.962 202.475 104.224 201.647 104.224 200.53C104.224 199.826 104.514 199.288 105.052 198.915C105.755 198.419 106.873 198.17 108.322 198.17C109.481 198.17 110.64 198.295 111.757 198.584L111.633 200.033ZM168.381 183.145C166.104 184.139 163.952 184.966 161.924 185.629C161.22 184.263 160.434 182.856 159.565 181.407C161.593 180.745 163.662 179.917 165.732 178.965L164.573 176.481C162.379 177.516 160.227 178.344 158.116 178.965C156.915 177.019 155.798 175.281 154.804 173.832L152.487 175.446C153.356 176.688 154.266 178.137 155.301 179.751C153.439 180.206 151.741 180.455 150.21 180.579C149.258 180.662 148.43 180.662 147.727 180.538L147.313 183.269C148.14 183.394 149.175 183.435 150.376 183.352C152.321 183.228 154.473 182.856 156.791 182.235C157.66 183.683 158.488 185.132 159.192 186.498C156.874 187.119 154.887 187.491 153.19 187.616C151.783 187.74 150.541 187.657 149.506 187.409L148.844 190.058C150.127 190.389 151.659 190.513 153.356 190.389C155.384 190.223 157.785 189.768 160.475 188.981C162.089 192.334 163 194.942 163.166 196.804L165.98 196.556C165.773 194.487 164.863 191.672 163.166 188.112C165.111 187.45 167.222 186.622 169.457 185.67L168.381 183.145ZM162.793 202.268C161.179 202.517 159.647 202.641 158.199 202.641C153.48 202.641 151.038 201.606 150.872 199.495C150.748 197.467 152.28 196.308 155.55 196.059C156.129 196.018 156.708 196.018 157.288 196.059L157.412 193.328C154.929 193.203 152.818 193.576 151.079 194.445C148.885 195.563 147.892 197.26 148.058 199.619C148.347 203.51 151.7 205.455 158.199 205.455C159.896 205.455 161.593 205.331 163.248 205.041L162.793 202.268ZM198.928 200.985C198.928 198.046 196.444 195.563 193.506 195.563C190.525 195.563 188.083 198.005 188.083 200.985C188.083 204.048 190.443 206.407 193.506 206.407C196.486 206.407 198.928 203.965 198.928 200.985ZM196.858 200.985C196.858 202.806 195.327 204.338 193.506 204.338C191.684 204.338 190.153 202.806 190.153 200.985C190.153 199.164 191.684 197.632 193.506 197.632C195.327 197.632 196.858 199.164 196.858 200.985Z" fill="#323333"/>
<path d="M35.8451 191.879L35.3536 191.787L35.3519 191.797L35.8451 191.879ZM27.7737 179.254L27.6056 179.725L27.6063 179.726L27.7737 179.254ZM16.8464 179.213L16.9988 179.689L17.0045 179.687L16.8464 179.213ZM7.53327 186.746L7.09735 186.501L7.09689 186.502L7.53327 186.746ZM6.29152 197.094L6.74266 196.878L6.73873 196.871L6.29152 197.094ZM8.15414 199.329L8.44638 198.923L8.43648 198.917L8.15414 199.329ZM16.1427 198.17L15.7891 197.817L15.7844 197.822L16.1427 198.17ZM18.1709 195.563L18.5847 195.844L18.5889 195.837L18.1709 195.563ZM24.0071 181.407L24.0641 180.91L23.6178 180.859L23.5193 181.297L24.0071 181.407ZM30.2986 183.973L30.6255 183.595L30.6225 183.592L30.2986 183.973ZM31.9957 194.487L32.4429 194.71L32.4454 194.705L31.9957 194.487ZM28.3532 198.584L28.6378 198.995L28.64 198.994L28.3532 198.584ZM23.2207 200.778L23.1292 200.286L22.6378 200.378L22.7291 200.869L23.2207 200.778ZM23.7588 203.675L23.2672 203.767L23.3603 204.268L23.8601 204.165L23.7588 203.675ZM27.7737 202.268L27.5583 201.817L27.5553 201.818L27.7737 202.268ZM20.9855 181.365L21.4729 181.477L21.6269 180.804L20.9395 180.868L20.9855 181.365ZM15.5632 194.155L15.1501 193.874L15.1472 193.878L15.5632 194.155ZM9.89259 196.97L10.2092 196.583L10.1997 196.575L10.1898 196.568L9.89259 196.97ZM10.0995 188.236L10.5308 188.49L10.5339 188.484L10.0995 188.236ZM36.3365 191.971C36.468 191.27 36.5107 190.576 36.5107 189.933H35.5107C35.5107 190.533 35.4706 191.163 35.3537 191.787L36.3365 191.971ZM36.5107 189.933C36.5107 184.715 33.1086 180.62 27.9412 178.783L27.6063 179.726C32.4557 181.449 35.5107 185.218 35.5107 189.933H36.5107ZM27.9419 178.784C26.1438 178.141 24.2651 177.844 22.2687 177.844V178.844C24.1631 178.844 25.9268 179.126 27.6056 179.725L27.9419 178.784ZM22.2687 177.844C20.3538 177.844 18.4791 178.142 16.6883 178.739L17.0045 179.687C18.6905 179.125 20.4583 178.844 22.2687 178.844V177.844ZM16.694 178.737C12.4369 180.099 9.23004 182.705 7.09735 186.501L7.96918 186.991C9.97565 183.42 12.9775 180.976 16.9988 179.689L16.694 178.737ZM7.09689 186.502C5.70078 188.998 5.00508 191.359 5.00508 193.576H6.00508C6.00508 191.571 6.63391 189.379 7.96965 186.99L7.09689 186.502ZM5.00508 193.576C5.00508 194.927 5.26731 196.164 5.84431 197.318L6.73873 196.871C6.23954 195.872 6.00508 194.791 6.00508 193.576H5.00508ZM5.84045 197.31C6.32952 198.333 7.00518 199.149 7.8718 199.742L8.43648 198.917C7.73022 198.433 7.16413 197.76 6.74259 196.878L5.84045 197.31ZM7.86199 199.735C8.96941 200.532 10.1459 200.947 11.3827 200.947V199.947C10.3843 199.947 9.40845 199.616 8.44629 198.924L7.86199 199.735ZM11.3827 200.947C13.2459 200.947 14.9411 200.122 16.5011 198.519L15.7844 197.822C14.3641 199.281 12.9135 199.947 11.3827 199.947V200.947ZM16.4963 198.524C17.1107 197.909 17.7947 197.008 18.5846 195.843L17.7572 195.282C16.9743 196.436 16.3337 197.272 15.7892 197.817L16.4963 198.524ZM18.5889 195.837C21.3159 191.684 23.2829 186.908 24.4949 181.516L23.5193 181.297C22.3306 186.585 20.4068 191.246 17.7529 195.288L18.5889 195.837ZM23.9501 181.904C26.3918 182.184 28.4055 183.02 29.9748 184.354L30.6225 183.592C28.8804 182.111 26.6722 181.209 24.0641 180.91L23.9501 181.904ZM29.9718 184.351C31.6802 185.827 32.5305 187.716 32.5305 190.016H33.5305C33.5305 187.433 32.5596 185.265 30.6254 183.595L29.9718 184.351ZM32.5305 190.016C32.5305 191.473 32.2163 192.888 31.5459 194.268L32.4454 194.705C33.1824 193.188 33.5305 191.623 33.5305 190.016H32.5305ZM31.5485 194.263C30.8032 195.753 29.6618 197.058 28.0665 198.175L28.64 198.994C30.356 197.793 31.6153 196.365 32.4429 194.71L31.5485 194.263ZM28.0686 198.173C26.5069 199.254 24.8335 199.969 23.1292 200.286L23.3121 201.27C25.1675 200.924 26.971 200.149 28.6378 198.995L28.0686 198.173ZM22.7291 200.869L23.2672 203.767L24.2504 203.584L23.7123 200.687L22.7291 200.869ZM23.8601 204.165C25.1043 203.908 26.5094 203.438 27.9922 202.718L27.5553 201.818C26.1407 202.506 24.8139 202.947 23.6575 203.186L23.8601 204.165ZM27.9892 202.719C32.7207 200.46 35.5232 196.851 36.3383 191.961L35.3519 191.797C34.5941 196.344 32.0157 199.689 27.5583 201.817L27.9892 202.719ZM20.4981 181.254C19.3929 186.084 17.5947 190.288 15.1501 193.874L15.9763 194.437C18.4987 190.738 20.343 186.415 21.4729 181.477L20.4981 181.254ZM15.1472 193.878C14.4183 194.971 13.7269 195.764 13.083 196.28C12.4392 196.795 11.8737 197.008 11.3827 197.008V198.008C12.1748 198.008 12.9545 197.663 13.7077 197.06C14.4607 196.458 15.2181 195.575 15.9793 194.433L15.1472 193.878ZM11.3827 197.008C10.9583 197.008 10.5738 196.881 10.2092 196.583L9.57597 197.357C10.122 197.804 10.7309 198.008 11.3827 198.008V197.008ZM10.1898 196.568C9.40095 195.985 8.94388 195.04 8.94388 193.535H7.94388C7.94388 195.257 8.48021 196.548 9.59539 197.372L10.1898 196.568ZM8.94388 193.535C8.94388 192.032 9.44513 190.339 10.5308 188.49L9.66834 187.983C8.51881 189.942 7.94388 191.809 7.94388 193.535H8.94388ZM10.5339 188.484C12.809 184.493 16.2615 182.304 21.0315 181.863L20.9395 180.868C15.8583 181.337 12.1087 183.702 9.66516 187.989L10.5339 188.484ZM73.5942 175.529L74.0532 175.331L73.8588 174.881L73.4052 175.066L73.5942 175.529ZM70.6554 176.73L70.4664 176.267L69.9993 176.457L70.1942 176.923L70.6554 176.73ZM64.6536 203.593L64.3439 203.2L63.9455 203.515L64.2658 203.908L64.6536 203.593ZM66.6404 206.035L66.2526 206.35L66.5658 206.735L66.9531 206.425L66.6404 206.035ZM62.5841 192.044L63.0783 191.969L62.9993 191.451L62.486 191.554L62.5841 192.044ZM61.0112 177.019L61.4907 177.161L61.6312 176.685L61.1568 176.541L61.0112 177.019ZM58.1552 176.15L58.3007 175.672L57.8228 175.526L57.6769 176.004L58.1552 176.15ZM63.0394 195.025L63.0946 195.522L63.6123 195.464L63.5336 194.949L63.0394 195.025ZM76.2466 187.16C76.2466 182.72 75.5346 178.759 74.0532 175.331L73.1352 175.728C74.5513 179.005 75.2466 182.825 75.2466 187.16H76.2466ZM73.4052 175.066L70.4664 176.267L70.8445 177.192L73.7833 175.992L73.4052 175.066ZM70.1942 176.923C71.4481 179.916 72.1008 183.367 72.1008 187.243H73.1008C73.1008 183.255 72.429 179.669 71.1166 176.536L70.1942 176.923ZM72.1008 187.243C72.1008 193.836 69.5228 199.114 64.3439 203.2L64.9634 203.985C70.3807 199.711 73.1008 194.144 73.1008 187.243H72.1008ZM64.2658 203.908L66.2526 206.35L67.0283 205.719L65.0415 203.277L64.2658 203.908ZM66.9531 206.425C72.906 201.654 76.2466 194.806 76.2466 187.16H75.2466C75.2466 194.498 72.0473 201.061 66.3277 205.645L66.9531 206.425ZM62.486 191.554C62.3369 191.584 62.1411 191.586 61.9218 191.586V192.586C62.1164 192.586 62.4173 192.588 62.6821 192.535L62.486 191.554ZM61.9218 191.586C61.5801 191.586 61.3064 191.506 61.0809 191.361C60.8533 191.216 60.6452 190.986 60.4673 190.641C60.1035 189.936 59.8969 188.811 59.8969 187.202H58.8969C58.8969 188.862 59.1043 190.18 59.5786 191.099C59.8198 191.567 60.1368 191.944 60.5418 192.204C60.9488 192.464 61.415 192.586 61.9218 192.586V191.586ZM59.8969 187.202C59.8969 184.113 60.4254 180.767 61.4907 177.161L60.5317 176.878C59.4446 180.557 58.8969 183.999 58.8969 187.202H59.8969ZM61.1568 176.541L58.3007 175.672L58.0096 176.628L60.8656 177.498L61.1568 176.541ZM57.6769 176.004C56.4653 179.973 55.8753 183.583 55.8753 186.912H56.8753C56.8753 183.701 57.4443 180.191 58.6334 176.296L57.6769 176.004ZM55.8753 186.912C55.8753 189.683 56.3343 191.85 57.3311 193.337C58.3519 194.86 59.8949 195.607 61.8804 195.607V194.607C60.182 194.607 58.9725 193.989 58.1617 192.78C57.3269 191.535 56.8753 189.604 56.8753 186.912H55.8753ZM61.8804 195.607C62.2837 195.607 62.7226 195.563 63.0946 195.522L62.9841 194.528C62.6111 194.569 62.2221 194.607 61.8804 194.607V195.607ZM63.5336 194.949L63.0783 191.969L62.0898 192.12L62.5451 195.1L63.5336 194.949ZM123.554 201.358L123.968 201.638L124.248 201.225L123.835 200.944L123.554 201.358ZM114.779 196.473L114.279 196.461L114.27 196.802L114.585 196.934L114.779 196.473ZM114.737 190.223L114.677 189.727L114.223 189.782L114.238 190.24L114.737 190.223ZM123.264 189.188L123.324 189.685L123.819 189.625L123.761 189.13L123.264 189.188ZM122.933 186.374L123.43 186.315L123.371 185.818L122.873 185.877L122.933 186.374ZM114.655 187.367L114.155 187.388L114.178 187.928L114.714 187.864L114.655 187.367ZM114.406 181.407L114.383 180.907L113.886 180.931L113.907 181.428L114.406 181.407ZM121.319 181.117L121.329 181.617L121.826 181.607L121.819 181.11L121.319 181.117ZM121.277 178.302L121.777 178.295L121.77 177.792L121.267 177.803L121.277 178.302ZM114.282 178.551L113.782 178.562L113.794 179.073L114.305 179.05L114.282 178.551ZM114.117 173.998L114.616 173.981L114.6 173.484L114.102 173.498L114.117 173.998ZM111.178 174.08L111.164 173.581L110.661 173.595L110.678 174.097L111.178 174.08ZM111.343 178.716L111.373 179.215L111.854 179.187L111.843 178.705L111.343 178.716ZM102.113 179.379L102.067 178.881L101.571 178.927L101.615 179.423L102.113 179.379ZM102.361 182.193L101.863 182.237L101.908 182.739L102.409 182.691L102.361 182.193ZM111.467 181.531L111.967 181.511L111.946 181.001L111.437 181.032L111.467 181.531ZM111.716 187.657L111.761 188.155L112.235 188.112L112.215 187.637L111.716 187.657ZM104.431 187.119L104.853 186.85L104.847 186.841L104.431 187.119ZM104.431 186.457L104.912 186.594L105.046 186.123L104.578 185.979L104.431 186.457ZM101.74 185.629L101.888 185.151L101.394 184.999L101.258 185.497L101.74 185.629ZM102.237 188.94L101.844 189.249L101.851 189.257L102.237 188.94ZM111.799 190.513L112.299 190.503L112.288 189.969L111.756 190.015L111.799 190.513ZM111.881 195.604L111.78 196.094L112.381 196.218V195.604H111.881ZM103.438 196.473L103.16 196.057L103.157 196.059L103.438 196.473ZM101.285 200.488L100.785 200.476V200.488H101.285ZM103.313 204.131L103.027 204.541L103.033 204.545L103.313 204.131ZM112.088 204.214L111.82 203.792L111.814 203.795L112.088 204.214ZM114.53 200.488L115.023 200.577L115.026 200.56L115.027 200.544L114.53 200.488ZM114.613 199.619L114.821 199.164L114.113 198.84V199.619H114.613ZM121.898 203.8L121.618 204.213L122.031 204.494L122.312 204.08L121.898 203.8ZM111.633 200.033L112.125 200.121L112.129 200.099L112.131 200.076L111.633 200.033ZM105.052 198.915L105.336 199.327L105.34 199.324L105.052 198.915ZM111.757 198.584L112.255 198.627L112.291 198.206L111.883 198.1L111.757 198.584ZM123.835 200.944C120.834 198.902 117.866 197.228 114.973 196.012L114.585 196.934C117.404 198.119 120.313 199.757 123.273 201.771L123.835 200.944ZM115.279 196.486C115.32 194.82 115.32 192.741 115.237 190.207L114.238 190.24C114.32 192.756 114.32 194.816 114.279 196.461L115.279 196.486ZM114.798 190.72L123.324 189.685L123.204 188.692L114.677 189.727L114.798 190.72ZM123.761 189.13L123.43 186.315L122.436 186.432L122.768 189.247L123.761 189.13ZM122.873 185.877L114.595 186.871L114.714 187.864L122.993 186.87L122.873 185.877ZM115.154 187.346L114.906 181.386L113.907 181.428L114.155 187.388L115.154 187.346ZM114.43 181.906C117.044 181.782 119.31 181.658 121.329 181.617L121.308 180.617C119.271 180.659 116.984 180.783 114.383 180.907L114.43 181.906ZM121.819 181.11L121.777 178.295L120.777 178.31L120.819 181.124L121.819 181.11ZM121.267 177.803C119.316 177.844 116.994 177.927 114.259 178.051L114.305 179.05C117.034 178.926 119.348 178.844 121.288 178.802L121.267 177.803ZM114.782 178.539C114.741 176.76 114.657 175.206 114.616 173.981L113.617 174.014C113.659 175.273 113.741 176.782 113.782 178.562L114.782 178.539ZM114.102 173.498L111.164 173.581L111.192 174.58L114.131 174.498L114.102 173.498ZM110.678 174.097C110.72 175.355 110.802 176.866 110.843 178.727L111.843 178.705C111.802 176.842 111.718 175.29 111.677 174.064L110.678 174.097ZM111.314 178.217C107.835 178.424 104.766 178.632 102.067 178.881L102.159 179.877C104.841 179.629 107.898 179.422 111.373 179.215L111.314 178.217ZM101.615 179.423L101.863 182.237L102.859 182.149L102.611 179.335L101.615 179.423ZM102.409 182.691C105.007 182.444 108.063 182.237 111.498 182.03L111.437 181.032C108.001 181.239 104.931 181.446 102.314 181.695L102.409 182.691ZM110.968 181.551L111.216 187.677L112.215 187.637L111.967 181.511L110.968 181.551ZM111.671 187.159C110.321 187.282 109.177 187.322 108.156 187.322V188.322C109.205 188.322 110.379 188.281 111.761 188.155L111.671 187.159ZM108.156 187.322C107.073 187.322 106.25 187.261 105.674 187.15C105.385 187.095 105.177 187.031 105.034 186.966C104.886 186.898 104.852 186.849 104.853 186.85L104.009 187.387C104.155 187.616 104.385 187.769 104.619 187.876C104.86 187.986 105.153 188.069 105.485 188.132C106.151 188.26 107.046 188.322 108.156 188.322V187.322ZM104.847 186.841C104.858 186.858 104.864 186.871 104.867 186.88C104.869 186.884 104.87 186.887 104.871 186.889C104.871 186.89 104.871 186.891 104.872 186.892C104.872 186.892 104.872 186.892 104.872 186.892C104.872 186.892 104.872 186.892 104.872 186.892C104.872 186.891 104.871 186.89 104.871 186.889C104.871 186.888 104.871 186.885 104.87 186.881C104.869 186.874 104.869 186.863 104.869 186.85C104.869 186.793 104.88 186.705 104.912 186.594L103.95 186.319C103.899 186.497 103.869 186.679 103.869 186.85C103.869 187.009 103.895 187.216 104.015 187.396L104.847 186.841ZM104.578 185.979L101.888 185.151L101.593 186.107L104.284 186.934L104.578 185.979ZM101.258 185.497C101.13 185.965 101.034 186.431 101.034 186.87H102.034C102.034 186.565 102.102 186.203 102.223 185.76L101.258 185.497ZM101.034 186.87C101.034 187.767 101.318 188.58 101.844 189.249L102.63 188.631C102.245 188.141 102.034 187.547 102.034 186.87H101.034ZM101.851 189.257C102.414 189.943 103.275 190.419 104.357 190.725C105.441 191.032 106.784 191.179 108.363 191.179V190.179C106.838 190.179 105.594 190.036 104.629 189.763C103.662 189.489 103.012 189.096 102.624 188.623L101.851 189.257ZM108.363 191.179C109.248 191.179 110.38 191.136 111.841 191.011L111.756 190.015C110.32 190.138 109.216 190.179 108.363 190.179V191.179ZM111.299 190.523C111.34 192.555 111.381 194.245 111.381 195.604H112.381C112.381 194.232 112.34 192.527 112.299 190.503L111.299 190.523ZM111.983 195.114C110.751 194.86 109.517 194.732 108.363 194.732V195.732C109.445 195.732 110.611 195.852 111.78 196.094L111.983 195.114ZM108.363 194.732C106.272 194.732 104.509 195.158 103.16 196.057L103.715 196.889C104.849 196.133 106.398 195.732 108.363 195.732V194.732ZM103.157 196.059C101.611 197.105 100.83 198.583 100.785 200.476L101.785 200.5C101.823 198.917 102.45 197.745 103.718 196.887L103.157 196.059ZM100.785 200.488C100.785 202.161 101.544 203.507 103.027 204.541L103.599 203.721C102.351 202.851 101.785 201.796 101.785 200.488H100.785ZM103.033 204.545C104.411 205.478 106.003 205.914 107.825 205.914V204.914C106.171 204.914 104.782 204.522 103.594 203.717L103.033 204.545ZM107.825 205.914C109.569 205.914 111.073 205.476 112.362 204.632L111.814 203.795C110.703 204.524 109.392 204.914 107.825 204.914V205.914ZM112.357 204.635C113.849 203.686 114.71 202.318 115.023 200.577L114.038 200.4C113.771 201.887 113.059 203.003 111.82 203.792L112.357 204.635ZM115.027 200.544C115.065 200.203 115.113 199.863 115.113 199.619H114.113C114.113 199.789 114.078 200.029 114.034 200.433L115.027 200.544ZM114.405 200.074C116.816 201.177 119.192 202.569 121.618 204.213L122.179 203.386C119.72 201.719 117.295 200.296 114.821 199.164L114.405 200.074ZM122.312 204.08L123.968 201.638L123.14 201.077L121.484 203.519L122.312 204.08ZM111.141 199.945C111.017 200.633 110.703 201.117 110.21 201.442C109.7 201.777 108.95 201.975 107.908 201.975V202.975C109.06 202.975 110.027 202.759 110.759 202.277C111.508 201.784 111.959 201.047 112.125 200.121L111.141 199.945ZM107.908 201.975C106.999 201.975 106.159 201.78 105.564 201.476C104.945 201.16 104.724 200.804 104.724 200.53H103.724C103.724 201.373 104.372 201.99 105.109 202.367C105.87 202.756 106.872 202.975 107.908 202.975V201.975ZM104.724 200.53C104.724 199.987 104.936 199.604 105.336 199.327L104.767 198.504C104.092 198.972 103.724 199.665 103.724 200.53H104.724ZM105.34 199.324C105.918 198.916 106.909 198.67 108.322 198.67V197.67C106.837 197.67 105.593 197.921 104.763 198.507L105.34 199.324ZM108.322 198.67C109.446 198.67 110.562 198.791 111.632 199.068L111.883 198.1C110.718 197.798 109.516 197.67 108.322 197.67V198.67ZM111.259 198.542L111.135 199.99L112.131 200.076L112.255 198.627L111.259 198.542ZM168.381 183.145L168.841 182.949L168.643 182.485L168.181 182.687L168.381 183.145ZM161.924 185.629L161.479 185.858L161.674 186.236L162.079 186.104L161.924 185.629ZM159.564 181.407L159.409 180.931L158.813 181.126L159.136 181.664L159.564 181.407ZM165.732 178.965L165.941 179.419L166.398 179.209L166.185 178.753L165.732 178.965ZM164.573 176.481L165.026 176.27L164.814 175.815L164.36 176.029L164.573 176.481ZM158.116 178.965L157.69 179.227L157.891 179.552L158.257 179.444L158.116 178.965ZM154.804 173.832L155.217 173.549L154.932 173.134L154.519 173.422L154.804 173.832ZM152.487 175.446L152.201 175.036L151.79 175.323L152.077 175.733L152.487 175.446ZM155.301 179.751L155.42 180.237L156.1 180.071L155.722 179.481L155.301 179.751ZM150.21 180.579L150.17 180.081L150.167 180.081L150.21 180.579ZM147.727 180.538L147.813 180.045L147.309 179.956L147.232 180.463L147.727 180.538ZM147.313 183.269L146.818 183.195L146.743 183.69L147.238 183.764L147.313 183.269ZM150.376 183.352L150.344 182.853L150.341 182.853L150.376 183.352ZM156.791 182.235L157.22 181.977L157.026 181.654L156.662 181.752L156.791 182.235ZM159.192 186.498L159.321 186.981L159.921 186.82L159.636 186.269L159.192 186.498ZM153.19 187.616L153.154 187.117L153.146 187.117L153.19 187.616ZM149.506 187.409L149.623 186.922L149.141 186.807L149.021 187.287L149.506 187.409ZM148.844 190.058L148.359 189.936L148.239 190.418L148.719 190.542L148.844 190.058ZM153.356 190.389L153.392 190.887L153.396 190.887L153.356 190.389ZM160.475 188.981L160.926 188.765L160.742 188.383L160.335 188.502L160.475 188.981ZM163.166 196.804L162.668 196.849L162.712 197.346L163.21 197.303L163.166 196.804ZM165.98 196.556L166.024 197.054L166.528 197.01L166.478 196.506L165.98 196.556ZM163.166 188.112L163.004 187.639L162.472 187.82L162.714 188.327L163.166 188.112ZM169.457 185.67L169.653 186.13L170.113 185.934L169.917 185.474L169.457 185.67ZM162.793 202.268L163.286 202.187L163.206 201.699L162.717 201.774L162.793 202.268ZM150.872 199.495L150.373 199.525L150.374 199.534L150.872 199.495ZM155.55 196.059L155.514 195.561L155.512 195.561L155.55 196.059ZM157.288 196.059L157.252 196.558L157.764 196.595L157.787 196.082L157.288 196.059ZM157.412 193.328L157.912 193.35L157.934 192.853L157.437 192.828L157.412 193.328ZM151.079 194.445L150.856 193.998L150.852 194L151.079 194.445ZM148.058 199.619L147.559 199.654L147.559 199.656L148.058 199.619ZM163.248 205.041L163.335 205.534L163.822 205.449L163.742 204.96L163.248 205.041ZM168.181 182.687C165.917 183.675 163.779 184.497 161.769 185.153L162.079 186.104C164.125 185.436 166.292 184.602 168.581 183.604L168.181 182.687ZM162.368 185.4C161.659 184.023 160.867 182.607 159.993 181.15L159.136 181.664C160 183.104 160.781 184.502 161.479 185.858L162.368 185.4ZM159.72 181.882C161.769 181.213 163.857 180.378 165.941 179.419L165.523 178.51C163.468 179.456 161.416 180.276 159.409 180.931L159.72 181.882ZM166.185 178.753L165.026 176.27L164.12 176.693L165.279 179.176L166.185 178.753ZM164.36 176.029C162.187 177.054 160.059 177.872 157.975 178.485L158.257 179.444C160.395 178.816 162.571 177.978 164.786 176.933L164.36 176.029ZM158.541 178.702C157.338 176.753 156.216 175.007 155.217 173.549L154.392 174.115C155.379 175.555 156.492 177.286 157.69 179.227L158.541 178.702ZM154.519 173.422L152.201 175.036L152.772 175.857L155.09 174.242L154.519 173.422ZM152.077 175.733C152.939 176.964 153.841 178.4 154.88 180.021L155.722 179.481C154.692 177.874 153.773 176.412 152.896 175.16L152.077 175.733ZM155.182 179.265C153.348 179.714 151.677 179.958 150.17 180.081L150.25 181.077C151.806 180.951 153.53 180.699 155.42 180.237L155.182 179.265ZM150.167 180.081C149.235 180.162 148.456 180.159 147.813 180.045L147.64 181.03C148.405 181.165 149.281 181.162 150.253 181.077L150.167 180.081ZM147.232 180.463L146.818 183.195L147.807 183.344L148.221 180.612L147.232 180.463ZM147.238 183.764C148.108 183.894 149.18 183.936 150.41 183.851L150.341 182.853C149.17 182.934 148.173 182.893 147.387 182.775L147.238 183.764ZM150.407 183.851C152.392 183.725 154.577 183.345 156.921 182.718L156.662 181.752C154.369 182.366 152.25 182.732 150.344 182.853L150.407 183.851ZM156.363 182.492C157.229 183.935 158.051 185.374 158.747 186.727L159.636 186.269C158.926 184.89 158.092 183.431 157.22 181.977L156.363 182.492ZM159.063 186.015C156.763 186.631 154.809 186.996 153.154 187.117L153.227 188.114C154.965 187.987 156.985 187.607 159.321 186.981L159.063 186.015ZM153.146 187.117C151.782 187.238 150.596 187.156 149.623 186.922L149.39 187.895C150.486 188.158 151.784 188.242 153.234 188.114L153.146 187.117ZM149.021 187.287L148.359 189.936L149.329 190.179L149.991 187.53L149.021 187.287ZM148.719 190.542C150.064 190.889 151.651 191.015 153.392 190.887L153.319 189.89C151.666 190.011 150.19 189.889 148.969 189.574L148.719 190.542ZM153.396 190.887C155.465 190.718 157.899 190.255 160.615 189.461L160.335 188.502C157.67 189.281 155.303 189.728 153.315 189.89L153.396 190.887ZM160.025 189.198C161.635 192.543 162.51 195.082 162.668 196.849L163.664 196.76C163.49 194.802 162.544 192.126 160.926 188.765L160.025 189.198ZM163.21 197.303L166.024 197.054L165.936 196.058L163.122 196.306L163.21 197.303ZM166.478 196.506C166.262 194.352 165.323 191.476 163.617 187.897L162.714 188.327C164.402 191.868 165.284 194.621 165.483 196.606L166.478 196.506ZM163.327 188.586C165.287 187.918 167.41 187.085 169.653 186.13L169.261 185.21C167.034 186.159 164.935 186.982 163.004 187.639L163.327 188.586ZM169.917 185.474L168.841 182.949L167.921 183.341L168.997 185.866L169.917 185.474ZM162.717 201.774C161.125 202.019 159.619 202.141 158.199 202.141V203.141C159.676 203.141 161.233 203.014 162.869 202.762L162.717 201.774ZM158.199 202.141C155.862 202.141 154.153 201.882 153.025 201.4C151.922 200.928 151.435 200.275 151.371 199.456L150.374 199.534C150.475 200.825 151.291 201.746 152.631 202.319C153.946 202.882 155.817 203.141 158.199 203.141V202.141ZM151.371 199.464C151.319 198.606 151.606 197.978 152.236 197.512C152.9 197.02 153.99 196.679 155.587 196.558L155.512 195.561C153.84 195.688 152.528 196.051 151.641 196.708C150.718 197.39 150.302 198.356 150.373 199.525L151.371 199.464ZM155.585 196.558C156.141 196.518 156.697 196.518 157.252 196.558L157.324 195.561C156.72 195.518 156.117 195.518 155.514 195.561L155.585 196.558ZM157.787 196.082L157.912 193.35L156.913 193.305L156.788 196.037L157.787 196.082ZM157.437 192.828C154.891 192.701 152.69 193.081 150.856 193.998L151.303 194.892C152.946 194.071 154.966 193.706 157.387 193.827L157.437 192.828ZM150.852 194C149.691 194.591 148.813 195.354 148.252 196.314C147.69 197.276 147.47 198.394 147.559 199.654L148.556 199.584C148.479 198.485 148.673 197.575 149.115 196.819C149.558 196.061 150.274 195.417 151.306 194.891L150.852 194ZM147.559 199.656C147.716 201.765 148.719 203.373 150.55 204.429C152.348 205.466 154.913 205.955 158.199 205.955V204.955C154.985 204.955 152.625 204.472 151.05 203.563C149.507 202.674 148.689 201.364 148.556 199.582L147.559 199.656ZM158.199 205.955C159.92 205.955 161.646 205.829 163.335 205.534L163.162 204.549C161.539 204.833 159.872 204.955 158.199 204.955V205.955ZM163.742 204.96L163.286 202.187L162.3 202.349L162.755 205.122L163.742 204.96ZM199.428 200.985C199.428 197.77 196.721 195.063 193.506 195.063V196.063C196.168 196.063 198.428 198.322 198.428 200.985H199.428ZM193.506 195.063C190.249 195.063 187.583 197.729 187.583 200.985H188.583C188.583 198.281 190.802 196.063 193.506 196.063V195.063ZM187.583 200.985C187.583 204.324 190.166 206.907 193.506 206.907V205.907C190.719 205.907 188.583 203.772 188.583 200.985H187.583ZM193.506 206.907C196.762 206.907 199.428 204.241 199.428 200.985H198.428C198.428 203.689 196.21 205.907 193.506 205.907V206.907ZM196.358 200.985C196.358 202.53 195.051 203.838 193.506 203.838V204.838C195.603 204.838 197.358 203.082 197.358 200.985H196.358ZM193.506 203.838C191.961 203.838 190.653 202.53 190.653 200.985H189.653C189.653 203.082 191.408 204.838 193.506 204.838V203.838ZM190.653 200.985C190.653 199.44 191.961 198.132 193.506 198.132V197.132C191.408 197.132 189.653 198.888 189.653 200.985H190.653ZM193.506 198.132C195.051 198.132 196.358 199.44 196.358 200.985H197.358C197.358 198.888 195.603 197.132 193.506 197.132V198.132Z" fill="#323333"/>
<path d="M99.8243 117.064C99.9003 116.659 99.9256 116.253 99.9256 115.873C99.9256 112.833 97.9497 110.427 94.8844 109.337C93.8204 108.957 92.7058 108.78 91.5151 108.78C90.3751 108.78 89.2605 108.957 88.1965 109.312C85.6632 110.123 83.7632 111.668 82.4966 113.923C81.6606 115.417 81.2553 116.811 81.2553 118.103C81.2553 118.888 81.4073 119.597 81.7366 120.256C82.0153 120.839 82.3952 121.295 82.8766 121.624C83.5099 122.08 84.1686 122.308 84.8525 122.308C85.8912 122.308 86.8538 121.852 87.7658 120.915C88.1205 120.56 88.5258 120.028 89.0071 119.319C90.6538 116.811 91.8444 113.923 92.5791 110.655C94.1244 110.832 95.4164 111.364 96.4297 112.225C97.5443 113.188 98.1017 114.429 98.1017 115.924C98.1017 116.861 97.899 117.773 97.4684 118.66C96.987 119.623 96.2524 120.459 95.2391 121.168C94.2511 121.852 93.1871 122.308 92.0978 122.511L92.4271 124.284C93.1618 124.132 93.9977 123.853 94.8844 123.423C97.6963 122.08 99.343 119.952 99.8243 117.064ZM90.7298 110.629C90.0458 113.619 88.9311 116.228 87.4112 118.457C86.4992 119.825 85.6379 120.509 84.8525 120.509C84.5232 120.509 84.2192 120.408 83.9406 120.18C83.3579 119.749 83.0539 119.065 83.0539 118.077C83.0539 117.089 83.3832 116 84.0672 114.835C85.5112 112.301 87.7152 110.908 90.7298 110.629Z" fill="#323333"/>
<path d="M99.8243 117.064L99.3328 116.972L99.3311 116.982L99.8243 117.064ZM94.8844 109.337L94.7162 109.808L94.717 109.809L94.8844 109.337ZM88.1965 109.312L88.3489 109.788L88.3546 109.786L88.1965 109.312ZM82.4966 113.923L82.0607 113.678L82.0602 113.679L82.4966 113.923ZM81.7366 120.256L82.1877 120.04L82.1838 120.032L81.7366 120.256ZM82.8766 121.624L83.1688 121.218L83.1589 121.211L82.8766 121.624ZM87.7658 120.915L87.4122 120.561L87.4075 120.566L87.7658 120.915ZM89.0071 119.319L89.4209 119.599L89.4251 119.593L89.0071 119.319ZM92.5791 110.655L92.6361 110.158L92.1898 110.107L92.0913 110.545L92.5791 110.655ZM96.4297 112.225L96.7565 111.847L96.7535 111.844L96.4297 112.225ZM97.4684 118.66L97.9156 118.884L97.9181 118.878L97.4684 118.66ZM95.2391 121.168L95.5237 121.579L95.5258 121.577L95.2391 121.168ZM92.0978 122.511L92.0063 122.019L91.5149 122.11L91.6062 122.602L92.0978 122.511ZM92.4271 124.284L91.9355 124.375L92.0287 124.877L92.5284 124.773L92.4271 124.284ZM94.8844 123.423L94.6689 122.971L94.6659 122.973L94.8844 123.423ZM90.7298 110.629L91.2172 110.741L91.3712 110.068L90.6838 110.131L90.7298 110.629ZM87.4112 118.457L86.998 118.176L86.9951 118.18L87.4112 118.457ZM83.9406 120.18L84.2572 119.793L84.2477 119.785L84.2378 119.778L83.9406 120.18ZM84.0672 114.835L84.4985 115.088L84.5016 115.082L84.0672 114.835ZM100.316 117.156C100.399 116.712 100.426 116.275 100.426 115.873H99.4256C99.4256 116.232 99.4016 116.605 99.3329 116.972L100.316 117.156ZM100.426 115.873C100.426 112.582 98.2761 110.012 95.0518 108.866L94.717 109.809C97.6232 110.841 99.4256 113.085 99.4256 115.873H100.426ZM95.0526 108.867C93.9289 108.465 92.7567 108.28 91.5151 108.28V109.28C92.6548 109.28 93.7119 109.45 94.7162 109.808L95.0526 108.867ZM91.5151 108.28C90.3229 108.28 89.1548 108.466 88.0384 108.838L88.3546 109.786C89.3662 109.449 90.4274 109.28 91.5151 109.28V108.28ZM88.0441 108.836C85.3929 109.684 83.3904 111.311 82.0607 113.678L82.9325 114.168C84.136 112.025 85.9335 110.561 88.3489 109.788L88.0441 108.836ZM82.0602 113.679C81.194 115.227 80.7553 116.704 80.7553 118.103H81.7553C81.7553 116.917 82.1272 115.607 82.933 114.167L82.0602 113.679ZM80.7553 118.103C80.7553 118.956 80.9212 119.743 81.2894 120.479L82.1838 120.032C81.8934 119.451 81.7553 118.82 81.7553 118.103H80.7553ZM81.2855 120.472C81.598 121.125 82.0327 121.652 82.5942 122.037L83.1589 121.211C82.7578 120.937 82.4326 120.552 82.1877 120.04L81.2855 120.472ZM82.5844 122.03C83.2904 122.538 84.0493 122.808 84.8525 122.808V121.808C84.2878 121.808 83.7294 121.622 83.1687 121.218L82.5844 122.03ZM84.8525 122.808C86.0574 122.808 87.1423 122.272 88.1242 121.263L87.4075 120.566C86.5654 121.431 85.725 121.808 84.8525 121.808V122.808ZM88.1194 121.268C88.509 120.878 88.936 120.314 89.4209 119.599L88.5934 119.038C88.1156 119.742 87.732 120.241 87.4123 120.561L88.1194 121.268ZM89.4251 119.593C91.1084 117.029 92.3206 114.084 93.0669 110.764L92.0913 110.545C91.3683 113.761 90.1992 116.592 88.5892 119.044L89.4251 119.593ZM92.5221 111.151C93.9842 111.319 95.1789 111.818 96.1059 112.606L96.7535 111.844C95.6538 110.91 94.2646 110.345 92.6361 110.158L92.5221 111.151ZM96.1029 112.604C97.1046 113.469 97.6017 114.571 97.6017 115.924H98.6017C98.6017 114.288 97.9841 112.907 96.7565 111.847L96.1029 112.604ZM97.6017 115.924C97.6017 116.786 97.416 117.623 97.0186 118.441L97.9181 118.878C98.3821 117.923 98.6017 116.936 98.6017 115.924H97.6017ZM97.0211 118.436C96.581 119.317 95.9052 120.091 94.9523 120.758L95.5258 121.577C96.5995 120.826 97.393 119.929 97.9156 118.884L97.0211 118.436ZM94.9544 120.757C94.0191 121.404 93.0201 121.83 92.0063 122.019L92.1892 123.002C93.354 122.785 94.4831 122.299 95.5237 121.579L94.9544 120.757ZM91.6062 122.602L91.9355 124.375L92.9187 124.193L92.5894 122.419L91.6062 122.602ZM92.5284 124.773C93.3069 124.612 94.1821 124.319 95.1028 123.872L94.6659 122.973C93.8134 123.387 93.0166 123.651 92.3258 123.794L92.5284 124.773ZM95.0998 123.874C98.0489 122.466 99.8076 120.206 100.318 117.146L99.3311 116.982C98.8784 119.698 97.3438 121.694 94.6689 122.971L95.0998 123.874ZM90.2424 110.518C89.5708 113.453 88.4791 116.003 86.9981 118.176L87.8243 118.739C89.3832 116.453 90.5208 113.784 91.2172 110.741L90.2424 110.518ZM86.9951 118.18C86.5553 118.84 86.145 119.307 85.772 119.606C85.3992 119.904 85.0947 120.009 84.8525 120.009V121.009C85.3957 121.009 85.9145 120.772 86.3967 120.387C86.8787 120.001 87.3551 119.443 87.8272 118.735L86.9951 118.18ZM84.8525 120.009C84.6369 120.009 84.4452 119.947 84.2572 119.793L83.6239 120.567C83.9933 120.869 84.4096 121.009 84.8525 121.009V120.009ZM84.2378 119.778C83.8183 119.468 83.5539 118.957 83.5539 118.077H82.5539C82.5539 119.174 82.8975 120.031 83.6434 120.582L84.2378 119.778ZM83.5539 118.077C83.5539 117.201 83.8464 116.199 84.4984 115.088L83.636 114.582C82.9201 115.801 82.5539 116.978 82.5539 118.077H83.5539ZM84.5016 115.082C85.8613 112.697 87.9168 111.392 90.7758 111.127L90.6838 110.131C87.5136 110.425 85.1611 111.906 83.6328 114.587L84.5016 115.082Z" fill="#323333"/>
<path d="M35.0587 31.5856L24.7108 31.7511L24.628 26.1219L21.6892 26.2047L21.8134 31.8339C16.1013 31.9995 11.0102 32.2064 6.58126 32.4548L6.78822 35.3522C11.1757 35.0625 16.1841 34.8555 21.8547 34.7313L21.8961 38.4566C21.1925 38.2496 20.5302 38.1254 19.868 38.1254C18.0053 38.1254 16.4325 38.9119 15.1493 40.4434C13.9076 41.8921 13.2867 43.5477 13.2867 45.4518C13.2867 48.8045 15.8116 51.288 19.1643 51.288C19.868 51.288 20.5716 51.1638 21.2339 50.9154C20.406 53.3989 19.3299 55.4685 18.0053 57.0828L20.2819 58.904C21.8134 57.0828 23.0137 54.8062 23.9657 52.033C24.9177 49.2598 25.373 46.6935 25.373 44.2514C25.373 43.6719 25.3316 43.1338 25.2489 42.6785C25.2489 42.4716 25.1661 42.099 25.0005 41.4782C24.8763 40.9815 24.8349 40.5675 24.8349 40.2778C24.8349 38.498 24.8349 36.6353 24.7936 34.6486L35.1001 34.483L35.0587 31.5856ZM21.9789 45.4518C21.9789 47.2316 20.82 48.3906 19.1229 48.3906C17.4672 48.3906 16.2669 47.1488 16.2669 45.4931C16.2669 43.1338 17.6742 41.1056 19.9921 41.1056C20.8614 41.1056 21.4822 41.354 21.9375 41.8093C21.9789 43.258 21.9789 44.4584 21.9789 45.4518ZM84.4802 30.3024C83.611 28.7709 82.6176 27.1567 81.5 25.5424L79.7202 26.7428C80.8377 28.357 81.7897 29.8885 82.6176 31.3372L84.4802 30.3024ZM70.1587 43.258L70.3657 39.6983C70.3657 35.5592 68.9997 34.0277 64.3639 34.0277C63.9914 34.0277 62.7082 34.1105 60.5145 34.2346L62.7082 27.1567L59.8936 26.2875L57.3687 34.483C55.3819 34.6072 53.4779 34.7727 51.6153 34.9383L51.8636 37.8771L56.4581 37.5046C54.3885 44.1686 52.5673 49.8806 50.9944 54.7235L53.7677 55.6341C55.4647 50.5015 57.4101 44.3756 59.6039 37.2562C61.9632 37.0907 63.5775 37.0079 64.4053 37.0079C65.8954 37.0079 66.7646 37.132 67.013 37.4218C67.3855 37.7943 67.4683 39.0361 67.3441 41.147L67.2199 43.0924C67.0543 45.7001 66.9302 47.3558 66.806 48.1008C66.4335 50.4187 65.854 51.8674 65.0262 52.4883C64.4881 52.9022 63.7016 53.1092 62.7496 53.1092C62.1287 53.1092 61.4251 53.0264 60.5559 52.8195L59.9764 55.7169C61.0112 55.9238 61.9632 56.048 62.8324 56.048C65.7712 56.048 67.7994 54.6821 68.8342 51.9916C69.4551 50.4601 69.869 47.5213 70.1587 43.258ZM80.4652 32.1651C79.8443 31.0475 78.8509 29.4746 77.5678 27.4464L75.788 28.6054C77.0711 30.6336 78.0231 32.1651 78.644 33.2412L80.4652 32.1651ZM81.0033 42.8027C80.4652 41.147 79.6788 39.4086 78.644 37.546C77.5264 35.6006 76.4502 34.0277 75.3327 32.8273L73.1803 34.8555C75.3741 37.1734 77.0711 40.1122 78.2301 43.7133L81.0033 42.8027ZM123.554 53.3575C120.574 51.3294 117.635 49.6737 114.779 48.4733C114.82 46.8177 114.82 44.7481 114.737 42.2232L123.264 41.1884L122.933 38.3738L114.655 39.3672L114.406 33.4068C117.014 33.2826 119.291 33.1585 121.319 33.1171L121.277 30.3024C119.332 30.3438 117.014 30.4266 114.282 30.5508C114.241 28.7709 114.158 27.2395 114.117 25.9977L111.178 26.0805C111.219 27.3222 111.302 28.8537 111.343 30.7164C107.866 30.9233 104.803 31.1303 102.113 31.3786L102.361 34.1932C104.969 33.9449 108.032 33.7379 111.468 33.531L111.716 39.6569C110.35 39.7811 109.191 39.8225 108.156 39.8225C105.962 39.8225 104.721 39.5741 104.431 39.1188C104.348 38.9947 104.348 38.7463 104.431 38.4566L101.74 37.6287C101.616 38.0841 101.534 38.498 101.534 38.8705C101.534 39.6569 101.782 40.3606 102.237 40.9401C103.189 42.099 105.259 42.6785 108.363 42.6785C109.232 42.6785 110.35 42.6371 111.799 42.5129C111.84 44.5411 111.881 46.2382 111.881 47.6041C110.681 47.3558 109.481 47.2316 108.363 47.2316C106.335 47.2316 104.679 47.6455 103.438 48.4733C102.03 49.4253 101.327 50.7499 101.285 52.4883C101.285 53.9784 101.947 55.1788 103.313 56.1308C104.596 57 106.087 57.4139 107.825 57.4139C109.481 57.4139 110.888 57 112.088 56.2136C113.454 55.3443 114.241 54.1026 114.53 52.4883C114.572 52.1158 114.613 51.8261 114.613 51.6191C117.055 52.7367 119.456 54.144 121.898 55.7996L123.554 53.3575ZM111.633 52.033C111.343 53.6473 110.102 54.4751 107.908 54.4751C105.962 54.4751 104.224 53.6473 104.224 52.5297C104.224 51.8261 104.514 51.288 105.052 50.9154C105.755 50.4187 106.873 50.1704 108.322 50.1704C109.481 50.1704 110.64 50.2946 111.757 50.5843L111.633 52.033ZM155.922 47.273C154.142 50.5015 152.445 52.1158 150.748 52.1158C147.933 52.1158 146.526 47.4799 146.526 38.1668C146.526 35.3108 146.65 32.8273 146.899 30.6336L143.836 30.3024C143.546 32.7445 143.422 35.2694 143.422 37.9599C143.422 49.4253 145.864 55.1374 150.789 55.1374C153.646 55.1374 156.212 53.0264 158.571 48.7631L155.922 47.273ZM173.224 48.8873C172.603 45.9898 171.609 43.1338 170.326 40.2778C168.919 37.0907 167.346 34.5244 165.649 32.5376L163.331 34.5244C166.394 38.1254 168.671 43.1752 170.161 49.5909L173.224 48.8873Z" fill="#323333"/>
<path d="M35.0587 31.5856L35.5586 31.5784L35.5515 31.0776L35.0507 31.0856L35.0587 31.5856ZM24.7108 31.7511L24.2108 31.7585L24.2182 32.2591L24.7188 32.2511L24.7108 31.7511ZM24.628 26.1219L25.1279 26.1145L25.1205 25.6078L24.6139 25.6221L24.628 26.1219ZM21.6892 26.2047L21.6751 25.7049L21.1783 25.7189L21.1893 26.2157L21.6892 26.2047ZM21.8134 31.8339L21.8278 32.3337L22.3242 32.3193L22.3132 31.8229L21.8134 31.8339ZM6.58126 32.4548L6.55327 31.9556L6.04636 31.984L6.08253 32.4904L6.58126 32.4548ZM6.78822 35.3522L6.28949 35.3878L6.32492 35.8839L6.82117 35.8511L6.78822 35.3522ZM21.8547 34.7313L22.3547 34.7258L22.3491 34.2204L21.8438 34.2315L21.8547 34.7313ZM21.8961 38.4566L21.7551 38.9363L22.4036 39.127L22.3961 38.451L21.8961 38.4566ZM15.1493 40.4434L15.529 40.7688L15.5326 40.7645L15.1493 40.4434ZM21.2339 50.9154L21.7082 51.0736L22.0396 50.0793L21.0583 50.4473L21.2339 50.9154ZM18.0053 57.0828L17.6188 56.7656L17.2977 57.157L17.693 57.4732L18.0053 57.0828ZM20.2819 58.904L19.9695 59.2944L20.3505 59.5993L20.6646 59.2258L20.2819 58.904ZM25.2489 42.6785H24.7489V42.7236L24.7569 42.768L25.2489 42.6785ZM25.0005 41.4782L24.5154 41.5994L24.5174 41.607L25.0005 41.4782ZM24.7936 34.6486L24.7855 34.1486L24.2832 34.1567L24.2937 34.659L24.7936 34.6486ZM35.1001 34.483L35.1081 34.9829L35.6071 34.9749L35.6 34.4758L35.1001 34.483ZM21.9375 41.8093L22.4373 41.795L22.4317 41.5963L22.2911 41.4557L21.9375 41.8093ZM35.0507 31.0856L24.7028 31.2512L24.7188 32.2511L35.0667 32.0855L35.0507 31.0856ZM25.2107 31.7438L25.1279 26.1145L24.128 26.1292L24.2108 31.7585L25.2107 31.7438ZM24.6139 25.6221L21.6751 25.7049L21.7033 26.7045L24.6421 26.6217L24.6139 25.6221ZM21.1893 26.2157L21.3135 31.8449L22.3132 31.8229L22.1891 26.1936L21.1893 26.2157ZM21.7989 31.3341C16.0836 31.4998 10.9878 31.7069 6.55327 31.9556L6.60925 32.954C11.0325 32.706 16.119 32.4992 21.8278 32.3337L21.7989 31.3341ZM6.08253 32.4904L6.28949 35.3878L7.28695 35.3166L7.07999 32.4192L6.08253 32.4904ZM6.82117 35.8511C11.1997 35.562 16.2005 35.3553 21.8657 35.2312L21.8438 34.2315C16.1677 34.3557 11.1518 34.563 6.75527 34.8533L6.82117 35.8511ZM21.3548 34.7369L21.3962 38.4621L22.3961 38.451L22.3547 34.7258L21.3548 34.7369ZM22.0372 37.9769C21.305 37.7615 20.5931 37.6254 19.868 37.6254V38.6254C20.4673 38.6254 21.08 38.7377 21.7551 38.9363L22.0372 37.9769ZM19.868 37.6254C17.8418 37.6254 16.1337 38.4899 14.7661 40.1223L15.5326 40.7645C16.7312 39.3339 18.1688 38.6254 19.868 38.6254V37.6254ZM14.7697 40.118C13.4514 41.656 12.7867 43.4267 12.7867 45.4518H13.7867C13.7867 43.6688 14.3638 42.1282 15.5289 40.7688L14.7697 40.118ZM12.7867 45.4518C12.7867 49.0853 15.5401 51.788 19.1643 51.788V50.788C16.083 50.788 13.7867 48.5237 13.7867 45.4518H12.7867ZM19.1643 51.788C19.9264 51.788 20.6897 51.6535 21.4094 51.3836L21.0583 50.4473C20.4536 50.6741 19.8095 50.788 19.1643 50.788V51.788ZM20.7595 50.7573C19.9458 53.1985 18.8954 55.2098 17.6188 56.7656L18.3919 57.3999C19.7644 55.7272 20.8663 53.5994 21.7082 51.0736L20.7595 50.7573ZM17.693 57.4732L19.9695 59.2944L20.5942 58.5136L18.3177 56.6923L17.693 57.4732ZM20.6646 59.2258C22.2457 57.3456 23.4724 55.0101 24.4386 52.1954L23.4928 51.8707C22.5551 54.6024 21.381 56.82 19.8992 58.5822L20.6646 59.2258ZM24.4386 52.1954C25.4057 49.3783 25.873 46.757 25.873 44.2514H24.873C24.873 46.63 24.4298 49.1412 23.4928 51.8707L24.4386 52.1954ZM25.873 44.2514C25.873 43.6502 25.8302 43.0811 25.7408 42.5891L24.7569 42.768C24.833 43.1866 24.873 43.6936 24.873 44.2514H25.873ZM25.7489 42.6785C25.7489 42.5206 25.7188 42.3336 25.676 42.1306C25.6319 41.9206 25.567 41.662 25.4836 41.3493L24.5174 41.607C24.5996 41.9152 24.6589 42.1533 24.6975 42.3366C24.7375 42.5267 24.7489 42.6295 24.7489 42.6785H25.7489ZM25.4856 41.3569C25.3705 40.8965 25.3349 40.5234 25.3349 40.2778H24.3349C24.3349 40.6117 24.3822 41.0664 24.5154 41.5994L25.4856 41.3569ZM25.3349 40.2778C25.3349 38.4985 25.335 36.6309 25.2934 34.6381L24.2937 34.659C24.3349 36.6398 24.3349 38.4974 24.3349 40.2778H25.3349ZM24.8016 35.1485L35.1081 34.9829L35.092 33.983L24.7855 34.1486L24.8016 35.1485ZM35.6 34.4758L35.5586 31.5784L34.5587 31.5927L34.6001 34.4901L35.6 34.4758ZM21.4789 45.4518C21.4789 46.2313 21.2271 46.8335 20.8302 47.2387C20.4339 47.6431 19.8545 47.8906 19.1229 47.8906V48.8906C20.0884 48.8906 20.937 48.5585 21.5445 47.9385C22.1513 47.3192 22.4789 46.4521 22.4789 45.4518H21.4789ZM19.1229 47.8906C17.7529 47.8906 16.7669 46.8822 16.7669 45.4931H15.7669C15.7669 47.4154 17.1816 48.8906 19.1229 48.8906V47.8906ZM16.7669 45.4931C16.7669 43.3001 18.0487 41.6056 19.9921 41.6056V40.6056C17.2997 40.6056 15.7669 42.9676 15.7669 45.4931H16.7669ZM19.9921 41.6056C20.757 41.6056 21.2407 41.8196 21.584 42.1628L22.2911 41.4557C21.7238 40.8884 20.9657 40.6056 19.9921 40.6056V41.6056ZM21.4377 41.8236C21.4789 43.2645 21.4789 44.4585 21.4789 45.4518H22.4789C22.4789 44.4582 22.4789 43.2515 22.4373 41.795L21.4377 41.8236ZM84.4802 30.3024L84.723 30.7395L85.1641 30.4945L84.915 30.0556L84.4802 30.3024ZM81.5 25.5424L81.9111 25.2578L81.6299 24.8517L81.2204 25.1279L81.5 25.5424ZM79.7202 26.7428L79.4406 26.3282L79.021 26.6112L79.3091 27.0274L79.7202 26.7428ZM82.6176 31.3372L82.1835 31.5853L82.4286 32.0142L82.8604 31.7743L82.6176 31.3372ZM70.1587 43.258L70.6576 43.2919L70.6579 43.287L70.1587 43.258ZM70.3657 39.6983L70.8648 39.7273L70.8657 39.7128V39.6983H70.3657ZM60.5145 34.2346L60.0369 34.0866L59.8237 34.7745L60.5427 34.7338L60.5145 34.2346ZM62.7082 27.1567L63.1858 27.3047L63.334 26.8266L62.8558 26.6789L62.7082 27.1567ZM59.8936 26.2875L60.0411 25.8097L59.5631 25.6621L59.4158 26.1402L59.8936 26.2875ZM57.3687 34.483L57.3999 34.982L57.7448 34.9605L57.8466 34.6302L57.3687 34.483ZM51.6153 34.9383L51.571 34.4403L51.0751 34.4843L51.1171 34.9804L51.6153 34.9383ZM51.8636 37.8771L51.3654 37.9192L51.4074 38.4157L51.904 38.3755L51.8636 37.8771ZM56.4581 37.5046L56.9356 37.6529L57.155 36.9464L56.4177 37.0062L56.4581 37.5046ZM50.9944 54.7235L50.5189 54.569L50.3649 55.043L50.8384 55.1985L50.9944 54.7235ZM53.7677 55.6341L53.6117 56.1091L54.0857 56.2648L54.2424 55.791L53.7677 55.6341ZM59.6039 37.2562L59.5689 36.7574L59.227 36.7814L59.126 37.109L59.6039 37.2562ZM67.013 37.4218L66.6333 37.7472L66.6458 37.7618L66.6594 37.7753L67.013 37.4218ZM67.3441 41.147L67.8431 41.1789L67.8432 41.1764L67.3441 41.147ZM67.2199 43.0924L66.7209 43.0606L66.7209 43.0607L67.2199 43.0924ZM66.806 48.1008L66.3128 48.0186L66.3123 48.0215L66.806 48.1008ZM65.0262 52.4883L64.7261 52.0883L64.7213 52.092L65.0262 52.4883ZM60.5559 52.8195L60.6717 52.333L60.1673 52.213L60.0656 52.7214L60.5559 52.8195ZM59.9764 55.7169L59.4861 55.6188L59.388 56.1091L59.8783 56.2072L59.9764 55.7169ZM68.8342 51.9916L68.3707 51.8037L68.3675 51.8121L68.8342 51.9916ZM80.4652 32.1651L80.7196 32.5955L81.1387 32.3478L80.9023 31.9222L80.4652 32.1651ZM77.5678 27.4464L77.9903 27.1791L77.7195 26.751L77.295 27.0274L77.5678 27.4464ZM75.788 28.6054L75.5151 28.1864L75.1016 28.4557L75.3654 28.8727L75.788 28.6054ZM78.644 33.2412L78.2109 33.4911L78.4634 33.9287L78.8983 33.6717L78.644 33.2412ZM81.0033 42.8027L81.1593 43.2777L81.6329 43.1222L81.4788 42.6481L81.0033 42.8027ZM78.644 37.546L79.0811 37.3031L79.0775 37.2969L78.644 37.546ZM75.3327 32.8273L75.6986 32.4866L75.3558 32.1185L74.9898 32.4634L75.3327 32.8273ZM73.1803 34.8555L72.8374 34.4916L72.4727 34.8353L72.8172 35.1992L73.1803 34.8555ZM78.2301 43.7133L77.7541 43.8665L77.9082 44.3453L78.3861 44.1884L78.2301 43.7133ZM84.915 30.0556C84.0396 28.5133 83.0384 26.8861 81.9111 25.2578L81.0889 25.827C82.1967 27.4272 83.1823 29.0286 84.0454 30.5492L84.915 30.0556ZM81.2204 25.1279L79.4406 26.3282L79.9997 27.1573L81.7796 25.9569L81.2204 25.1279ZM79.3091 27.0274C80.418 28.6291 81.3623 30.1483 82.1835 31.5853L83.0517 31.0892C82.2172 29.6287 81.2575 28.085 80.1313 26.4582L79.3091 27.0274ZM82.8604 31.7743L84.723 30.7395L84.2374 29.8654L82.3748 30.9001L82.8604 31.7743ZM70.6579 43.287L70.8648 39.7273L69.8665 39.6693L69.6596 43.229L70.6579 43.287ZM70.8657 39.6983C70.8657 37.6013 70.5262 36.0026 69.4527 34.9533C68.3836 33.9082 66.7079 33.5277 64.3639 33.5277V34.5277C66.6558 34.5277 67.9809 34.9129 68.7537 35.6684C69.5222 36.4196 69.8657 37.6562 69.8657 39.6983H70.8657ZM64.3639 33.5277C63.9725 33.5277 62.6614 33.6123 60.4862 33.7354L60.5427 34.7338C62.7551 34.6086 64.0102 34.5277 64.3639 34.5277V33.5277ZM60.9921 34.3827L63.1858 27.3047L62.2306 27.0087L60.0369 34.0866L60.9921 34.3827ZM62.8558 26.6789L60.0411 25.8097L59.7461 26.7652L62.5607 27.6344L62.8558 26.6789ZM59.4158 26.1402L56.8909 34.3358L57.8466 34.6302L60.3714 26.4347L59.4158 26.1402ZM57.3375 33.984C55.3435 34.1086 53.4337 34.2747 51.571 34.4403L51.6596 35.4363C53.5221 35.2708 55.4203 35.1057 57.3999 34.982L57.3375 33.984ZM51.1171 34.9804L51.3654 37.9192L52.3619 37.835L52.1135 34.8962L51.1171 34.9804ZM51.904 38.3755L56.4985 38.0029L56.4177 37.0062L51.8232 37.3787L51.904 38.3755ZM55.9806 37.3563C53.9117 44.0182 52.0911 49.7282 50.5189 54.569L51.47 54.8779C53.0435 50.0331 54.8654 44.319 56.9356 37.6529L55.9806 37.3563ZM50.8384 55.1985L53.6117 56.1091L53.9236 55.159L51.1504 54.2484L50.8384 55.1985ZM54.2424 55.791C55.9408 50.6543 57.8873 44.5249 60.0817 37.4035L59.126 37.109C56.9329 44.2262 54.9886 50.3487 53.2929 55.4771L54.2424 55.791ZM59.6389 37.755C62.0001 37.5893 63.5976 37.5079 64.4053 37.5079V36.5079C63.5573 36.5079 61.9262 36.592 59.5689 36.7574L59.6389 37.755ZM64.4053 37.5079C65.1415 37.5079 65.7015 37.5389 66.0983 37.6003C66.2968 37.631 66.4387 37.667 66.5347 37.703C66.6367 37.7413 66.649 37.7655 66.6333 37.7472L67.3926 37.0964C67.2527 36.9332 67.0632 36.8332 66.8858 36.7667C66.7025 36.6979 66.4874 36.6486 66.2512 36.6121C65.7789 36.539 65.1591 36.5079 64.4053 36.5079V37.5079ZM66.6594 37.7753C66.6667 37.7826 66.7112 37.8373 66.7589 38.0027C66.8046 38.161 66.8421 38.3813 66.8665 38.674C66.9153 39.2592 66.9066 40.0693 66.8449 41.1177L67.8432 41.1764C67.9057 40.1138 67.9178 39.2475 67.8631 38.591C67.8357 38.2628 67.7905 37.9709 67.7197 37.7256C67.651 37.4874 67.5455 37.2472 67.3665 37.0682L66.6594 37.7753ZM66.8451 41.1152L66.7209 43.0606L67.7189 43.1243L67.8431 41.1789L66.8451 41.1152ZM66.7209 43.0607C66.5545 45.6814 66.4317 47.3051 66.3128 48.0186L67.2992 48.183C67.4286 47.4064 67.5542 45.7188 67.7189 43.1241L66.7209 43.0607ZM66.3123 48.0215C66.1293 49.1604 65.8989 50.0618 65.6233 50.7436C65.3459 51.4297 65.0385 51.8541 64.7262 52.0883L65.3262 52.8883C65.8417 52.5017 66.2379 51.8913 66.5504 51.1184C66.8646 50.3411 67.1102 49.3592 67.2997 48.1802L66.3123 48.0215ZM64.7213 52.092C64.3029 52.4139 63.6405 52.6092 62.7496 52.6092V53.6092C63.7627 53.6092 64.6732 53.3906 65.331 52.8846L64.7213 52.092ZM62.7496 52.6092C62.1748 52.6092 61.5105 52.5328 60.6717 52.333L60.4401 53.3059C61.3397 53.5201 62.0827 53.6092 62.7496 53.6092V52.6092ZM60.0656 52.7214L59.4861 55.6188L60.4667 55.8149L61.0462 52.9175L60.0656 52.7214ZM59.8783 56.2072C60.9307 56.4176 61.918 56.548 62.8324 56.548V55.548C62.0083 55.548 61.0917 55.43 60.0744 55.2266L59.8783 56.2072ZM62.8324 56.548C64.3803 56.548 65.7247 56.1875 66.8271 55.4431C67.9303 54.6982 68.7536 53.5941 69.3009 52.1711L68.3675 51.8121C67.88 53.0796 67.1718 54.0037 66.2675 54.6144C65.3624 55.2255 64.2233 55.548 62.8324 55.548V56.548ZM69.2976 52.1795C69.9534 50.5618 70.3687 47.5422 70.6576 43.2919L69.6599 43.2241C69.3692 47.5005 68.9567 50.3585 68.3708 51.8038L69.2976 52.1795ZM80.9023 31.9222C80.2728 30.7891 79.27 29.2017 77.9903 27.1791L77.1453 27.7137C78.4319 29.7475 79.4159 31.3058 80.0281 32.4079L80.9023 31.9222ZM77.295 27.0274L75.5151 28.1864L76.0608 29.0244L77.8406 27.8654L77.295 27.0274ZM75.3654 28.8727C76.6491 30.9017 77.5958 32.425 78.2109 33.4911L79.0771 32.9914C78.4504 31.9051 77.4931 30.3654 76.2105 28.3381L75.3654 28.8727ZM78.8983 33.6717L80.7196 32.5955L80.2109 31.7346L78.3896 32.8108L78.8983 33.6717ZM81.4788 42.6481C80.9285 40.9548 80.1273 39.1865 79.0811 37.3031L78.2069 37.7888C79.2302 39.6307 80.002 41.3393 80.5278 42.9572L81.4788 42.6481ZM79.0775 37.2969C77.9509 35.3357 76.8529 33.7264 75.6986 32.4866L74.9667 33.168C76.0476 34.329 77.1019 35.8654 78.2104 37.795L79.0775 37.2969ZM74.9898 32.4634L72.8374 34.4916L73.5232 35.2194L75.6756 33.1912L74.9898 32.4634ZM72.8172 35.1992C74.9527 37.4556 76.6148 40.3264 77.7541 43.8665L78.706 43.5601C77.5274 39.8981 75.7954 36.8913 73.5434 34.5118L72.8172 35.1992ZM78.3861 44.1884L81.1593 43.2777L80.8473 42.3276L78.0741 43.2383L78.3861 44.1884ZM123.554 53.3575L123.968 53.6381L124.248 53.225L123.835 52.9442L123.554 53.3575ZM114.779 48.4733L114.279 48.4608L114.27 48.802L114.585 48.9343L114.779 48.4733ZM114.737 42.2232L114.677 41.7268L114.223 41.782L114.238 42.2396L114.737 42.2232ZM123.264 41.1884L123.324 41.6848L123.819 41.6248L123.761 41.13L123.264 41.1884ZM122.933 38.3738L123.43 38.3154L123.371 37.8176L122.873 37.8774L122.933 38.3738ZM114.655 39.3672L114.155 39.388L114.178 39.928L114.714 39.8636L114.655 39.3672ZM114.406 33.4068L114.383 32.9074L113.886 32.931L113.907 33.4276L114.406 33.4068ZM121.319 33.1171L121.329 33.617L121.826 33.6068L121.819 33.1097L121.319 33.1171ZM121.277 30.3024L121.777 30.2951L121.77 29.7918L121.267 29.8025L121.277 30.3024ZM114.282 30.5508L113.782 30.5624L113.794 31.0735L114.305 31.0503L114.282 30.5508ZM114.117 25.9977L114.616 25.9811L114.6 25.4839L114.102 25.4979L114.117 25.9977ZM111.178 26.0805L111.164 25.5807L110.661 25.5948L110.678 26.0972L111.178 26.0805ZM111.343 30.7164L111.373 31.2155L111.854 31.1868L111.843 30.7052L111.343 30.7164ZM102.113 31.3786L102.067 30.8807L101.571 30.9265L101.615 31.4226L102.113 31.3786ZM102.361 34.1932L101.863 34.2372L101.908 34.7387L102.409 34.691L102.361 34.1932ZM111.467 33.531L111.967 33.5107L111.946 33.0012L111.437 33.0319L111.467 33.531ZM111.716 39.6569L111.761 40.1549L112.235 40.1118L112.215 39.6367L111.716 39.6569ZM104.431 39.1188L104.853 38.8503L104.847 38.8415L104.431 39.1188ZM104.431 38.4566L104.912 38.5939L105.046 38.1228L104.578 37.9787L104.431 38.4566ZM101.74 37.6287L101.888 37.1509L101.394 36.999L101.258 37.4972L101.74 37.6287ZM102.237 40.9401L101.844 41.2491L101.851 41.2574L102.237 40.9401ZM111.799 42.513L112.299 42.5027L112.288 41.9692L111.756 42.0148L111.799 42.513ZM111.881 47.6041L111.78 48.0937L112.381 48.2182V47.6041H111.881ZM103.438 48.4733L103.16 48.0573L103.157 48.0592L103.438 48.4733ZM101.285 52.4883L100.785 52.4764V52.4883H101.285ZM103.313 56.1308L103.027 56.541L103.033 56.5447L103.313 56.1308ZM112.088 56.2136L111.82 55.7917L111.814 55.7953L112.088 56.2136ZM114.53 52.4883L115.023 52.5767L115.026 52.5602L115.027 52.5435L114.53 52.4883ZM114.613 51.6191L114.821 51.1644L114.113 50.8404V51.6191H114.613ZM121.898 55.7996L121.618 56.2135L122.031 56.4941L122.312 56.0802L121.898 55.7996ZM111.633 52.033L112.125 52.1213L112.129 52.0987L112.131 52.0757L111.633 52.033ZM105.052 50.9154L105.336 51.3266L105.34 51.3239L105.052 50.9154ZM111.757 50.5843L112.255 50.627L112.291 50.2063L111.883 50.1003L111.757 50.5843ZM123.835 52.9442C120.834 50.9018 117.866 49.2285 114.973 48.0124L114.585 48.9343C117.404 50.1189 120.313 51.7569 123.273 53.7709L123.835 52.9442ZM115.279 48.4858C115.32 46.8198 115.32 44.7406 115.237 42.2068L114.238 42.2396C114.32 44.7556 114.32 46.8155 114.279 48.4608L115.279 48.4858ZM114.798 42.7196L123.324 41.6848L123.204 40.6921L114.677 41.7268L114.798 42.7196ZM123.761 41.13L123.43 38.3154L122.436 38.4322L122.768 41.2468L123.761 41.13ZM122.873 37.8774L114.595 38.8708L114.714 39.8636L122.993 38.8702L122.873 37.8774ZM115.154 39.3464L114.906 33.386L113.907 33.4276L114.155 39.388L115.154 39.3464ZM114.43 33.9062C117.044 33.7818 119.31 33.6582 121.329 33.617L121.308 32.6172C119.271 32.6587 116.984 32.7835 114.383 32.9074L114.43 33.9062ZM121.819 33.1097L121.777 30.2951L120.777 30.3098L120.819 33.1244L121.819 33.1097ZM121.267 29.8025C119.316 29.8441 116.994 29.927 114.259 30.0513L114.305 31.0503C117.034 30.9262 119.348 30.8436 121.288 30.8023L121.267 29.8025ZM114.782 30.5392C114.741 28.7597 114.657 27.2058 114.616 25.9811L113.617 26.0144C113.659 27.2731 113.741 28.7822 113.782 30.5624L114.782 30.5392ZM114.102 25.4979L111.164 25.5807L111.192 26.5803L114.131 26.4975L114.102 25.4979ZM110.678 26.0972C110.72 27.3547 110.802 28.8657 110.843 30.7275L111.843 30.7052C111.802 28.8418 111.718 27.2898 111.677 26.0638L110.678 26.0972ZM111.314 30.2172C107.835 30.4243 104.766 30.6316 102.067 30.8807L102.159 31.8765C104.841 31.6289 107.898 31.4223 111.373 31.2155L111.314 30.2172ZM101.615 31.4226L101.863 34.2372L102.859 34.1493L102.611 31.3347L101.615 31.4226ZM102.409 34.691C105.007 34.4435 108.063 34.237 111.498 34.0301L111.437 33.0319C108.001 33.2389 104.931 33.4463 102.314 33.6955L102.409 34.691ZM110.968 33.5512L111.216 39.6772L112.215 39.6367L111.967 33.5107L110.968 33.5512ZM111.671 39.159C110.321 39.2817 109.177 39.3225 108.156 39.3225V40.3225C109.205 40.3225 110.379 40.2805 111.761 40.1549L111.671 39.159ZM108.156 39.3225C107.073 39.3225 106.25 39.2608 105.674 39.1503C105.385 39.0951 105.177 39.0308 105.034 38.966C104.886 38.8983 104.852 38.8492 104.853 38.8504L104.009 39.3873C104.155 39.6161 104.385 39.7688 104.619 39.8758C104.86 39.9855 105.153 40.0687 105.485 40.1325C106.151 40.2601 107.046 40.3225 108.156 40.3225V39.3225ZM104.847 38.8415C104.858 38.8578 104.864 38.8713 104.867 38.8796C104.869 38.8838 104.87 38.8871 104.871 38.8891C104.871 38.8902 104.871 38.891 104.872 38.8915C104.872 38.892 104.872 38.8923 104.872 38.8923C104.872 38.8923 104.872 38.8921 104.872 38.8916C104.872 38.8911 104.871 38.8904 104.871 38.8895C104.871 38.8875 104.871 38.8847 104.87 38.8811C104.869 38.8736 104.869 38.8632 104.869 38.8498C104.869 38.7928 104.88 38.7054 104.912 38.5939L103.95 38.3192C103.899 38.4975 103.869 38.6791 103.869 38.8498C103.869 39.0086 103.895 39.2164 104.015 39.3962L104.847 38.8415ZM104.578 37.9787L101.888 37.1509L101.593 38.1066L104.284 38.9345L104.578 37.9787ZM101.258 37.4972C101.13 37.9654 101.034 38.4306 101.034 38.8705H102.034C102.034 38.5653 102.102 38.2027 102.223 37.7603L101.258 37.4972ZM101.034 38.8705C101.034 39.7673 101.318 40.5801 101.844 41.249L102.63 40.6312C102.245 40.141 102.034 39.5465 102.034 38.8705H101.034ZM101.851 41.2574C102.414 41.9432 103.275 42.4191 104.357 42.725C105.441 43.0316 106.784 43.1785 108.363 43.1785V42.1785C106.838 42.1785 105.594 42.0357 104.629 41.7628C103.662 41.4893 103.012 41.0959 102.624 40.6227L101.851 41.2574ZM108.363 43.1785C109.248 43.1785 110.38 43.1364 111.841 43.0111L111.756 42.0148C110.32 42.1379 109.216 42.1785 108.363 42.1785V43.1785ZM111.299 42.5232C111.34 44.5555 111.381 46.2448 111.381 47.6041H112.381C112.381 46.2315 112.34 44.5268 112.299 42.5027L111.299 42.5232ZM111.983 47.1145C110.751 46.8596 109.517 46.7316 108.363 46.7316V47.7316C109.445 47.7316 110.611 47.8519 111.78 48.0937L111.983 47.1145ZM108.363 46.7316C106.272 46.7316 104.509 47.1578 103.16 48.0573L103.715 48.8894C104.849 48.1332 106.398 47.7316 108.363 47.7316V46.7316ZM103.157 48.0592C101.611 49.1055 100.83 50.5829 100.785 52.4764L101.785 52.5002C101.823 50.9169 102.45 49.7452 103.718 48.8875L103.157 48.0592ZM100.785 52.4883C100.785 54.161 101.544 55.507 103.027 56.541L103.599 55.7206C102.351 54.8506 101.785 53.7958 101.785 52.4883H100.785ZM103.033 56.5447C104.411 57.4784 106.003 57.9139 107.825 57.9139V56.9139C106.171 56.9139 104.782 56.5216 103.594 55.7168L103.033 56.5447ZM107.825 57.9139C109.569 57.9139 111.073 57.4763 112.362 56.6318L111.814 55.7953C110.703 56.5237 109.392 56.9139 107.825 56.9139V57.9139ZM112.357 56.6354C113.849 55.6856 114.71 54.3179 115.023 52.5767L114.038 52.4C113.771 53.8872 113.059 55.0031 111.82 55.7917L112.357 56.6354ZM115.027 52.5435C115.065 52.2026 115.113 51.8629 115.113 51.6191H114.113C114.113 51.7892 114.078 52.029 114.034 52.4331L115.027 52.5435ZM114.405 52.0737C116.816 53.1769 119.192 54.5691 121.618 56.2135L122.179 55.3858C119.72 53.7189 117.295 52.2964 114.821 51.1644L114.405 52.0737ZM122.312 56.0802L123.968 53.6381L123.14 53.077L121.484 55.5191L122.312 56.0802ZM111.141 51.9447C111.017 52.633 110.703 53.117 110.21 53.4418C109.7 53.7774 108.95 53.9751 107.908 53.9751V54.9751C109.06 54.9751 110.027 54.759 110.759 54.277C111.508 53.7844 111.959 53.0472 112.125 52.1213L111.141 51.9447ZM107.908 53.9751C106.999 53.9751 106.159 53.7804 105.564 53.4763C104.945 53.1598 104.724 52.8042 104.724 52.5297H103.724C103.724 53.3728 104.372 53.9899 105.109 54.3667C105.87 54.7559 106.872 54.9751 107.908 54.9751V53.9751ZM104.724 52.5297C104.724 51.9873 104.936 51.6041 105.336 51.3265L104.767 50.5043C104.092 50.9718 103.724 51.6648 103.724 52.5297H104.724ZM105.34 51.3239C105.918 50.9163 106.909 50.6704 108.322 50.6704V49.6704C106.837 49.6704 105.593 49.9212 104.763 50.507L105.34 51.3239ZM108.322 50.6704C109.446 50.6704 110.562 50.7908 111.632 51.0683L111.883 50.1003C110.718 49.7983 109.516 49.6704 108.322 49.6704V50.6704ZM111.259 50.5416L111.135 51.9903L112.131 52.0757L112.255 50.627L111.259 50.5416ZM155.922 47.273L156.167 46.8372L155.728 46.59L155.484 47.0316L155.922 47.273ZM146.899 30.6336L147.396 30.6898L147.452 30.1905L146.952 30.1365L146.899 30.6336ZM143.836 30.3024L143.889 29.8053L143.397 29.7521L143.339 30.2435L143.836 30.3024ZM158.571 48.7631L159.009 49.0052L159.249 48.5707L158.816 48.3273L158.571 48.7631ZM173.224 48.8873L173.336 49.3746L173.816 49.2642L173.713 48.7825L173.224 48.8873ZM170.326 40.2778L169.869 40.4798L169.87 40.4827L170.326 40.2778ZM165.649 32.5376L166.029 32.2128L165.704 31.832L165.324 32.158L165.649 32.5376ZM163.331 34.5244L163.006 34.1447L162.628 34.4689L162.95 34.8483L163.331 34.5244ZM170.161 49.5909L169.674 49.704L169.787 50.1899L170.273 50.0782L170.161 49.5909ZM155.484 47.0316C154.606 48.6239 153.767 49.7841 152.962 50.5407C152.158 51.2956 151.426 51.6158 150.748 51.6158V52.6158C151.767 52.6158 152.732 52.1289 153.646 51.2694C154.559 50.4118 155.458 49.1506 156.36 47.5144L155.484 47.0316ZM150.748 51.6158C150.202 51.6158 149.716 51.3986 149.271 50.9095C148.813 50.4061 148.401 49.6143 148.06 48.4888C147.378 46.238 147.026 42.8106 147.026 38.1668H146.026C146.026 42.8362 146.378 46.3833 147.103 48.7787C147.466 49.9763 147.934 50.9254 148.531 51.5824C149.142 52.2535 149.887 52.6158 150.748 52.6158V51.6158ZM147.026 38.1668C147.026 35.3248 147.15 32.8606 147.396 30.6898L146.402 30.5773C146.151 32.794 146.026 35.2968 146.026 38.1668H147.026ZM146.952 30.1365L143.889 29.8053L143.782 30.7995L146.845 31.1307L146.952 30.1365ZM143.339 30.2435C143.047 32.7091 142.922 35.2541 142.922 37.9599H143.922C143.922 35.2847 144.045 32.78 144.332 30.3613L143.339 30.2435ZM142.922 37.9599C142.922 43.7127 143.532 48.0893 144.799 51.0451C145.435 52.5286 146.247 53.6797 147.254 54.4608C148.268 55.2475 149.454 55.6374 150.789 55.6374V54.6374C149.662 54.6374 148.695 54.3133 147.867 53.6706C147.031 53.0225 146.309 52.029 145.718 50.6512C144.532 47.8847 143.922 43.6725 143.922 37.9599H142.922ZM150.789 55.6374C153.931 55.6374 156.626 53.3101 159.009 49.0052L158.134 48.521C155.797 52.7428 153.36 54.6374 150.789 54.6374V55.6374ZM158.816 48.3273L156.167 46.8372L155.677 47.7088L158.326 49.1989L158.816 48.3273ZM173.713 48.7825C173.083 45.8441 172.077 42.9543 170.782 40.0729L169.87 40.4827C171.142 43.3133 172.123 46.1356 172.735 48.992L173.713 48.7825ZM170.784 40.0758C169.361 36.8548 167.765 34.2444 166.029 32.2128L165.269 32.8623C166.928 34.8043 168.477 37.3265 169.869 40.4798L170.784 40.0758ZM165.324 32.158L163.006 34.1447L163.657 34.904L165.974 32.9172L165.324 32.158ZM162.95 34.8483C165.945 38.3688 168.195 43.336 169.674 49.704L170.648 49.4778C169.147 43.0144 166.844 37.8821 163.712 34.2004L162.95 34.8483ZM170.273 50.0782L173.336 49.3746L173.112 48.3999L170.049 49.1036L170.273 50.0782Z" fill="#323333"/>
</svg>
