<svg width="1280" height="778" viewBox="0 0 1280 778" fill="none" xmlns="http://www.w3.org/2000/svg">
<line x1="384.491" y1="558.013" x2="890.257" y2="558.013" stroke="#1E5B9D" stroke-width="7.9738" stroke-linecap="round"/>
<line x1="3.9869" y1="-3.9869" x2="549.623" y2="-3.9869" transform="matrix(-1 0 0 1 913.609 658.825)" stroke="#D94D6D" stroke-width="7.9738" stroke-linecap="round"/>
<path d="M1376 447.58C1376 609.631 1232.73 741 1056 741C879.269 741 736 609.631 736 447.58C736 285.529 840.421 371.909 1056 154.16C1376 -264.864 1376 285.529 1376 447.58Z" fill="#1E5B9D"/>
<path d="M-110 453.124C-110 612.113 33.2689 741 210 741C386.731 741 530 612.113 530 453.124C530 294.134 425.579 378.882 210 165.247C-110 -245.86 -110 294.134 -110 453.124Z" fill="#D94D6D"/>
<line x1="384.739" y1="572.905" x2="890.259" y2="588.69" stroke="#1E5B9D" stroke-width="7.9738" stroke-linecap="round"/>
<line x1="471.987" y1="753.013" x2="808.013" y2="753.013" stroke="#F7E7DE" stroke-width="7.9738" stroke-linecap="round"/>
<line x1="472.193" y1="763.202" x2="808.056" y2="773.69" stroke="#F7E7DE" stroke-width="7.9738" stroke-linecap="round"/>
<line x1="3.9869" y1="-3.9869" x2="549.385" y2="-3.9869" transform="matrix(-0.999513 0.0312106 0.0312106 0.999513 913.475 674.729)" stroke="#D94D6D" stroke-width="7.9738" stroke-linecap="round"/>
<g clip-path="url(#clip0_313_540)">
<path d="M654.81 470.306C723.511 470.306 779.204 414.904 779.204 346.562C779.204 278.221 723.511 222.819 654.81 222.819C586.109 222.819 530.416 278.221 530.416 346.562C530.416 414.904 586.109 470.306 654.81 470.306Z" fill="white"/>
<path d="M684.425 449.021C636.822 449.021 569.557 466.975 535.286 399.184C517.481 364.093 516.385 321.523 534.951 286.855C568.431 224.272 638.131 237.534 678.763 235.112H680.103C695.717 234.385 700.312 212.101 686.19 204.562C663.452 192.227 637.639 186.627 611.803 188.424C540.612 193.147 482.692 254.217 477.457 330.182C471.156 420.56 537.964 495.951 621.299 495.951C648.692 495.951 666.619 497.041 688.442 482.871C699.521 475.665 701.652 448.355 688.686 448.93C687.286 448.991 685.886 449.021 684.425 449.021Z" fill="white"/>
<path d="M710.813 439.575C665.402 439.575 601.242 455.561 568.462 395.279C551.448 364.063 550.413 326.216 568.127 295.364C600.116 239.744 666.528 251.522 705.304 249.342H706.552C709.794 249.29 712.923 248.152 715.436 246.114C717.948 244.075 719.697 241.254 720.4 238.106C721.104 234.957 720.72 231.665 719.312 228.76C717.904 225.855 715.554 223.506 712.639 222.093C691.252 211.354 667.418 206.356 643.493 207.593C619.569 208.83 596.383 216.259 576.231 229.145C556.078 242.032 539.657 259.928 528.591 281.065C517.525 302.202 512.199 325.847 513.138 349.66C514.077 373.473 521.25 396.63 533.947 416.839C546.644 437.048 564.424 453.61 585.53 464.886C606.636 476.161 630.335 481.76 654.283 481.128C678.232 480.497 701.599 473.656 722.075 461.284C732.636 454.865 727.31 438.848 714.952 439.333C713.532 439.494 712.152 439.575 710.813 439.575Z" fill="white"/>
<path d="M646.454 300.608L617.894 329.018C609.835 337.035 609.835 350.032 617.894 358.049L646.454 386.459C654.512 394.476 667.578 394.476 675.637 386.459L704.197 358.049C712.255 350.032 712.255 337.035 704.197 329.018L675.637 300.608C667.578 292.591 654.512 292.591 646.454 300.608Z" fill="white"/>
<path d="M702.047 355.858C702.504 361.096 701.317 367.969 695.96 368.968C693.15 369.162 690.363 368.345 688.108 366.667L683.512 364.002C687.589 358.467 690.092 351.94 690.756 345.109C691.202 340.696 690.445 336.244 688.565 332.222C686.686 328.2 683.752 324.755 680.072 322.25C674.737 319.294 668.612 318.056 662.541 318.707C657.831 318.987 653.186 319.945 648.753 321.553C650.79 318.527 653.059 315.663 655.541 312.985C659.291 308.43 664.412 305.193 670.15 303.75C671.503 303.568 672.875 303.568 674.229 303.75C681.564 304.659 686.738 311.229 690.299 317.648C696.866 329.423 700.869 342.442 702.047 355.858V355.858Z" fill="white"/>
<path d="M680.164 322.25C683.843 324.755 686.777 328.2 688.657 332.222C690.536 336.245 691.293 340.696 690.847 345.11C690.183 351.94 687.681 358.467 683.603 364.003L673.955 358.432L671.915 357.22C661.871 351.437 651.584 345.412 644.522 336.329C643.738 335.36 643.006 334.349 642.331 333.301C644.157 329.229 646.347 325.327 648.875 321.645C653.308 320.036 657.952 319.078 662.663 318.798C668.715 318.126 674.827 319.332 680.164 322.25V322.25Z" fill="white"/>
<path d="M673.954 358.431L683.603 363.972C682.45 365.638 681.2 367.235 679.859 368.756C673.617 375.936 665.88 381.681 657.184 385.59C654.573 386.945 651.667 387.642 648.723 387.619C646.546 387.348 644.47 386.545 642.68 385.282C640.89 384.02 639.443 382.336 638.466 380.382C636.519 376.484 635.479 372.2 635.422 367.847C635.422 367.03 635.422 366.243 635.422 365.425C636.415 365.804 637.431 366.118 638.466 366.364C648.205 368.453 658.31 365.425 667.837 362.458L672.554 359.733L673.802 358.492L673.954 358.431Z" fill="white"/>
<path d="M671.915 357.25L673.955 358.461L672.707 359.703L667.989 362.428C658.462 365.455 648.358 368.483 638.618 366.333C637.584 366.088 636.567 365.774 635.574 365.395C635.466 354.281 637.792 343.278 642.392 333.149C643.067 334.197 643.799 335.208 644.583 336.177C651.584 345.442 661.871 351.467 671.915 357.25Z" fill="white"/>
<path d="M670.211 303.508V303.75C664.473 305.193 659.351 308.43 655.601 312.985C653.12 315.663 650.851 318.527 648.814 321.553C645.416 322.736 642.152 324.268 639.074 326.125C638.093 322.849 637.795 319.409 638.198 316.014C638.601 312.62 639.697 309.343 641.418 306.384C646.105 298.028 656.636 291.246 664.397 296.908C666.256 297.846 667.824 299.269 668.932 301.025L670.211 303.508Z" fill="white"/>
<path d="M639.105 326.125C642.183 324.268 645.447 322.736 648.844 321.553C646.316 325.236 644.126 329.137 642.301 333.21C640.938 330.993 639.864 328.612 639.105 326.125V326.125Z" fill="white"/>
<path d="M639.105 326.125C639.816 328.604 640.839 330.985 642.148 333.21C637.548 343.338 635.222 354.342 635.331 365.455C626.869 362.428 619.93 354.01 621.817 345.381C622.815 341.709 624.743 338.352 627.417 335.632C630.819 331.906 634.758 328.702 639.105 326.125V326.125Z" fill="white"/>
<path d="M673.62 358.219C669.602 362.246 663.484 363.548 658.158 364.85C649.027 367.091 638.953 367.878 630.765 362.61C622.578 357.341 619.412 347.32 625.469 338.812C630.806 331.716 638.011 326.225 646.288 322.946C654.625 319.298 663.877 318.243 672.828 319.919C677.16 320.93 681.093 323.195 684.132 326.429C687.171 329.662 689.179 333.718 689.903 338.085C693.403 356.251 678.063 373.207 663.484 381.836C660.029 384.101 656.24 385.817 652.253 386.922C649.575 387.439 646.8 387.063 644.357 385.854C641.914 384.644 639.94 382.668 638.74 380.231C634.296 372.359 635.422 360.793 636.883 352.194C639.561 336.359 647.536 319.404 660.289 309.109C663.796 305.96 668.318 304.156 673.041 304.023C675.36 304.241 677.608 304.928 679.65 306.042C681.691 307.156 683.482 308.674 684.912 310.502C690.667 317.741 694.891 326.062 697.33 334.966C699.826 342.778 702.443 352.164 701.469 360.399C700.891 365.123 698.425 369.906 692.612 368.332C687.981 366.519 683.594 364.139 679.555 361.247C663.911 352.164 639.805 341.294 638.466 320.554C638.156 315.506 639.4 310.484 642.032 306.157C644.664 301.83 648.558 298.403 653.197 296.332C660.319 293.638 666.619 297.604 669.724 303.872C669.967 304.356 670.728 303.871 670.485 303.417C669.444 300.895 667.704 298.719 665.468 297.143C663.231 295.567 660.591 294.656 657.854 294.516C649.758 294.516 642.879 301.722 639.805 308.595C630.674 328.971 650.062 344.928 665.676 354.283C670.728 357.311 675.872 360.339 680.894 363.185C684.82 365.456 689.447 369.24 694.134 369.604C701.682 370.088 702.747 360.793 702.26 355.282C701.277 344.482 698.457 333.927 693.921 324.067C690.39 316.316 685.368 306.324 676.389 303.811C667.411 301.298 659.041 308.231 653.501 314.65C647.038 322.17 642.088 330.856 638.922 340.235C635.565 349.957 634.27 360.266 635.118 370.512C635.848 378.112 639.622 387.467 648.54 388.103C653.136 388.466 657.671 385.923 661.689 383.834C666.264 381.315 670.525 378.266 674.381 374.751C682.227 368.196 687.841 359.386 690.451 349.53C691.448 345.412 691.466 341.12 690.505 336.995C689.543 332.869 687.628 329.023 684.912 325.762C678.398 318.405 668.019 317.315 658.767 318.556C649.222 319.919 640.228 323.833 632.744 329.88C626.139 335.269 618.865 343.323 621.695 352.497C623.11 356.297 625.526 359.649 628.691 362.201C631.856 364.752 635.653 366.41 639.683 367C644.916 367.739 650.242 367.503 655.388 366.303C660.026 365.551 664.548 364.207 668.841 362.307C670.765 361.411 672.532 360.215 674.076 358.764C674.472 358.371 673.833 357.735 673.437 358.159L673.62 358.219Z" fill="white"/>
<path d="M732.362 247.495C802.092 288.006 807.479 390.252 741.676 437.182C741.103 437.64 740.37 437.852 739.639 437.773C738.909 437.694 738.24 437.328 737.78 436.758C737.32 436.188 737.106 435.46 737.186 434.733C737.266 434.006 737.633 433.341 738.206 432.883C751.19 421.137 761.487 406.754 768.399 390.707C789.704 342.081 772.569 282.949 729.318 252.066C728.786 251.635 728.433 251.021 728.33 250.345C728.227 249.669 728.38 248.979 728.759 248.409C729.139 247.84 729.717 247.43 730.383 247.261C731.049 247.092 731.754 247.175 732.362 247.495V247.495Z" fill="white"/>
</g>
<g clip-path="url(#clip1_313_540)">
<path d="M651.224 427.078C698.069 427.078 736.045 389.102 736.045 342.257C736.045 295.411 698.069 257.436 651.224 257.436C604.378 257.436 566.403 295.411 566.403 342.257C566.403 389.102 604.378 427.078 651.224 427.078Z" fill="white"/>
<path d="M671.417 412.488C638.958 412.488 593.092 424.795 569.724 378.327C557.583 354.273 556.835 325.093 569.495 301.33C592.325 258.432 639.851 267.522 667.557 265.862H668.47C679.117 265.364 682.251 250.089 672.621 244.921C657.117 236.467 639.516 232.628 621.899 233.859C573.356 237.097 533.861 278.957 530.291 331.029C525.995 392.979 571.55 444.656 628.374 444.656C647.052 444.656 659.276 445.403 674.157 435.69C681.711 430.751 683.164 412.031 674.323 412.425C673.368 412.467 672.414 412.488 671.417 412.488Z" fill="#1E5B9D"/>
<path d="M689.411 406.012C658.446 406.012 614.697 416.97 592.345 375.649C580.744 354.252 580.038 328.31 592.117 307.162C613.929 269.037 659.214 277.11 685.654 275.616H686.505C688.716 275.58 690.85 274.8 692.563 273.403C694.276 272.006 695.469 270.072 695.948 267.914C696.428 265.756 696.166 263.499 695.206 261.508C694.246 259.516 692.643 257.906 690.656 256.938C676.073 249.577 659.821 246.151 643.507 246.999C627.194 247.847 611.384 252.939 597.643 261.772C583.901 270.605 572.704 282.872 565.159 297.361C557.613 311.849 553.981 328.056 554.621 344.379C555.262 360.702 560.153 376.575 568.811 390.428C577.468 404.28 589.592 415.633 603.984 423.362C618.375 431.091 634.535 434.929 650.865 434.495C667.194 434.062 683.128 429.374 697.09 420.893C704.291 416.493 700.659 405.514 692.233 405.846C691.265 405.957 690.324 406.012 689.411 406.012Z" fill="#F7E7DE"/>
<path d="M645.526 310.757L626.052 330.231C620.557 335.726 620.557 344.635 626.052 350.13L645.526 369.604C651.021 375.099 659.93 375.099 665.425 369.604L684.899 350.13C690.394 344.635 690.394 335.726 684.899 330.231L665.425 310.757C659.93 305.262 651.021 305.262 645.526 310.757Z" fill="#D94D6D"/>
<path d="M683.434 348.628C683.745 352.218 682.936 356.929 679.283 357.614C677.367 357.747 675.466 357.188 673.928 356.037L670.795 354.211C673.575 350.416 675.281 345.942 675.734 341.26C676.038 338.235 675.522 335.184 674.241 332.427C672.959 329.67 670.958 327.308 668.449 325.591C664.812 323.565 660.635 322.716 656.495 323.163C653.283 323.354 650.117 324.011 647.094 325.114C648.483 323.039 650.03 321.076 651.722 319.24C654.279 316.118 657.771 313.899 661.684 312.91C662.606 312.786 663.542 312.786 664.465 312.91C669.466 313.533 672.995 318.037 675.423 322.436C679.901 330.508 682.63 339.432 683.434 348.628V348.628Z" fill="white"/>
<path d="M668.512 325.591C671.021 327.309 673.021 329.67 674.303 332.427C675.585 335.184 676.101 338.235 675.796 341.261C675.344 345.943 673.637 350.417 670.857 354.211L664.278 350.392L662.888 349.562C656.039 345.598 649.024 341.468 644.209 335.242C643.674 334.578 643.175 333.885 642.715 333.167C643.96 330.375 645.453 327.701 647.177 325.176C650.2 324.074 653.367 323.417 656.578 323.226C660.705 322.765 664.873 323.591 668.512 325.591V325.591Z" fill="#F7E7DE"/>
<path d="M664.278 350.392L670.857 354.19C670.071 355.332 669.218 356.427 668.304 357.469C664.048 362.391 658.772 366.329 652.843 369.009C651.062 369.937 649.081 370.415 647.073 370.399C645.589 370.213 644.173 369.663 642.953 368.798C641.733 367.932 640.745 366.778 640.079 365.439C638.752 362.767 638.043 359.83 638.004 356.847C638.004 356.286 638.004 355.747 638.004 355.186C638.681 355.446 639.374 355.661 640.079 355.83C646.72 357.262 653.611 355.186 660.106 353.153L663.323 351.285L664.174 350.434L664.278 350.392Z" fill="#1E5B9D"/>
<path d="M662.888 349.583L664.278 350.413L663.427 351.264L660.21 353.131C653.714 355.207 646.824 357.282 640.183 355.809C639.478 355.64 638.784 355.425 638.107 355.165C638.033 347.548 639.62 340.005 642.756 333.062C643.217 333.781 643.715 334.474 644.251 335.138C649.024 341.489 656.039 345.619 662.888 349.583Z" fill="white"/>
<path d="M661.725 312.745V312.911C657.813 313.9 654.321 316.119 651.764 319.241C650.072 321.076 648.524 323.04 647.135 325.114C644.819 325.925 642.593 326.975 640.494 328.248C639.825 326.003 639.622 323.644 639.897 321.317C640.171 318.991 640.919 316.744 642.092 314.717C645.288 308.988 652.469 304.34 657.761 308.221C659.029 308.864 660.098 309.839 660.854 311.043L661.725 312.745Z" fill="#1E5B9D"/>
<path d="M640.515 328.248C642.614 326.975 644.839 325.925 647.156 325.114C645.432 327.639 643.939 330.313 642.694 333.104C641.765 331.584 641.033 329.953 640.515 328.248V328.248Z" fill="#1E5B9D"/>
<path d="M640.515 328.248C641 329.947 641.697 331.579 642.59 333.104C639.454 340.047 637.867 347.589 637.941 355.207C632.172 353.131 627.44 347.362 628.727 341.447C629.408 338.93 630.722 336.629 632.545 334.764C634.865 332.21 637.551 330.014 640.515 328.248V328.248Z" fill="#F7E7DE"/>
<path d="M664.05 350.247C661.31 353.007 657.139 353.9 653.507 354.792C647.281 356.328 640.411 356.867 634.828 353.256C629.246 349.645 627.087 342.775 631.217 336.944C634.856 332.08 639.769 328.316 645.413 326.069C651.098 323.568 657.406 322.844 663.51 323.993C666.464 324.687 669.146 326.239 671.218 328.456C673.29 330.672 674.659 333.452 675.153 336.446C677.54 348.898 667.08 360.52 657.139 366.435C654.783 367.988 652.199 369.164 649.481 369.921C647.654 370.275 645.762 370.018 644.096 369.189C642.431 368.36 641.085 367.006 640.266 365.335C637.236 359.939 638.004 352.011 639 346.117C640.826 335.263 646.264 323.64 654.96 316.584C657.351 314.425 660.434 313.189 663.655 313.097C665.236 313.247 666.77 313.718 668.161 314.482C669.553 315.245 670.774 316.286 671.749 317.539C675.674 322.5 678.554 328.204 680.217 334.308C681.919 339.662 683.704 346.096 683.039 351.741C682.645 354.979 680.964 358.258 677 357.179C673.842 355.936 670.851 354.305 668.097 352.322C657.429 346.096 640.992 338.645 640.079 324.429C639.868 320.969 640.716 317.526 642.511 314.56C644.305 311.594 646.961 309.245 650.124 307.826C654.98 305.979 659.276 308.698 661.393 312.994C661.559 313.326 662.078 312.994 661.912 312.682C661.202 310.954 660.016 309.462 658.491 308.382C656.966 307.301 655.166 306.677 653.299 306.581C647.779 306.581 643.088 311.52 640.992 316.231C634.766 330.199 647.986 341.136 658.633 347.549C662.078 349.624 665.586 351.7 669.01 353.65C671.687 355.207 674.842 357.801 678.038 358.05C683.185 358.382 683.911 352.011 683.579 348.234C682.909 340.831 680.986 333.596 677.893 326.837C675.485 321.524 672.061 314.675 665.938 312.952C659.816 311.23 654.109 315.982 650.331 320.382C645.924 325.537 642.549 331.49 640.39 337.919C638.101 344.584 637.218 351.65 637.796 358.673C638.294 363.882 640.868 370.295 646.949 370.731C650.082 370.98 653.175 369.237 655.914 367.805C659.034 366.078 661.939 363.988 664.569 361.578C669.919 357.086 673.747 351.046 675.527 344.29C676.206 341.468 676.219 338.526 675.563 335.698C674.908 332.87 673.602 330.234 671.749 327.999C667.308 322.956 660.231 322.208 653.922 323.059C647.414 323.994 641.281 326.676 636.177 330.821C631.674 334.515 626.714 340.036 628.644 346.324C629.608 348.929 631.256 351.227 633.414 352.976C635.572 354.725 638.161 355.861 640.909 356.265C644.478 356.772 648.109 356.61 651.618 355.788C654.781 355.272 657.864 354.351 660.791 353.049C662.103 352.435 663.308 351.615 664.361 350.62C664.631 350.351 664.195 349.915 663.925 350.205L664.05 350.247Z" fill="white"/>
<path d="M704.105 274.35C751.652 302.119 755.325 372.205 710.455 404.373C710.064 404.687 709.565 404.832 709.067 404.778C708.569 404.723 708.112 404.473 707.799 404.082C707.485 403.692 707.339 403.192 707.394 402.694C707.448 402.196 707.698 401.74 708.089 401.426C716.943 393.375 723.964 383.516 728.677 372.516C743.205 339.185 731.52 298.653 702.029 277.484C701.666 277.188 701.426 276.768 701.355 276.304C701.285 275.841 701.389 275.368 701.648 274.977C701.906 274.587 702.301 274.306 702.755 274.19C703.209 274.074 703.69 274.131 704.105 274.35V274.35Z" fill="#D94D6D"/>
</g>
<path d="M-256.882 427.204L-265.582 431.835C-266.954 429.028 -268.654 427.625 -270.681 427.625C-271.648 427.625 -272.474 427.952 -273.16 428.607C-273.846 429.231 -274.189 430.042 -274.189 431.04C-274.189 432.786 -272.162 434.517 -268.108 436.232C-262.526 438.633 -258.768 440.847 -256.835 442.874C-254.901 444.901 -253.935 447.63 -253.935 451.06C-253.935 455.457 -255.556 459.137 -258.8 462.1C-261.949 464.906 -265.754 466.31 -270.213 466.31C-277.853 466.31 -283.264 462.583 -286.445 455.13L-277.464 450.967C-276.216 453.15 -275.265 454.537 -274.61 455.13C-273.332 456.315 -271.804 456.908 -270.026 456.908C-266.471 456.908 -264.693 455.286 -264.693 452.043C-264.693 450.172 -266.066 448.425 -268.81 446.804C-269.87 446.273 -270.93 445.759 -271.991 445.26C-273.051 444.761 -274.127 444.246 -275.218 443.716C-278.274 442.219 -280.426 440.723 -281.674 439.226C-283.264 437.323 -284.059 434.875 -284.059 431.882C-284.059 427.921 -282.703 424.647 -279.99 422.058C-277.214 419.47 -273.846 418.176 -269.886 418.176C-264.054 418.176 -259.719 421.185 -256.882 427.204ZM-224.334 419.439V445.587C-224.334 453.134 -221.356 456.908 -215.399 456.908C-209.443 456.908 -206.465 453.134 -206.465 445.587V419.439H-195.94V445.821C-195.94 449.47 -196.392 452.62 -197.297 455.27C-198.17 457.64 -199.682 459.777 -201.834 461.679C-205.389 464.766 -209.911 466.31 -215.399 466.31C-220.857 466.31 -225.363 464.766 -228.918 461.679C-231.101 459.777 -232.645 457.64 -233.549 455.27C-234.422 453.15 -234.859 450 -234.859 445.821V419.439H-224.334ZM-129.011 463.924C-129.011 466.076 -129.089 467.963 -129.245 469.584C-129.37 471.237 -129.557 472.687 -129.806 473.934C-130.555 477.365 -132.02 480.312 -134.203 482.775C-138.32 487.515 -143.98 489.886 -151.184 489.886C-157.265 489.886 -162.27 488.248 -166.199 484.974C-170.253 481.606 -172.592 476.944 -173.216 470.988H-162.644C-162.239 473.233 -161.568 474.964 -160.633 476.18C-158.45 479.018 -155.269 480.437 -151.09 480.437C-143.387 480.437 -139.536 475.712 -139.536 466.263V459.901C-143.715 464.174 -148.533 466.31 -153.99 466.31C-160.196 466.31 -165.279 464.064 -169.24 459.574C-173.231 455.021 -175.227 449.33 -175.227 442.5C-175.227 435.858 -173.372 430.213 -169.661 425.567C-165.669 420.639 -160.399 418.176 -153.85 418.176C-148.112 418.176 -143.341 420.312 -139.536 424.584V419.439H-129.011L-129.011 463.924ZM-139.115 442.313C-139.115 437.885 -140.3 434.345 -142.67 431.695C-145.071 428.981 -148.143 427.625 -151.885 427.625C-155.877 427.625 -159.027 429.106 -161.334 432.069C-163.424 434.719 -164.468 438.15 -164.468 442.36C-164.468 446.507 -163.424 449.907 -161.334 452.557C-159.058 455.457 -155.908 456.908 -151.885 456.908C-147.862 456.908 -144.681 455.442 -142.343 452.51C-140.191 449.86 -139.115 446.461 -139.115 442.313ZM-72.5602 419.439H-61.9885L-61.9885 465L-72.5602 465V460.229C-76.8949 464.283 -81.557 466.31 -86.5466 466.31C-92.846 466.31 -98.0538 464.033 -102.17 459.48C-106.255 454.834 -108.298 449.033 -108.298 442.079C-108.298 435.25 -106.255 429.558 -102.17 425.005C-98.085 420.452 -92.9707 418.176 -86.8273 418.176C-81.5259 418.176 -76.7702 420.359 -72.5602 424.725V419.439ZM-97.5393 442.079C-97.5393 446.445 -96.3699 450 -94.031 452.744C-91.6298 455.52 -88.6048 456.908 -84.9562 456.908C-81.0581 456.908 -77.9084 455.567 -75.5072 452.885C-73.1059 450.109 -71.9053 446.585 -71.9053 442.313C-71.9053 438.041 -73.1059 434.517 -75.5072 431.741C-77.9084 429.028 -81.0269 427.672 -84.8626 427.672C-88.4801 427.672 -91.505 429.044 -93.9374 431.788C-96.3387 434.564 -97.5393 437.994 -97.5393 442.079ZM-32.5749 419.439L-20.6467 445.447L-7.78292 415.276L5.1744 445.447L16.9623 419.439H28.7502L4.89374 468.415L-7.78292 439.085L-20.5999 468.415L-44.4096 419.439H-32.5749ZM77.4828 419.439H88.0545V465H77.4828V460.229C73.1481 464.283 68.486 466.31 63.4964 466.31C57.197 466.31 51.9892 464.033 47.8728 459.48C43.7875 454.834 41.7449 449.033 41.7449 442.079C41.7449 435.25 43.7875 429.558 47.8728 425.005C51.958 420.452 57.0723 418.176 63.2157 418.176C68.5172 418.176 73.2729 420.359 77.4828 424.725V419.439ZM52.5037 442.079C52.5037 446.445 53.6732 450 56.012 452.744C58.4133 455.52 61.4382 456.908 65.0868 456.908C68.9849 456.908 72.1346 455.567 74.5358 452.885C76.9371 450.109 78.1377 446.585 78.1377 442.313C78.1377 438.041 76.9371 434.517 74.5358 431.741C72.1346 429.028 69.0161 427.672 65.1804 427.672C61.5629 427.672 58.538 429.044 56.1056 431.788C53.7043 434.564 52.5037 437.994 52.5037 442.079ZM110.919 419.439H121.444V423.508C123.378 421.481 125.093 420.094 126.59 419.345C128.118 418.566 129.926 418.176 132.016 418.176C134.791 418.176 137.692 419.08 140.716 420.889L135.898 430.525C133.903 429.091 131.953 428.373 130.051 428.373C124.313 428.373 121.444 432.708 121.444 441.377V465H110.919V419.439ZM189.262 419.439H199.834V465L189.262 465V460.229C184.927 464.283 180.265 466.31 175.276 466.31C168.976 466.31 163.768 464.033 159.652 459.48C155.567 454.834 153.524 449.033 153.524 442.079C153.524 435.25 155.567 429.558 159.652 425.005C163.737 420.452 168.851 418.176 174.995 418.176C180.296 418.176 185.052 420.359 189.262 424.725V419.439ZM164.283 442.079C164.283 446.445 165.452 450 167.791 452.744C170.192 455.52 173.217 456.908 176.866 456.908C180.764 456.908 183.914 455.567 186.315 452.885C188.716 450.109 189.917 446.585 189.917 442.313C189.917 438.041 188.716 434.517 186.315 431.741C183.914 429.028 180.795 427.672 176.96 427.672C173.342 427.672 170.317 429.044 167.885 431.788C165.483 434.564 164.283 437.994 164.283 442.079ZM261.842 419.439H272.367V423.649C274.394 421.528 276.124 420.094 277.559 419.345C279.087 418.566 281.005 418.176 283.312 418.176C288.458 418.176 292.528 420.421 295.521 424.912C298.827 420.421 303.302 418.176 308.946 418.176C319.206 418.176 324.336 424.397 324.336 436.84V465H313.765V439.693C313.765 435.328 313.234 432.24 312.174 430.432C311.083 428.592 309.289 427.672 306.795 427.672C303.894 427.672 301.774 428.763 300.433 430.946C299.123 433.129 298.468 436.637 298.468 441.471V465H287.897V439.834C287.897 431.726 285.558 427.672 280.88 427.672C277.917 427.672 275.75 428.779 274.378 430.993C273.037 433.207 272.367 436.7 272.367 441.471V465H261.842V419.439ZM380.787 419.439H391.359V465H380.787V460.229C376.452 464.283 371.79 466.31 366.801 466.31C360.501 466.31 355.293 464.033 351.177 459.48C347.092 454.834 345.049 449.033 345.049 442.079C345.049 435.25 347.092 429.558 351.177 425.005C355.262 420.452 360.377 418.176 366.52 418.176C371.821 418.176 376.577 420.359 380.787 424.725V419.439ZM355.808 442.079C355.808 446.445 356.977 450 359.316 452.744C361.718 455.52 364.742 456.908 368.391 456.908C372.289 456.908 375.439 455.567 377.84 452.885C380.241 450.109 381.442 446.585 381.442 442.313C381.442 438.041 380.241 434.517 377.84 431.741C375.439 429.028 372.32 427.672 368.485 427.672C364.867 427.672 361.842 429.044 359.41 431.788C357.009 434.564 355.808 437.994 355.808 442.079ZM424.748 419.439V465H414.224V419.439H424.748ZM412.633 400.494C412.633 398.654 413.304 397.064 414.645 395.723C415.986 394.382 417.592 393.711 419.463 393.711C421.365 393.711 422.987 394.382 424.327 395.723C425.668 397.033 426.339 398.639 426.339 400.541C426.339 402.443 425.668 404.065 424.327 405.406C423.018 406.747 421.412 407.417 419.509 407.417C417.607 407.417 415.986 406.747 414.645 405.406C413.304 404.065 412.633 402.428 412.633 400.494Z" fill="#F7E7DE"/>
<path d="M869.167 485.792H858.642V415.439H869.167V420.397C873.315 416.25 878.024 414.176 883.294 414.176C889.562 414.176 894.723 416.484 898.777 421.099C902.894 425.683 904.952 431.468 904.952 438.453C904.952 445.283 902.909 450.974 898.824 455.527C894.77 460.049 889.656 462.31 883.481 462.31C878.148 462.31 873.377 460.174 869.167 455.901V485.792ZM894.193 438.5C894.193 434.134 893.008 430.579 890.638 427.835C888.237 425.06 885.212 423.672 881.563 423.672C877.696 423.672 874.562 425.013 872.161 427.695C869.76 430.377 868.559 433.9 868.559 438.266C868.559 442.539 869.76 446.062 872.161 448.838C874.531 451.551 877.649 452.908 881.516 452.908C885.165 452.908 888.174 451.535 890.544 448.791C892.977 446.047 894.193 442.617 894.193 438.5ZM923.513 437.892C923.513 431.312 925.867 425.714 930.576 421.099C935.285 416.484 941.023 414.176 947.79 414.176C954.589 414.176 960.358 416.499 965.098 421.146C969.776 425.792 972.114 431.499 972.114 438.266C972.114 445.096 969.76 450.818 965.051 455.434C960.311 460.018 954.495 462.31 947.603 462.31C940.774 462.31 935.051 459.971 930.436 455.293C925.821 450.678 923.513 444.877 923.513 437.892ZM934.272 438.079C934.272 442.632 935.488 446.234 937.92 448.885C940.415 451.567 943.705 452.908 947.79 452.908C951.907 452.908 955.197 451.582 957.66 448.931C960.124 446.281 961.356 442.741 961.356 438.313C961.356 433.885 960.124 430.345 957.66 427.695C955.165 425.013 951.875 423.672 947.79 423.672C943.767 423.672 940.509 425.013 938.014 427.695C935.519 430.377 934.272 433.838 934.272 438.079ZM992.874 415.439H1003.4V419.509C1005.33 417.482 1007.05 416.094 1008.54 415.345C1010.07 414.566 1011.88 414.176 1013.97 414.176C1016.75 414.176 1019.65 415.08 1022.67 416.889L1017.85 426.525C1015.86 425.091 1013.91 424.373 1012.01 424.373C1006.27 424.373 1003.4 428.708 1003.4 437.378V461H992.874V415.439ZM1052.6 425.262V461H1042.07V425.262H1037.58V415.439H1042.07V398.74L1052.6 398.74V415.439H1060.79V425.262H1052.6ZM1088.42 425.262V461H1077.85V425.262H1074.11V415.439H1077.85V397.851C1077.85 392.113 1078.85 388.059 1080.84 385.689C1083.59 382.383 1087.58 380.73 1092.82 380.73C1094.69 380.73 1097.04 381.276 1099.88 382.368V393.126L1098.81 392.565C1096.53 391.411 1094.66 390.834 1093.19 390.834C1091.32 390.834 1090.06 391.505 1089.4 392.846C1088.75 394.155 1088.42 396.681 1088.42 400.424V415.439H1099.88V425.262H1088.42ZM1114.61 437.892C1114.61 431.312 1116.96 425.714 1121.67 421.099C1126.38 416.484 1132.12 414.176 1138.88 414.176C1145.68 414.176 1151.45 416.499 1156.19 421.146C1160.87 425.792 1163.21 431.499 1163.21 438.266C1163.21 445.096 1160.85 450.818 1156.15 455.434C1151.41 460.018 1145.59 462.31 1138.7 462.31C1131.87 462.31 1126.15 459.971 1121.53 455.293C1116.91 450.678 1114.61 444.877 1114.61 437.892ZM1125.37 438.079C1125.37 442.632 1126.58 446.234 1129.01 448.885C1131.51 451.567 1134.8 452.908 1138.88 452.908C1143 452.908 1146.29 451.582 1148.75 448.931C1151.22 446.281 1152.45 442.741 1152.45 438.313C1152.45 433.885 1151.22 430.345 1148.75 427.695C1146.26 425.013 1142.97 423.672 1138.88 423.672C1134.86 423.672 1131.6 425.013 1129.11 427.695C1126.61 430.377 1125.37 433.838 1125.37 438.079ZM1194.49 381.993V461H1183.97V381.993H1194.49ZM1227.93 415.439V461H1217.4V415.439H1227.93ZM1215.81 396.494C1215.81 394.654 1216.48 393.064 1217.83 391.723C1219.17 390.382 1220.77 389.712 1222.64 389.712C1224.55 389.712 1226.17 390.382 1227.51 391.723C1228.85 393.033 1229.52 394.639 1229.52 396.541C1229.52 398.443 1228.85 400.065 1227.51 401.406C1226.2 402.747 1224.59 403.417 1222.69 403.417C1220.79 403.417 1219.17 402.747 1217.83 401.406C1216.48 400.065 1215.81 398.428 1215.81 396.494ZM1248.69 437.892C1248.69 431.312 1251.04 425.714 1255.75 421.099C1260.46 416.484 1266.2 414.176 1272.97 414.176C1279.76 414.176 1285.53 416.499 1290.27 421.146C1294.95 425.792 1297.29 431.499 1297.29 438.266C1297.29 445.096 1294.94 450.818 1290.23 455.434C1285.49 460.018 1279.67 462.31 1272.78 462.31C1265.95 462.31 1260.23 459.971 1255.61 455.293C1251 450.678 1248.69 444.877 1248.69 437.892ZM1259.45 438.079C1259.45 442.632 1260.66 446.234 1263.1 448.885C1265.59 451.567 1268.88 452.908 1272.97 452.908C1277.08 452.908 1280.37 451.582 1282.84 448.931C1285.3 446.281 1286.53 442.741 1286.53 438.313C1286.53 433.885 1285.3 430.345 1282.84 427.695C1280.34 425.013 1277.05 423.672 1272.97 423.672C1268.94 423.672 1265.68 425.013 1263.19 427.695C1260.7 430.377 1259.45 433.838 1259.45 438.079Z" fill="#F7E7DE"/>
<defs>
<clipPath id="clip0_313_540">
<rect width="311" height="307.951" fill="white" transform="translate(477 188)"/>
</clipPath>
<clipPath id="clip1_313_540">
<rect width="212.063" height="211.087" fill="white" transform="translate(529.98 233.569)"/>
</clipPath>
</defs>
</svg>
