<svg width="1280" height="909" viewBox="0 0 1280 909" fill="none" xmlns="http://www.w3.org/2000/svg">
<path d="M582.845 191.879C582.969 191.217 583.011 190.554 583.011 189.933C583.011 184.966 579.782 181.034 574.774 179.254C573.035 178.634 571.214 178.344 569.269 178.344C567.406 178.344 565.585 178.634 563.846 179.213C559.707 180.538 556.603 183.062 554.533 186.746C553.167 189.188 552.505 191.465 552.505 193.576C552.505 194.859 552.753 196.018 553.292 197.094C553.747 198.046 554.368 198.791 555.154 199.329C556.189 200.074 557.265 200.447 558.383 200.447C560.08 200.447 561.653 199.702 563.143 198.17C563.722 197.591 564.384 196.722 565.171 195.563C567.861 191.465 569.807 186.746 571.007 181.407C573.532 181.697 575.643 182.566 577.299 183.973C579.12 185.546 580.03 187.574 580.03 190.016C580.03 191.548 579.699 193.038 578.996 194.487C578.209 196.059 577.009 197.425 575.353 198.584C573.739 199.702 572.001 200.447 570.221 200.778L570.759 203.675C571.959 203.427 573.325 202.972 574.774 202.268C579.368 200.074 582.059 196.598 582.845 191.879ZM567.986 181.365C566.868 186.25 565.047 190.513 562.563 194.155C561.073 196.391 559.666 197.508 558.383 197.508C557.845 197.508 557.348 197.343 556.893 196.97C555.941 196.266 555.444 195.149 555.444 193.535C555.444 191.92 555.982 190.14 557.1 188.236C559.459 184.097 563.06 181.821 567.986 181.365ZM622.747 187.16C622.747 182.773 622.043 178.882 620.594 175.529L617.655 176.73C618.939 179.793 619.601 183.311 619.601 187.243C619.601 193.99 616.952 199.412 611.654 203.593L613.64 206.035C619.477 201.358 622.747 194.652 622.747 187.16ZM609.584 192.044C609.377 192.086 609.129 192.086 608.922 192.086C607.225 192.086 606.397 190.472 606.397 187.202C606.397 184.056 606.935 180.662 608.011 177.019L605.155 176.15C603.955 180.082 603.375 183.642 603.375 186.912C603.375 192.376 605.197 195.107 608.88 195.107C609.253 195.107 609.667 195.066 610.039 195.025L609.584 192.044ZM670.554 201.358C667.574 199.329 664.635 197.674 661.779 196.473C661.82 194.818 661.82 192.748 661.737 190.223L670.264 189.188L669.933 186.374L661.655 187.367L661.406 181.407C664.014 181.283 666.291 181.158 668.319 181.117L668.277 178.302C666.332 178.344 664.014 178.427 661.282 178.551C661.241 176.771 661.158 175.239 661.117 173.998L658.178 174.08C658.219 175.322 658.302 176.854 658.343 178.716C654.866 178.923 651.803 179.13 649.113 179.379L649.361 182.193C651.969 181.945 655.032 181.738 658.468 181.531L658.716 187.657C657.35 187.781 656.191 187.822 655.156 187.822C652.962 187.822 651.721 187.574 651.431 187.119C651.348 186.995 651.348 186.746 651.431 186.457L648.74 185.629C648.616 186.084 648.534 186.498 648.534 186.87C648.534 187.657 648.782 188.361 649.237 188.94C650.189 190.099 652.259 190.679 655.363 190.679C656.232 190.679 657.35 190.637 658.799 190.513C658.84 192.541 658.881 194.238 658.881 195.604C657.681 195.356 656.481 195.232 655.363 195.232C653.335 195.232 651.679 195.646 650.438 196.473C649.03 197.425 648.327 198.75 648.285 200.488C648.285 201.978 648.947 203.179 650.313 204.131C651.596 205 653.087 205.414 654.825 205.414C656.481 205.414 657.888 205 659.088 204.214C660.454 203.344 661.241 202.103 661.53 200.488C661.572 200.116 661.613 199.826 661.613 199.619C664.055 200.737 666.456 202.144 668.898 203.8L670.554 201.358ZM658.633 200.033C658.343 201.647 657.102 202.475 654.908 202.475C652.962 202.475 651.224 201.647 651.224 200.53C651.224 199.826 651.514 199.288 652.052 198.915C652.755 198.419 653.873 198.17 655.322 198.17C656.481 198.17 657.64 198.295 658.757 198.584L658.633 200.033ZM715.381 183.145C713.104 184.139 710.952 184.966 708.924 185.629C708.22 184.263 707.434 182.856 706.565 181.407C708.593 180.745 710.662 179.917 712.732 178.965L711.573 176.481C709.379 177.516 707.227 178.344 705.116 178.965C703.915 177.019 702.798 175.281 701.804 173.832L699.487 175.446C700.356 176.688 701.266 178.137 702.301 179.751C700.439 180.206 698.741 180.455 697.21 180.579C696.258 180.662 695.43 180.662 694.727 180.538L694.313 183.269C695.14 183.394 696.175 183.435 697.376 183.352C699.321 183.228 701.473 182.856 703.791 182.235C704.66 183.683 705.488 185.132 706.192 186.498C703.874 187.119 701.887 187.491 700.19 187.616C698.783 187.74 697.541 187.657 696.506 187.409L695.844 190.058C697.127 190.389 698.659 190.513 700.356 190.389C702.384 190.223 704.785 189.768 707.475 188.981C709.089 192.334 710 194.942 710.166 196.804L712.98 196.556C712.773 194.487 711.863 191.672 710.166 188.112C712.111 187.45 714.222 186.622 716.457 185.67L715.381 183.145ZM709.793 202.268C708.179 202.517 706.647 202.641 705.199 202.641C700.48 202.641 698.038 201.606 697.872 199.495C697.748 197.467 699.28 196.308 702.55 196.059C703.129 196.018 703.708 196.018 704.288 196.059L704.412 193.328C701.929 193.203 699.818 193.576 698.079 194.445C695.885 195.563 694.892 197.26 695.058 199.619C695.347 203.51 698.7 205.455 705.199 205.455C706.896 205.455 708.593 205.331 710.248 205.041L709.793 202.268ZM745.928 200.985C745.928 198.046 743.444 195.563 740.506 195.563C737.525 195.563 735.083 198.005 735.083 200.985C735.083 204.048 737.443 206.407 740.506 206.407C743.486 206.407 745.928 203.965 745.928 200.985ZM743.858 200.985C743.858 202.806 742.327 204.338 740.506 204.338C738.684 204.338 737.153 202.806 737.153 200.985C737.153 199.164 738.684 197.632 740.506 197.632C742.327 197.632 743.858 199.164 743.858 200.985Z" fill="#323333"/>
<path d="M582.845 191.879L582.354 191.787L582.352 191.797L582.845 191.879ZM574.774 179.254L574.606 179.725L574.606 179.726L574.774 179.254ZM563.846 179.213L563.999 179.689L564.004 179.687L563.846 179.213ZM554.533 186.746L554.097 186.501L554.097 186.502L554.533 186.746ZM553.292 197.094L553.743 196.878L553.739 196.871L553.292 197.094ZM555.154 199.329L555.446 198.923L555.436 198.917L555.154 199.329ZM563.143 198.17L562.789 197.817L562.784 197.822L563.143 198.17ZM565.171 195.563L565.585 195.844L565.589 195.837L565.171 195.563ZM571.007 181.407L571.064 180.91L570.618 180.859L570.519 181.297L571.007 181.407ZM577.299 183.973L577.625 183.595L577.622 183.592L577.299 183.973ZM578.996 194.487L579.443 194.71L579.445 194.705L578.996 194.487ZM575.353 198.584L575.638 198.995L575.64 198.994L575.353 198.584ZM570.221 200.778L570.129 200.286L569.638 200.378L569.729 200.869L570.221 200.778ZM570.759 203.675L570.267 203.767L570.36 204.268L570.86 204.165L570.759 203.675ZM574.774 202.268L574.558 201.817L574.555 201.818L574.774 202.268ZM567.986 181.365L568.473 181.477L568.627 180.804L567.94 180.868L567.986 181.365ZM562.563 194.155L562.15 193.874L562.147 193.878L562.563 194.155ZM556.893 196.97L557.209 196.583L557.2 196.575L557.19 196.568L556.893 196.97ZM557.1 188.236L557.531 188.49L557.534 188.484L557.1 188.236ZM583.337 191.971C583.468 191.27 583.511 190.576 583.511 189.933H582.511C582.511 190.533 582.471 191.163 582.354 191.787L583.337 191.971ZM583.511 189.933C583.511 184.715 580.109 180.62 574.941 178.783L574.606 179.726C579.456 181.449 582.511 185.218 582.511 189.933H583.511ZM574.942 178.784C573.144 178.141 571.265 177.844 569.269 177.844V178.844C571.163 178.844 572.927 179.126 574.606 179.725L574.942 178.784ZM569.269 177.844C567.354 177.844 565.479 178.142 563.688 178.739L564.004 179.687C565.691 179.125 567.458 178.844 569.269 178.844V177.844ZM563.694 178.737C559.437 180.099 556.23 182.705 554.097 186.501L554.969 186.991C556.976 183.42 559.978 180.976 563.999 179.689L563.694 178.737ZM554.097 186.502C552.701 188.998 552.005 191.359 552.005 193.576H553.005C553.005 191.571 553.634 189.379 554.97 186.99L554.097 186.502ZM552.005 193.576C552.005 194.927 552.267 196.164 552.844 197.318L553.739 196.871C553.24 195.872 553.005 194.791 553.005 193.576H552.005ZM552.84 197.31C553.33 198.333 554.005 199.149 554.872 199.742L555.436 198.917C554.73 198.433 554.164 197.76 553.743 196.878L552.84 197.31ZM554.862 199.735C555.969 200.532 557.146 200.947 558.383 200.947V199.947C557.384 199.947 556.408 199.616 555.446 198.924L554.862 199.735ZM558.383 200.947C560.246 200.947 561.941 200.122 563.501 198.519L562.784 197.822C561.364 199.281 559.914 199.947 558.383 199.947V200.947ZM563.496 198.524C564.111 197.909 564.795 197.008 565.585 195.843L564.757 195.282C563.974 196.436 563.334 197.272 562.789 197.817L563.496 198.524ZM565.589 195.837C568.316 191.684 570.283 186.908 571.495 181.516L570.519 181.297C569.331 186.585 567.407 191.246 564.753 195.288L565.589 195.837ZM570.95 181.904C573.392 182.184 575.406 183.02 576.975 184.354L577.622 183.592C575.88 182.111 573.672 181.209 571.064 180.91L570.95 181.904ZM576.972 184.351C578.68 185.827 579.53 187.716 579.53 190.016H580.53C580.53 187.433 579.56 185.265 577.625 183.595L576.972 184.351ZM579.53 190.016C579.53 191.473 579.216 192.888 578.546 194.268L579.445 194.705C580.182 193.188 580.53 191.623 580.53 190.016H579.53ZM578.548 194.263C577.803 195.753 576.662 197.058 575.066 198.175L575.64 198.994C577.356 197.793 578.615 196.365 579.443 194.71L578.548 194.263ZM575.069 198.173C573.507 199.254 571.834 199.969 570.129 200.286L570.312 201.27C572.167 200.924 573.971 200.149 575.638 198.995L575.069 198.173ZM569.729 200.869L570.267 203.767L571.25 203.584L570.712 200.687L569.729 200.869ZM570.86 204.165C572.104 203.908 573.509 203.438 574.992 202.718L574.555 201.818C573.141 202.506 571.814 202.947 570.657 203.186L570.86 204.165ZM574.989 202.719C579.721 200.46 582.523 196.851 583.338 191.961L582.352 191.797C581.594 196.344 579.016 199.689 574.558 201.817L574.989 202.719ZM567.498 181.254C566.393 186.084 564.595 190.288 562.15 193.874L562.976 194.437C565.499 190.738 567.343 186.415 568.473 181.477L567.498 181.254ZM562.147 193.878C561.418 194.971 560.727 195.764 560.083 196.28C559.439 196.795 558.874 197.008 558.383 197.008V198.008C559.175 198.008 559.955 197.663 560.708 197.06C561.461 196.458 562.218 195.575 562.979 194.433L562.147 193.878ZM558.383 197.008C557.958 197.008 557.574 196.881 557.209 196.583L556.576 197.357C557.122 197.804 557.731 198.008 558.383 198.008V197.008ZM557.19 196.568C556.401 195.985 555.944 195.04 555.944 193.535H554.944C554.944 195.257 555.48 196.548 556.595 197.372L557.19 196.568ZM555.944 193.535C555.944 192.032 556.445 190.339 557.531 188.49L556.668 187.983C555.519 189.942 554.944 191.809 554.944 193.535H555.944ZM557.534 188.484C559.809 184.493 563.262 182.304 568.032 181.863L567.94 180.868C562.858 181.337 559.109 183.702 556.665 187.989L557.534 188.484ZM620.594 175.529L621.053 175.331L620.859 174.881L620.405 175.066L620.594 175.529ZM617.655 176.73L617.466 176.267L616.999 176.457L617.194 176.923L617.655 176.73ZM611.654 203.593L611.344 203.2L610.945 203.515L611.266 203.908L611.654 203.593ZM613.64 206.035L613.253 206.35L613.566 206.735L613.953 206.425L613.64 206.035ZM609.584 192.044L610.078 191.969L609.999 191.451L609.486 191.554L609.584 192.044ZM608.011 177.019L608.491 177.161L608.631 176.685L608.157 176.541L608.011 177.019ZM605.155 176.15L605.301 175.672L604.823 175.526L604.677 176.004L605.155 176.15ZM610.039 195.025L610.095 195.522L610.612 195.464L610.534 194.949L610.039 195.025ZM623.247 187.16C623.247 182.72 622.535 178.759 621.053 175.331L620.135 175.728C621.551 179.005 622.247 182.825 622.247 187.16H623.247ZM620.405 175.066L617.466 176.267L617.844 177.192L620.783 175.992L620.405 175.066ZM617.194 176.923C618.448 179.916 619.101 183.367 619.101 187.243H620.101C620.101 183.255 619.429 179.669 618.117 176.536L617.194 176.923ZM619.101 187.243C619.101 193.836 616.523 199.114 611.344 203.2L611.963 203.985C617.381 199.711 620.101 194.144 620.101 187.243H619.101ZM611.266 203.908L613.253 206.35L614.028 205.719L612.041 203.277L611.266 203.908ZM613.953 206.425C619.906 201.654 623.247 194.806 623.247 187.16H622.247C622.247 194.498 619.047 201.061 613.328 205.645L613.953 206.425ZM609.486 191.554C609.337 191.584 609.141 191.586 608.922 191.586V192.586C609.116 192.586 609.417 192.588 609.682 192.535L609.486 191.554ZM608.922 191.586C608.58 191.586 608.306 191.506 608.081 191.361C607.853 191.216 607.645 190.986 607.467 190.641C607.103 189.936 606.897 188.811 606.897 187.202H605.897C605.897 188.862 606.104 190.18 606.579 191.099C606.82 191.567 607.137 191.944 607.542 192.204C607.949 192.464 608.415 192.586 608.922 192.586V191.586ZM606.897 187.202C606.897 184.113 607.425 180.767 608.491 177.161L607.532 176.878C606.445 180.557 605.897 183.999 605.897 187.202H606.897ZM608.157 176.541L605.301 175.672L605.01 176.628L607.866 177.498L608.157 176.541ZM604.677 176.004C603.465 179.973 602.875 183.583 602.875 186.912H603.875C603.875 183.701 604.444 180.191 605.633 176.296L604.677 176.004ZM602.875 186.912C602.875 189.683 603.334 191.85 604.331 193.337C605.352 194.86 606.895 195.607 608.88 195.607V194.607C607.182 194.607 605.972 193.989 605.162 192.78C604.327 191.535 603.875 189.604 603.875 186.912H602.875ZM608.88 195.607C609.284 195.607 609.723 195.563 610.095 195.522L609.984 194.528C609.611 194.569 609.222 194.607 608.88 194.607V195.607ZM610.534 194.949L610.078 191.969L609.09 192.12L609.545 195.1L610.534 194.949ZM670.554 201.358L670.968 201.638L671.248 201.225L670.835 200.944L670.554 201.358ZM661.779 196.473L661.279 196.461L661.27 196.802L661.585 196.934L661.779 196.473ZM661.737 190.223L661.677 189.727L661.223 189.782L661.238 190.24L661.737 190.223ZM670.264 189.188L670.324 189.685L670.819 189.625L670.761 189.13L670.264 189.188ZM669.933 186.374L670.43 186.315L670.371 185.818L669.873 185.877L669.933 186.374ZM661.655 187.367L661.155 187.388L661.178 187.928L661.714 187.864L661.655 187.367ZM661.406 181.407L661.383 180.907L660.886 180.931L660.907 181.428L661.406 181.407ZM668.319 181.117L668.329 181.617L668.826 181.607L668.819 181.11L668.319 181.117ZM668.277 178.302L668.777 178.295L668.77 177.792L668.267 177.803L668.277 178.302ZM661.282 178.551L660.782 178.562L660.794 179.073L661.305 179.05L661.282 178.551ZM661.117 173.998L661.616 173.981L661.6 173.484L661.102 173.498L661.117 173.998ZM658.178 174.08L658.164 173.581L657.661 173.595L657.678 174.097L658.178 174.08ZM658.343 178.716L658.373 179.215L658.854 179.187L658.843 178.705L658.343 178.716ZM649.113 179.379L649.067 178.881L648.571 178.927L648.615 179.423L649.113 179.379ZM649.361 182.193L648.863 182.237L648.908 182.739L649.409 182.691L649.361 182.193ZM658.467 181.531L658.967 181.511L658.946 181.001L658.437 181.032L658.467 181.531ZM658.716 187.657L658.761 188.155L659.235 188.112L659.215 187.637L658.716 187.657ZM651.431 187.119L651.853 186.85L651.847 186.841L651.431 187.119ZM651.431 186.457L651.912 186.594L652.046 186.123L651.578 185.979L651.431 186.457ZM648.74 185.629L648.888 185.151L648.394 184.999L648.258 185.497L648.74 185.629ZM649.237 188.94L648.844 189.249L648.851 189.257L649.237 188.94ZM658.799 190.513L659.299 190.503L659.288 189.969L658.756 190.015L658.799 190.513ZM658.881 195.604L658.78 196.094L659.381 196.218V195.604H658.881ZM650.438 196.473L650.16 196.057L650.157 196.059L650.438 196.473ZM648.285 200.488L647.785 200.476V200.488H648.285ZM650.313 204.131L650.027 204.541L650.033 204.545L650.313 204.131ZM659.088 204.214L658.82 203.792L658.814 203.795L659.088 204.214ZM661.53 200.488L662.023 200.577L662.026 200.56L662.027 200.544L661.53 200.488ZM661.613 199.619L661.821 199.164L661.113 198.84V199.619H661.613ZM668.898 203.8L668.618 204.213L669.031 204.494L669.312 204.08L668.898 203.8ZM658.633 200.033L659.125 200.121L659.129 200.099L659.131 200.076L658.633 200.033ZM652.052 198.915L652.336 199.327L652.34 199.324L652.052 198.915ZM658.757 198.584L659.255 198.627L659.291 198.206L658.883 198.1L658.757 198.584ZM670.835 200.944C667.834 198.902 664.866 197.228 661.973 196.012L661.585 196.934C664.404 198.119 667.313 199.757 670.273 201.771L670.835 200.944ZM662.279 196.486C662.32 194.82 662.32 192.741 662.237 190.207L661.238 190.24C661.32 192.756 661.32 194.816 661.279 196.461L662.279 196.486ZM661.798 190.72L670.324 189.685L670.204 188.692L661.677 189.727L661.798 190.72ZM670.761 189.13L670.43 186.315L669.436 186.432L669.768 189.247L670.761 189.13ZM669.873 185.877L661.595 186.871L661.714 187.864L669.993 186.87L669.873 185.877ZM662.154 187.346L661.906 181.386L660.907 181.428L661.155 187.388L662.154 187.346ZM661.43 181.906C664.044 181.782 666.31 181.658 668.329 181.617L668.308 180.617C666.271 180.659 663.984 180.783 661.383 180.907L661.43 181.906ZM668.819 181.11L668.777 178.295L667.777 178.31L667.819 181.124L668.819 181.11ZM668.267 177.803C666.316 177.844 663.994 177.927 661.259 178.051L661.305 179.05C664.034 178.926 666.348 178.844 668.288 178.802L668.267 177.803ZM661.782 178.539C661.741 176.76 661.657 175.206 661.616 173.981L660.617 174.014C660.659 175.273 660.741 176.782 660.782 178.562L661.782 178.539ZM661.102 173.498L658.164 173.581L658.192 174.58L661.131 174.498L661.102 173.498ZM657.678 174.097C657.72 175.355 657.802 176.866 657.843 178.727L658.843 178.705C658.802 176.842 658.718 175.29 658.677 174.064L657.678 174.097ZM658.314 178.217C654.835 178.424 651.766 178.632 649.067 178.881L649.159 179.877C651.841 179.629 654.898 179.422 658.373 179.215L658.314 178.217ZM648.615 179.423L648.863 182.237L649.859 182.149L649.611 179.335L648.615 179.423ZM649.409 182.691C652.007 182.444 655.063 182.237 658.498 182.03L658.437 181.032C655.001 181.239 651.931 181.446 649.314 181.695L649.409 182.691ZM657.968 181.551L658.216 187.677L659.215 187.637L658.967 181.511L657.968 181.551ZM658.671 187.159C657.321 187.282 656.177 187.322 655.156 187.322V188.322C656.205 188.322 657.379 188.281 658.761 188.155L658.671 187.159ZM655.156 187.322C654.073 187.322 653.25 187.261 652.674 187.15C652.385 187.095 652.177 187.031 652.034 186.966C651.886 186.898 651.852 186.849 651.853 186.85L651.009 187.387C651.155 187.616 651.385 187.769 651.619 187.876C651.86 187.986 652.153 188.069 652.485 188.132C653.151 188.26 654.046 188.322 655.156 188.322V187.322ZM651.847 186.841C651.858 186.858 651.864 186.871 651.867 186.88C651.869 186.884 651.87 186.887 651.871 186.889C651.871 186.89 651.871 186.891 651.872 186.892C651.872 186.892 651.872 186.892 651.872 186.892C651.872 186.892 651.872 186.892 651.872 186.892C651.872 186.891 651.871 186.89 651.871 186.889C651.871 186.888 651.871 186.885 651.87 186.881C651.869 186.874 651.869 186.863 651.869 186.85C651.869 186.793 651.88 186.705 651.912 186.594L650.95 186.319C650.899 186.497 650.869 186.679 650.869 186.85C650.869 187.009 650.895 187.216 651.015 187.396L651.847 186.841ZM651.578 185.979L648.888 185.151L648.593 186.107L651.284 186.934L651.578 185.979ZM648.258 185.497C648.13 185.965 648.034 186.431 648.034 186.87H649.034C649.034 186.565 649.102 186.203 649.223 185.76L648.258 185.497ZM648.034 186.87C648.034 187.767 648.318 188.58 648.844 189.249L649.63 188.631C649.245 188.141 649.034 187.547 649.034 186.87H648.034ZM648.851 189.257C649.414 189.943 650.275 190.419 651.357 190.725C652.441 191.032 653.784 191.179 655.363 191.179V190.179C653.838 190.179 652.594 190.036 651.629 189.763C650.662 189.489 650.012 189.096 649.624 188.623L648.851 189.257ZM655.363 191.179C656.248 191.179 657.38 191.136 658.841 191.011L658.756 190.015C657.32 190.138 656.216 190.179 655.363 190.179V191.179ZM658.299 190.523C658.34 192.555 658.381 194.245 658.381 195.604H659.381C659.381 194.232 659.34 192.527 659.299 190.503L658.299 190.523ZM658.983 195.114C657.751 194.86 656.517 194.732 655.363 194.732V195.732C656.445 195.732 657.611 195.852 658.78 196.094L658.983 195.114ZM655.363 194.732C653.272 194.732 651.509 195.158 650.16 196.057L650.715 196.889C651.849 196.133 653.398 195.732 655.363 195.732V194.732ZM650.157 196.059C648.611 197.105 647.83 198.583 647.785 200.476L648.785 200.5C648.823 198.917 649.45 197.745 650.718 196.887L650.157 196.059ZM647.785 200.488C647.785 202.161 648.544 203.507 650.027 204.541L650.599 203.721C649.351 202.851 648.785 201.796 648.785 200.488H647.785ZM650.033 204.545C651.411 205.478 653.003 205.914 654.825 205.914V204.914C653.171 204.914 651.782 204.522 650.594 203.717L650.033 204.545ZM654.825 205.914C656.569 205.914 658.073 205.476 659.362 204.632L658.814 203.795C657.703 204.524 656.392 204.914 654.825 204.914V205.914ZM659.357 204.635C660.849 203.686 661.71 202.318 662.023 200.577L661.038 200.4C660.771 201.887 660.059 203.003 658.82 203.792L659.357 204.635ZM662.027 200.544C662.065 200.203 662.113 199.863 662.113 199.619H661.113C661.113 199.789 661.078 200.029 661.034 200.433L662.027 200.544ZM661.405 200.074C663.816 201.177 666.192 202.569 668.618 204.213L669.179 203.386C666.72 201.719 664.295 200.296 661.821 199.164L661.405 200.074ZM669.312 204.08L670.968 201.638L670.14 201.077L668.484 203.519L669.312 204.08ZM658.141 199.945C658.017 200.633 657.703 201.117 657.21 201.442C656.7 201.777 655.95 201.975 654.908 201.975V202.975C656.06 202.975 657.027 202.759 657.759 202.277C658.508 201.784 658.959 201.047 659.125 200.121L658.141 199.945ZM654.908 201.975C653.999 201.975 653.159 201.78 652.564 201.476C651.945 201.16 651.724 200.804 651.724 200.53H650.724C650.724 201.373 651.372 201.99 652.109 202.367C652.87 202.756 653.872 202.975 654.908 202.975V201.975ZM651.724 200.53C651.724 199.987 651.936 199.604 652.336 199.327L651.767 198.504C651.092 198.972 650.724 199.665 650.724 200.53H651.724ZM652.34 199.324C652.918 198.916 653.909 198.67 655.322 198.67V197.67C653.837 197.67 652.593 197.921 651.763 198.507L652.34 199.324ZM655.322 198.67C656.446 198.67 657.562 198.791 658.632 199.068L658.883 198.1C657.718 197.798 656.516 197.67 655.322 197.67V198.67ZM658.259 198.542L658.135 199.99L659.131 200.076L659.255 198.627L658.259 198.542ZM715.381 183.145L715.841 182.949L715.643 182.485L715.181 182.687L715.381 183.145ZM708.924 185.629L708.479 185.858L708.674 186.236L709.079 186.104L708.924 185.629ZM706.564 181.407L706.409 180.931L705.813 181.126L706.136 181.664L706.564 181.407ZM712.732 178.965L712.941 179.419L713.398 179.209L713.185 178.753L712.732 178.965ZM711.573 176.481L712.026 176.27L711.814 175.815L711.36 176.029L711.573 176.481ZM705.116 178.965L704.69 179.227L704.891 179.552L705.257 179.444L705.116 178.965ZM701.804 173.832L702.217 173.549L701.932 173.134L701.519 173.422L701.804 173.832ZM699.487 175.446L699.201 175.036L698.79 175.323L699.077 175.733L699.487 175.446ZM702.301 179.751L702.42 180.237L703.1 180.071L702.722 179.481L702.301 179.751ZM697.21 180.579L697.17 180.081L697.167 180.081L697.21 180.579ZM694.727 180.538L694.813 180.045L694.309 179.956L694.232 180.463L694.727 180.538ZM694.313 183.269L693.818 183.195L693.743 183.69L694.238 183.764L694.313 183.269ZM697.376 183.352L697.344 182.853L697.341 182.853L697.376 183.352ZM703.791 182.235L704.22 181.977L704.026 181.654L703.662 181.752L703.791 182.235ZM706.192 186.498L706.321 186.981L706.921 186.82L706.636 186.269L706.192 186.498ZM700.19 187.616L700.154 187.117L700.146 187.117L700.19 187.616ZM696.506 187.409L696.623 186.922L696.141 186.807L696.021 187.287L696.506 187.409ZM695.844 190.058L695.359 189.936L695.239 190.418L695.719 190.542L695.844 190.058ZM700.356 190.389L700.392 190.887L700.396 190.887L700.356 190.389ZM707.475 188.981L707.926 188.765L707.742 188.383L707.335 188.502L707.475 188.981ZM710.166 196.804L709.668 196.849L709.712 197.346L710.21 197.303L710.166 196.804ZM712.98 196.556L713.024 197.054L713.528 197.01L713.478 196.506L712.98 196.556ZM710.166 188.112L710.004 187.639L709.472 187.82L709.714 188.327L710.166 188.112ZM716.457 185.67L716.653 186.13L717.113 185.934L716.917 185.474L716.457 185.67ZM709.793 202.268L710.286 202.187L710.206 201.699L709.717 201.774L709.793 202.268ZM697.872 199.495L697.373 199.525L697.374 199.534L697.872 199.495ZM702.55 196.059L702.514 195.561L702.512 195.561L702.55 196.059ZM704.288 196.059L704.252 196.558L704.764 196.595L704.787 196.082L704.288 196.059ZM704.412 193.328L704.912 193.35L704.934 192.853L704.437 192.828L704.412 193.328ZM698.079 194.445L697.856 193.998L697.852 194L698.079 194.445ZM695.058 199.619L694.559 199.654L694.559 199.656L695.058 199.619ZM710.248 205.041L710.335 205.534L710.822 205.449L710.742 204.96L710.248 205.041ZM715.181 182.687C712.917 183.675 710.779 184.497 708.769 185.153L709.079 186.104C711.125 185.436 713.292 184.602 715.581 183.604L715.181 182.687ZM709.368 185.4C708.659 184.023 707.867 182.607 706.993 181.15L706.136 181.664C707 183.104 707.781 184.502 708.479 185.858L709.368 185.4ZM706.72 181.882C708.769 181.213 710.857 180.378 712.941 179.419L712.523 178.51C710.468 179.456 708.416 180.276 706.409 180.931L706.72 181.882ZM713.185 178.753L712.026 176.27L711.12 176.693L712.279 179.176L713.185 178.753ZM711.36 176.029C709.187 177.054 707.059 177.872 704.975 178.485L705.257 179.444C707.395 178.816 709.571 177.978 711.786 176.933L711.36 176.029ZM705.541 178.702C704.338 176.753 703.216 175.007 702.217 173.549L701.392 174.115C702.379 175.555 703.492 177.286 704.69 179.227L705.541 178.702ZM701.519 173.422L699.201 175.036L699.772 175.857L702.09 174.242L701.519 173.422ZM699.077 175.733C699.939 176.964 700.841 178.4 701.88 180.021L702.722 179.481C701.692 177.874 700.773 176.412 699.896 175.16L699.077 175.733ZM702.182 179.265C700.348 179.714 698.677 179.958 697.17 180.081L697.25 181.077C698.806 180.951 700.53 180.699 702.42 180.237L702.182 179.265ZM697.167 180.081C696.235 180.162 695.456 180.159 694.813 180.045L694.64 181.03C695.405 181.165 696.281 181.162 697.253 181.077L697.167 180.081ZM694.232 180.463L693.818 183.195L694.807 183.344L695.221 180.612L694.232 180.463ZM694.238 183.764C695.108 183.894 696.18 183.936 697.41 183.851L697.341 182.853C696.17 182.934 695.173 182.893 694.387 182.775L694.238 183.764ZM697.407 183.851C699.392 183.725 701.577 183.345 703.921 182.718L703.662 181.752C701.369 182.366 699.25 182.732 697.344 182.853L697.407 183.851ZM703.363 182.492C704.229 183.935 705.051 185.374 705.747 186.727L706.636 186.269C705.926 184.89 705.092 183.431 704.22 181.977L703.363 182.492ZM706.063 186.015C703.763 186.631 701.809 186.996 700.154 187.117L700.227 188.114C701.965 187.987 703.985 187.607 706.321 186.981L706.063 186.015ZM700.146 187.117C698.782 187.238 697.596 187.156 696.623 186.922L696.39 187.895C697.486 188.158 698.784 188.242 700.234 188.114L700.146 187.117ZM696.021 187.287L695.359 189.936L696.329 190.179L696.991 187.53L696.021 187.287ZM695.719 190.542C697.064 190.889 698.651 191.015 700.392 190.887L700.319 189.89C698.666 190.011 697.19 189.889 695.969 189.574L695.719 190.542ZM700.396 190.887C702.465 190.718 704.899 190.255 707.615 189.461L707.335 188.502C704.67 189.281 702.303 189.728 700.315 189.89L700.396 190.887ZM707.025 189.198C708.635 192.543 709.51 195.082 709.668 196.849L710.664 196.76C710.49 194.802 709.544 192.126 707.926 188.765L707.025 189.198ZM710.21 197.303L713.024 197.054L712.936 196.058L710.122 196.306L710.21 197.303ZM713.478 196.506C713.262 194.352 712.323 191.476 710.617 187.897L709.714 188.327C711.402 191.868 712.284 194.621 712.483 196.606L713.478 196.506ZM710.327 188.586C712.287 187.918 714.41 187.085 716.653 186.13L716.261 185.21C714.034 186.159 711.935 186.982 710.004 187.639L710.327 188.586ZM716.917 185.474L715.841 182.949L714.921 183.341L715.997 185.866L716.917 185.474ZM709.717 201.774C708.125 202.019 706.619 202.141 705.199 202.141V203.141C706.676 203.141 708.233 203.014 709.869 202.762L709.717 201.774ZM705.199 202.141C702.862 202.141 701.153 201.882 700.025 201.4C698.922 200.928 698.435 200.275 698.371 199.456L697.374 199.534C697.475 200.825 698.291 201.746 699.631 202.319C700.946 202.882 702.817 203.141 705.199 203.141V202.141ZM698.371 199.464C698.319 198.606 698.606 197.978 699.236 197.512C699.9 197.02 700.99 196.679 702.587 196.558L702.512 195.561C700.84 195.688 699.528 196.051 698.641 196.708C697.718 197.39 697.302 198.356 697.373 199.525L698.371 199.464ZM702.585 196.558C703.141 196.518 703.697 196.518 704.252 196.558L704.324 195.561C703.72 195.518 703.117 195.518 702.514 195.561L702.585 196.558ZM704.787 196.082L704.912 193.35L703.913 193.305L703.788 196.037L704.787 196.082ZM704.437 192.828C701.891 192.701 699.69 193.081 697.856 193.998L698.303 194.892C699.946 194.071 701.966 193.706 704.387 193.827L704.437 192.828ZM697.852 194C696.691 194.591 695.813 195.354 695.252 196.314C694.69 197.276 694.47 198.394 694.559 199.654L695.556 199.584C695.479 198.485 695.673 197.575 696.115 196.819C696.558 196.061 697.274 195.417 698.306 194.891L697.852 194ZM694.559 199.656C694.716 201.765 695.719 203.373 697.55 204.429C699.348 205.466 701.913 205.955 705.199 205.955V204.955C701.985 204.955 699.625 204.472 698.05 203.563C696.507 202.674 695.689 201.364 695.556 199.582L694.559 199.656ZM705.199 205.955C706.92 205.955 708.646 205.829 710.335 205.534L710.162 204.549C708.539 204.833 706.872 204.955 705.199 204.955V205.955ZM710.742 204.96L710.286 202.187L709.3 202.349L709.755 205.122L710.742 204.96ZM746.428 200.985C746.428 197.77 743.721 195.063 740.506 195.063V196.063C743.168 196.063 745.428 198.322 745.428 200.985H746.428ZM740.506 195.063C737.249 195.063 734.583 197.729 734.583 200.985H735.583C735.583 198.281 737.802 196.063 740.506 196.063V195.063ZM734.583 200.985C734.583 204.324 737.166 206.907 740.506 206.907V205.907C737.719 205.907 735.583 203.772 735.583 200.985H734.583ZM740.506 206.907C743.762 206.907 746.428 204.241 746.428 200.985H745.428C745.428 203.689 743.21 205.907 740.506 205.907V206.907ZM743.358 200.985C743.358 202.53 742.051 203.838 740.506 203.838V204.838C742.603 204.838 744.358 203.082 744.358 200.985H743.358ZM740.506 203.838C738.961 203.838 737.653 202.53 737.653 200.985H736.653C736.653 203.082 738.408 204.838 740.506 204.838V203.838ZM737.653 200.985C737.653 199.44 738.961 198.132 740.506 198.132V197.132C738.408 197.132 736.653 198.888 736.653 200.985H737.653ZM740.506 198.132C742.051 198.132 743.358 199.44 743.358 200.985H744.358C744.358 198.888 742.603 197.132 740.506 197.132V198.132Z" fill="#323333"/>
<path d="M646.824 117.064C646.9 116.659 646.926 116.253 646.926 115.873C646.926 112.833 644.95 110.427 641.884 109.337C640.82 108.957 639.706 108.78 638.515 108.78C637.375 108.78 636.26 108.957 635.196 109.312C632.663 110.123 630.763 111.668 629.497 113.923C628.661 115.417 628.255 116.811 628.255 118.103C628.255 118.888 628.407 119.597 628.737 120.256C629.015 120.839 629.395 121.295 629.877 121.624C630.51 122.08 631.169 122.308 631.853 122.308C632.891 122.308 633.854 121.852 634.766 120.915C635.12 120.56 635.526 120.028 636.007 119.319C637.654 116.811 638.844 113.923 639.579 110.655C641.124 110.832 642.416 111.364 643.43 112.225C644.544 113.188 645.102 114.429 645.102 115.924C645.102 116.861 644.899 117.773 644.468 118.66C643.987 119.623 643.252 120.459 642.239 121.168C641.251 121.852 640.187 122.308 639.098 122.511L639.427 124.284C640.162 124.132 640.998 123.853 641.884 123.423C644.696 122.08 646.343 119.952 646.824 117.064ZM637.73 110.629C637.046 113.619 635.931 116.228 634.411 118.457C633.499 119.825 632.638 120.509 631.853 120.509C631.523 120.509 631.219 120.408 630.941 120.18C630.358 119.749 630.054 119.065 630.054 118.077C630.054 117.089 630.383 116 631.067 114.835C632.511 112.301 634.715 110.908 637.73 110.629Z" fill="#323333"/>
<path d="M646.824 117.064L646.333 116.972L646.331 116.982L646.824 117.064ZM641.884 109.337L641.716 109.808L641.717 109.809L641.884 109.337ZM635.196 109.312L635.349 109.788L635.355 109.786L635.196 109.312ZM629.497 113.923L629.061 113.678L629.06 113.679L629.497 113.923ZM628.737 120.256L629.188 120.04L629.184 120.032L628.737 120.256ZM629.877 121.624L630.169 121.218L630.159 121.211L629.877 121.624ZM634.766 120.915L634.412 120.561L634.407 120.566L634.766 120.915ZM636.007 119.319L636.421 119.599L636.425 119.593L636.007 119.319ZM639.579 110.655L639.636 110.158L639.19 110.107L639.091 110.545L639.579 110.655ZM643.43 112.225L643.757 111.847L643.754 111.844L643.43 112.225ZM644.468 118.66L644.916 118.884L644.918 118.878L644.468 118.66ZM642.239 121.168L642.524 121.579L642.526 121.577L642.239 121.168ZM639.098 122.511L639.006 122.019L638.515 122.11L638.606 122.602L639.098 122.511ZM639.427 124.284L638.935 124.375L639.029 124.877L639.528 124.773L639.427 124.284ZM641.884 123.423L641.669 122.971L641.666 122.973L641.884 123.423ZM637.73 110.629L638.217 110.741L638.371 110.068L637.684 110.131L637.73 110.629ZM634.411 118.457L633.998 118.176L633.995 118.18L634.411 118.457ZM630.941 120.18L631.257 119.793L631.248 119.785L631.238 119.778L630.941 120.18ZM631.067 114.835L631.498 115.088L631.502 115.082L631.067 114.835ZM647.316 117.156C647.399 116.712 647.426 116.275 647.426 115.873H646.426C646.426 116.232 646.402 116.605 646.333 116.972L647.316 117.156ZM647.426 115.873C647.426 112.582 645.276 110.012 642.052 108.866L641.717 109.809C644.623 110.841 646.426 113.085 646.426 115.873H647.426ZM642.053 108.867C640.929 108.465 639.757 108.28 638.515 108.28V109.28C639.655 109.28 640.712 109.45 641.716 109.808L642.053 108.867ZM638.515 108.28C637.323 108.28 636.155 108.466 635.038 108.838L635.355 109.786C636.366 109.449 637.427 109.28 638.515 109.28V108.28ZM635.044 108.836C632.393 109.684 630.39 111.311 629.061 113.678L629.933 114.168C631.136 112.025 632.934 110.561 635.349 109.788L635.044 108.836ZM629.06 113.679C628.194 115.227 627.755 116.704 627.755 118.103H628.755C628.755 116.917 629.127 115.607 629.933 114.167L629.06 113.679ZM627.755 118.103C627.755 118.956 627.921 119.743 628.289 120.479L629.184 120.032C628.893 119.451 628.755 118.82 628.755 118.103H627.755ZM628.286 120.472C628.598 121.125 629.033 121.652 629.594 122.037L630.159 121.211C629.758 120.937 629.433 120.552 629.188 120.04L628.286 120.472ZM629.584 122.03C630.29 122.538 631.049 122.808 631.853 122.808V121.808C631.288 121.808 630.729 121.622 630.169 121.218L629.584 122.03ZM631.853 122.808C633.057 122.808 634.142 122.272 635.124 121.263L634.407 120.566C633.565 121.431 632.725 121.808 631.853 121.808V122.808ZM635.119 121.268C635.509 120.878 635.936 120.314 636.421 119.599L635.593 119.038C635.116 119.742 634.732 120.241 634.412 120.561L635.119 121.268ZM636.425 119.593C638.108 117.029 639.321 114.084 640.067 110.764L639.091 110.545C638.368 113.761 637.199 116.592 635.589 119.044L636.425 119.593ZM639.522 111.151C640.984 111.319 642.179 111.818 643.106 112.606L643.754 111.844C642.654 110.91 641.265 110.345 639.636 110.158L639.522 111.151ZM643.103 112.604C644.105 113.469 644.602 114.571 644.602 115.924H645.602C645.602 114.288 644.984 112.907 643.757 111.847L643.103 112.604ZM644.602 115.924C644.602 116.786 644.416 117.623 644.019 118.441L644.918 118.878C645.382 117.923 645.602 116.936 645.602 115.924H644.602ZM644.021 118.436C643.581 119.317 642.905 120.091 641.952 120.758L642.526 121.577C643.599 120.826 644.393 119.929 644.916 118.884L644.021 118.436ZM641.954 120.757C641.019 121.404 640.02 121.83 639.006 122.019L639.189 123.002C640.354 122.785 641.483 122.299 642.524 121.579L641.954 120.757ZM638.606 122.602L638.935 124.375L639.919 124.193L639.589 122.419L638.606 122.602ZM639.528 124.773C640.307 124.612 641.182 124.319 642.103 123.872L641.666 122.973C640.813 123.387 640.017 123.651 639.326 123.794L639.528 124.773ZM642.1 123.874C645.049 122.466 646.808 120.206 647.318 117.146L646.331 116.982C645.878 119.698 644.344 121.694 641.669 122.971L642.1 123.874ZM637.242 110.518C636.571 113.453 635.479 116.003 633.998 118.176L634.824 118.739C636.383 116.453 637.521 113.784 638.217 110.741L637.242 110.518ZM633.995 118.18C633.555 118.84 633.145 119.307 632.772 119.606C632.399 119.904 632.095 120.009 631.853 120.009V121.009C632.396 121.009 632.915 120.772 633.397 120.387C633.879 120.001 634.355 119.443 634.827 118.735L633.995 118.18ZM631.853 120.009C631.637 120.009 631.445 119.947 631.257 119.793L630.624 120.567C630.993 120.869 631.41 121.009 631.853 121.009V120.009ZM631.238 119.778C630.818 119.468 630.554 118.957 630.554 118.077H629.554C629.554 119.174 629.898 120.031 630.643 120.582L631.238 119.778ZM630.554 118.077C630.554 117.201 630.846 116.199 631.498 115.088L630.636 114.582C629.92 115.801 629.554 116.978 629.554 118.077H630.554ZM631.502 115.082C632.861 112.697 634.917 111.392 637.776 111.127L637.684 110.131C634.514 110.425 632.161 111.906 630.633 114.587L631.502 115.082Z" fill="#323333"/>
<path d="M582.059 31.5856L571.711 31.7511L571.628 26.1219L568.689 26.2047L568.813 31.8339C563.101 31.9995 558.01 32.2064 553.581 32.4548L553.788 35.3522C558.176 35.0625 563.184 34.8555 568.855 34.7313L568.896 38.4566C568.192 38.2496 567.53 38.1254 566.868 38.1254C565.005 38.1254 563.432 38.9119 562.149 40.4434C560.908 41.8921 560.287 43.5477 560.287 45.4518C560.287 48.8045 562.812 51.288 566.164 51.288C566.868 51.288 567.572 51.1638 568.234 50.9154C567.406 53.3989 566.33 55.4685 565.005 57.0828L567.282 58.904C568.813 57.0828 570.014 54.8062 570.966 52.033C571.918 49.2598 572.373 46.6935 572.373 44.2514C572.373 43.6719 572.332 43.1338 572.249 42.6785C572.249 42.4716 572.166 42.099 572.001 41.4782C571.876 40.9815 571.835 40.5675 571.835 40.2778C571.835 38.498 571.835 36.6353 571.794 34.6486L582.1 34.483L582.059 31.5856ZM568.979 45.4518C568.979 47.2316 567.82 48.3906 566.123 48.3906C564.467 48.3906 563.267 47.1488 563.267 45.4931C563.267 43.1338 564.674 41.1056 566.992 41.1056C567.861 41.1056 568.482 41.354 568.938 41.8093C568.979 43.258 568.979 44.4584 568.979 45.4518ZM631.48 30.3024C630.611 28.7709 629.618 27.1567 628.5 25.5424L626.72 26.7428C627.838 28.357 628.79 29.8885 629.618 31.3372L631.48 30.3024ZM617.159 43.258L617.366 39.6983C617.366 35.5592 616 34.0277 611.364 34.0277C610.991 34.0277 609.708 34.1105 607.514 34.2346L609.708 27.1567L606.894 26.2875L604.369 34.483C602.382 34.6072 600.478 34.7727 598.615 34.9383L598.864 37.8771L603.458 37.5046C601.389 44.1686 599.567 49.8806 597.994 54.7235L600.768 55.6341C602.465 50.5015 604.41 44.3756 606.604 37.2562C608.963 37.0907 610.577 37.0079 611.405 37.0079C612.895 37.0079 613.765 37.132 614.013 37.4218C614.385 37.7943 614.468 39.0361 614.344 41.147L614.22 43.0924C614.054 45.7001 613.93 47.3558 613.806 48.1008C613.433 50.4187 612.854 51.8674 612.026 52.4883C611.488 52.9022 610.702 53.1092 609.75 53.1092C609.129 53.1092 608.425 53.0264 607.556 52.8195L606.976 55.7169C608.011 55.9238 608.963 56.048 609.832 56.048C612.771 56.048 614.799 54.6821 615.834 51.9916C616.455 50.4601 616.869 47.5213 617.159 43.258ZM627.465 32.1651C626.844 31.0475 625.851 29.4746 624.568 27.4464L622.788 28.6054C624.071 30.6336 625.023 32.1651 625.644 33.2412L627.465 32.1651ZM628.003 42.8027C627.465 41.147 626.679 39.4086 625.644 37.546C624.526 35.6006 623.45 34.0277 622.333 32.8273L620.18 34.8555C622.374 37.1734 624.071 40.1122 625.23 43.7133L628.003 42.8027ZM670.554 53.3575C667.574 51.3294 664.635 49.6737 661.779 48.4733C661.82 46.8177 661.82 44.7481 661.737 42.2232L670.264 41.1884L669.933 38.3738L661.655 39.3672L661.406 33.4068C664.014 33.2826 666.291 33.1585 668.319 33.1171L668.277 30.3024C666.332 30.3438 664.014 30.4266 661.282 30.5508C661.241 28.7709 661.158 27.2395 661.117 25.9977L658.178 26.0805C658.219 27.3222 658.302 28.8537 658.343 30.7164C654.866 30.9233 651.803 31.1303 649.113 31.3786L649.361 34.1932C651.969 33.9449 655.032 33.7379 658.468 33.531L658.716 39.6569C657.35 39.7811 656.191 39.8225 655.156 39.8225C652.962 39.8225 651.721 39.5741 651.431 39.1188C651.348 38.9947 651.348 38.7463 651.431 38.4566L648.74 37.6287C648.616 38.0841 648.534 38.498 648.534 38.8705C648.534 39.6569 648.782 40.3606 649.237 40.9401C650.189 42.099 652.259 42.6785 655.363 42.6785C656.232 42.6785 657.35 42.6371 658.799 42.5129C658.84 44.5411 658.881 46.2382 658.881 47.6041C657.681 47.3558 656.481 47.2316 655.363 47.2316C653.335 47.2316 651.679 47.6455 650.438 48.4733C649.03 49.4253 648.327 50.7499 648.285 52.4883C648.285 53.9784 648.947 55.1788 650.313 56.1308C651.596 57 653.087 57.4139 654.825 57.4139C656.481 57.4139 657.888 57 659.088 56.2136C660.454 55.3443 661.241 54.1026 661.53 52.4883C661.572 52.1158 661.613 51.8261 661.613 51.6191C664.055 52.7367 666.456 54.144 668.898 55.7996L670.554 53.3575ZM658.633 52.033C658.343 53.6473 657.102 54.4751 654.908 54.4751C652.962 54.4751 651.224 53.6473 651.224 52.5297C651.224 51.8261 651.514 51.288 652.052 50.9154C652.755 50.4187 653.873 50.1704 655.322 50.1704C656.481 50.1704 657.64 50.2946 658.757 50.5843L658.633 52.033ZM702.922 47.273C701.142 50.5015 699.445 52.1158 697.748 52.1158C694.933 52.1158 693.526 47.4799 693.526 38.1668C693.526 35.3108 693.65 32.8273 693.899 30.6336L690.836 30.3024C690.546 32.7445 690.422 35.2694 690.422 37.9599C690.422 49.4253 692.864 55.1374 697.789 55.1374C700.646 55.1374 703.212 53.0264 705.571 48.7631L702.922 47.273ZM720.224 48.8873C719.603 45.9898 718.609 43.1338 717.326 40.2778C715.919 37.0907 714.346 34.5244 712.649 32.5376L710.331 34.5244C713.394 38.1254 715.671 43.1752 717.161 49.5909L720.224 48.8873Z" fill="#323333"/>
<path d="M582.059 31.5856L582.559 31.5784L582.551 31.0776L582.051 31.0856L582.059 31.5856ZM571.711 31.7511L571.211 31.7585L571.218 32.2591L571.719 32.2511L571.711 31.7511ZM571.628 26.1219L572.128 26.1145L572.12 25.6078L571.614 25.6221L571.628 26.1219ZM568.689 26.2047L568.675 25.7049L568.178 25.7189L568.189 26.2157L568.689 26.2047ZM568.813 31.8339L568.828 32.3337L569.324 32.3193L569.313 31.8229L568.813 31.8339ZM553.581 32.4548L553.553 31.9556L553.046 31.984L553.083 32.4904L553.581 32.4548ZM553.788 35.3522L553.289 35.3878L553.325 35.8839L553.821 35.8511L553.788 35.3522ZM568.855 34.7313L569.355 34.7258L569.349 34.2204L568.844 34.2315L568.855 34.7313ZM568.896 38.4566L568.755 38.9363L569.404 39.127L569.396 38.451L568.896 38.4566ZM562.149 40.4434L562.529 40.7688L562.533 40.7645L562.149 40.4434ZM568.234 50.9154L568.708 51.0736L569.04 50.0793L568.058 50.4473L568.234 50.9154ZM565.005 57.0828L564.619 56.7656L564.298 57.157L564.693 57.4732L565.005 57.0828ZM567.282 58.904L566.97 59.2944L567.351 59.5993L567.665 59.2258L567.282 58.904ZM572.249 42.6785H571.749V42.7236L571.757 42.768L572.249 42.6785ZM572.001 41.4782L571.515 41.5994L571.517 41.607L572.001 41.4782ZM571.794 34.6486L571.786 34.1486L571.283 34.1567L571.294 34.659L571.794 34.6486ZM582.1 34.483L582.108 34.9829L582.607 34.9749L582.6 34.4758L582.1 34.483ZM568.938 41.8093L569.437 41.795L569.432 41.5963L569.291 41.4557L568.938 41.8093ZM582.051 31.0856L571.703 31.2512L571.719 32.2511L582.067 32.0855L582.051 31.0856ZM572.211 31.7438L572.128 26.1145L571.128 26.1292L571.211 31.7585L572.211 31.7438ZM571.614 25.6221L568.675 25.7049L568.703 26.7045L571.642 26.6217L571.614 25.6221ZM568.189 26.2157L568.313 31.8449L569.313 31.8229L569.189 26.1936L568.189 26.2157ZM568.799 31.3341C563.084 31.4998 557.988 31.7069 553.553 31.9556L553.609 32.954C558.033 32.706 563.119 32.4992 568.828 32.3337L568.799 31.3341ZM553.083 32.4904L553.289 35.3878L554.287 35.3166L554.08 32.4192L553.083 32.4904ZM553.821 35.8511C558.2 35.562 563.2 35.3553 568.866 35.2312L568.844 34.2315C563.168 34.3557 558.152 34.563 553.755 34.8533L553.821 35.8511ZM568.355 34.7369L568.396 38.4621L569.396 38.451L569.355 34.7258L568.355 34.7369ZM569.037 37.9769C568.305 37.7615 567.593 37.6254 566.868 37.6254V38.6254C567.467 38.6254 568.08 38.7377 568.755 38.9363L569.037 37.9769ZM566.868 37.6254C564.842 37.6254 563.134 38.4899 561.766 40.1223L562.533 40.7645C563.731 39.3339 565.169 38.6254 566.868 38.6254V37.6254ZM561.77 40.118C560.451 41.656 559.787 43.4267 559.787 45.4518H560.787C560.787 43.6688 561.364 42.1282 562.529 40.7688L561.77 40.118ZM559.787 45.4518C559.787 49.0853 562.54 51.788 566.164 51.788V50.788C563.083 50.788 560.787 48.5237 560.787 45.4518H559.787ZM566.164 51.788C566.926 51.788 567.69 51.6535 568.409 51.3836L568.058 50.4473C567.454 50.6741 566.809 50.788 566.164 50.788V51.788ZM567.76 50.7573C566.946 53.1985 565.895 55.2098 564.619 56.7656L565.392 57.3999C566.764 55.7272 567.866 53.5994 568.708 51.0736L567.76 50.7573ZM564.693 57.4732L566.97 59.2944L567.594 58.5136L565.318 56.6923L564.693 57.4732ZM567.665 59.2258C569.246 57.3456 570.472 55.0101 571.439 52.1954L570.493 51.8707C569.555 54.6024 568.381 56.82 566.899 58.5822L567.665 59.2258ZM571.439 52.1954C572.406 49.3783 572.873 46.757 572.873 44.2514H571.873C571.873 46.63 571.43 49.1412 570.493 51.8707L571.439 52.1954ZM572.873 44.2514C572.873 43.6502 572.83 43.0811 572.741 42.5891L571.757 42.768C571.833 43.1866 571.873 43.6936 571.873 44.2514H572.873ZM572.749 42.6785C572.749 42.5206 572.719 42.3336 572.676 42.1306C572.632 41.9206 572.567 41.662 572.484 41.3493L571.517 41.607C571.6 41.9152 571.659 42.1533 571.697 42.3366C571.738 42.5267 571.749 42.6295 571.749 42.6785H572.749ZM572.486 41.3569C572.37 40.8965 572.335 40.5234 572.335 40.2778H571.335C571.335 40.6117 571.382 41.0664 571.515 41.5994L572.486 41.3569ZM572.335 40.2778C572.335 38.4985 572.335 36.6309 572.293 34.6381L571.294 34.659C571.335 36.6398 571.335 38.4974 571.335 40.2778H572.335ZM571.802 35.1485L582.108 34.9829L582.092 33.983L571.786 34.1486L571.802 35.1485ZM582.6 34.4758L582.559 31.5784L581.559 31.5927L581.6 34.4901L582.6 34.4758ZM568.479 45.4518C568.479 46.2313 568.227 46.8335 567.83 47.2387C567.434 47.6431 566.854 47.8906 566.123 47.8906V48.8906C567.088 48.8906 567.937 48.5585 568.544 47.9385C569.151 47.3192 569.479 46.4521 569.479 45.4518H568.479ZM566.123 47.8906C564.753 47.8906 563.767 46.8822 563.767 45.4931H562.767C562.767 47.4154 564.182 48.8906 566.123 48.8906V47.8906ZM563.767 45.4931C563.767 43.3001 565.049 41.6056 566.992 41.6056V40.6056C564.3 40.6056 562.767 42.9676 562.767 45.4931H563.767ZM566.992 41.6056C567.757 41.6056 568.241 41.8196 568.584 42.1628L569.291 41.4557C568.724 40.8884 567.966 40.6056 566.992 40.6056V41.6056ZM568.438 41.8236C568.479 43.2645 568.479 44.4585 568.479 45.4518H569.479C569.479 44.4582 569.479 43.2515 569.437 41.795L568.438 41.8236ZM631.48 30.3024L631.723 30.7395L632.164 30.4945L631.915 30.0556L631.48 30.3024ZM628.5 25.5424L628.911 25.2578L628.63 24.8517L628.22 25.1279L628.5 25.5424ZM626.72 26.7428L626.441 26.3282L626.021 26.6112L626.309 27.0274L626.72 26.7428ZM629.618 31.3372L629.183 31.5853L629.429 32.0142L629.86 31.7743L629.618 31.3372ZM617.159 43.258L617.658 43.2919L617.658 43.287L617.159 43.258ZM617.366 39.6983L617.865 39.7273L617.866 39.7128V39.6983H617.366ZM607.514 34.2346L607.037 34.0866L606.824 34.7745L607.543 34.7338L607.514 34.2346ZM609.708 27.1567L610.186 27.3047L610.334 26.8266L609.856 26.6789L609.708 27.1567ZM606.894 26.2875L607.041 25.8097L606.563 25.6621L606.416 26.1402L606.894 26.2875ZM604.369 34.483L604.4 34.982L604.745 34.9605L604.847 34.6302L604.369 34.483ZM598.615 34.9383L598.571 34.4403L598.075 34.4843L598.117 34.9804L598.615 34.9383ZM598.864 37.8771L598.365 37.9192L598.407 38.4157L598.904 38.3755L598.864 37.8771ZM603.458 37.5046L603.936 37.6529L604.155 36.9464L603.418 37.0062L603.458 37.5046ZM597.994 54.7235L597.519 54.569L597.365 55.043L597.838 55.1985L597.994 54.7235ZM600.768 55.6341L600.612 56.1091L601.086 56.2648L601.242 55.791L600.768 55.6341ZM606.604 37.2562L606.569 36.7574L606.227 36.7814L606.126 37.109L606.604 37.2562ZM614.013 37.4218L613.633 37.7472L613.646 37.7618L613.659 37.7753L614.013 37.4218ZM614.344 41.147L614.843 41.1789L614.843 41.1764L614.344 41.147ZM614.22 43.0924L613.721 43.0606L613.721 43.0607L614.22 43.0924ZM613.806 48.1008L613.313 48.0186L613.312 48.0215L613.806 48.1008ZM612.026 52.4883L611.726 52.0883L611.721 52.092L612.026 52.4883ZM607.556 52.8195L607.672 52.333L607.167 52.213L607.066 52.7214L607.556 52.8195ZM606.976 55.7169L606.486 55.6188L606.388 56.1091L606.878 56.2072L606.976 55.7169ZM615.834 51.9916L615.371 51.8037L615.368 51.8121L615.834 51.9916ZM627.465 32.1651L627.72 32.5955L628.139 32.3478L627.902 31.9222L627.465 32.1651ZM624.568 27.4464L624.99 27.1791L624.719 26.751L624.295 27.0274L624.568 27.4464ZM622.788 28.6054L622.515 28.1864L622.102 28.4557L622.365 28.8727L622.788 28.6054ZM625.644 33.2412L625.211 33.4911L625.463 33.9287L625.898 33.6717L625.644 33.2412ZM628.003 42.8027L628.159 43.2777L628.633 43.1222L628.479 42.6481L628.003 42.8027ZM625.644 37.546L626.081 37.3031L626.078 37.2969L625.644 37.546ZM622.333 32.8273L622.699 32.4866L622.356 32.1185L621.99 32.4634L622.333 32.8273ZM620.18 34.8555L619.837 34.4916L619.473 34.8353L619.817 35.1992L620.18 34.8555ZM625.23 43.7133L624.754 43.8665L624.908 44.3453L625.386 44.1884L625.23 43.7133ZM631.915 30.0556C631.04 28.5133 630.038 26.8861 628.911 25.2578L628.089 25.827C629.197 27.4272 630.182 29.0286 631.045 30.5492L631.915 30.0556ZM628.22 25.1279L626.441 26.3282L627 27.1573L628.78 25.9569L628.22 25.1279ZM626.309 27.0274C627.418 28.6291 628.362 30.1483 629.183 31.5853L630.052 31.0892C629.217 29.6287 628.258 28.085 627.131 26.4582L626.309 27.0274ZM629.86 31.7743L631.723 30.7395L631.237 29.8654L629.375 30.9001L629.86 31.7743ZM617.658 43.287L617.865 39.7273L616.867 39.6693L616.66 43.229L617.658 43.287ZM617.866 39.6983C617.866 37.6013 617.526 36.0026 616.453 34.9533C615.384 33.9082 613.708 33.5277 611.364 33.5277V34.5277C613.656 34.5277 614.981 34.9129 615.754 35.6684C616.522 36.4196 616.866 37.6562 616.866 39.6983H617.866ZM611.364 33.5277C610.973 33.5277 609.661 33.6123 607.486 33.7354L607.543 34.7338C609.755 34.6086 611.01 34.5277 611.364 34.5277V33.5277ZM607.992 34.3827L610.186 27.3047L609.231 27.0087L607.037 34.0866L607.992 34.3827ZM609.856 26.6789L607.041 25.8097L606.746 26.7652L609.561 27.6344L609.856 26.6789ZM606.416 26.1402L603.891 34.3358L604.847 34.6302L607.371 26.4347L606.416 26.1402ZM604.338 33.984C602.344 34.1086 600.434 34.2747 598.571 34.4403L598.66 35.4363C600.522 35.2708 602.42 35.1057 604.4 34.982L604.338 33.984ZM598.117 34.9804L598.365 37.9192L599.362 37.835L599.114 34.8962L598.117 34.9804ZM598.904 38.3755L603.499 38.0029L603.418 37.0062L598.823 37.3787L598.904 38.3755ZM602.981 37.3563C600.912 44.0182 599.091 49.7282 597.519 54.569L598.47 54.8779C600.043 50.0331 601.865 44.319 603.936 37.6529L602.981 37.3563ZM597.838 55.1985L600.612 56.1091L600.924 55.159L598.15 54.2484L597.838 55.1985ZM601.242 55.791C602.941 50.6543 604.887 44.5249 607.082 37.4035L606.126 37.109C603.933 44.2262 601.989 50.3487 600.293 55.4771L601.242 55.791ZM606.639 37.755C609 37.5893 610.598 37.5079 611.405 37.5079V36.5079C610.557 36.5079 608.926 36.592 606.569 36.7574L606.639 37.755ZM611.405 37.5079C612.142 37.5079 612.701 37.5389 613.098 37.6003C613.297 37.631 613.439 37.667 613.535 37.703C613.637 37.7413 613.649 37.7655 613.633 37.7472L614.393 37.0964C614.253 36.9332 614.063 36.8332 613.886 36.7667C613.702 36.6979 613.487 36.6486 613.251 36.6121C612.779 36.539 612.159 36.5079 611.405 36.5079V37.5079ZM613.659 37.7753C613.667 37.7826 613.711 37.8373 613.759 38.0027C613.805 38.161 613.842 38.3813 613.867 38.674C613.915 39.2592 613.907 40.0693 613.845 41.1177L614.843 41.1764C614.906 40.1138 614.918 39.2475 614.863 38.591C614.836 38.2628 614.79 37.9709 614.72 37.7256C614.651 37.4874 614.545 37.2472 614.367 37.0682L613.659 37.7753ZM613.845 41.1152L613.721 43.0606L614.719 43.1243L614.843 41.1789L613.845 41.1152ZM613.721 43.0607C613.555 45.6814 613.432 47.3051 613.313 48.0186L614.299 48.183C614.429 47.4064 614.554 45.7188 614.719 43.1241L613.721 43.0607ZM613.312 48.0215C613.129 49.1604 612.899 50.0618 612.623 50.7436C612.346 51.4297 612.038 51.8541 611.726 52.0883L612.326 52.8883C612.842 52.5017 613.238 51.8913 613.55 51.1184C613.865 50.3411 614.11 49.3592 614.3 48.1802L613.312 48.0215ZM611.721 52.092C611.303 52.4139 610.641 52.6092 609.75 52.6092V53.6092C610.763 53.6092 611.673 53.3906 612.331 52.8846L611.721 52.092ZM609.75 52.6092C609.175 52.6092 608.51 52.5328 607.672 52.333L607.44 53.3059C608.34 53.5201 609.083 53.6092 609.75 53.6092V52.6092ZM607.066 52.7214L606.486 55.6188L607.467 55.8149L608.046 52.9175L607.066 52.7214ZM606.878 56.2072C607.931 56.4176 608.918 56.548 609.832 56.548V55.548C609.008 55.548 608.092 55.43 607.074 55.2266L606.878 56.2072ZM609.832 56.548C611.38 56.548 612.725 56.1875 613.827 55.4431C614.93 54.6982 615.754 53.5941 616.301 52.1711L615.368 51.8121C614.88 53.0796 614.172 54.0037 613.267 54.6144C612.362 55.2255 611.223 55.548 609.832 55.548V56.548ZM616.298 52.1795C616.953 50.5618 617.369 47.5422 617.658 43.2919L616.66 43.2241C616.369 47.5005 615.957 50.3585 615.371 51.8038L616.298 52.1795ZM627.902 31.9222C627.273 30.7891 626.27 29.2017 624.99 27.1791L624.145 27.7137C625.432 29.7475 626.416 31.3058 627.028 32.4079L627.902 31.9222ZM624.295 27.0274L622.515 28.1864L623.061 29.0244L624.841 27.8654L624.295 27.0274ZM622.365 28.8727C623.649 30.9017 624.596 32.425 625.211 33.4911L626.077 32.9914C625.45 31.9051 624.493 30.3654 623.211 28.3381L622.365 28.8727ZM625.898 33.6717L627.72 32.5955L627.211 31.7346L625.39 32.8108L625.898 33.6717ZM628.479 42.6481C627.928 40.9548 627.127 39.1865 626.081 37.3031L625.207 37.7888C626.23 39.6307 627.002 41.3393 627.528 42.9572L628.479 42.6481ZM626.078 37.2969C624.951 35.3357 623.853 33.7264 622.699 32.4866L621.967 33.168C623.048 34.329 624.102 35.8654 625.21 37.795L626.078 37.2969ZM621.99 32.4634L619.837 34.4916L620.523 35.2194L622.676 33.1912L621.99 32.4634ZM619.817 35.1992C621.953 37.4556 623.615 40.3264 624.754 43.8665L625.706 43.5601C624.527 39.8981 622.795 36.8913 620.543 34.5118L619.817 35.1992ZM625.386 44.1884L628.159 43.2777L627.847 42.3276L625.074 43.2383L625.386 44.1884ZM670.554 53.3575L670.968 53.6381L671.248 53.225L670.835 52.9442L670.554 53.3575ZM661.779 48.4733L661.279 48.4608L661.27 48.802L661.585 48.9343L661.779 48.4733ZM661.737 42.2232L661.677 41.7268L661.223 41.782L661.238 42.2396L661.737 42.2232ZM670.264 41.1884L670.324 41.6848L670.819 41.6248L670.761 41.13L670.264 41.1884ZM669.933 38.3738L670.43 38.3154L670.371 37.8176L669.873 37.8774L669.933 38.3738ZM661.655 39.3672L661.155 39.388L661.178 39.928L661.714 39.8636L661.655 39.3672ZM661.406 33.4068L661.383 32.9074L660.886 32.931L660.907 33.4276L661.406 33.4068ZM668.319 33.1171L668.329 33.617L668.826 33.6068L668.819 33.1097L668.319 33.1171ZM668.277 30.3024L668.777 30.2951L668.77 29.7918L668.267 29.8025L668.277 30.3024ZM661.282 30.5508L660.782 30.5624L660.794 31.0735L661.305 31.0503L661.282 30.5508ZM661.117 25.9977L661.616 25.9811L661.6 25.4839L661.102 25.4979L661.117 25.9977ZM658.178 26.0805L658.164 25.5807L657.661 25.5948L657.678 26.0972L658.178 26.0805ZM658.343 30.7164L658.373 31.2155L658.854 31.1868L658.843 30.7052L658.343 30.7164ZM649.113 31.3786L649.067 30.8807L648.571 30.9265L648.615 31.4226L649.113 31.3786ZM649.361 34.1932L648.863 34.2372L648.908 34.7387L649.409 34.691L649.361 34.1932ZM658.467 33.531L658.967 33.5107L658.946 33.0012L658.437 33.0319L658.467 33.531ZM658.716 39.6569L658.761 40.1549L659.235 40.1118L659.215 39.6367L658.716 39.6569ZM651.431 39.1188L651.853 38.8503L651.847 38.8415L651.431 39.1188ZM651.431 38.4566L651.912 38.5939L652.046 38.1228L651.578 37.9787L651.431 38.4566ZM648.74 37.6287L648.888 37.1509L648.394 36.999L648.258 37.4972L648.74 37.6287ZM649.237 40.9401L648.844 41.2491L648.851 41.2574L649.237 40.9401ZM658.799 42.513L659.299 42.5027L659.288 41.9692L658.756 42.0148L658.799 42.513ZM658.881 47.6041L658.78 48.0937L659.381 48.2182V47.6041H658.881ZM650.438 48.4733L650.16 48.0573L650.157 48.0592L650.438 48.4733ZM648.285 52.4883L647.785 52.4764V52.4883H648.285ZM650.313 56.1308L650.027 56.541L650.033 56.5447L650.313 56.1308ZM659.088 56.2136L658.82 55.7917L658.814 55.7953L659.088 56.2136ZM661.53 52.4883L662.023 52.5767L662.026 52.5602L662.027 52.5435L661.53 52.4883ZM661.613 51.6191L661.821 51.1644L661.113 50.8404V51.6191H661.613ZM668.898 55.7996L668.618 56.2135L669.031 56.4941L669.312 56.0802L668.898 55.7996ZM658.633 52.033L659.125 52.1213L659.129 52.0987L659.131 52.0757L658.633 52.033ZM652.052 50.9154L652.336 51.3266L652.34 51.3239L652.052 50.9154ZM658.757 50.5843L659.255 50.627L659.291 50.2063L658.883 50.1003L658.757 50.5843ZM670.835 52.9442C667.834 50.9018 664.866 49.2285 661.973 48.0124L661.585 48.9343C664.404 50.1189 667.313 51.7569 670.273 53.7709L670.835 52.9442ZM662.279 48.4858C662.32 46.8198 662.32 44.7406 662.237 42.2068L661.238 42.2396C661.32 44.7556 661.32 46.8155 661.279 48.4608L662.279 48.4858ZM661.798 42.7196L670.324 41.6848L670.204 40.6921L661.677 41.7268L661.798 42.7196ZM670.761 41.13L670.43 38.3154L669.436 38.4322L669.768 41.2468L670.761 41.13ZM669.873 37.8774L661.595 38.8708L661.714 39.8636L669.993 38.8702L669.873 37.8774ZM662.154 39.3464L661.906 33.386L660.907 33.4276L661.155 39.388L662.154 39.3464ZM661.43 33.9062C664.044 33.7818 666.31 33.6582 668.329 33.617L668.308 32.6172C666.271 32.6587 663.984 32.7835 661.383 32.9074L661.43 33.9062ZM668.819 33.1097L668.777 30.2951L667.777 30.3098L667.819 33.1244L668.819 33.1097ZM668.267 29.8025C666.316 29.8441 663.994 29.927 661.259 30.0513L661.305 31.0503C664.034 30.9262 666.348 30.8436 668.288 30.8023L668.267 29.8025ZM661.782 30.5392C661.741 28.7597 661.657 27.2058 661.616 25.9811L660.617 26.0144C660.659 27.2731 660.741 28.7822 660.782 30.5624L661.782 30.5392ZM661.102 25.4979L658.164 25.5807L658.192 26.5803L661.131 26.4975L661.102 25.4979ZM657.678 26.0972C657.72 27.3547 657.802 28.8657 657.843 30.7275L658.843 30.7052C658.802 28.8418 658.718 27.2898 658.677 26.0638L657.678 26.0972ZM658.314 30.2172C654.835 30.4243 651.766 30.6316 649.067 30.8807L649.159 31.8765C651.841 31.6289 654.898 31.4223 658.373 31.2155L658.314 30.2172ZM648.615 31.4226L648.863 34.2372L649.859 34.1493L649.611 31.3347L648.615 31.4226ZM649.409 34.691C652.007 34.4435 655.063 34.237 658.498 34.0301L658.437 33.0319C655.001 33.2389 651.931 33.4463 649.314 33.6955L649.409 34.691ZM657.968 33.5512L658.216 39.6772L659.215 39.6367L658.967 33.5107L657.968 33.5512ZM658.671 39.159C657.321 39.2817 656.177 39.3225 655.156 39.3225V40.3225C656.205 40.3225 657.379 40.2805 658.761 40.1549L658.671 39.159ZM655.156 39.3225C654.073 39.3225 653.25 39.2608 652.674 39.1503C652.385 39.0951 652.177 39.0308 652.034 38.966C651.886 38.8983 651.852 38.8492 651.853 38.8504L651.009 39.3873C651.155 39.6161 651.385 39.7688 651.619 39.8758C651.86 39.9855 652.153 40.0687 652.485 40.1325C653.151 40.2601 654.046 40.3225 655.156 40.3225V39.3225ZM651.847 38.8415C651.858 38.8578 651.864 38.8713 651.867 38.8796C651.869 38.8838 651.87 38.8871 651.871 38.8891C651.871 38.8902 651.871 38.891 651.872 38.8915C651.872 38.892 651.872 38.8923 651.872 38.8923C651.872 38.8923 651.872 38.8921 651.872 38.8916C651.872 38.8911 651.871 38.8904 651.871 38.8895C651.871 38.8875 651.871 38.8847 651.87 38.8811C651.869 38.8736 651.869 38.8632 651.869 38.8498C651.869 38.7928 651.88 38.7054 651.912 38.5939L650.95 38.3192C650.899 38.4975 650.869 38.6791 650.869 38.8498C650.869 39.0086 650.895 39.2164 651.015 39.3962L651.847 38.8415ZM651.578 37.9787L648.888 37.1509L648.593 38.1066L651.284 38.9345L651.578 37.9787ZM648.258 37.4972C648.13 37.9654 648.034 38.4306 648.034 38.8705H649.034C649.034 38.5653 649.102 38.2027 649.223 37.7603L648.258 37.4972ZM648.034 38.8705C648.034 39.7673 648.318 40.5801 648.844 41.249L649.63 40.6312C649.245 40.141 649.034 39.5465 649.034 38.8705H648.034ZM648.851 41.2574C649.414 41.9432 650.275 42.4191 651.357 42.725C652.441 43.0316 653.784 43.1785 655.363 43.1785V42.1785C653.838 42.1785 652.594 42.0357 651.629 41.7628C650.662 41.4893 650.012 41.0959 649.624 40.6227L648.851 41.2574ZM655.363 43.1785C656.248 43.1785 657.38 43.1364 658.841 43.0111L658.756 42.0148C657.32 42.1379 656.216 42.1785 655.363 42.1785V43.1785ZM658.299 42.5232C658.34 44.5555 658.381 46.2448 658.381 47.6041H659.381C659.381 46.2315 659.34 44.5268 659.299 42.5027L658.299 42.5232ZM658.983 47.1145C657.751 46.8596 656.517 46.7316 655.363 46.7316V47.7316C656.445 47.7316 657.611 47.8519 658.78 48.0937L658.983 47.1145ZM655.363 46.7316C653.272 46.7316 651.509 47.1578 650.16 48.0573L650.715 48.8894C651.849 48.1332 653.398 47.7316 655.363 47.7316V46.7316ZM650.157 48.0592C648.611 49.1055 647.83 50.5829 647.785 52.4764L648.785 52.5002C648.823 50.9169 649.45 49.7452 650.718 48.8875L650.157 48.0592ZM647.785 52.4883C647.785 54.161 648.544 55.507 650.027 56.541L650.599 55.7206C649.351 54.8506 648.785 53.7958 648.785 52.4883H647.785ZM650.033 56.5447C651.411 57.4784 653.003 57.9139 654.825 57.9139V56.9139C653.171 56.9139 651.782 56.5216 650.594 55.7168L650.033 56.5447ZM654.825 57.9139C656.569 57.9139 658.073 57.4763 659.362 56.6318L658.814 55.7953C657.703 56.5237 656.392 56.9139 654.825 56.9139V57.9139ZM659.357 56.6354C660.849 55.6856 661.71 54.3179 662.023 52.5767L661.038 52.4C660.771 53.8872 660.059 55.0031 658.82 55.7917L659.357 56.6354ZM662.027 52.5435C662.065 52.2026 662.113 51.8629 662.113 51.6191H661.113C661.113 51.7892 661.078 52.029 661.034 52.4331L662.027 52.5435ZM661.405 52.0737C663.816 53.1769 666.192 54.5691 668.618 56.2135L669.179 55.3858C666.72 53.7189 664.295 52.2964 661.821 51.1644L661.405 52.0737ZM669.312 56.0802L670.968 53.6381L670.14 53.077L668.484 55.5191L669.312 56.0802ZM658.141 51.9447C658.017 52.633 657.703 53.117 657.21 53.4418C656.7 53.7774 655.95 53.9751 654.908 53.9751V54.9751C656.06 54.9751 657.027 54.759 657.759 54.277C658.508 53.7844 658.959 53.0472 659.125 52.1213L658.141 51.9447ZM654.908 53.9751C653.999 53.9751 653.159 53.7804 652.564 53.4763C651.945 53.1598 651.724 52.8042 651.724 52.5297H650.724C650.724 53.3728 651.372 53.9899 652.109 54.3667C652.87 54.7559 653.872 54.9751 654.908 54.9751V53.9751ZM651.724 52.5297C651.724 51.9873 651.936 51.6041 652.336 51.3265L651.767 50.5043C651.092 50.9718 650.724 51.6648 650.724 52.5297H651.724ZM652.34 51.3239C652.918 50.9163 653.909 50.6704 655.322 50.6704V49.6704C653.837 49.6704 652.593 49.9212 651.763 50.507L652.34 51.3239ZM655.322 50.6704C656.446 50.6704 657.562 50.7908 658.632 51.0683L658.883 50.1003C657.718 49.7983 656.516 49.6704 655.322 49.6704V50.6704ZM658.259 50.5416L658.135 51.9903L659.131 52.0757L659.255 50.627L658.259 50.5416ZM702.922 47.273L703.167 46.8372L702.728 46.59L702.484 47.0316L702.922 47.273ZM693.899 30.6336L694.396 30.6898L694.452 30.1905L693.952 30.1365L693.899 30.6336ZM690.836 30.3024L690.889 29.8053L690.397 29.7521L690.339 30.2435L690.836 30.3024ZM705.571 48.7631L706.009 49.0052L706.249 48.5707L705.816 48.3273L705.571 48.7631ZM720.224 48.8873L720.336 49.3746L720.816 49.2642L720.713 48.7825L720.224 48.8873ZM717.326 40.2778L716.869 40.4798L716.87 40.4827L717.326 40.2778ZM712.649 32.5376L713.029 32.2128L712.704 31.832L712.324 32.158L712.649 32.5376ZM710.331 34.5244L710.006 34.1447L709.628 34.4689L709.95 34.8483L710.331 34.5244ZM717.161 49.5909L716.674 49.704L716.787 50.1899L717.273 50.0782L717.161 49.5909ZM702.484 47.0316C701.606 48.6239 700.767 49.7841 699.962 50.5407C699.158 51.2956 698.426 51.6158 697.748 51.6158V52.6158C698.767 52.6158 699.732 52.1289 700.646 51.2694C701.559 50.4118 702.458 49.1506 703.36 47.5144L702.484 47.0316ZM697.748 51.6158C697.202 51.6158 696.716 51.3986 696.271 50.9095C695.813 50.4061 695.401 49.6143 695.06 48.4888C694.378 46.238 694.026 42.8106 694.026 38.1668H693.026C693.026 42.8362 693.378 46.3833 694.103 48.7787C694.466 49.9763 694.934 50.9254 695.531 51.5824C696.142 52.2535 696.887 52.6158 697.748 52.6158V51.6158ZM694.026 38.1668C694.026 35.3248 694.15 32.8606 694.396 30.6898L693.402 30.5773C693.151 32.794 693.026 35.2968 693.026 38.1668H694.026ZM693.952 30.1365L690.889 29.8053L690.782 30.7995L693.845 31.1307L693.952 30.1365ZM690.339 30.2435C690.047 32.7091 689.922 35.2541 689.922 37.9599H690.922C690.922 35.2847 691.045 32.78 691.332 30.3613L690.339 30.2435ZM689.922 37.9599C689.922 43.7127 690.532 48.0893 691.799 51.0451C692.435 52.5286 693.247 53.6797 694.254 54.4608C695.268 55.2475 696.454 55.6374 697.789 55.6374V54.6374C696.662 54.6374 695.695 54.3133 694.867 53.6706C694.031 53.0225 693.309 52.029 692.718 50.6512C691.532 47.8847 690.922 43.6725 690.922 37.9599H689.922ZM697.789 55.6374C700.931 55.6374 703.626 53.3101 706.009 49.0052L705.134 48.521C702.797 52.7428 700.36 54.6374 697.789 54.6374V55.6374ZM705.816 48.3273L703.167 46.8372L702.677 47.7088L705.326 49.1989L705.816 48.3273ZM720.713 48.7825C720.083 45.8441 719.077 42.9543 717.782 40.0729L716.87 40.4827C718.142 43.3133 719.123 46.1356 719.735 48.992L720.713 48.7825ZM717.784 40.0758C716.361 36.8548 714.765 34.2444 713.029 32.2128L712.269 32.8623C713.928 34.8043 715.477 37.3265 716.869 40.4798L717.784 40.0758ZM712.324 32.158L710.006 34.1447L710.657 34.904L712.974 32.9172L712.324 32.158ZM709.95 34.8483C712.945 38.3688 715.195 43.336 716.674 49.704L717.648 49.4778C716.147 43.0144 713.844 37.8821 710.712 34.2004L709.95 34.8483ZM717.273 50.0782L720.336 49.3746L720.112 48.3999L717.049 49.1036L717.273 50.0782Z" fill="#323333"/>
<mask id="mask0_315_544" style="mask-type:alpha" maskUnits="userSpaceOnUse" x="0" y="44" width="1280" height="865">
<rect y="44" width="1280" height="865" fill="#D9D9D9"/>
</mask>
<g mask="url(#mask0_315_544)">
<line x1="384.491" y1="641.013" x2="890.257" y2="641.013" stroke="#1E5B9D" stroke-width="7.9738" stroke-linecap="round"/>
<line x1="3.9869" y1="-3.9869" x2="549.623" y2="-3.9869" transform="matrix(-1 0 0 1 913.609 741.825)" stroke="#D94D6D" stroke-width="7.9738" stroke-linecap="round"/>
<path d="M1376 530.58C1376 692.631 1232.73 824 1056 824C879.269 824 736 692.631 736 530.58C736 368.529 840.421 454.909 1056 237.16C1376 -181.864 1376 368.529 1376 530.58Z" fill="#1E5B9D"/>
<path d="M-110 536.124C-110 695.113 33.2689 824 210 824C386.731 824 530 695.113 530 536.124C530 377.134 425.579 461.882 210 248.247C-110 -162.86 -110 377.134 -110 536.124Z" fill="#D94D6D"/>
<line x1="384.739" y1="655.905" x2="890.259" y2="671.69" stroke="#1E5B9D" stroke-width="7.9738" stroke-linecap="round"/>
<line x1="471.987" y1="836.013" x2="808.013" y2="836.013" stroke="#F7E7DE" stroke-width="7.9738" stroke-linecap="round"/>
<line x1="472.193" y1="846.202" x2="808.056" y2="856.69" stroke="#F7E7DE" stroke-width="7.9738" stroke-linecap="round"/>
<line x1="3.9869" y1="-3.9869" x2="549.385" y2="-3.9869" transform="matrix(-0.999513 0.0312106 0.0312106 0.999513 913.475 757.729)" stroke="#D94D6D" stroke-width="7.9738" stroke-linecap="round"/>
<g clip-path="url(#clip0_315_544)">
<path d="M654.81 553.306C723.511 553.306 779.204 497.904 779.204 429.562C779.204 361.221 723.511 305.819 654.81 305.819C586.109 305.819 530.416 361.221 530.416 429.562C530.416 497.904 586.109 553.306 654.81 553.306Z" fill="white"/>
<path d="M684.425 532.021C636.822 532.021 569.557 549.975 535.286 482.184C517.481 447.093 516.385 404.523 534.951 369.855C568.431 307.272 638.131 320.534 678.763 318.112H680.103C695.717 317.385 700.312 295.101 686.19 287.562C663.452 275.227 637.639 269.627 611.803 271.424C540.612 276.147 482.692 337.217 477.457 413.182C471.156 503.56 537.964 578.951 621.299 578.951C648.692 578.951 666.619 580.041 688.442 565.871C699.521 558.665 701.652 531.355 688.686 531.93C687.286 531.991 685.886 532.021 684.425 532.021Z" fill="white"/>
<path d="M710.813 522.575C665.402 522.575 601.242 538.561 568.462 478.279C551.448 447.063 550.413 409.216 568.127 378.364C600.116 322.744 666.528 334.522 705.304 332.342H706.552C709.794 332.29 712.923 331.152 715.436 329.114C717.948 327.075 719.697 324.254 720.4 321.106C721.104 317.957 720.72 314.665 719.312 311.76C717.904 308.855 715.554 306.506 712.639 305.093C691.252 294.354 667.418 289.356 643.493 290.593C619.569 291.83 596.383 299.259 576.231 312.145C556.078 325.032 539.657 342.928 528.591 364.065C517.525 385.202 512.199 408.847 513.138 432.66C514.077 456.473 521.25 479.63 533.947 499.839C546.644 520.048 564.424 536.61 585.53 547.886C606.636 559.161 630.335 564.76 654.283 564.128C678.232 563.497 701.599 556.656 722.075 544.284C732.636 537.865 727.31 521.848 714.952 522.333C713.532 522.494 712.152 522.575 710.813 522.575Z" fill="white"/>
<path d="M646.454 383.608L617.894 412.018C609.835 420.035 609.835 433.032 617.894 441.049L646.454 469.459C654.512 477.476 667.578 477.476 675.637 469.459L704.197 441.049C712.255 433.032 712.255 420.035 704.197 412.018L675.637 383.608C667.578 375.591 654.512 375.591 646.454 383.608Z" fill="white"/>
<path d="M702.047 438.858C702.504 444.096 701.317 450.969 695.96 451.968C693.15 452.162 690.363 451.345 688.108 449.667L683.512 447.002C687.589 441.467 690.092 434.94 690.756 428.109C691.202 423.696 690.445 419.244 688.565 415.222C686.686 411.2 683.752 407.755 680.072 405.25C674.737 402.294 668.612 401.056 662.541 401.707C657.831 401.987 653.186 402.945 648.753 404.553C650.79 401.527 653.059 398.663 655.541 395.985C659.291 391.43 664.412 388.193 670.15 386.75C671.503 386.568 672.875 386.568 674.229 386.75C681.564 387.659 686.738 394.229 690.299 400.648C696.866 412.423 700.869 425.442 702.047 438.858V438.858Z" fill="white"/>
<path d="M680.164 405.25C683.843 407.755 686.777 411.2 688.657 415.222C690.536 419.245 691.293 423.696 690.847 428.11C690.183 434.94 687.681 441.467 683.603 447.003L673.955 441.432L671.915 440.22C661.871 434.437 651.584 428.412 644.522 419.329C643.738 418.36 643.006 417.349 642.331 416.301C644.157 412.229 646.347 408.327 648.875 404.645C653.308 403.036 657.952 402.078 662.663 401.798C668.715 401.126 674.827 402.332 680.164 405.25V405.25Z" fill="white"/>
<path d="M673.954 441.431L683.603 446.972C682.45 448.638 681.2 450.235 679.859 451.756C673.617 458.936 665.88 464.681 657.184 468.59C654.573 469.945 651.667 470.642 648.723 470.619C646.546 470.348 644.47 469.545 642.68 468.282C640.89 467.02 639.443 465.336 638.466 463.382C636.519 459.484 635.479 455.2 635.422 450.847C635.422 450.03 635.422 449.243 635.422 448.425C636.415 448.804 637.431 449.118 638.466 449.364C648.205 451.453 658.31 448.425 667.837 445.458L672.554 442.733L673.802 441.492L673.954 441.431Z" fill="white"/>
<path d="M671.915 440.25L673.955 441.461L672.707 442.703L667.989 445.428C658.462 448.455 648.358 451.483 638.618 449.333C637.584 449.088 636.567 448.774 635.574 448.395C635.466 437.281 637.792 426.278 642.392 416.149C643.067 417.197 643.799 418.208 644.583 419.177C651.584 428.442 661.871 434.467 671.915 440.25Z" fill="white"/>
<path d="M670.211 386.508V386.75C664.473 388.193 659.351 391.43 655.601 395.985C653.12 398.663 650.851 401.527 648.814 404.553C645.416 405.736 642.152 407.268 639.074 409.125C638.093 405.849 637.795 402.409 638.198 399.014C638.601 395.62 639.697 392.343 641.418 389.384C646.105 381.028 656.636 374.246 664.397 379.908C666.256 380.846 667.824 382.269 668.932 384.025L670.211 386.508Z" fill="white"/>
<path d="M639.105 409.125C642.183 407.268 645.447 405.736 648.844 404.553C646.316 408.236 644.126 412.137 642.301 416.21C640.938 413.993 639.864 411.612 639.105 409.125V409.125Z" fill="white"/>
<path d="M639.105 409.125C639.816 411.604 640.839 413.985 642.148 416.21C637.548 426.338 635.222 437.342 635.331 448.455C626.869 445.428 619.93 437.01 621.817 428.381C622.815 424.709 624.743 421.352 627.417 418.632C630.819 414.906 634.758 411.702 639.105 409.125V409.125Z" fill="white"/>
<path d="M673.62 441.219C669.602 445.246 663.484 446.548 658.158 447.85C649.027 450.091 638.953 450.878 630.765 445.61C622.578 440.341 619.412 430.32 625.469 421.812C630.806 414.716 638.011 409.225 646.288 405.946C654.625 402.298 663.877 401.243 672.828 402.919C677.16 403.93 681.093 406.195 684.132 409.429C687.171 412.662 689.179 416.718 689.903 421.085C693.403 439.251 678.063 456.207 663.484 464.836C660.029 467.101 656.24 468.817 652.253 469.922C649.575 470.439 646.8 470.063 644.357 468.854C641.914 467.644 639.94 465.668 638.74 463.231C634.296 455.359 635.422 443.793 636.883 435.194C639.561 419.359 647.536 402.404 660.289 392.109C663.796 388.96 668.318 387.156 673.041 387.023C675.36 387.241 677.608 387.928 679.65 389.042C681.691 390.156 683.482 391.674 684.912 393.502C690.667 400.741 694.891 409.062 697.33 417.966C699.826 425.778 702.443 435.164 701.469 443.399C700.891 448.123 698.425 452.906 692.612 451.332C687.981 449.519 683.594 447.139 679.555 444.247C663.911 435.164 639.805 424.294 638.466 403.554C638.156 398.506 639.4 393.484 642.032 389.157C644.664 384.83 648.558 381.403 653.197 379.332C660.319 376.638 666.619 380.604 669.724 386.872C669.967 387.356 670.728 386.871 670.485 386.417C669.444 383.895 667.704 381.719 665.468 380.143C663.231 378.567 660.591 377.656 657.854 377.516C649.758 377.516 642.879 384.722 639.805 391.595C630.674 411.971 650.062 427.928 665.676 437.283C670.728 440.311 675.872 443.339 680.894 446.185C684.82 448.456 689.447 452.24 694.134 452.604C701.682 453.088 702.747 443.793 702.26 438.282C701.277 427.482 698.457 416.927 693.921 407.067C690.39 399.316 685.368 389.324 676.389 386.811C667.411 384.298 659.041 391.231 653.501 397.65C647.038 405.17 642.088 413.856 638.922 423.235C635.565 432.957 634.27 443.266 635.118 453.512C635.848 461.112 639.622 470.467 648.54 471.103C653.136 471.466 657.671 468.923 661.689 466.834C666.264 464.315 670.525 461.266 674.381 457.751C682.227 451.196 687.841 442.386 690.451 432.53C691.448 428.412 691.466 424.12 690.505 419.995C689.543 415.869 687.628 412.023 684.912 408.762C678.398 401.405 668.019 400.315 658.767 401.556C649.222 402.919 640.228 406.833 632.744 412.88C626.139 418.269 618.865 426.323 621.695 435.497C623.11 439.297 625.526 442.649 628.691 445.201C631.856 447.752 635.653 449.41 639.683 450C644.916 450.739 650.242 450.503 655.388 449.303C660.026 448.551 664.548 447.207 668.841 445.307C670.765 444.411 672.532 443.215 674.076 441.764C674.472 441.371 673.833 440.735 673.437 441.159L673.62 441.219Z" fill="white"/>
<path d="M732.362 330.495C802.092 371.006 807.479 473.252 741.676 520.182C741.103 520.64 740.37 520.852 739.639 520.773C738.909 520.694 738.24 520.328 737.78 519.758C737.32 519.188 737.106 518.46 737.186 517.733C737.266 517.006 737.633 516.341 738.206 515.883C751.19 504.137 761.487 489.754 768.399 473.707C789.704 425.081 772.569 365.949 729.318 335.066C728.786 334.635 728.433 334.021 728.33 333.345C728.227 332.669 728.38 331.979 728.759 331.409C729.139 330.84 729.717 330.43 730.383 330.261C731.049 330.092 731.754 330.175 732.362 330.495V330.495Z" fill="white"/>
</g>
<g clip-path="url(#clip1_315_544)">
<path d="M651.224 510.078C698.069 510.078 736.045 472.102 736.045 425.257C736.045 378.411 698.069 340.436 651.224 340.436C604.378 340.436 566.403 378.411 566.403 425.257C566.403 472.102 604.378 510.078 651.224 510.078Z" fill="white"/>
<path d="M671.417 495.488C638.958 495.488 593.092 507.795 569.724 461.327C557.583 437.273 556.835 408.093 569.495 384.33C592.325 341.432 639.851 350.522 667.557 348.862H668.47C679.117 348.364 682.251 333.089 672.621 327.921C657.117 319.467 639.516 315.628 621.899 316.859C573.356 320.097 533.861 361.957 530.291 414.029C525.995 475.979 571.55 527.656 628.374 527.656C647.052 527.656 659.276 528.403 674.157 518.69C681.711 513.751 683.164 495.031 674.323 495.425C673.368 495.467 672.414 495.488 671.417 495.488Z" fill="#1E5B9D"/>
<path d="M689.411 489.012C658.446 489.012 614.697 499.97 592.345 458.649C580.744 437.252 580.038 411.31 592.117 390.162C613.929 352.037 659.214 360.11 685.654 358.616H686.505C688.716 358.58 690.85 357.8 692.563 356.403C694.276 355.006 695.469 353.072 695.948 350.914C696.428 348.756 696.166 346.499 695.206 344.508C694.246 342.516 692.643 340.906 690.656 339.938C676.073 332.577 659.821 329.151 643.507 329.999C627.194 330.847 611.384 335.939 597.643 344.772C583.901 353.605 572.704 365.872 565.159 380.361C557.613 394.849 553.981 411.056 554.621 427.379C555.262 443.702 560.153 459.575 568.811 473.428C577.468 487.28 589.592 498.633 603.984 506.362C618.375 514.091 634.535 517.929 650.865 517.495C667.194 517.062 683.128 512.374 697.09 503.893C704.291 499.493 700.659 488.514 692.233 488.846C691.265 488.957 690.324 489.012 689.411 489.012Z" fill="#F7E7DE"/>
<path d="M645.526 393.757L626.052 413.231C620.557 418.726 620.557 427.635 626.052 433.13L645.526 452.604C651.021 458.099 659.93 458.099 665.425 452.604L684.899 433.13C690.394 427.635 690.394 418.726 684.899 413.231L665.425 393.757C659.93 388.262 651.021 388.262 645.526 393.757Z" fill="#D94D6D"/>
<path d="M683.434 431.628C683.745 435.218 682.936 439.929 679.283 440.614C677.367 440.747 675.466 440.188 673.928 439.037L670.795 437.211C673.575 433.416 675.281 428.942 675.734 424.26C676.038 421.235 675.522 418.184 674.241 415.427C672.959 412.67 670.958 410.308 668.449 408.591C664.812 406.565 660.635 405.716 656.495 406.163C653.283 406.354 650.117 407.011 647.094 408.114C648.483 406.039 650.03 404.076 651.722 402.24C654.279 399.118 657.771 396.899 661.684 395.91C662.606 395.786 663.542 395.786 664.465 395.91C669.466 396.533 672.995 401.037 675.423 405.436C679.901 413.508 682.63 422.432 683.434 431.628V431.628Z" fill="white"/>
<path d="M668.512 408.591C671.021 410.309 673.021 412.67 674.303 415.427C675.585 418.184 676.101 421.235 675.796 424.261C675.344 428.943 673.637 433.417 670.857 437.211L664.278 433.392L662.888 432.562C656.039 428.598 649.024 424.468 644.209 418.242C643.674 417.578 643.175 416.885 642.715 416.167C643.96 413.375 645.453 410.701 647.177 408.176C650.2 407.074 653.367 406.417 656.578 406.226C660.705 405.765 664.873 406.591 668.512 408.591V408.591Z" fill="#F7E7DE"/>
<path d="M664.278 433.392L670.857 437.19C670.071 438.332 669.218 439.427 668.304 440.469C664.048 445.391 658.772 449.329 652.843 452.009C651.062 452.937 649.081 453.415 647.073 453.399C645.589 453.213 644.173 452.663 642.953 451.798C641.733 450.932 640.745 449.778 640.079 448.439C638.752 445.767 638.043 442.83 638.004 439.847C638.004 439.286 638.004 438.747 638.004 438.186C638.681 438.446 639.374 438.661 640.079 438.83C646.72 440.262 653.611 438.186 660.106 436.153L663.323 434.285L664.174 433.434L664.278 433.392Z" fill="#1E5B9D"/>
<path d="M662.888 432.583L664.278 433.413L663.427 434.264L660.21 436.131C653.714 438.207 646.824 440.282 640.183 438.809C639.478 438.64 638.784 438.425 638.107 438.165C638.033 430.548 639.62 423.005 642.756 416.062C643.217 416.781 643.715 417.474 644.251 418.138C649.024 424.489 656.039 428.619 662.888 432.583Z" fill="white"/>
<path d="M661.725 395.745V395.911C657.813 396.9 654.321 399.119 651.764 402.241C650.072 404.076 648.524 406.04 647.135 408.114C644.819 408.925 642.593 409.975 640.494 411.248C639.825 409.003 639.622 406.644 639.897 404.317C640.171 401.991 640.919 399.744 642.092 397.717C645.288 391.988 652.469 387.34 657.761 391.221C659.029 391.864 660.098 392.839 660.854 394.043L661.725 395.745Z" fill="#1E5B9D"/>
<path d="M640.515 411.248C642.614 409.975 644.839 408.925 647.156 408.114C645.432 410.639 643.939 413.313 642.694 416.104C641.765 414.584 641.033 412.953 640.515 411.248V411.248Z" fill="#1E5B9D"/>
<path d="M640.515 411.248C641 412.947 641.697 414.579 642.59 416.104C639.454 423.047 637.867 430.589 637.941 438.207C632.172 436.131 627.44 430.362 628.727 424.447C629.408 421.93 630.722 419.629 632.545 417.764C634.865 415.21 637.551 413.014 640.515 411.248V411.248Z" fill="#F7E7DE"/>
<path d="M664.05 433.247C661.31 436.007 657.139 436.9 653.507 437.792C647.281 439.328 640.411 439.867 634.828 436.256C629.246 432.645 627.087 425.775 631.217 419.944C634.856 415.08 639.769 411.316 645.413 409.069C651.098 406.568 657.406 405.844 663.51 406.993C666.464 407.687 669.146 409.239 671.218 411.456C673.29 413.672 674.659 416.452 675.153 419.446C677.54 431.898 667.08 443.52 657.139 449.435C654.783 450.988 652.199 452.164 649.481 452.921C647.654 453.275 645.762 453.018 644.096 452.189C642.431 451.36 641.085 450.006 640.266 448.335C637.236 442.939 638.004 435.011 639 429.117C640.826 418.263 646.264 406.64 654.96 399.584C657.351 397.425 660.434 396.189 663.655 396.097C665.236 396.247 666.77 396.718 668.161 397.482C669.553 398.245 670.774 399.286 671.749 400.539C675.674 405.5 678.554 411.204 680.217 417.308C681.919 422.662 683.704 429.096 683.039 434.741C682.645 437.979 680.964 441.258 677 440.179C673.842 438.936 670.851 437.305 668.097 435.322C657.429 429.096 640.992 421.645 640.079 407.429C639.868 403.969 640.716 400.526 642.511 397.56C644.305 394.594 646.961 392.245 650.124 390.826C654.98 388.979 659.276 391.698 661.393 395.994C661.559 396.326 662.078 395.994 661.912 395.682C661.202 393.954 660.016 392.462 658.491 391.382C656.966 390.301 655.166 389.677 653.299 389.581C647.779 389.581 643.088 394.52 640.992 399.231C634.766 413.199 647.986 424.136 658.633 430.549C662.078 432.624 665.586 434.7 669.01 436.65C671.687 438.207 674.842 440.801 678.038 441.05C683.185 441.382 683.911 435.011 683.579 431.234C682.909 423.831 680.986 416.596 677.893 409.837C675.485 404.524 672.061 397.675 665.938 395.952C659.816 394.23 654.109 398.982 650.331 403.382C645.924 408.537 642.549 414.49 640.39 420.919C638.101 427.584 637.218 434.65 637.796 441.673C638.294 446.882 640.868 453.295 646.949 453.731C650.082 453.98 653.175 452.237 655.914 450.805C659.034 449.078 661.939 446.988 664.569 444.578C669.919 440.086 673.747 434.046 675.527 427.29C676.206 424.468 676.219 421.526 675.563 418.698C674.908 415.87 673.602 413.234 671.749 410.999C667.308 405.956 660.231 405.208 653.922 406.059C647.414 406.994 641.281 409.676 636.177 413.821C631.674 417.515 626.714 423.036 628.644 429.324C629.608 431.929 631.256 434.227 633.414 435.976C635.572 437.725 638.161 438.861 640.909 439.265C644.478 439.772 648.109 439.61 651.618 438.788C654.781 438.272 657.864 437.351 660.791 436.049C662.103 435.435 663.308 434.615 664.361 433.62C664.631 433.351 664.195 432.915 663.925 433.205L664.05 433.247Z" fill="white"/>
<path d="M704.105 357.35C751.652 385.119 755.325 455.205 710.455 487.373C710.064 487.687 709.565 487.832 709.067 487.778C708.569 487.723 708.112 487.473 707.799 487.082C707.485 486.692 707.339 486.192 707.394 485.694C707.448 485.196 707.698 484.74 708.089 484.426C716.943 476.375 723.964 466.516 728.677 455.516C743.205 422.185 731.52 381.653 702.029 360.484C701.666 360.188 701.426 359.768 701.355 359.304C701.285 358.841 701.389 358.368 701.648 357.977C701.906 357.587 702.301 357.306 702.755 357.19C703.209 357.074 703.69 357.131 704.105 357.35V357.35Z" fill="#D94D6D"/>
</g>
<path d="M-256.882 510.204L-265.582 514.835C-266.954 512.028 -268.654 510.625 -270.681 510.625C-271.648 510.625 -272.474 510.952 -273.16 511.607C-273.846 512.231 -274.189 513.042 -274.189 514.04C-274.189 515.786 -272.162 517.517 -268.108 519.232C-262.526 521.633 -258.768 523.847 -256.835 525.874C-254.901 527.901 -253.935 530.63 -253.935 534.06C-253.935 538.457 -255.556 542.137 -258.8 545.1C-261.949 547.906 -265.754 549.31 -270.213 549.31C-277.853 549.31 -283.264 545.583 -286.445 538.13L-277.464 533.967C-276.216 536.15 -275.265 537.537 -274.61 538.13C-273.332 539.315 -271.804 539.908 -270.026 539.908C-266.471 539.908 -264.693 538.286 -264.693 535.043C-264.693 533.172 -266.066 531.425 -268.81 529.804C-269.87 529.273 -270.93 528.759 -271.991 528.26C-273.051 527.761 -274.127 527.246 -275.218 526.716C-278.274 525.219 -280.426 523.723 -281.674 522.226C-283.264 520.323 -284.059 517.875 -284.059 514.882C-284.059 510.921 -282.703 507.647 -279.99 505.058C-277.214 502.47 -273.846 501.176 -269.886 501.176C-264.054 501.176 -259.719 504.185 -256.882 510.204ZM-224.334 502.439V528.587C-224.334 536.134 -221.356 539.908 -215.399 539.908C-209.443 539.908 -206.465 536.134 -206.465 528.587V502.439H-195.94V528.821C-195.94 532.47 -196.392 535.62 -197.297 538.27C-198.17 540.64 -199.682 542.777 -201.834 544.679C-205.389 547.766 -209.911 549.31 -215.399 549.31C-220.857 549.31 -225.363 547.766 -228.918 544.679C-231.101 542.777 -232.645 540.64 -233.549 538.27C-234.422 536.15 -234.859 533 -234.859 528.821V502.439H-224.334ZM-129.011 546.924C-129.011 549.076 -129.089 550.963 -129.245 552.584C-129.37 554.237 -129.557 555.687 -129.806 556.934C-130.555 560.365 -132.02 563.312 -134.203 565.775C-138.32 570.515 -143.98 572.886 -151.184 572.886C-157.265 572.886 -162.27 571.248 -166.199 567.974C-170.253 564.606 -172.592 559.944 -173.216 553.988H-162.644C-162.239 556.233 -161.568 557.964 -160.633 559.18C-158.45 562.018 -155.269 563.437 -151.09 563.437C-143.387 563.437 -139.536 558.712 -139.536 549.263V542.901C-143.715 547.174 -148.533 549.31 -153.99 549.31C-160.196 549.31 -165.279 547.064 -169.24 542.574C-173.231 538.021 -175.227 532.33 -175.227 525.5C-175.227 518.858 -173.372 513.213 -169.661 508.567C-165.669 503.639 -160.399 501.176 -153.85 501.176C-148.112 501.176 -143.341 503.312 -139.536 507.584V502.439H-129.011L-129.011 546.924ZM-139.115 525.313C-139.115 520.885 -140.3 517.345 -142.67 514.695C-145.071 511.981 -148.143 510.625 -151.885 510.625C-155.877 510.625 -159.027 512.106 -161.334 515.069C-163.424 517.719 -164.468 521.15 -164.468 525.36C-164.468 529.507 -163.424 532.907 -161.334 535.557C-159.058 538.457 -155.908 539.908 -151.885 539.908C-147.862 539.908 -144.681 538.442 -142.343 535.51C-140.191 532.86 -139.115 529.461 -139.115 525.313ZM-72.5602 502.439H-61.9885L-61.9885 548H-72.5602V543.229C-76.8949 547.283 -81.557 549.31 -86.5466 549.31C-92.846 549.31 -98.0538 547.033 -102.17 542.48C-106.255 537.834 -108.298 532.033 -108.298 525.079C-108.298 518.25 -106.255 512.558 -102.17 508.005C-98.085 503.452 -92.9707 501.176 -86.8273 501.176C-81.5259 501.176 -76.7702 503.359 -72.5602 507.725V502.439ZM-97.5393 525.079C-97.5393 529.445 -96.3699 533 -94.031 535.744C-91.6298 538.52 -88.6048 539.908 -84.9562 539.908C-81.0581 539.908 -77.9084 538.567 -75.5072 535.885C-73.1059 533.109 -71.9053 529.585 -71.9053 525.313C-71.9053 521.041 -73.1059 517.517 -75.5072 514.741C-77.9084 512.028 -81.0269 510.672 -84.8626 510.672C-88.4801 510.672 -91.505 512.044 -93.9374 514.788C-96.3387 517.564 -97.5393 520.994 -97.5393 525.079ZM-32.5749 502.439L-20.6467 528.447L-7.78292 498.276L5.1744 528.447L16.9623 502.439H28.7502L4.89374 551.415L-7.78292 522.085L-20.5999 551.415L-44.4096 502.439H-32.5749ZM77.4828 502.439H88.0545V548H77.4828V543.229C73.1481 547.283 68.486 549.31 63.4964 549.31C57.197 549.31 51.9892 547.033 47.8728 542.48C43.7875 537.834 41.7449 532.033 41.7449 525.079C41.7449 518.25 43.7875 512.558 47.8728 508.005C51.958 503.452 57.0723 501.176 63.2157 501.176C68.5172 501.176 73.2729 503.359 77.4828 507.725V502.439ZM52.5037 525.079C52.5037 529.445 53.6732 533 56.012 535.744C58.4133 538.52 61.4382 539.908 65.0868 539.908C68.9849 539.908 72.1346 538.567 74.5358 535.885C76.9371 533.109 78.1377 529.585 78.1377 525.313C78.1377 521.041 76.9371 517.517 74.5358 514.741C72.1346 512.028 69.0161 510.672 65.1804 510.672C61.5629 510.672 58.538 512.044 56.1056 514.788C53.7043 517.564 52.5037 520.994 52.5037 525.079ZM110.919 502.439H121.444V506.508C123.378 504.481 125.093 503.094 126.59 502.345C128.118 501.566 129.926 501.176 132.016 501.176C134.791 501.176 137.692 502.08 140.716 503.889L135.898 513.525C133.903 512.091 131.953 511.373 130.051 511.373C124.313 511.373 121.444 515.708 121.444 524.377V548H110.919V502.439ZM189.262 502.439H199.834V548H189.262V543.229C184.927 547.283 180.265 549.31 175.276 549.31C168.976 549.31 163.768 547.033 159.652 542.48C155.567 537.834 153.524 532.033 153.524 525.079C153.524 518.25 155.567 512.558 159.652 508.005C163.737 503.452 168.851 501.176 174.995 501.176C180.296 501.176 185.052 503.359 189.262 507.725V502.439ZM164.283 525.079C164.283 529.445 165.452 533 167.791 535.744C170.192 538.52 173.217 539.908 176.866 539.908C180.764 539.908 183.914 538.567 186.315 535.885C188.716 533.109 189.917 529.585 189.917 525.313C189.917 521.041 188.716 517.517 186.315 514.741C183.914 512.028 180.795 510.672 176.96 510.672C173.342 510.672 170.317 512.044 167.885 514.788C165.483 517.564 164.283 520.994 164.283 525.079ZM261.842 502.439H272.367V506.649C274.394 504.528 276.124 503.094 277.559 502.345C279.087 501.566 281.005 501.176 283.312 501.176C288.458 501.176 292.528 503.421 295.521 507.912C298.827 503.421 303.302 501.176 308.946 501.176C319.206 501.176 324.336 507.397 324.336 519.84V548H313.765V522.693C313.765 518.328 313.234 515.24 312.174 513.432C311.083 511.592 309.289 510.672 306.795 510.672C303.894 510.672 301.774 511.763 300.433 513.946C299.123 516.129 298.468 519.637 298.468 524.471V548H287.897V522.834C287.897 514.726 285.558 510.672 280.88 510.672C277.917 510.672 275.75 511.779 274.378 513.993C273.037 516.207 272.367 519.7 272.367 524.471V548H261.842V502.439ZM380.787 502.439H391.359V548H380.787V543.229C376.452 547.283 371.79 549.31 366.801 549.31C360.501 549.31 355.293 547.033 351.177 542.48C347.092 537.834 345.049 532.033 345.049 525.079C345.049 518.25 347.092 512.558 351.177 508.005C355.262 503.452 360.377 501.176 366.52 501.176C371.821 501.176 376.577 503.359 380.787 507.725V502.439ZM355.808 525.079C355.808 529.445 356.977 533 359.316 535.744C361.718 538.52 364.742 539.908 368.391 539.908C372.289 539.908 375.439 538.567 377.84 535.885C380.241 533.109 381.442 529.585 381.442 525.313C381.442 521.041 380.241 517.517 377.84 514.741C375.439 512.028 372.32 510.672 368.485 510.672C364.867 510.672 361.842 512.044 359.41 514.788C357.009 517.564 355.808 520.994 355.808 525.079ZM424.748 502.439V548H414.224V502.439H424.748ZM412.633 483.494C412.633 481.654 413.304 480.064 414.645 478.723C415.986 477.382 417.592 476.711 419.463 476.711C421.365 476.711 422.987 477.382 424.327 478.723C425.668 480.033 426.339 481.639 426.339 483.541C426.339 485.443 425.668 487.065 424.327 488.406C423.018 489.747 421.412 490.417 419.509 490.417C417.607 490.417 415.986 489.747 414.645 488.406C413.304 487.065 412.633 485.428 412.633 483.494Z" fill="#F7E7DE"/>
<path d="M869.167 568.792H858.642V498.439H869.167V503.397C873.315 499.25 878.024 497.176 883.294 497.176C889.562 497.176 894.723 499.484 898.777 504.099C902.894 508.683 904.952 514.468 904.952 521.453C904.952 528.283 902.909 533.974 898.824 538.527C894.77 543.049 889.656 545.31 883.481 545.31C878.148 545.31 873.377 543.174 869.167 538.901V568.792ZM894.193 521.5C894.193 517.134 893.008 513.579 890.638 510.835C888.237 508.06 885.212 506.672 881.563 506.672C877.696 506.672 874.562 508.013 872.161 510.695C869.76 513.377 868.559 516.9 868.559 521.266C868.559 525.539 869.76 529.062 872.161 531.838C874.531 534.551 877.649 535.908 881.516 535.908C885.165 535.908 888.174 534.535 890.544 531.791C892.977 529.047 894.193 525.617 894.193 521.5ZM923.513 520.892C923.513 514.312 925.867 508.714 930.576 504.099C935.285 499.484 941.023 497.176 947.79 497.176C954.589 497.176 960.358 499.499 965.098 504.146C969.776 508.792 972.114 514.499 972.114 521.266C972.114 528.096 969.76 533.818 965.051 538.434C960.311 543.018 954.495 545.31 947.603 545.31C940.774 545.31 935.051 542.971 930.436 538.293C925.821 533.678 923.513 527.877 923.513 520.892ZM934.272 521.079C934.272 525.632 935.488 529.234 937.92 531.885C940.415 534.567 943.705 535.908 947.79 535.908C951.907 535.908 955.197 534.582 957.66 531.931C960.124 529.281 961.356 525.741 961.356 521.313C961.356 516.885 960.124 513.345 957.66 510.695C955.165 508.013 951.875 506.672 947.79 506.672C943.767 506.672 940.509 508.013 938.014 510.695C935.519 513.377 934.272 516.838 934.272 521.079ZM992.874 498.439H1003.4V502.509C1005.33 500.482 1007.05 499.094 1008.54 498.345C1010.07 497.566 1011.88 497.176 1013.97 497.176C1016.75 497.176 1019.65 498.08 1022.67 499.889L1017.85 509.525C1015.86 508.091 1013.91 507.373 1012.01 507.373C1006.27 507.373 1003.4 511.708 1003.4 520.378V544H992.874V498.439ZM1052.6 508.262V544H1042.07V508.262H1037.58V498.439H1042.07V481.74L1052.6 481.74V498.439H1060.79V508.262H1052.6ZM1088.42 508.262V544H1077.85V508.262H1074.11V498.439H1077.85V480.851C1077.85 475.113 1078.85 471.059 1080.84 468.689C1083.59 465.383 1087.58 463.73 1092.82 463.73C1094.69 463.73 1097.04 464.276 1099.88 465.368V476.126L1098.81 475.565C1096.53 474.411 1094.66 473.834 1093.19 473.834C1091.32 473.834 1090.06 474.505 1089.4 475.846C1088.75 477.155 1088.42 479.681 1088.42 483.424V498.439H1099.88V508.262H1088.42ZM1114.61 520.892C1114.61 514.312 1116.96 508.714 1121.67 504.099C1126.38 499.484 1132.12 497.176 1138.88 497.176C1145.68 497.176 1151.45 499.499 1156.19 504.146C1160.87 508.792 1163.21 514.499 1163.21 521.266C1163.21 528.096 1160.85 533.818 1156.15 538.434C1151.41 543.018 1145.59 545.31 1138.7 545.31C1131.87 545.31 1126.15 542.971 1121.53 538.293C1116.91 533.678 1114.61 527.877 1114.61 520.892ZM1125.37 521.079C1125.37 525.632 1126.58 529.234 1129.01 531.885C1131.51 534.567 1134.8 535.908 1138.88 535.908C1143 535.908 1146.29 534.582 1148.75 531.931C1151.22 529.281 1152.45 525.741 1152.45 521.313C1152.45 516.885 1151.22 513.345 1148.75 510.695C1146.26 508.013 1142.97 506.672 1138.88 506.672C1134.86 506.672 1131.6 508.013 1129.11 510.695C1126.61 513.377 1125.37 516.838 1125.37 521.079ZM1194.49 464.993V544H1183.97V464.993H1194.49ZM1227.93 498.439V544H1217.4V498.439H1227.93ZM1215.81 479.494C1215.81 477.654 1216.48 476.064 1217.83 474.723C1219.17 473.382 1220.77 472.712 1222.64 472.712C1224.55 472.712 1226.17 473.382 1227.51 474.723C1228.85 476.033 1229.52 477.639 1229.52 479.541C1229.52 481.443 1228.85 483.065 1227.51 484.406C1226.2 485.747 1224.59 486.417 1222.69 486.417C1220.79 486.417 1219.17 485.747 1217.83 484.406C1216.48 483.065 1215.81 481.428 1215.81 479.494ZM1248.69 520.892C1248.69 514.312 1251.04 508.714 1255.75 504.099C1260.46 499.484 1266.2 497.176 1272.97 497.176C1279.76 497.176 1285.53 499.499 1290.27 504.146C1294.95 508.792 1297.29 514.499 1297.29 521.266C1297.29 528.096 1294.94 533.818 1290.23 538.434C1285.49 543.018 1279.67 545.31 1272.78 545.31C1265.95 545.31 1260.23 542.971 1255.61 538.293C1251 533.678 1248.69 527.877 1248.69 520.892ZM1259.45 521.079C1259.45 525.632 1260.66 529.234 1263.1 531.885C1265.59 534.567 1268.88 535.908 1272.97 535.908C1277.08 535.908 1280.37 534.582 1282.84 531.931C1285.3 529.281 1286.53 525.741 1286.53 521.313C1286.53 516.885 1285.3 513.345 1282.84 510.695C1280.34 508.013 1277.05 506.672 1272.97 506.672C1268.94 506.672 1265.68 508.013 1263.19 510.695C1260.7 513.377 1259.45 516.838 1259.45 521.079Z" fill="#F7E7DE"/>
</g>
<defs>
<clipPath id="clip0_315_544">
<rect width="311" height="307.951" fill="white" transform="translate(477 271)"/>
</clipPath>
<clipPath id="clip1_315_544">
<rect width="212.063" height="211.087" fill="white" transform="translate(529.98 316.569)"/>
</clipPath>
</defs>
</svg>
